<svg width="20" height="20" viewBox="0 0 20 20" fill="none" xmlns="http://www.w3.org/2000/svg">
<g id="Thumbs up">
<g id="Group">
<g id="Group_2">
<g id="Group_3">
<path id="Vector" d="M9.94821 2C9.3288 2 9.09331 2.49578 9.14125 3.45626C9.17308 4.08941 9.38633 5.85457 8.49269 6.74904C7.65927 7.58289 7.41687 7.50883 6.46724 8.58557C5.51798 9.66193 4.72675 9.44052 3.6191 9.34536C2.22763 9.22602 2.70168 16.9513 3.68238 16.8173C4.3785 16.7222 5.96097 16.5322 6.2141 16.5322C6.46724 16.5322 8.20312 17.8776 9.72691 17.8937C12.195 17.9194 13.5561 17.482 13.5561 17.482L14.2795 15.8404L14.5215 10.835L13.3659 8.42709C13.3659 8.42709 11.8153 8.68035 11.3723 7.98388C10.9293 7.28741 11.7205 6.43246 11.7205 4.43784C11.7205 2.44321 10.2646 2 9.94821 2Z" fill="url(#paint0_linear_2135_81150)"/>
<path id="Vector_2" d="M13.6424 17.4673L13.5485 17.1246C13.2704 17.0951 12.9126 17.2217 12.4239 17.2179C10.0901 17.1998 7.85909 16.5295 6.90179 15.7712C6.27471 15.2747 5.99971 14.6139 5.55673 14.8038C5.01019 15.0383 3.45955 15.4028 2.88923 14.6807C3.04878 15.9163 3.33336 16.8648 3.68238 16.8173C4.3785 16.7221 5.96097 16.5322 6.21411 16.5322C6.46724 16.5322 8.1548 17.8422 9.72692 17.8936C11.7608 17.96 13.5673 17.6097 13.5673 17.6097L13.6424 17.4673Z" fill="url(#paint1_linear_2135_81150)"/>
<path id="Vector_3" d="M4.60686 9.8331C5.52467 10.0864 6.10764 9.66733 6.5767 9.0971C7.0427 8.53071 7.44695 8.02841 8.61788 7.26862C9.78882 6.50884 9.63847 4.41904 9.54335 3.72257C9.44824 3.0261 9.51152 2 9.9476 2C9.32819 2 9.0927 2.49578 9.14064 3.45626C9.17248 4.08941 9.38572 5.85458 8.49208 6.74905C7.65866 7.5829 7.41626 7.50884 6.46663 8.58559C5.51738 9.66195 4.72614 9.44054 3.61849 9.34537C3.61888 9.58559 3.68906 9.57983 4.60686 9.8331Z" fill="url(#paint2_linear_2135_81150)"/>
<path id="Vector_4" d="M11.3716 7.98389C10.9286 7.28742 11.7199 6.43247 11.7199 4.43784C11.7199 2.44321 10.2644 2 9.94756 2C9.86433 2 9.79031 2.00921 9.72396 2.02686C11.0149 2.10783 11.7924 3.73676 11.3475 5.41635C10.9866 6.77936 10.8067 7.87222 11.3962 8.51305C11.7774 8.92786 12.5357 8.85726 13.3656 8.4271C13.3652 8.4271 11.8146 8.68036 11.3716 7.98389Z" fill="url(#paint3_linear_2135_81150)"/>
<path id="Vector_5" d="M11.4598 8.69458C10.7004 8.94784 8.78235 9.54377 7.32951 10.8619C3.64756 14.2023 9.93372 14.6209 11.232 17.4778C11.4801 18.0238 12.9307 14.614 12.9307 14.614L13.3997 13.8243L12.0443 10.213L11.4598 8.69458Z" fill="url(#paint4_linear_2135_81150)"/>
<path id="Vector_6" d="M11.5715 8.98413C10.8121 9.23739 7.70963 11.2259 7.70963 12.2079C7.70963 15.0417 9.8582 13.643 11.0196 16.9868C11.1803 17.45 11.7483 17.8395 11.7483 17.8395C12.2189 17.4554 12.9311 14.6142 12.9311 14.6142L13.4002 13.8245L12.0447 10.2132L11.5715 8.98413Z" fill="url(#paint5_linear_2135_81150)"/>
<path id="Vector_7" d="M13.3237 17.6696L14.7773 16.0069L15.0976 9.06094L11.459 8.69409C10.6236 9.14382 10.527 9.75894 10.8373 10.7467C10.9677 11.1622 10.4372 11.2812 10.4031 12.4919C10.3793 13.3311 10.9285 13.3349 10.9285 13.5844C10.9285 13.8338 10.6551 13.8115 10.5642 14.5341C10.4345 15.5679 11.2998 15.5878 11.2998 15.8088C11.2998 16.0299 10.8192 16.1611 10.8488 17.0038C10.8864 18.0725 8.9027 17.8564 7.56148 16.8841C7.01072 16.4846 6.53015 16.4435 6.15505 16.5341C6.17845 16.5329 6.19839 16.5322 6.21335 16.5322C6.46648 16.5322 8.1667 17.8937 9.72616 17.8937C11.5499 17.8937 12.8109 17.787 13.3237 17.6696Z" fill="url(#paint6_linear_2135_81150)"/>
<path id="Vector_8" d="M13.6577 9.15234C12.5344 9.15234 11.9173 10.2506 12.3445 11.0944C12.7718 11.9382 11.5533 13.0553 11.6798 13.6052C11.8064 14.155 12.0281 15.5468 12.2018 15.7771C12.376 16.0073 11.9169 16.5296 11.9169 16.5296L13.3409 16.7038L14.6699 16.1174L14.6223 12.0971L14.7646 9.57982L13.6577 9.15234Z" fill="url(#paint7_linear_2135_81150)"/>
<path id="Vector_9" d="M6.46749 8.5856C5.85076 9.28476 5.30077 9.43634 4.6875 9.43058C4.86431 9.71608 4.98743 10.0281 4.97477 10.3331C4.9414 11.1328 5.11744 12.1186 5.25207 11.0933C5.35447 10.3124 5.88375 9.34731 6.52042 8.52612C6.50316 8.54569 6.4859 8.56488 6.46749 8.5856Z" fill="url(#paint8_linear_2135_81150)"/>
<path id="Vector_10" d="M14.5092 8.39567C13.181 8.34502 10.7931 8.26981 10.7398 9.66199C10.7015 10.6716 11.4172 11.0027 12.524 11.045C13.6309 11.0872 14.1844 11.1083 14.6427 11.1255C15.101 11.1428 16.5431 11.1344 16.5573 9.91525C16.575 8.39222 14.5092 8.39567 14.5092 8.39567Z" fill="url(#paint9_linear_2135_81150)"/>
<path id="Vector_11" d="M12.3246 13.4283C11.9687 13.4179 10.9113 13.6846 10.8123 14.3565C10.7344 14.8849 11.0041 15.5676 11.9242 15.7287C13.0897 15.9329 15.032 16.0399 15.7576 15.7683C16.0817 15.647 16.3644 15.3074 16.3793 14.7928C16.3943 14.2782 16.0123 13.5848 15.1819 13.5607C14.3516 13.5369 13.9189 13.5495 13.4457 13.4935C12.8765 13.4267 12.6092 13.4367 12.3246 13.4283Z" fill="url(#paint10_linear_2135_81150)"/>
<path id="Vector_12" d="M11.9542 15.7766C11.5507 15.7766 11.0521 16.1327 11.0521 16.7263C11.0521 17.32 11.2063 17.7594 12.0727 17.9255C12.9391 18.0917 14.3275 17.9493 14.8495 17.7831C15.2564 17.6534 15.4071 17.2728 15.4071 16.6435C15.4071 16.0141 15.0159 15.904 14.5887 15.904C14.1614 15.904 13.6429 15.9819 13.3468 15.9666C12.5199 15.9228 12.3576 15.7766 11.9542 15.7766Z" fill="url(#paint11_linear_2135_81150)"/>
<path id="Vector_13" d="M14.3961 8.67656C13.2363 8.63244 11.151 8.56528 11.1092 9.66581C11.0789 10.464 11.7048 10.728 12.6713 10.7648C13.6378 10.8017 16.1807 10.8481 16.1891 9.88454C16.1995 8.6804 14.3961 8.67656 14.3961 8.67656Z" fill="url(#paint12_linear_2135_81150)"/>
<path id="Vector_14" d="M12.4316 13.7121C12.1217 13.7032 11.2542 13.7769 11.1709 14.4189C11.1145 14.8533 11.3397 15.4112 12.1409 15.5444C13.1561 15.7132 14.8467 15.8038 15.4784 15.5824C15.7603 15.4834 16.0062 15.2059 16.0181 14.7842C16.0303 14.3625 15.6418 13.8456 14.9192 13.8245C14.1966 13.8034 13.812 13.8706 13.3997 13.8237C12.9041 13.7681 12.6794 13.719 12.4316 13.7121Z" fill="url(#paint13_linear_2135_81150)"/>
<path id="Vector_15" d="M12.1263 15.9932C11.7773 15.9932 11.3462 16.2798 11.3462 16.7579C11.3462 17.2361 11.4797 17.5899 12.2291 17.7234C12.9785 17.8569 14.1794 17.7426 14.6312 17.6087C14.9829 17.5043 15.1137 17.1977 15.1137 16.6908C15.1137 16.1839 14.775 16.0956 14.4053 16.0956C14.0356 16.0956 13.5872 16.1586 13.331 16.1459C12.6153 16.111 12.475 15.9932 12.1263 15.9932Z" fill="url(#paint14_linear_2135_81150)"/>
<path id="Vector_16" d="M11.9138 9.66664C11.9425 8.90839 12.547 8.54499 13.3106 8.37769C12.0917 8.40608 10.7793 8.63402 10.7398 9.66204C10.7014 10.6716 11.4171 11.0028 12.524 11.045C12.6459 11.0496 12.7606 11.0542 12.8695 11.0581C12.2482 10.8762 11.8835 10.466 11.9138 9.66664Z" fill="url(#paint15_linear_2135_81150)"/>
<path id="Vector_17" d="M12.0178 8.51465C11.3086 8.66968 10.7648 9.00506 10.7398 9.66163C10.708 10.5008 11.1978 10.8712 11.9997 10.9966C10.3728 10.347 10.9565 8.74681 12.0178 8.51465Z" fill="url(#paint16_linear_2135_81150)"/>
<path id="Vector_18" d="M10.1292 16.4916C9.9417 16.9225 9.04921 16.9497 8.13562 16.5518C7.22204 16.1543 6.63369 15.4824 6.82124 15.051C7.00879 14.6201 7.90128 14.5929 8.81486 14.9908C9.72807 15.3887 10.3168 16.0606 10.1292 16.4916Z" fill="url(#paint17_radial_2135_81150)"/>
<path id="Vector_19" d="M15.5038 9.86999C15.4946 10.4525 14.716 10.7288 13.8642 10.7806C13.1677 10.8228 12.3945 10.3297 12.4144 9.76062C12.4344 9.19155 12.5356 8.68733 13.9831 8.7376C14.8361 8.76714 15.5126 9.30091 15.5038 9.86999Z" fill="url(#paint18_radial_2135_81150)"/>
<path id="Vector_20" d="M15.6582 14.9904C15.6532 15.797 14.7668 15.6424 13.915 15.6984C12.8349 15.7698 12.1189 15.4332 12.1185 14.8638C12.1177 14.2943 12.5285 13.8795 13.9771 13.8772C14.8305 13.8761 15.6643 13.9543 15.6582 14.9904Z" fill="url(#paint19_radial_2135_81150)"/>
<path id="Vector_21" d="M14.8772 17.0242C14.873 17.7118 14.0675 17.8055 13.3043 17.8058C12.5411 17.8066 11.7126 17.4018 11.7122 16.9163C11.7119 16.4309 12.0789 16.0771 13.3741 16.0752C14.137 16.0741 14.8825 16.1408 14.8772 17.0242Z" fill="url(#paint20_radial_2135_81150)"/>
<path id="Vector_22" d="M11.802 14.52C11.9232 13.6018 12.6274 13.6555 13.4348 13.5603C12.5054 13.4909 12.1154 13.4809 12.1154 13.4809C12.0287 13.4725 11.9317 13.4721 11.8308 13.4824C11.529 13.5488 11.1868 13.6862 10.9836 13.9441C10.9145 14.0423 10.8585 14.1582 10.8217 14.2956C10.8179 14.3155 10.814 14.3359 10.8117 14.3566C10.7462 14.8869 11.0035 15.5676 11.9236 15.7288C12.0563 15.7522 12.1994 15.7741 12.3493 15.7944C12.4211 15.8036 12.4993 15.8132 12.5833 15.824C12.6059 15.8266 12.6286 15.8293 12.6516 15.832C12.1438 15.5922 11.7127 15.195 11.802 14.52Z" fill="url(#paint21_linear_2135_81150)"/>
<path id="Vector_23" d="M12.0274 13.475C11.9648 13.4731 11.8985 13.4754 11.8306 13.4823C11.5261 13.5495 11.1809 13.6888 10.9788 13.9508C10.912 14.0475 10.8583 14.1619 10.8223 14.2958C10.8185 14.3158 10.8158 14.3357 10.8123 14.3564C10.7191 14.8787 10.9776 15.4942 11.7815 15.698C10.41 14.9413 10.9953 13.4758 12.0274 13.475Z" fill="url(#paint22_linear_2135_81150)"/>
<path id="Vector_24" d="M12.8259 15.9168C12.4205 15.8573 12.254 15.7764 11.9541 15.7764C11.5506 15.7764 11.052 16.1325 11.052 16.7261C11.052 16.9418 11.0727 17.1367 11.1399 17.3059C11.2081 17.4456 11.3075 17.5764 11.4436 17.687C11.5932 17.7913 11.7965 17.8723 12.0722 17.9253C12.2575 17.9609 12.4669 17.9821 12.6863 17.9924C12.2629 17.7464 11.5456 17.6141 11.696 16.7906C11.8621 15.8811 12.4048 16.0039 12.8259 15.9168Z" fill="url(#paint23_linear_2135_81150)"/>
<path id="Vector_25" d="M11.9361 15.7771C11.5361 15.7875 11.052 16.1416 11.052 16.7264C11.052 17.2702 11.1821 17.6846 11.8701 17.878C10.7954 17.1873 11.1402 16.0219 11.9361 15.7771Z" fill="url(#paint24_linear_2135_81150)"/>
<path id="Vector_26" d="M16.5568 9.91501C16.5583 9.77841 16.543 9.65446 16.5142 9.54126C16.6212 10.0171 16.1974 10.4898 15.074 10.7193C14.3296 10.8713 12.3525 11.0612 10.9844 10.5179C11.2797 10.8747 11.8232 11.0175 12.5235 11.0443C13.6304 11.0866 14.1838 11.1077 14.6422 11.1249C15.1005 11.143 16.5422 11.1341 16.5568 9.91501Z" fill="url(#paint25_linear_2135_81150)"/>
<path id="Vector_27" d="M16.3791 14.7608C16.3775 14.2497 15.9944 13.5847 15.1813 13.5612C14.3509 13.5375 13.9183 13.5501 13.445 13.4941C12.8762 13.4269 12.6089 13.4369 12.3243 13.4289C12.1092 13.4227 11.5784 13.4876 11.2174 13.7121C11.6232 13.8529 12.2844 14.0647 13.2149 14.0052C15.4444 13.8617 16.0788 14.1315 16.3791 14.7608Z" fill="url(#paint26_linear_2135_81150)"/>
<path id="Vector_28" d="M11.8469 11.1251C11.3725 11.1155 10.6188 11.3948 10.5993 12.3806C10.5797 13.3661 11.4415 13.6009 11.8212 13.6086C12.2009 13.6162 13.5284 13.7068 15.1657 13.7394C16.803 13.772 17.0224 12.8929 17.0316 12.4324C17.0408 11.9716 16.7489 11.1385 15.764 11.1186C12.9162 11.0614 11.8469 11.1251 11.8469 11.1251Z" fill="url(#paint27_linear_2135_81150)"/>
<path id="Vector_29" d="M12.1004 11.4107C11.6877 11.4027 11.0334 11.6168 11.0185 12.377C11.0031 13.1375 11.7529 13.3202 12.0828 13.3267C12.413 13.3332 13.5671 13.4057 14.9904 13.4341C16.4137 13.4625 16.6027 12.7849 16.6096 12.4292C16.6169 12.0738 16.5678 11.4307 15.7114 11.4134C13.2364 11.3643 12.1004 11.4107 12.1004 11.4107Z" fill="url(#paint28_linear_2135_81150)"/>
<path id="Vector_30" d="M11.6176 12.2855C11.6651 11.2736 12.3712 11.2705 13.1682 11.0959C12.2362 11.1017 11.8469 11.1247 11.8469 11.1247C11.3725 11.1151 10.6188 11.3945 10.5993 12.3803C10.5797 13.3657 11.4415 13.6006 11.8212 13.6082C11.9582 13.6109 12.2186 13.6243 12.5714 13.642C12.0452 13.4252 11.5827 13.0299 11.6176 12.2855Z" fill="url(#paint29_linear_2135_81150)"/>
<path id="Vector_31" d="M16.1969 12.3903C16.2299 13.1961 15.3351 13.3477 14.4825 13.3884C13.6299 13.4291 12.6822 12.9981 12.655 12.4295C12.6277 11.8608 13.0185 11.4272 14.4652 11.3569C15.3178 11.3159 16.1547 11.355 16.1969 12.3903Z" fill="url(#paint30_radial_2135_81150)"/>
<path id="Vector_32" d="M11.7583 11.1267C11.2843 11.152 10.6177 11.4544 10.5993 12.3804C10.5805 13.3174 11.3583 13.5757 11.7614 13.6052C10.2016 12.9755 10.7128 11.2196 11.7583 11.1267Z" fill="url(#paint31_linear_2135_81150)"/>
<path id="Vector_33" d="M17.0279 12.3328C16.8223 13.7909 12.9689 13.5239 10.8867 13.2107C11.1679 13.512 11.5859 13.6033 11.8202 13.6083C12.1999 13.6159 13.5274 13.7065 15.1647 13.7391C16.802 13.7717 17.0214 12.8926 17.0306 12.4322C17.031 12.4007 17.0302 12.3673 17.0279 12.3328Z" fill="url(#paint32_linear_2135_81150)"/>
<path id="Vector_34" d="M15.0985 15.5799C14.3521 15.6129 12.3773 15.8585 10.9375 15.0868C11.0982 15.3853 11.4093 15.639 11.9243 15.7291C13.0899 15.9333 15.0321 16.0403 15.7578 15.7687C16.0819 15.6474 16.3645 15.3078 16.3795 14.7932C16.3316 15.2406 15.9054 15.5442 15.0985 15.5799Z" fill="url(#paint33_linear_2135_81150)"/>
<path id="Vector_35" d="M15.3491 17.2002C14.8601 17.5724 14.0148 17.7923 12.7951 17.5862C12.0419 17.4588 11.5256 17.4155 11.1862 17.4063C11.322 17.6518 11.5839 17.8322 12.0718 17.9258C12.9382 18.092 14.3266 17.9496 14.8486 17.7835C15.1167 17.6975 15.2732 17.5026 15.3491 17.2002Z" fill="url(#paint34_linear_2135_81150)"/>
<path id="Vector_36" d="M11.2122 16.1922C12.1159 15.8629 12.5588 16.3514 13.5257 16.3514C14.5298 16.3514 15.0085 15.9458 15.3652 16.3315C15.2532 15.9758 14.9325 15.904 14.5885 15.904C14.1613 15.904 13.6427 15.9819 13.3462 15.9666C12.5193 15.9232 12.3575 15.7766 11.954 15.7766C11.6928 15.7766 11.3921 15.9259 11.2122 16.1922Z" fill="url(#paint35_linear_2135_81150)"/>
<path id="Vector_37" d="M3.68276 16.8174C4.37888 16.7222 5.96135 16.5322 6.21449 16.5322C3.91941 14.891 4.94 11.4002 5.78646 9.63469C5.90536 9.3868 5.97861 9.18342 6.01812 9.01074C5.2545 9.59324 4.54802 9.42517 3.6191 9.34535C2.22763 9.22601 2.70206 16.9513 3.68276 16.8174Z" fill="url(#paint36_linear_2135_81150)"/>
<path id="Vector_38" d="M5.12931 15.2313C4.8919 14.9148 5.09748 15.5955 5.28771 16.0863C5.44918 16.5038 4.21074 16.2571 3.26302 16.3595C3.38691 16.6653 3.52843 16.8384 3.68223 16.8173C4.37835 16.7221 5.96082 16.5322 6.21395 16.5322C5.85688 16.2287 5.36634 15.5479 5.12931 15.2313Z" fill="url(#paint37_linear_2135_81150)"/>
<path id="Vector_39" d="M6.21369 16.5328C6.01694 16.3651 5.77953 16.0826 5.5659 15.8098C5.5659 15.8098 4.41375 16.3996 3.17838 16.1222C3.32067 16.5734 3.49173 16.8436 3.68197 16.8175C4.37847 16.7227 5.96056 16.5328 6.21369 16.5328Z" fill="url(#paint38_linear_2135_81150)"/>
</g>
<path id="Vector_40" d="M10.5784 4.97248C10.1274 5.06995 9.76189 4.44677 9.55555 3.7196C9.3868 3.12482 9.61615 2.36733 10.0591 2.28215C10.5021 2.19657 10.911 2.19274 11.1553 3.45329C11.2987 4.19581 11.0195 4.87731 10.5784 4.97248Z" fill="url(#paint39_radial_2135_81150)"/>
</g>
<path id="Vector_41" d="M11.9357 15.7773C11.6875 15.8033 11.4628 15.9365 11.3082 16.1195C11.1513 16.3041 11.0781 16.5451 11.0942 16.7872C11.0957 17.0309 11.1326 17.2799 11.2706 17.4772C11.4075 17.6763 11.6377 17.7949 11.8697 17.8782C11.6304 17.8241 11.3799 17.7251 11.2196 17.5152C11.057 17.3076 11.0194 17.037 11.0114 16.7888C11.0006 16.5347 11.0815 16.2646 11.2607 16.0773C11.4344 15.8881 11.6852 15.7723 11.9357 15.7773Z" fill="#804B24"/>
<path id="Vector_42" d="M11.5374 13.5684C11.3741 13.6393 11.2233 13.7364 11.0987 13.8573C10.9717 13.9766 10.9042 14.1401 10.8578 14.3059L10.8582 14.3032C10.7984 14.6056 10.849 14.9275 11.0266 15.1789C11.1999 15.4337 11.4814 15.6002 11.7806 15.6977C11.4726 15.6382 11.1623 15.4882 10.9675 15.2207C10.8712 15.0891 10.8045 14.9352 10.7723 14.7744C10.7397 14.6136 10.7546 14.4456 10.7846 14.2886L10.7853 14.2859C10.834 14.1117 10.9207 13.9371 11.0638 13.8193C11.2007 13.6977 11.3687 13.6228 11.5374 13.5684Z" fill="#804B24"/>
<path id="Vector_43" d="M11.7583 11.1262C11.4649 11.1596 11.1811 11.2816 10.979 11.4869C10.7761 11.6922 10.6664 11.975 10.6487 12.2632C10.6192 12.5502 10.6656 12.8499 10.8298 13.0882C10.9916 13.3273 11.2563 13.4877 11.5393 13.5706C11.2494 13.5176 10.9609 13.3745 10.7776 13.1254C10.5904 12.8783 10.541 12.5548 10.5659 12.2563C10.5904 11.9562 10.7082 11.65 10.9345 11.4416C11.1585 11.231 11.4626 11.1293 11.7583 11.1262Z" fill="#804B24"/>
<path id="Vector_44" d="M12.0173 8.51465C11.7036 8.6006 11.3918 8.71918 11.1444 8.92294C10.8951 9.12555 10.7601 9.43829 10.7808 9.75871C10.7766 10.0768 10.8805 10.4015 11.1221 10.6121C11.3603 10.8255 11.6817 10.9291 11.9989 10.9966C11.6771 10.9586 11.3423 10.8781 11.0803 10.6601C10.8122 10.4452 10.6983 10.0891 10.698 9.75948C10.6807 9.42448 10.8314 9.07375 11.1045 8.87344C11.3722 8.66814 11.6971 8.57144 12.0173 8.51465Z" fill="#804B24"/>
<path id="Vector_45" d="M10.9373 15.0864C11.1533 15.4606 11.5683 15.6543 11.9783 15.7096C12.3955 15.7741 12.8159 15.8182 13.2374 15.8451C13.6581 15.8807 14.0804 15.903 14.5027 15.9015C14.7136 15.8988 14.925 15.8934 15.1348 15.8727C15.3446 15.8558 15.5563 15.8343 15.758 15.7679C15.3587 15.918 14.9257 15.9418 14.5038 15.9567C14.0797 15.9675 13.6551 15.9556 13.2317 15.9279C12.809 15.8915 12.3875 15.8381 11.9694 15.7641C11.7593 15.7296 11.5499 15.6643 11.3658 15.5523C11.1824 15.4391 11.0321 15.276 10.9373 15.0864Z" fill="#804B24"/>
<path id="Vector_46" d="M10.8867 13.2107C11.0486 13.3719 11.2568 13.4782 11.4743 13.5323C11.6906 13.5971 11.918 13.5829 12.1466 13.5933L13.5116 13.6328L14.8759 13.7C15.3284 13.7276 15.7891 13.7337 16.2229 13.5852C15.8002 13.7656 15.3254 13.7802 14.8747 13.7552L13.5097 13.7157L12.1455 13.6481C11.9211 13.6328 11.6852 13.6435 11.4632 13.571C11.2438 13.5023 11.0386 13.3815 10.8867 13.2107Z" fill="#804B24"/>
<path id="Vector_47" d="M15.7637 11.1184C15.4373 11.1191 15.1105 11.1283 14.7841 11.1253L13.8049 11.1272L12.8262 11.1406C12.5001 11.1425 12.1734 11.1445 11.8485 11.1575H11.8458C11.5248 11.1521 11.1923 11.2619 10.961 11.4917C10.7251 11.7193 10.6139 12.0504 10.599 12.3804C10.6016 12.2151 10.6193 12.0481 10.6699 11.8881C10.7213 11.7285 10.8091 11.5792 10.9284 11.4591C11.1662 11.2147 11.5091 11.0934 11.8474 11.0926H11.8447C12.4986 11.0531 13.1518 11.0527 13.8049 11.0631C14.4585 11.0704 15.1113 11.0827 15.7637 11.1184Z" fill="#804B24"/>
</g>
</g>
<defs>
<linearGradient id="paint0_linear_2135_81150" x1="13.4173" y1="9.81519" x2="8.65669" y2="10.0062" gradientUnits="userSpaceOnUse">
<stop offset="0.00132565" stop-color="#FFCB4B"/>
<stop offset="1" stop-color="#FFD748"/>
</linearGradient>
<linearGradient id="paint1_linear_2135_81150" x1="8.27885" y1="16.4164" x2="8.18313" y2="13.913" gradientUnits="userSpaceOnUse">
<stop offset="0.00132565" stop-color="#FFCB4B"/>
<stop offset="1" stop-color="#FFD748"/>
</linearGradient>
<linearGradient id="paint2_linear_2135_81150" x1="7.66797" y1="6.99233" x2="11.2542" y2="12.1198" gradientUnits="userSpaceOnUse">
<stop offset="0.00132565" stop-color="#FFCB4B"/>
<stop offset="1" stop-color="#FFD748"/>
</linearGradient>
<linearGradient id="paint3_linear_2135_81150" x1="5.07265" y1="4.94944" x2="14.2578" y2="5.63738" gradientUnits="userSpaceOnUse">
<stop offset="0.3118" stop-color="#FFBC47" stop-opacity="0"/>
<stop offset="1" stop-color="#FF8900"/>
</linearGradient>
<linearGradient id="paint4_linear_2135_81150" x1="4.89887" y1="13.1159" x2="16.9605" y2="13.1159" gradientUnits="userSpaceOnUse">
<stop stop-color="#FFBC47" stop-opacity="0"/>
<stop offset="1" stop-color="#FFA754"/>
</linearGradient>
<linearGradient id="paint5_linear_2135_81150" x1="2.95404" y1="13.1343" x2="26.783" y2="13.8934" gradientUnits="userSpaceOnUse">
<stop stop-color="#FFBC47" stop-opacity="0"/>
<stop offset="1" stop-color="#C86F34"/>
</linearGradient>
<linearGradient id="paint6_linear_2135_81150" x1="6.73977" y1="16.2479" x2="10.6805" y2="14.1125" gradientUnits="userSpaceOnUse">
<stop stop-color="#FFBC47" stop-opacity="0"/>
<stop offset="1" stop-color="#C86F34"/>
</linearGradient>
<linearGradient id="paint7_linear_2135_81150" x1="11.2536" y1="13.2161" x2="14.5397" y2="12.7845" gradientUnits="userSpaceOnUse">
<stop stop-color="#643800" stop-opacity="0"/>
<stop offset="1" stop-color="#643800"/>
</linearGradient>
<linearGradient id="paint8_linear_2135_81150" x1="5.42227" y1="5.96143" x2="6.13502" y2="17.7632" gradientUnits="userSpaceOnUse">
<stop stop-color="#FFBC47" stop-opacity="0"/>
<stop offset="1" stop-color="#FFA754"/>
</linearGradient>
<linearGradient id="paint9_linear_2135_81150" x1="16.3322" y1="9.7515" x2="11.6691" y2="9.7515" gradientUnits="userSpaceOnUse">
<stop offset="0.00132565" stop-color="#FFBC47"/>
<stop offset="1" stop-color="#FFD748"/>
</linearGradient>
<linearGradient id="paint10_linear_2135_81150" x1="16.3321" y1="14.6796" x2="11.6665" y2="14.6796" gradientUnits="userSpaceOnUse">
<stop offset="0.00132565" stop-color="#FFBC47"/>
<stop offset="1" stop-color="#FFD748"/>
</linearGradient>
<linearGradient id="paint11_linear_2135_81150" x1="16.3326" y1="16.888" x2="11.6696" y2="16.888" gradientUnits="userSpaceOnUse">
<stop offset="0.00132565" stop-color="#FFBC47"/>
<stop offset="1" stop-color="#FFD748"/>
</linearGradient>
<linearGradient id="paint12_linear_2135_81150" x1="11.0405" y1="9.77461" x2="13.4693" y2="9.71926" gradientUnits="userSpaceOnUse">
<stop offset="0.00132565" stop-color="#FFCB4B"/>
<stop offset="1" stop-color="#FFD748"/>
</linearGradient>
<linearGradient id="paint13_linear_2135_81150" x1="15.2879" y1="14.7125" x2="12.8121" y2="14.7125" gradientUnits="userSpaceOnUse">
<stop offset="0.00132565" stop-color="#FFCB4B"/>
<stop offset="1" stop-color="#FFD748"/>
</linearGradient>
<linearGradient id="paint14_linear_2135_81150" x1="15.2879" y1="16.8882" x2="12.8121" y2="16.8882" gradientUnits="userSpaceOnUse">
<stop offset="0.00132565" stop-color="#FFCB4B"/>
<stop offset="1" stop-color="#FFD748"/>
</linearGradient>
<linearGradient id="paint15_linear_2135_81150" x1="12.266" y1="9.7178" x2="10.945" y2="9.7178" gradientUnits="userSpaceOnUse">
<stop offset="0.00132565" stop-color="#FBA23B" stop-opacity="0"/>
<stop offset="1" stop-color="#FBA23B"/>
</linearGradient>
<linearGradient id="paint16_linear_2135_81150" x1="12.0284" y1="9.75572" x2="10.5092" y2="9.75572" gradientUnits="userSpaceOnUse">
<stop offset="0.00132565" stop-color="#FFBC47"/>
<stop offset="1" stop-color="#E89043"/>
</linearGradient>
<radialGradient id="paint17_radial_2135_81150" cx="0" cy="0" r="1" gradientUnits="userSpaceOnUse" gradientTransform="translate(8.35083 15.4393) rotate(23.5251) scale(1.85452 0.86103)">
<stop stop-color="#FBE07A"/>
<stop offset="1" stop-color="#FFD748" stop-opacity="0"/>
</radialGradient>
<radialGradient id="paint18_radial_2135_81150" cx="0" cy="0" r="1" gradientUnits="userSpaceOnUse" gradientTransform="translate(13.9614 9.76312) rotate(2.02718) scale(1.58676 1.04144)">
<stop stop-color="#FBE07A"/>
<stop offset="1" stop-color="#FFD748"/>
</radialGradient>
<radialGradient id="paint19_radial_2135_81150" cx="0" cy="0" r="1" gradientUnits="userSpaceOnUse" gradientTransform="translate(13.8843 14.8763) rotate(-0.0544055) scale(1.70408 0.91863)">
<stop stop-color="#FBE07A"/>
<stop offset="1" stop-color="#FFD748" stop-opacity="0"/>
</radialGradient>
<radialGradient id="paint20_radial_2135_81150" cx="0" cy="0" r="1" gradientUnits="userSpaceOnUse" gradientTransform="translate(13.2947 16.9416) rotate(-0.0539601) scale(1.56023 0.976505)">
<stop stop-color="#FBE07A"/>
<stop offset="1" stop-color="#FFD748" stop-opacity="0"/>
</radialGradient>
<linearGradient id="paint21_linear_2135_81150" x1="12.4234" y1="14.6532" x2="10.5088" y2="14.6532" gradientUnits="userSpaceOnUse">
<stop offset="0.00132565" stop-color="#FBA23B" stop-opacity="0"/>
<stop offset="1" stop-color="#FBA23B"/>
</linearGradient>
<linearGradient id="paint22_linear_2135_81150" x1="12.017" y1="14.5862" x2="10.9857" y2="14.5862" gradientUnits="userSpaceOnUse">
<stop offset="0.00132565" stop-color="#FFBC47"/>
<stop offset="1" stop-color="#FBA23B"/>
</linearGradient>
<linearGradient id="paint23_linear_2135_81150" x1="12.3552" y1="16.9007" x2="10.1162" y2="16.4895" gradientUnits="userSpaceOnUse">
<stop offset="0.00132565" stop-color="#FBA23B" stop-opacity="0"/>
<stop offset="1" stop-color="#FBA23B"/>
</linearGradient>
<linearGradient id="paint24_linear_2135_81150" x1="12.1236" y1="16.8275" x2="11.1773" y2="16.8275" gradientUnits="userSpaceOnUse">
<stop offset="0.00132565" stop-color="#FFBC47"/>
<stop offset="1" stop-color="#FBA23B"/>
</linearGradient>
<linearGradient id="paint25_linear_2135_81150" x1="13.6317" y1="9.45767" x2="14.2335" y2="12.3704" gradientUnits="userSpaceOnUse">
<stop stop-color="#FFBC47" stop-opacity="0"/>
<stop offset="1" stop-color="#C86F34"/>
</linearGradient>
<linearGradient id="paint26_linear_2135_81150" x1="14.0892" y1="15.213" x2="13.4325" y2="12.8438" gradientUnits="userSpaceOnUse">
<stop stop-color="#FFBC47" stop-opacity="0"/>
<stop offset="1" stop-color="#C86F34"/>
</linearGradient>
<linearGradient id="paint27_linear_2135_81150" x1="16.3327" y1="12.4173" x2="11.6697" y2="12.4173" gradientUnits="userSpaceOnUse">
<stop offset="0.00132565" stop-color="#FFBC47"/>
<stop offset="1" stop-color="#FFD748"/>
</linearGradient>
<linearGradient id="paint28_linear_2135_81150" x1="11.4804" y1="12.2869" x2="15.0524" y2="12.4174" gradientUnits="userSpaceOnUse">
<stop offset="0.00132565" stop-color="#FFCB4B"/>
<stop offset="0.7382" stop-color="#FFD748"/>
<stop offset="1" stop-color="#FFCB4B"/>
</linearGradient>
<linearGradient id="paint29_linear_2135_81150" x1="12.8755" y1="12.3691" x2="10.2068" y2="12.3691" gradientUnits="userSpaceOnUse">
<stop offset="0.00132565" stop-color="#FBA23B" stop-opacity="0"/>
<stop offset="1" stop-color="#FBA23B"/>
</linearGradient>
<radialGradient id="paint30_radial_2135_81150" cx="0" cy="0" r="1" gradientUnits="userSpaceOnUse" gradientTransform="translate(14.4241 12.3745) rotate(-2.73606) scale(1.74487 1.14527)">
<stop stop-color="#FBE07A"/>
<stop offset="1" stop-color="#FFD748" stop-opacity="0"/>
</radialGradient>
<linearGradient id="paint31_linear_2135_81150" x1="11.635" y1="12.3659" x2="10.7925" y2="12.3659" gradientUnits="userSpaceOnUse">
<stop offset="0.00132565" stop-color="#FFBC47"/>
<stop offset="1" stop-color="#FBA23B"/>
</linearGradient>
<linearGradient id="paint32_linear_2135_81150" x1="13.8531" y1="12.109" x2="14.36" y2="15.3305" gradientUnits="userSpaceOnUse">
<stop stop-color="#FFBC47" stop-opacity="0"/>
<stop offset="1" stop-color="#C86F34"/>
</linearGradient>
<linearGradient id="paint33_linear_2135_81150" x1="13.5028" y1="14.6012" x2="14.8014" y2="17.4186" gradientUnits="userSpaceOnUse">
<stop stop-color="#FFBC47" stop-opacity="0"/>
<stop offset="1" stop-color="#C86F34"/>
</linearGradient>
<linearGradient id="paint34_linear_2135_81150" x1="13.2432" y1="17.0727" x2="13.4333" y2="18.8536" gradientUnits="userSpaceOnUse">
<stop stop-color="#FFBC47" stop-opacity="0"/>
<stop offset="1" stop-color="#C86F34"/>
</linearGradient>
<linearGradient id="paint35_linear_2135_81150" x1="13.2888" y1="16.8025" x2="13.2888" y2="15.5143" gradientUnits="userSpaceOnUse">
<stop stop-color="#FFBC47" stop-opacity="0"/>
<stop offset="1" stop-color="#C86F34"/>
</linearGradient>
<linearGradient id="paint36_linear_2135_81150" x1="4.59099" y1="13.246" x2="0.553367" y2="19.3469" gradientUnits="userSpaceOnUse">
<stop stop-color="#C86F34" stop-opacity="0"/>
<stop offset="1" stop-color="#C86F34"/>
</linearGradient>
<linearGradient id="paint37_linear_2135_81150" x1="4.3239" y1="14.5954" x2="4.98909" y2="17.5635" gradientUnits="userSpaceOnUse">
<stop stop-color="#FFBC47" stop-opacity="0"/>
<stop offset="1" stop-color="#C86F34"/>
</linearGradient>
<linearGradient id="paint38_linear_2135_81150" x1="4.72682" y1="15.1524" x2="4.63179" y2="18.7855" gradientUnits="userSpaceOnUse">
<stop stop-color="#FFBC47" stop-opacity="0"/>
<stop offset="1" stop-color="#C86F34"/>
</linearGradient>
<radialGradient id="paint39_radial_2135_81150" cx="0" cy="0" r="1" gradientUnits="userSpaceOnUse" gradientTransform="translate(10.3613 3.61929) rotate(79.0714) scale(1.67307 0.98147)">
<stop stop-color="#FBE07A"/>
<stop offset="1" stop-color="#FFD748" stop-opacity="0"/>
</radialGradient>
</defs>
</svg>
