<svg width="20" height="20" viewBox="0 0 20 20" fill="none" xmlns="http://www.w3.org/2000/svg">
<g id="Loudly crying face">
<g id="Group">
<g id="Group_2">
<path id="Vector" opacity="0.75" d="M5.69974 16.75C5.53974 16.645 5.33474 16.63 5.16474 16.72C5.16474 16.72 5.16474 16.72 5.15974 16.72C4.39975 17.11 4.31475 16.16 3.61475 16.365C2.98476 16.55 1.58976 17.02 2.21476 17.455C2.68976 17.79 3.23975 17.42 3.58975 17.625C4.26475 18.015 4.22475 18.135 4.79475 17.95C5.87974 17.595 5.63974 18.01 6.41974 18.155C6.98474 18.26 7.65473 18.07 7.96973 17.75C7.15973 17.535 6.39474 17.195 5.69974 16.75Z" fill="url(#paint0_linear_2135_81079)"/>
</g>
<path id="Vector_2" d="M5.45566 16.585C5.36066 16.625 5.26566 16.67 5.16066 16.72C4.40066 17.11 4.34566 16.365 3.61566 16.365C2.94067 16.365 1.59067 17.02 2.21567 17.455C2.69067 17.79 3.24067 17.42 3.59066 17.625C4.26566 18.015 4.22566 18.135 4.79566 17.95C5.88065 17.595 5.64066 18.01 6.42065 18.155C6.98565 18.26 7.65565 18.07 7.97064 17.75C7.06065 17.51 6.21065 17.11 5.45566 16.585Z" fill="url(#paint1_linear_2135_81079)"/>
<g id="Group_3">
<path id="Vector_3" d="M9.99996 17.9999C14.4182 17.9999 17.9999 14.4182 17.9999 9.99996C17.9999 5.5817 14.4182 2 9.99996 2C5.5817 2 2 5.5817 2 9.99996C2 14.4182 5.5817 17.9999 9.99996 17.9999Z" fill="url(#paint2_radial_2135_81079)"/>
<path id="Vector_4" opacity="0.5" d="M18 9.99996C18 14.4199 14.42 17.9749 10 17.9999C5.61007 18.0199 2.02008 14.4349 2.00008 9.99996C1.98008 5.57998 5.58007 2 10 2C14.42 2 18 5.57998 18 9.99996Z" fill="url(#paint3_radial_2135_81079)"/>
<path id="Vector_5" d="M7.33504 8.61496C7.60004 8.34996 6.20505 8.45496 5.57005 8.86996C5.24006 9.08495 3.97006 9.23495 4.61006 15.9149C5.30506 16.5549 6.11505 17.0699 7.00005 17.4299C5.05506 12.7649 6.95505 8.99495 7.33504 8.61496Z" fill="url(#paint4_linear_2135_81079)"/>
</g>
<g id="Group_4">
<path id="Vector_6" d="M7.9598 15.7152C8.8848 15.3802 9.3548 15.1602 9.99979 15.1602C10.6448 15.1602 11.1198 15.3802 12.0398 15.7152C12.8998 16.0252 13.3798 15.3802 13.2848 14.4402C12.9498 12.4602 11.5098 10.9402 9.99979 10.9402C8.5348 10.9402 7.13481 12.3402 6.74481 14.2202C6.54481 15.2752 7.03481 16.0452 7.9598 15.7152Z" fill="url(#paint5_radial_2135_81079)"/>
<path id="Vector_7" d="M12.9795 13.3652C12.3945 11.9352 11.2195 10.9402 9.99951 10.9402C8.77952 10.9402 7.60453 11.9352 7.01953 13.3652C7.03453 13.3352 7.40953 12.5552 8.18452 12.7202C8.97452 12.8902 9.99951 12.9102 9.99951 12.9102C9.99951 12.9102 11.0195 12.8852 11.8145 12.7202C12.6095 12.5552 12.9795 13.3652 12.9795 13.3652Z" fill="url(#paint6_linear_2135_81079)"/>
</g>
<g id="Group_5">
<path id="Vector_8" d="M9.99968 12.425C10.6497 12.425 11.2997 12.395 11.9447 12.33C11.8847 12.26 11.8247 12.195 11.7597 12.13C11.2297 11.595 10.6047 11.3 9.99968 11.3C9.39468 11.3 8.76968 11.595 8.23969 12.13C8.17469 12.195 8.11469 12.26 8.05469 12.33C8.69968 12.395 9.34968 12.425 9.99968 12.425Z" fill="url(#paint7_radial_2135_81079)"/>
</g>
<path id="Vector_9" d="M10 13.8899C9.06505 13.8899 7.74505 14.2899 7.44005 15.4799C7.66505 15.4149 7.93005 15.3099 8.12505 15.2349C8.71005 15.0099 9.37004 14.7999 9.99504 14.7999C10.62 14.7999 11.28 15.0549 11.865 15.2849C12.06 15.3599 12.33 15.4649 12.555 15.5299C12.26 14.3149 10.935 13.8899 10 13.8899Z" fill="url(#paint8_radial_2135_81079)"/>
<path id="Vector_10" d="M5.07945 6.23476C5.09945 6.55476 5.45445 6.73476 6.04945 6.70476C6.55444 6.67476 7.64944 6.33476 8.35943 5.30977C8.48943 5.11977 8.26943 5.03477 8.13443 5.15977C7.68444 5.58476 6.45444 6.16976 5.46445 6.11476C5.06945 6.09476 5.07945 6.23476 5.07945 6.23476Z" fill="url(#paint9_linear_2135_81079)"/>
<path id="Vector_11" d="M6.84503 7.6301C6.84503 7.6301 8.29002 7.5551 8.86002 8.49009C8.89502 8.55009 8.92002 8.61509 8.93002 8.68009C8.95002 8.81509 8.84502 8.97009 8.57002 8.88009C6.87003 8.31509 6.00003 8.73009 5.34004 9.03009C5.08504 9.14509 4.80004 8.90009 4.89504 8.69009C5.36504 7.6301 6.84503 7.6301 6.84503 7.6301Z" fill="url(#paint10_radial_2135_81079)"/>
<path id="Vector_12" d="M6.84551 7.6301C6.84551 7.6301 8.2905 7.5551 8.8605 8.49009C8.8805 8.52509 8.9005 8.56009 8.9105 8.60009C8.05051 7.88509 6.87051 7.95009 6.87051 7.95009C6.87051 7.95009 5.77052 7.89009 4.95052 8.58009C5.47052 7.6301 6.84551 7.6301 6.84551 7.6301Z" fill="url(#paint11_linear_2135_81079)"/>
<path id="Vector_13" d="M14.92 6.23501C14.9 6.555 14.545 6.735 13.95 6.705C13.445 6.675 12.35 6.33501 11.64 5.31001C11.51 5.12001 11.73 5.03501 11.865 5.16001C12.315 5.58501 13.545 6.17001 14.535 6.11501C14.93 6.09501 14.92 6.23501 14.92 6.23501Z" fill="url(#paint12_linear_2135_81079)"/>
<path id="Vector_14" d="M13.155 7.6301C13.155 7.6301 11.71 7.5551 11.1401 8.49009C11.1051 8.55009 11.0801 8.61509 11.0701 8.68009C11.0501 8.81509 11.1551 8.97009 11.4301 8.88009C13.13 8.31509 14 8.73009 14.66 9.03009C14.915 9.14509 15.2 8.90009 15.105 8.69009C14.635 7.6301 13.155 7.6301 13.155 7.6301Z" fill="url(#paint13_radial_2135_81079)"/>
<path id="Vector_15" d="M13.1548 7.6301C13.1548 7.6301 11.7098 7.5551 11.1398 8.49009C11.1198 8.52509 11.0998 8.56009 11.0898 8.60009C11.9498 7.88509 13.1298 7.95009 13.1298 7.95009C13.1298 7.95009 14.2298 7.89009 15.0498 8.58009C14.5298 7.6301 13.1548 7.6301 13.1548 7.6301Z" fill="url(#paint14_linear_2135_81079)"/>
<path id="Vector_16" d="M4.08544 17.4649C3.71044 8.96499 5.18044 8.92499 5.55543 8.72499C6.22043 8.36499 7.38542 8.23999 7.33543 8.61499C7.28043 9.03499 5.08544 9.43998 6.06043 17.4649" fill="url(#paint15_linear_2135_81079)"/>
<g id="Group_6">
<path id="Vector_17" opacity="0.75" d="M5.70066 16.7501C5.54066 16.6451 5.33566 16.6301 5.16566 16.7201C5.16566 16.7201 5.16566 16.7201 5.16066 16.7201C4.40067 17.1101 4.34567 16.3751 3.61567 16.3651C2.99068 16.3551 1.59068 17.0201 2.21568 17.4551C2.69068 17.7901 3.24067 17.4201 3.59067 17.6251C4.26567 18.0151 4.22567 18.1351 4.79567 17.9501C5.88066 17.5951 5.64066 18.0101 6.42066 18.1551C6.98565 18.2601 7.65565 18.0701 7.97065 17.7501C7.16065 17.5351 6.39566 17.1951 5.70066 16.7501Z" fill="url(#paint16_linear_2135_81079)"/>
</g>
<path id="Vector_18" opacity="0.65" d="M4.08544 17.4649C3.71044 8.96499 5.18044 8.92499 5.55543 8.72499C6.22043 8.36499 7.38542 8.23999 7.33543 8.61499C7.28043 9.03499 5.08544 9.43998 6.06043 17.4649" fill="url(#paint17_linear_2135_81079)"/>
<path id="Vector_19" opacity="0.75" d="M4.08544 17.4649C3.71044 8.96499 5.18044 8.92499 5.55543 8.72499C6.22043 8.36499 7.38542 8.23999 7.33543 8.61499C7.28043 9.03499 5.08544 9.43998 6.06043 17.4649" fill="url(#paint18_linear_2135_81079)"/>
<path id="Vector_20" d="M4.08544 17.4649C3.71044 8.96499 5.18044 8.92499 5.55543 8.72499C6.22043 8.36499 7.38542 8.23999 7.33543 8.61499C7.28043 9.03499 5.08544 9.43998 6.06043 17.4649" fill="url(#paint19_linear_2135_81079)"/>
<g id="Group_7">
<path id="Vector_21" opacity="0.75" d="M14.3 16.75C14.46 16.645 14.665 16.63 14.835 16.72C14.835 16.72 14.835 16.72 14.84 16.72C15.6 17.11 15.685 16.16 16.385 16.365C17.015 16.55 18.41 17.02 17.785 17.455C17.31 17.79 16.76 17.42 16.41 17.625C15.735 18.015 15.775 18.135 15.205 17.95C14.12 17.595 14.36 18.01 13.5801 18.155C13.0151 18.26 12.3451 18.07 12.0301 17.75C12.8401 17.535 13.6051 17.195 14.3 16.75Z" fill="url(#paint20_linear_2135_81079)"/>
</g>
<path id="Vector_22" d="M14.545 16.585C14.64 16.625 14.735 16.67 14.84 16.72C15.6 17.11 15.655 16.365 16.385 16.365C17.06 16.365 18.41 17.02 17.785 17.455C17.31 17.79 16.76 17.42 16.41 17.625C15.735 18.015 15.775 18.135 15.205 17.95C14.12 17.595 14.36 18.01 13.5801 18.155C13.0151 18.26 12.3451 18.07 12.0301 17.75C12.9401 17.51 13.7901 17.11 14.545 16.585Z" fill="url(#paint21_linear_2135_81079)"/>
<g id="Group_8">
<path id="Vector_23" d="M12.6646 8.61496C12.3996 8.34996 13.7946 8.45496 14.4296 8.86996C14.7596 9.08495 16.0296 9.23495 15.3896 15.9149C14.6946 16.5549 13.8846 17.0699 12.9996 17.4299C14.9446 12.7649 13.0446 8.99495 12.6646 8.61496Z" fill="url(#paint22_linear_2135_81079)"/>
</g>
<path id="Vector_24" d="M15.9156 17.4649C16.2906 8.96499 14.8206 8.92499 14.4456 8.72499C13.7806 8.36499 12.6156 8.23999 12.6656 8.61499C12.7206 9.03499 14.9156 9.43998 13.9406 17.4649" fill="url(#paint23_linear_2135_81079)"/>
<g id="Group_9">
<path id="Vector_25" opacity="0.75" d="M14.3 16.7499C14.46 16.6449 14.665 16.6299 14.835 16.7199C14.835 16.7199 14.835 16.7199 14.84 16.7199C15.6 17.1099 15.655 16.3749 16.385 16.3649C17.01 16.3549 18.41 17.0199 17.785 17.4549C17.31 17.7898 16.76 17.4199 16.41 17.6249C15.735 18.0148 15.775 18.1348 15.205 17.9498C14.12 17.5949 14.36 18.0098 13.5801 18.1548C13.0151 18.2598 12.3451 18.0698 12.0301 17.7498C12.8401 17.5349 13.6051 17.1949 14.3 16.7499Z" fill="url(#paint24_linear_2135_81079)"/>
</g>
<path id="Vector_26" opacity="0.65" d="M15.9156 17.4649C16.2906 8.96499 14.8206 8.92499 14.4456 8.72499C13.7806 8.36499 12.6156 8.23999 12.6656 8.61499C12.7206 9.03499 14.9156 9.43998 13.9406 17.4649" fill="url(#paint25_linear_2135_81079)"/>
<path id="Vector_27" opacity="0.75" d="M15.9156 17.4649C16.2906 8.96499 14.8206 8.92499 14.4456 8.72499C13.7806 8.36499 12.6156 8.23999 12.6656 8.61499C12.7206 9.03499 14.9156 9.43998 13.9406 17.4649" fill="url(#paint26_linear_2135_81079)"/>
<path id="Vector_28" d="M15.9156 17.4649C16.2906 8.96499 14.8206 8.92499 14.4456 8.72499C13.7806 8.36499 12.6156 8.23999 12.6656 8.61499C12.7206 9.03499 14.9156 9.43998 13.9406 17.4649" fill="url(#paint27_linear_2135_81079)"/>
<path id="Vector_29" opacity="0.5" d="M18 9.99996C18 14.4199 14.42 17.9749 10 17.9999C5.61007 18.0199 2.02008 14.4349 2.00008 9.99996C1.98008 5.57998 5.58007 2 10 2C14.42 2 18 5.57998 18 9.99996Z" fill="url(#paint28_radial_2135_81079)"/>
</g>
</g>
<defs>
<linearGradient id="paint0_linear_2135_81079" x1="6.94323" y1="17.2784" x2="4.5028" y2="17.2483" gradientUnits="userSpaceOnUse">
<stop stop-color="#3640FF" stop-opacity="0.5"/>
<stop offset="0.0308253" stop-color="#3444FD" stop-opacity="0.4846"/>
<stop offset="0.469" stop-color="#1872E8" stop-opacity="0.2655"/>
<stop offset="0.8064" stop-color="#068EDB" stop-opacity="0.0968231"/>
<stop offset="1" stop-color="#0099D6" stop-opacity="0"/>
</linearGradient>
<linearGradient id="paint1_linear_2135_81079" x1="4.87" y1="16.1348" x2="5.0064" y2="17.3939" gradientUnits="userSpaceOnUse">
<stop stop-color="#B0E9FF"/>
<stop offset="0.2885" stop-color="#7BD9FF"/>
<stop offset="0.6184" stop-color="#45C9FE"/>
<stop offset="0.8656" stop-color="#24BFFE"/>
<stop offset="1" stop-color="#17BBFE"/>
</linearGradient>
<radialGradient id="paint2_radial_2135_81079" cx="0" cy="0" r="1" gradientUnits="userSpaceOnUse" gradientTransform="translate(8.42605 6.75785) scale(9.65091 9.65091)">
<stop stop-color="#FFE030"/>
<stop offset="1" stop-color="#FFB92E"/>
</radialGradient>
<radialGradient id="paint3_radial_2135_81079" cx="0" cy="0" r="1" gradientUnits="userSpaceOnUse" gradientTransform="translate(8.42607 6.75788) scale(7.59285)">
<stop stop-color="#FFEA5F"/>
<stop offset="1" stop-color="#FFBC47" stop-opacity="0"/>
</radialGradient>
<linearGradient id="paint4_linear_2135_81079" x1="9.24161" y1="13.0338" x2="2.194" y2="12.7492" gradientUnits="userSpaceOnUse">
<stop stop-color="#FF9D00" stop-opacity="0"/>
<stop offset="1" stop-color="#FF8000"/>
</linearGradient>
<radialGradient id="paint5_radial_2135_81079" cx="0" cy="0" r="1" gradientUnits="userSpaceOnUse" gradientTransform="translate(9.72245 13.4123) scale(2.13131 2.13131)">
<stop offset="0.00132565" stop-color="#7A4400"/>
<stop offset="1" stop-color="#643800"/>
</radialGradient>
<linearGradient id="paint6_linear_2135_81079" x1="7.02076" y1="12.1512" x2="12.979" y2="12.1512" gradientUnits="userSpaceOnUse">
<stop offset="0.00132565" stop-color="#3C2200"/>
<stop offset="1" stop-color="#512D00"/>
</linearGradient>
<radialGradient id="paint7_radial_2135_81079" cx="0" cy="0" r="1" gradientUnits="userSpaceOnUse" gradientTransform="translate(9.93831 11.9723) scale(2.10439 2.10439)">
<stop offset="0.00132565" stop-color="white"/>
<stop offset="1" stop-color="#A9BCBE"/>
</radialGradient>
<radialGradient id="paint8_radial_2135_81079" cx="0" cy="0" r="1" gradientUnits="userSpaceOnUse" gradientTransform="translate(10.001 14.5394) scale(2.27393 0.579676)">
<stop stop-color="#FF0000"/>
<stop offset="1" stop-color="#C20000"/>
</radialGradient>
<linearGradient id="paint9_linear_2135_81079" x1="6.77276" y1="7.10512" x2="6.74776" y2="6.01346" gradientUnits="userSpaceOnUse">
<stop offset="0.00132565" stop-color="#3C2200"/>
<stop offset="1" stop-color="#7A4400"/>
</linearGradient>
<radialGradient id="paint10_radial_2135_81079" cx="0" cy="0" r="1" gradientUnits="userSpaceOnUse" gradientTransform="translate(6.87123 8.31229) rotate(-2.88189) scale(1.54645 0.687169)">
<stop offset="0.00132565" stop-color="#7A4400"/>
<stop offset="1" stop-color="#643800"/>
</radialGradient>
<linearGradient id="paint11_linear_2135_81079" x1="6.92952" y1="6.6078" x2="6.92952" y2="8.62008" gradientUnits="userSpaceOnUse">
<stop offset="0.00132565" stop-color="#3C2200"/>
<stop offset="1" stop-color="#512D00"/>
</linearGradient>
<linearGradient id="paint12_linear_2135_81079" x1="13.2268" y1="7.10537" x2="13.2518" y2="6.01371" gradientUnits="userSpaceOnUse">
<stop offset="0.00132565" stop-color="#3C2200"/>
<stop offset="1" stop-color="#7A4400"/>
</linearGradient>
<radialGradient id="paint13_radial_2135_81079" cx="0" cy="0" r="1" gradientUnits="userSpaceOnUse" gradientTransform="translate(13.1277 8.31234) rotate(-177.118) scale(1.54645 0.687169)">
<stop offset="0.00132565" stop-color="#7A4400"/>
<stop offset="1" stop-color="#643800"/>
</radialGradient>
<linearGradient id="paint14_linear_2135_81079" x1="13.0709" y1="6.6078" x2="13.0709" y2="8.62008" gradientUnits="userSpaceOnUse">
<stop offset="0.00132565" stop-color="#3C2200"/>
<stop offset="1" stop-color="#512D00"/>
</linearGradient>
<linearGradient id="paint15_linear_2135_81079" x1="5.02526" y1="5.4505" x2="6.17796" y2="18.1618" gradientUnits="userSpaceOnUse">
<stop stop-color="#B0E9FF"/>
<stop offset="0.3331" stop-color="#B0E9FF"/>
<stop offset="0.4126" stop-color="#7BD9FF"/>
<stop offset="0.5034" stop-color="#45C9FE"/>
<stop offset="0.5715" stop-color="#24BFFE"/>
<stop offset="0.6085" stop-color="#17BBFE"/>
<stop offset="0.8891" stop-color="#17BBFE"/>
</linearGradient>
<linearGradient id="paint16_linear_2135_81079" x1="6.14112" y1="17.88" x2="4.01614" y2="17.13" gradientUnits="userSpaceOnUse">
<stop stop-color="#3640FF" stop-opacity="0.5"/>
<stop offset="0.0308253" stop-color="#3444FD" stop-opacity="0.4846"/>
<stop offset="0.469" stop-color="#1872E8" stop-opacity="0.2655"/>
<stop offset="0.8064" stop-color="#068EDB" stop-opacity="0.0968231"/>
<stop offset="1" stop-color="#0099D6" stop-opacity="0"/>
</linearGradient>
<linearGradient id="paint17_linear_2135_81079" x1="6.16588" y1="9.38258" x2="5.23255" y2="13.9492" gradientUnits="userSpaceOnUse">
<stop stop-color="white" stop-opacity="0"/>
<stop offset="0.5" stop-color="white" stop-opacity="0.5"/>
<stop offset="1" stop-color="white" stop-opacity="0"/>
</linearGradient>
<linearGradient id="paint18_linear_2135_81079" x1="5.82571" y1="14.7677" x2="5.97571" y2="17.0677" gradientUnits="userSpaceOnUse">
<stop stop-color="white" stop-opacity="0"/>
<stop offset="0.5" stop-color="white" stop-opacity="0.5"/>
<stop offset="1" stop-color="white" stop-opacity="0"/>
</linearGradient>
<linearGradient id="paint19_linear_2135_81079" x1="5.68172" y1="15.8804" x2="5.68172" y2="7.81377" gradientUnits="userSpaceOnUse">
<stop stop-color="#17BBFE" stop-opacity="0"/>
<stop offset="0.5" stop-color="#0099D6" stop-opacity="0.5"/>
<stop offset="1" stop-color="#0099D6" stop-opacity="0"/>
</linearGradient>
<linearGradient id="paint20_linear_2135_81079" x1="13.0568" y1="17.2784" x2="15.4972" y2="17.2483" gradientUnits="userSpaceOnUse">
<stop stop-color="#3640FF" stop-opacity="0.5"/>
<stop offset="0.0308253" stop-color="#3444FD" stop-opacity="0.4846"/>
<stop offset="0.469" stop-color="#1872E8" stop-opacity="0.2655"/>
<stop offset="0.8064" stop-color="#068EDB" stop-opacity="0.0968231"/>
<stop offset="1" stop-color="#0099D6" stop-opacity="0"/>
</linearGradient>
<linearGradient id="paint21_linear_2135_81079" x1="15.1309" y1="16.1348" x2="14.9945" y2="17.3939" gradientUnits="userSpaceOnUse">
<stop stop-color="#B0E9FF"/>
<stop offset="0.2885" stop-color="#7BD9FF"/>
<stop offset="0.6184" stop-color="#45C9FE"/>
<stop offset="0.8656" stop-color="#24BFFE"/>
<stop offset="1" stop-color="#17BBFE"/>
</linearGradient>
<linearGradient id="paint22_linear_2135_81079" x1="10.7582" y1="13.0338" x2="17.8058" y2="12.7492" gradientUnits="userSpaceOnUse">
<stop stop-color="#FF9D00" stop-opacity="0"/>
<stop offset="1" stop-color="#FF8000"/>
</linearGradient>
<linearGradient id="paint23_linear_2135_81079" x1="14.976" y1="5.45051" x2="13.8233" y2="18.1618" gradientUnits="userSpaceOnUse">
<stop stop-color="#B0E9FF"/>
<stop offset="0.3331" stop-color="#B0E9FF"/>
<stop offset="0.4126" stop-color="#7BD9FF"/>
<stop offset="0.5034" stop-color="#45C9FE"/>
<stop offset="0.5715" stop-color="#24BFFE"/>
<stop offset="0.6085" stop-color="#17BBFE"/>
<stop offset="0.8891" stop-color="#17BBFE"/>
</linearGradient>
<linearGradient id="paint24_linear_2135_81079" x1="13.8598" y1="17.8798" x2="15.9848" y2="17.1298" gradientUnits="userSpaceOnUse">
<stop stop-color="#3640FF" stop-opacity="0.5"/>
<stop offset="0.0308253" stop-color="#3444FD" stop-opacity="0.4846"/>
<stop offset="0.469" stop-color="#1872E8" stop-opacity="0.2655"/>
<stop offset="0.8064" stop-color="#068EDB" stop-opacity="0.0968231"/>
<stop offset="1" stop-color="#0099D6" stop-opacity="0"/>
</linearGradient>
<linearGradient id="paint25_linear_2135_81079" x1="13.8354" y1="9.38259" x2="14.7687" y2="13.9492" gradientUnits="userSpaceOnUse">
<stop stop-color="white" stop-opacity="0"/>
<stop offset="0.5" stop-color="white" stop-opacity="0.5"/>
<stop offset="1" stop-color="white" stop-opacity="0"/>
</linearGradient>
<linearGradient id="paint26_linear_2135_81079" x1="14.1755" y1="14.7677" x2="14.0255" y2="17.0677" gradientUnits="userSpaceOnUse">
<stop stop-color="white" stop-opacity="0"/>
<stop offset="0.5" stop-color="white" stop-opacity="0.5"/>
<stop offset="1" stop-color="white" stop-opacity="0"/>
</linearGradient>
<linearGradient id="paint27_linear_2135_81079" x1="14.3195" y1="15.8804" x2="14.3195" y2="7.81379" gradientUnits="userSpaceOnUse">
<stop stop-color="#17BBFE" stop-opacity="0"/>
<stop offset="0.5" stop-color="#0099D6" stop-opacity="0.5"/>
<stop offset="1" stop-color="#0099D6" stop-opacity="0"/>
</linearGradient>
<radialGradient id="paint28_radial_2135_81079" cx="0" cy="0" r="1" gradientUnits="userSpaceOnUse" gradientTransform="translate(10.0689 16.5197) rotate(-90) scale(1.06666 3.33256)">
<stop stop-color="#A3541E" stop-opacity="0.5"/>
<stop offset="0.283" stop-color="#B26126" stop-opacity="0.3578"/>
<stop offset="0.8286" stop-color="#DA843C" stop-opacity="0.0836319"/>
<stop offset="0.995" stop-color="#E89043" stop-opacity="0"/>
</radialGradient>
</defs>
</svg>
