<svg width="19" height="19" viewBox="0 0 19 19" fill="none" xmlns="http://www.w3.org/2000/svg">
<g id="Group 8737">
<g id="Group 8735">
<path id="Vector 55" d="M4.25 4.83301H10.9167" stroke="#101114" stroke-width="1.5" stroke-linecap="round"/>
<path id="Vector 58" d="M4.25 9L6.75 9" stroke="#101114" stroke-width="1.5" stroke-linecap="round"/>
<path id="Vector 612" d="M4.25 13.167L6.75 13.167" stroke="#101114" stroke-width="1.5" stroke-linecap="round"/>
<path id="Vector 611" d="M5.9165 16.5H3.9165C2.25965 16.5 0.916504 15.1569 0.916504 13.5V4.5C0.916504 2.84315 2.25965 1.5 3.9165 1.5H12.4998C14.1567 1.5 15.4998 2.84315 15.4998 4.5V4.83333" stroke="#101114" stroke-width="1.5" stroke-linecap="round"/>
</g>
<g id="Group 8736">
<path id="Ellipse 86" d="M13.4167 17.3333C14.3806 17.3333 15.3148 16.9991 16.06 16.3875C16.8051 15.776 17.3152 14.925 17.5033 13.9795C17.6913 13.0341 17.5458 12.0527 17.0913 11.2025C16.6369 10.3524 15.9018 9.68607 15.0112 9.31717C14.1206 8.94827 13.1296 8.89959 12.2071 9.17942C11.2847 9.45924 10.4878 10.0503 9.95221 10.8518C9.41665 11.6533 9.17558 12.6157 9.27006 13.5751C9.36455 14.5344 9.78875 15.4313 10.4704 16.1129" stroke="#101114" stroke-width="1.5" stroke-linecap="round"/>
<path id="Vector 113" d="M15.2686 12.2412L14.2112 13.5101C13.6942 14.1304 13.4357 14.4406 13.1015 14.5142C12.9897 14.5388 12.8745 14.544 12.7608 14.5296C12.4214 14.4866 12.1359 14.2011 11.5648 13.6301V13.6301" stroke="#101114" stroke-width="1.5" stroke-linecap="round" stroke-linejoin="round"/>
</g>
</g>
</svg>
