<svg width="250" height="250" viewBox="0 0 250 250" fill="none" xmlns="http://www.w3.org/2000/svg">
<mask id="mask0_41_11202" style="mask-type:alpha" maskUnits="userSpaceOnUse" x="13" y="22" width="225" height="180">
<rect x="13" y="22" width="225" height="180" fill="url(#paint0_linear_41_11202)"/>
</mask>
<g mask="url(#mask0_41_11202)">
<g filter="url(#filter0_i_41_11202)">
<path d="M33 56C33 38.3269 47.3269 24 65 24H187C204.673 24 219 38.3269 219 56V288H33V56Z" fill="#F9FAFB"/>
</g>
<path d="M45 60C45 46.7452 55.7452 36 69 36H183C196.255 36 207 46.7452 207 60V288H45V60Z" fill="white"/>
</g>
<g filter="url(#filter1_i_41_11202)">
<path fill-rule="evenodd" clip-rule="evenodd" d="M148.073 132.668C136.788 143.952 118.493 143.952 107.209 132.668C95.9245 121.384 95.9245 103.089 107.209 91.8044C118.493 80.5201 136.788 80.5201 148.073 91.8044C159.357 103.089 159.357 121.384 148.073 132.668ZM103.707 148.115C120.464 159.318 143.336 157.522 158.131 142.727C174.971 125.887 174.971 98.5851 158.131 81.7456C141.292 64.906 113.989 64.906 97.1499 81.7456C82.1333 96.7622 80.5077 120.099 92.2731 136.917L71.06 158.13C67.9351 161.255 67.9351 166.321 71.06 169.446C74.1848 172.571 79.2512 172.571 82.3761 169.446L103.707 148.115Z" fill="#F8F9FB"/>
</g>
<g filter="url(#filter2_i_41_11202)">
<path d="M119.855 110H118.917V102.5H120.563L127.438 109.062V102.5H128.375V110H127.125L119.855 103.281V110ZM129.676 107.148C129.676 106.572 129.738 106.095 129.862 105.718C129.986 105.34 130.184 105.041 130.458 104.819C130.731 104.598 131.086 104.443 131.522 104.355C131.958 104.264 132.489 104.219 133.114 104.219C133.739 104.219 134.27 104.264 134.706 104.355C135.142 104.443 135.497 104.598 135.77 104.819C136.044 105.041 136.242 105.34 136.366 105.718C136.49 106.095 136.551 106.572 136.551 107.148C136.551 107.725 136.49 108.203 136.366 108.584C136.242 108.965 136.044 109.268 135.77 109.492C135.497 109.717 135.142 109.876 134.706 109.971C134.27 110.062 133.739 110.107 133.114 110.107C132.489 110.107 131.958 110.062 131.522 109.971C131.086 109.876 130.731 109.717 130.458 109.492C130.184 109.268 129.986 108.965 129.862 108.584C129.738 108.203 129.676 107.725 129.676 107.148ZM130.614 107.148C130.614 107.461 130.625 107.733 130.648 107.964C130.671 108.195 130.713 108.394 130.775 108.56C130.84 108.726 130.93 108.861 131.044 108.965C131.158 109.069 131.307 109.152 131.493 109.214C131.678 109.276 131.903 109.318 132.167 109.341C132.434 109.364 132.749 109.375 133.114 109.375C133.426 109.375 133.705 109.368 133.949 109.355C134.196 109.339 134.411 109.305 134.593 109.253C134.779 109.201 134.937 109.128 135.067 109.033C135.197 108.936 135.301 108.804 135.38 108.638C135.461 108.472 135.52 108.268 135.555 108.027C135.594 107.783 135.614 107.49 135.614 107.148C135.614 106.813 135.594 106.528 135.555 106.294C135.52 106.056 135.461 105.858 135.38 105.698C135.301 105.539 135.197 105.413 135.067 105.322C134.937 105.228 134.779 105.158 134.593 105.112C134.411 105.063 134.196 105.033 133.949 105.02C133.705 105.007 133.426 105 133.114 105C132.801 105 132.521 105.007 132.274 105.02C132.03 105.033 131.815 105.063 131.63 105.112C131.447 105.158 131.291 105.228 131.161 105.322C131.031 105.413 130.925 105.539 130.843 105.698C130.765 105.858 130.707 106.056 130.668 106.294C130.632 106.528 130.614 106.813 130.614 107.148ZM113.708 118.206C113.708 117.972 113.69 117.778 113.654 117.625C113.621 117.469 113.542 117.345 113.415 117.254C113.288 117.16 113.099 117.094 112.848 117.059C112.601 117.02 112.262 117 111.833 117C111.413 117 111.071 117.037 110.807 117.112C110.544 117.184 110.337 117.286 110.187 117.42C110.037 117.553 109.935 117.713 109.879 117.898C109.827 118.084 109.801 118.291 109.801 118.519V122H108.864V116.375H109.801V117.269C109.834 117.168 109.894 117.057 109.982 116.937C110.07 116.813 110.203 116.699 110.382 116.595C110.561 116.487 110.793 116.398 111.076 116.326C111.362 116.255 111.719 116.219 112.145 116.219C112.633 116.219 113.031 116.263 113.337 116.351C113.643 116.435 113.88 116.562 114.049 116.731C114.222 116.897 114.337 117.104 114.396 117.352C114.458 117.599 114.489 117.884 114.489 118.206H113.708ZM118.285 122.107C117.66 122.107 117.13 122.065 116.693 121.98C116.257 121.893 115.902 121.743 115.629 121.531C115.355 121.32 115.157 121.036 115.033 120.682C114.909 120.327 114.848 119.881 114.848 119.344C114.848 118.729 114.909 118.221 115.033 117.82C115.157 117.417 115.355 117.096 115.629 116.858C115.902 116.621 116.257 116.455 116.693 116.36C117.13 116.266 117.66 116.219 118.285 116.219C118.731 116.219 119.117 116.251 119.442 116.316C119.771 116.382 120.051 116.476 120.282 116.6C120.517 116.723 120.705 116.873 120.849 117.049C120.995 117.225 121.109 117.41 121.19 117.605C121.275 117.798 121.332 118.024 121.361 118.284C121.394 118.545 121.41 118.82 121.41 119.109L121.332 119.422H115.785C115.785 119.852 115.827 120.205 115.912 120.481C115.997 120.755 116.137 120.955 116.332 121.082C116.527 121.209 116.784 121.29 117.103 121.326C117.422 121.359 117.816 121.375 118.285 121.375C118.715 121.375 119.07 121.364 119.35 121.341C119.633 121.315 119.857 121.268 120.023 121.199C120.189 121.131 120.305 121.036 120.37 120.916C120.438 120.792 120.473 120.633 120.473 120.438H121.41C121.41 120.74 121.356 120.999 121.249 121.214C121.145 121.425 120.971 121.598 120.727 121.731C120.482 121.862 120.16 121.956 119.76 122.015C119.363 122.076 118.871 122.107 118.285 122.107ZM118.285 117C117.973 117 117.693 117.007 117.445 117.02C117.201 117.033 116.986 117.062 116.801 117.107C116.618 117.15 116.462 117.213 116.332 117.298C116.202 117.379 116.096 117.477 116.015 117.591C115.936 117.701 115.878 117.859 115.839 118.064C115.803 118.266 115.785 118.51 115.785 118.797H120.473C120.473 118.416 120.432 118.118 120.351 117.903C120.269 117.685 120.141 117.506 119.965 117.366C119.789 117.226 119.563 117.13 119.286 117.078C119.009 117.026 118.676 117 118.285 117ZM125.831 119.437C125.389 119.437 125 119.43 124.664 119.417C124.329 119.404 124.039 119.378 123.795 119.339C123.554 119.297 123.353 119.238 123.19 119.163C123.03 119.088 122.903 118.989 122.809 118.865C122.715 118.738 122.648 118.584 122.609 118.401C122.57 118.216 122.55 118.016 122.55 117.801C122.55 117.508 122.612 117.262 122.736 117.063C122.859 116.862 123.058 116.699 123.331 116.575C123.605 116.448 123.96 116.357 124.396 116.302C124.832 116.246 125.363 116.219 125.988 116.219C126.606 116.219 127.116 116.251 127.516 116.316C127.92 116.382 128.239 116.482 128.473 116.619C128.711 116.753 128.877 116.922 128.971 117.127C129.065 117.332 129.113 117.576 129.113 117.859H128.175C128.175 117.684 128.141 117.54 128.073 117.43C128.007 117.319 127.892 117.233 127.726 117.171C127.56 117.106 127.335 117.062 127.052 117.039C126.772 117.013 126.417 117 125.988 117C125.519 117 125.125 117.007 124.806 117.02C124.487 117.033 124.23 117.065 124.034 117.117C123.839 117.169 123.699 117.249 123.615 117.356C123.53 117.464 123.488 117.612 123.488 117.801C123.488 117.911 123.494 118.021 123.507 118.128C123.523 118.232 123.558 118.318 123.61 118.387C123.662 118.455 123.738 118.507 123.839 118.543C123.94 118.579 124.077 118.606 124.249 118.626C124.425 118.642 124.642 118.652 124.899 118.655C125.156 118.655 125.467 118.655 125.831 118.655C126.274 118.655 126.661 118.665 126.993 118.685C127.329 118.704 127.618 118.738 127.863 118.787C128.107 118.836 128.309 118.911 128.468 119.012C128.628 119.113 128.755 119.223 128.849 119.344C128.947 119.461 129.015 119.601 129.054 119.764C129.093 119.923 129.113 120.109 129.113 120.32C129.113 120.532 129.093 120.722 129.054 120.892C129.015 121.058 128.947 121.206 128.849 121.336C128.751 121.463 128.618 121.574 128.449 121.668C128.283 121.759 128.073 121.834 127.819 121.893C127.565 121.948 127.26 121.989 126.906 122.015C126.554 122.044 126.144 122.059 125.675 122.059C125.089 122.059 124.596 122.029 124.196 121.971C123.798 121.912 123.478 121.819 123.234 121.692C122.99 121.562 122.814 121.395 122.706 121.189C122.602 120.984 122.55 120.734 122.55 120.438H123.488C123.488 120.633 123.52 120.792 123.585 120.916C123.654 121.036 123.771 121.131 123.937 121.199C124.103 121.268 124.326 121.315 124.606 121.341C124.889 121.364 125.245 121.375 125.675 121.375C126.066 121.375 126.398 121.367 126.671 121.351C126.948 121.331 127.179 121.302 127.365 121.263C127.55 121.224 127.697 121.176 127.804 121.121C127.911 121.066 127.993 120.999 128.048 120.921C128.104 120.843 128.138 120.757 128.151 120.662C128.167 120.564 128.175 120.457 128.175 120.34C128.175 120.232 128.167 120.138 128.151 120.057C128.138 119.972 128.105 119.889 128.053 119.808C128.001 119.723 127.924 119.66 127.824 119.617C127.723 119.575 127.584 119.541 127.409 119.515C127.236 119.485 127.021 119.466 126.764 119.456C126.507 119.443 126.196 119.437 125.831 119.437ZM131.195 116.375V119.5C131.195 119.848 131.221 120.143 131.273 120.384C131.325 120.621 131.429 120.813 131.586 120.96C131.742 121.106 131.963 121.212 132.25 121.277C132.536 121.342 132.914 121.375 133.382 121.375C133.89 121.375 134.305 121.338 134.628 121.263C134.953 121.188 135.209 121.082 135.394 120.945C135.58 120.809 135.707 120.644 135.775 120.452C135.847 120.26 135.882 120.047 135.882 119.812V116.375H136.82V122H135.882V121.062C135.837 121.163 135.76 121.276 135.653 121.399C135.546 121.52 135.384 121.632 135.17 121.736C134.955 121.84 134.676 121.928 134.335 122C133.996 122.072 133.575 122.107 133.07 122.107C132.65 122.107 132.289 122.081 131.986 122.029C131.687 121.98 131.431 121.907 131.219 121.81C131.011 121.709 130.843 121.585 130.716 121.438C130.59 121.292 130.492 121.123 130.424 120.931C130.355 120.735 130.31 120.519 130.287 120.281C130.264 120.044 130.253 119.783 130.253 119.5L130.257 116.375H131.195ZM138.277 114.5H139.215V122H138.277V114.5ZM146.136 119.5C146.136 119.979 146.097 120.379 146.019 120.701C145.941 121.02 145.809 121.276 145.623 121.468C145.441 121.66 145.2 121.797 144.901 121.878C144.601 121.959 144.232 122 143.792 122C143.366 122 143.008 121.967 142.718 121.902C142.428 121.837 142.194 121.727 142.015 121.57C141.836 121.414 141.707 121.206 141.629 120.945C141.551 120.685 141.512 120.359 141.512 119.969V117.146H140.355V116.375H141.512V114.837H142.45V116.375H145.98V117.146H142.45V119.969C142.45 120.281 142.472 120.522 142.518 120.691C142.567 120.861 142.643 120.984 142.747 121.062C142.852 121.141 142.988 121.186 143.158 121.199C143.33 121.212 143.54 121.219 143.787 121.219C143.983 121.219 144.157 121.215 144.31 121.209C144.466 121.202 144.601 121.183 144.715 121.15C144.832 121.115 144.932 121.062 145.013 120.994C145.094 120.923 145.16 120.823 145.208 120.696C145.26 120.569 145.298 120.41 145.321 120.218C145.343 120.022 145.355 119.783 145.355 119.5H146.136Z" fill="#32363E"/>
</g>
<circle cx="89" cy="82" r="16" fill="#11B991"/>
<circle cx="89" cy="82" r="16" fill="url(#paint1_linear_41_11202)"/>
<path d="M100.261 81.7435C100.041 77.815 96.785 74.6973 92.8019 74.6973H85.6894C81.5629 74.6973 78.2175 78.0426 78.2175 82.1684C78.2175 86.2949 81.5629 89.6402 85.6894 89.6402H89.4924V92.5124L92.3645 89.6402H92.8019C96.9276 89.6402 100.273 86.2949 100.273 82.1691C100.273 82.0257 100.269 81.8838 100.261 81.7435ZM96.4037 85.6018L96.2345 85.771L96.2221 85.7827C95.3302 86.6278 94.1265 87.1455 92.8019 87.1455H91.9864L89.4924 89.6395V87.1455H85.6894C82.9405 87.1455 80.7123 84.9173 80.7123 82.1691C80.7123 79.4202 82.9405 77.192 85.6894 77.192H92.8019C95.2928 77.192 97.3564 79.0226 97.7205 81.4114C97.7587 81.6585 97.7782 81.9111 97.7782 82.1684C97.7782 83.4953 97.2597 84.699 96.4139 85.5909L96.4037 85.6018Z" fill="white"/>
<rect x="84.0647" y="80.4663" width="10.3689" height="3.74218" rx="1.87109" fill="url(#paint2_linear_41_11202)"/>
<g filter="url(#filter3_d_41_11202)">
<path d="M85.9358 84.2085C86.9692 84.2085 87.8069 83.3708 87.8069 82.3374C87.8069 81.304 86.9692 80.4663 85.9358 80.4663C84.9024 80.4663 84.0647 81.304 84.0647 82.3374C84.0647 83.3708 84.9024 84.2085 85.9358 84.2085Z" fill="white"/>
</g>
<g filter="url(#filter4_d_41_11202)">
<path d="M92.5625 84.2085C93.5959 84.2085 94.4336 83.3708 94.4336 82.3374C94.4336 81.304 93.5959 80.4663 92.5625 80.4663C91.5291 80.4663 90.6914 81.304 90.6914 82.3374C90.6914 83.3708 91.5291 84.2085 92.5625 84.2085Z" fill="white"/>
</g>
<defs>
<filter id="filter0_i_41_11202" x="33" y="24" width="186" height="267" filterUnits="userSpaceOnUse" color-interpolation-filters="sRGB">
<feFlood flood-opacity="0" result="BackgroundImageFix"/>
<feBlend mode="normal" in="SourceGraphic" in2="BackgroundImageFix" result="shape"/>
<feColorMatrix in="SourceAlpha" type="matrix" values="0 0 0 0 0 0 0 0 0 0 0 0 0 0 0 0 0 0 127 0" result="hardAlpha"/>
<feOffset dy="3"/>
<feGaussianBlur stdDeviation="1.5"/>
<feComposite in2="hardAlpha" operator="arithmetic" k2="-1" k3="1"/>
<feColorMatrix type="matrix" values="0 0 0 0 0.654244 0 0 0 0 0.715593 0 0 0 0 0.772222 0 0 0 0.25 0"/>
<feBlend mode="normal" in2="shape" result="effect1_innerShadow_41_11202"/>
</filter>
<filter id="filter1_i_41_11202" x="68.7163" y="69.1157" width="102.045" height="105.674" filterUnits="userSpaceOnUse" color-interpolation-filters="sRGB">
<feFlood flood-opacity="0" result="BackgroundImageFix"/>
<feBlend mode="normal" in="SourceGraphic" in2="BackgroundImageFix" result="shape"/>
<feColorMatrix in="SourceAlpha" type="matrix" values="0 0 0 0 0 0 0 0 0 0 0 0 0 0 0 0 0 0 127 0" result="hardAlpha"/>
<feOffset dy="3"/>
<feGaussianBlur stdDeviation="1.5"/>
<feComposite in2="hardAlpha" operator="arithmetic" k2="-1" k3="1"/>
<feColorMatrix type="matrix" values="0 0 0 0 0.654244 0 0 0 0 0.715593 0 0 0 0 0.772222 0 0 0 0.25 0"/>
<feBlend mode="normal" in2="shape" result="effect1_innerShadow_41_11202"/>
</filter>
<filter id="filter2_i_41_11202" x="108.864" y="102.5" width="37.2725" height="20.6074" filterUnits="userSpaceOnUse" color-interpolation-filters="sRGB">
<feFlood flood-opacity="0" result="BackgroundImageFix"/>
<feBlend mode="normal" in="SourceGraphic" in2="BackgroundImageFix" result="shape"/>
<feColorMatrix in="SourceAlpha" type="matrix" values="0 0 0 0 0 0 0 0 0 0 0 0 0 0 0 0 0 0 127 0" result="hardAlpha"/>
<feOffset dy="1"/>
<feGaussianBlur stdDeviation="1"/>
<feComposite in2="hardAlpha" operator="arithmetic" k2="-1" k3="1"/>
<feColorMatrix type="matrix" values="0 0 0 0 0 0 0 0 0 0 0 0 0 0 0 0 0 0 0.25 0"/>
<feBlend mode="normal" in2="shape" result="effect1_innerShadow_41_11202"/>
</filter>
<filter id="filter3_d_41_11202" x="80.0517" y="76.4534" width="11.7681" height="11.7681" filterUnits="userSpaceOnUse" color-interpolation-filters="sRGB">
<feFlood flood-opacity="0" result="BackgroundImageFix"/>
<feColorMatrix in="SourceAlpha" type="matrix" values="0 0 0 0 0 0 0 0 0 0 0 0 0 0 0 0 0 0 127 0" result="hardAlpha"/>
<feOffset/>
<feGaussianBlur stdDeviation="2.00648"/>
<feComposite in2="hardAlpha" operator="out"/>
<feColorMatrix type="matrix" values="0 0 0 0 0 0 0 0 0 0.643056 0 0 0 0 0.487048 0 0 0 0.24 0"/>
<feBlend mode="normal" in2="BackgroundImageFix" result="effect1_dropShadow_41_11202"/>
<feBlend mode="normal" in="SourceGraphic" in2="effect1_dropShadow_41_11202" result="shape"/>
</filter>
<filter id="filter4_d_41_11202" x="86.6785" y="76.4534" width="11.7681" height="11.7681" filterUnits="userSpaceOnUse" color-interpolation-filters="sRGB">
<feFlood flood-opacity="0" result="BackgroundImageFix"/>
<feColorMatrix in="SourceAlpha" type="matrix" values="0 0 0 0 0 0 0 0 0 0 0 0 0 0 0 0 0 0 127 0" result="hardAlpha"/>
<feOffset/>
<feGaussianBlur stdDeviation="2.00648"/>
<feComposite in2="hardAlpha" operator="out"/>
<feColorMatrix type="matrix" values="0 0 0 0 0 0 0 0 0 0.643056 0 0 0 0 0.487048 0 0 0 0.24 0"/>
<feBlend mode="normal" in2="BackgroundImageFix" result="effect1_dropShadow_41_11202"/>
<feBlend mode="normal" in="SourceGraphic" in2="effect1_dropShadow_41_11202" result="shape"/>
</filter>
<linearGradient id="paint0_linear_41_11202" x1="125.5" y1="79" x2="125.5" y2="202" gradientUnits="userSpaceOnUse">
<stop stop-color="#D9D9D9"/>
<stop offset="1" stop-color="#D9D9D9" stop-opacity="0"/>
</linearGradient>
<linearGradient id="paint1_linear_41_11202" x1="73.7352" y1="73.562" x2="105.746" y2="80.4352" gradientUnits="userSpaceOnUse">
<stop stop-color="#0CBE8C"/>
<stop offset="1" stop-color="#5B72DE"/>
</linearGradient>
<linearGradient id="paint2_linear_41_11202" x1="84.0647" y1="82.3374" x2="94.4336" y2="82.3374" gradientUnits="userSpaceOnUse">
<stop offset="0.206666" stop-color="#009687"/>
<stop offset="0.853172" stop-color="white"/>
</linearGradient>
</defs>
</svg>
