<svg width="48" height="48" viewBox="0 0 48 48" fill="none" xmlns="http://www.w3.org/2000/svg">
<g clip-path="url(#clip0_549_34656)">
<rect width="48" height="48" rx="8" fill="#E1FAFF"/>
<g clip-path="url(#clip1_549_34656)">
<path d="M21.0004 31.5999C21.9004 31.5999 22.6004 30.8999 22.6004 29.9999V27.3999H19.4004V29.9999C19.4004 30.8999 20.1004 31.5999 21.0004 31.5999Z" fill="#FF9900"/>
<path d="M26.9777 10H16.3896C15.3702 10 14.5391 10.8202 14.5391 11.8317V36.1683C14.5391 37.1798 15.3702 37.9945 16.3952 38H34.9838C36.0088 38 36.8344 37.1798 36.8399 36.1683L36.7845 18.0922L26.9777 10Z" fill="#4EB3F2"/>
<path d="M26.9789 10L26.9512 17.9008C26.9512 17.9008 26.9789 18.0922 27.1451 18.0922H36.7857L26.9789 10Z" fill="#0077CC"/>
<path d="M12.7535 23.4888H31.4585C31.8741 23.4888 32.2121 23.8223 32.2121 24.2324V32.4776C32.2121 32.8877 31.8741 33.2212 31.4585 33.2212H12.7535C12.338 33.2212 12 32.8877 12 32.4776V24.2324C12 23.8223 12.338 23.4888 12.7535 23.4888Z" fill="#0077CC"/>
<path d="M15.8047 26.354H19.7053V27.3655H18.3977V30.4493H17.1178V27.3655H15.8102V26.354H15.8047Z" fill="white"/>
<path d="M19.9985 26.354H21.4114L22.1483 27.6116L22.863 26.354H24.2592L22.9683 28.3388L24.3811 30.4493H22.9406L22.1206 29.1371L21.3061 30.4493H19.8711L21.3006 28.3169L19.9985 26.354Z" fill="white"/>
<path d="M24.502 26.354H28.397V27.3655H27.0894V30.4493H25.8095V27.3655H24.502V26.354Z" fill="white"/>
</g>
</g>
<defs>
<clipPath id="clip0_549_34656">
<rect width="48" height="48" rx="8" fill="white"/>
</clipPath>
<clipPath id="clip1_549_34656">
<rect width="36" height="36" fill="white" transform="translate(6 6)"/>
</clipPath>
</defs>
</svg>
