<svg width="20" height="20" viewBox="0 0 20 20" fill="none" xmlns="http://www.w3.org/2000/svg">
<path d="M5 1L19 15" stroke="#33363F" stroke-width="1.5" stroke-linecap="round"/>
<path fill-rule="evenodd" clip-rule="evenodd" d="M6.39495 5.4559C6.29684 5.47574 6.18672 5.49778 6.0614 5.52285L5.2656 5.68201C4.1473 5.90567 3.62383 7.20147 4.27298 8.13914C6.3254 11.1037 8.8956 13.6739 11.8602 15.7264C12.7979 16.3755 14.0937 15.852 14.3173 14.7337L14.4765 13.9379C14.5016 13.8126 14.5236 13.7025 14.5434 13.6044L13.2949 12.3558C13.2849 12.39 13.2752 12.4244 13.2658 12.4587C13.1818 12.7627 13.1199 13.0723 13.0118 13.6128L13.0056 13.6438L12.8465 14.4396C12.8344 14.4998 12.7646 14.5281 12.714 14.4931C9.89769 12.5433 7.45604 10.1017 5.50627 7.28533C5.47128 7.23478 5.49949 7.16494 5.55977 7.15288L6.35557 6.99372L6.38656 6.98752C6.92709 6.87943 7.23663 6.81752 7.54062 6.73359C7.57499 6.72409 7.6093 6.7144 7.64354 6.70449L6.39495 5.4559ZM13.8943 10.8339C13.9564 10.7113 14.0215 10.5901 14.0894 10.4704C14.245 10.1961 14.4201 9.93341 14.7258 9.47478L14.7434 9.44846L15.9657 7.61502C16.1938 7.2728 16.326 7.0721 16.405 6.915C16.4408 6.84375 16.4538 6.80366 16.4586 6.78413C16.4608 6.77517 16.4612 6.77102 16.4612 6.77045L16.4612 6.76959L16.461 6.76875C16.4609 6.7682 16.4597 6.76419 16.4558 6.75584C16.4473 6.73762 16.4267 6.70086 16.3776 6.63802C16.2693 6.49946 16.1003 6.32859 15.8095 6.03776L13.9616 4.18985C13.6708 3.89902 13.4999 3.73001 13.3613 3.62175C13.2985 3.57265 13.2617 3.55204 13.2435 3.54351C13.2352 3.5396 13.2311 3.53846 13.2306 3.5383L13.2298 3.53815L13.2289 3.53813C13.2283 3.53818 13.2242 3.53852 13.2152 3.54071C13.1957 3.5455 13.1556 3.5585 13.0843 3.59432C12.9272 3.67331 12.7265 3.80552 12.3843 4.03367L10.5509 5.25597L10.5245 5.27352C10.0659 5.57928 9.80328 5.75438 9.52898 5.90998C9.40927 5.97789 9.28804 6.04292 9.16541 6.10503L8.0366 4.97623C8.29407 4.8673 8.54526 4.74347 8.78888 4.60528C9.01067 4.47947 9.22678 4.33593 9.71883 4.00789L11.5523 2.78559L11.5847 2.76398L11.5847 2.76397C11.8832 2.5649 12.1612 2.37953 12.4106 2.25416C12.6874 2.11499 13.0053 2.00859 13.3776 2.04545C13.7498 2.08231 14.0407 2.24899 14.2848 2.43975C14.5048 2.61158 14.741 2.84787 14.9947 3.10161L14.9947 3.10162L15.0222 3.12919L16.8702 4.9771L16.8977 5.00466C17.1515 5.25835 17.3878 5.49458 17.5596 5.71451C17.7504 5.95866 17.917 6.24955 17.9539 6.62178C17.9907 6.99402 17.8844 7.31195 17.7452 7.58877C17.6198 7.83813 17.4344 8.11611 17.2354 8.41464L17.2137 8.44707L15.9915 10.2805C15.6634 10.7726 15.5199 10.9887 15.3941 11.2105C15.2559 11.4541 15.132 11.7053 15.0231 11.9627L13.8943 10.8339Z" fill="#32363E"/>
<path d="M4.16602 15.8335L7.91602 12.0835" stroke="#101114" stroke-width="1.5" stroke-linecap="round"/>
</svg>
