<svg width="170" height="121" viewBox="0 0 170 121" fill="none" xmlns="http://www.w3.org/2000/svg">
<path d="M132.252 30.2242C131.306 13.3732 117.341 0 100.256 0H69.7474C52.0469 0 37.6973 14.3496 37.6973 32.0468C37.6973 49.7472 52.0469 64.0968 69.7474 64.0968H86.06V76.4166L98.3798 64.0968H100.256C117.953 64.0968 132.303 49.7472 132.303 32.0501C132.303 31.4348 132.286 30.8261 132.252 30.2242ZM115.706 46.7743L114.98 47.5L114.926 47.5501C111.101 51.1751 105.937 53.3956 100.256 53.3956H96.7579L86.06 64.0935V53.3956H69.7474C57.956 53.3956 48.3985 43.8381 48.3985 32.0501C48.3985 20.2587 57.956 10.7012 69.7474 10.7012H100.256C110.94 10.7012 119.792 18.5532 121.354 28.7996C121.518 29.8597 121.601 30.9432 121.601 32.0468C121.601 37.7385 119.378 42.9018 115.749 46.7275L115.706 46.7743Z" fill="url(#paint0_linear_23_3462)"/>
<rect x="62.7783" y="24.7466" width="44.4769" height="16.0518" rx="8.0259" fill="url(#paint1_linear_23_3462)"/>
<g filter="url(#filter0_d_23_3462)">
<path d="M70.8042 40.7984C75.2368 40.7984 78.8301 37.2051 78.8301 32.7725C78.8301 28.3399 75.2368 24.7466 70.8042 24.7466C66.3716 24.7466 62.7783 28.3399 62.7783 32.7725C62.7783 37.2051 66.3716 40.7984 70.8042 40.7984Z" fill="white"/>
</g>
<g filter="url(#filter1_d_23_3462)">
<path d="M99.2293 40.7984C103.662 40.7984 107.255 37.2051 107.255 32.7725C107.255 28.3399 103.662 24.7466 99.2293 24.7466C94.7967 24.7466 91.2034 28.3399 91.2034 32.7725C91.2034 37.2051 94.7967 40.7984 99.2293 40.7984Z" fill="white"/>
</g>
<mask id="path-5-outside-1_23_3462" maskUnits="userSpaceOnUse" x="1" y="90.0919" width="169" height="24" fill="black">
<rect fill="white" x="1" y="90.0919" width="169" height="24"/>
<path d="M23.9807 97.9525C23.9807 96.8814 23.8647 96.0334 23.6326 95.4085C23.4005 94.7837 23.0167 94.3106 22.4811 93.9892C21.9455 93.6679 21.2403 93.4626 20.3655 93.3733C19.4997 93.284 18.424 93.2394 17.1386 93.2394H11.1267C9.98415 93.2394 9.0201 93.2751 8.23458 93.3465C7.45799 93.409 6.81529 93.5429 6.30649 93.7482C5.79768 93.9535 5.40492 94.2481 5.1282 94.6319C4.85149 95.0158 4.65064 95.5246 4.52567 96.1583C4.4007 96.7921 4.32929 97.5732 4.31144 98.5015C4.29359 99.4209 4.28466 100.523 4.28466 101.809C4.28466 103.094 4.29359 104.201 4.31144 105.129C4.33822 106.049 4.41409 106.825 4.53906 107.459C4.66403 108.093 4.86041 108.602 5.1282 108.986C5.40492 109.369 5.79768 109.664 6.30649 109.869C6.81529 110.075 7.45799 110.213 8.23458 110.284C9.0201 110.347 9.98415 110.378 11.1267 110.378H17.1386C18.1384 110.378 18.9998 110.351 19.7228 110.298C20.4459 110.244 21.0618 110.146 21.5706 110.003C22.0794 109.86 22.49 109.664 22.8024 109.414C23.1149 109.164 23.3559 108.852 23.5255 108.477C23.704 108.093 23.8245 107.638 23.887 107.111C23.9495 106.575 23.9807 105.951 23.9807 105.236H26.5515C26.5515 106.093 26.4979 106.87 26.3908 107.566C26.2837 108.254 26.0918 108.869 25.8151 109.414C25.5473 109.95 25.1858 110.414 24.7305 110.807C24.2753 111.199 23.6995 111.525 23.0033 111.784C22.307 112.034 21.4769 112.217 20.5128 112.333C19.5488 112.458 18.424 112.52 17.1386 112.52H11.1267C9.55569 112.52 8.23012 112.422 7.15003 112.226C6.07886 112.038 5.19515 111.753 4.49889 111.369C3.80264 110.976 3.26259 110.485 2.87876 109.896C2.50385 109.307 2.22713 108.615 2.0486 107.821C1.879 107.026 1.78081 106.129 1.75403 105.129C1.72725 104.13 1.71386 103.023 1.71386 101.809C1.71386 100.595 1.72725 99.4879 1.75403 98.4881C1.78081 97.4884 1.879 96.5913 2.0486 95.7968C2.22713 95.0024 2.50385 94.3106 2.87876 93.7214C3.26259 93.1323 3.80264 92.6458 4.49889 92.262C5.19515 91.8692 6.07886 91.5791 7.15003 91.3917C8.23012 91.1953 9.55569 91.0971 11.1267 91.0971H17.1386C18.424 91.0971 19.5488 91.1596 20.5128 91.2845C21.4769 91.4006 22.307 91.5836 23.0033 91.8335C23.6995 92.0745 24.2753 92.3825 24.7305 92.7574C25.1858 93.1323 25.5473 93.5742 25.8151 94.083C26.0918 94.5918 26.2837 95.1675 26.3908 95.8102C26.4979 96.4529 26.5515 97.167 26.5515 97.9525H23.9807ZM45.1158 112.092V103.389C45.1158 102.46 45.0444 101.679 44.9015 101.046C44.7587 100.403 44.4731 99.8851 44.0446 99.4923C43.6161 99.0996 43.0091 98.8184 42.2236 98.6488C41.4381 98.4703 40.4026 98.381 39.1172 98.381C37.7247 98.381 36.5821 98.4837 35.6895 98.689C34.8058 98.8853 34.1095 99.1665 33.6007 99.5325C33.0919 99.8896 32.7393 100.322 32.543 100.831C32.3555 101.34 32.2618 101.907 32.2618 102.532V112.092H29.691V91.5255H32.2618V99.104C32.4403 98.6845 32.6947 98.323 33.025 98.0195C33.3553 97.716 33.7346 97.4571 34.1631 97.2429C34.6005 97.0287 35.0691 96.8591 35.569 96.7341C36.0689 96.6002 36.5732 96.4975 37.082 96.4261C37.5998 96.3547 38.1041 96.3056 38.595 96.2788C39.0949 96.2521 39.5546 96.2387 39.9742 96.2387C41.1167 96.2387 42.0986 96.3101 42.9199 96.4529C43.75 96.5868 44.4507 96.7921 45.022 97.0688C45.6023 97.3366 46.0664 97.6714 46.4146 98.073C46.7627 98.4747 47.0305 98.9434 47.2179 99.4789C47.4143 100.006 47.5437 100.599 47.6062 101.26C47.6687 101.911 47.7 102.621 47.7 103.389L47.6866 112.092H45.1158ZM66.1973 109.976C66.1705 110.083 65.9696 110.351 65.5947 110.78C65.3269 111.101 64.9699 111.387 64.5236 111.637C64.0772 111.878 63.4792 112.065 62.7294 112.199C61.9885 112.342 61.011 112.413 59.797 112.413C58.1814 112.413 56.8022 112.328 55.6597 112.159C54.5171 111.998 53.5843 111.748 52.8613 111.409C52.1382 111.061 51.6071 110.619 51.2679 110.083C50.9376 109.548 50.7725 108.91 50.7725 108.169C50.7725 107.392 50.8617 106.736 51.0403 106.201C51.2277 105.656 51.4955 105.201 51.8436 104.835C52.2007 104.469 52.6292 104.183 53.129 103.978C53.6289 103.773 54.1957 103.616 54.8295 103.509C55.4722 103.402 56.1729 103.335 56.9317 103.308C57.6904 103.282 58.4983 103.268 59.3552 103.268C60.5781 103.268 61.6002 103.322 62.4214 103.429C63.2426 103.527 63.9121 103.656 64.4298 103.817C64.9565 103.969 65.3537 104.134 65.6215 104.313C65.8893 104.491 66.0812 104.656 66.1973 104.808C66.1973 103.808 66.1526 102.956 66.0634 102.251C65.983 101.545 65.8447 100.956 65.6483 100.483C65.4608 100.01 65.2154 99.6352 64.9119 99.3584C64.6084 99.0728 64.2335 98.8586 63.7871 98.7157C63.3497 98.5729 62.8365 98.4837 62.2473 98.448C61.6582 98.4033 60.9843 98.381 60.2255 98.381C59.0472 98.381 58.0698 98.4122 57.2932 98.4747C56.5166 98.5283 55.9007 98.6399 55.4454 98.8095C54.9902 98.9791 54.6688 99.2156 54.4814 99.5191C54.2939 99.8137 54.2002 100.202 54.2002 100.684H51.6294C51.6294 99.8717 51.7722 99.1844 52.0579 98.622C52.3524 98.0597 52.8345 97.6044 53.504 97.2563C54.1824 96.8992 55.0705 96.6404 56.1685 96.4797C57.2664 96.319 58.6188 96.2387 60.2255 96.2387C61.7966 96.2387 63.1266 96.3681 64.2156 96.627C65.3046 96.8858 66.1839 97.3411 66.8533 97.9927C67.5318 98.6443 68.0182 99.5236 68.3128 100.63C68.6163 101.728 68.7681 103.121 68.7681 104.808V112.092H66.1973V109.976ZM60.2255 110.378C61.3592 110.378 62.3054 110.324 63.0641 110.217C63.8318 110.11 64.4477 109.95 64.9119 109.735C65.376 109.521 65.7063 109.253 65.9027 108.932C66.0991 108.611 66.1973 108.236 66.1973 107.807C66.1973 107.379 66.0812 107.017 65.8491 106.723C65.626 106.419 65.2466 106.174 64.711 105.986C64.1844 105.799 63.4836 105.665 62.6089 105.585C61.7341 105.495 60.654 105.451 59.3686 105.451C58.0832 105.451 57.0433 105.473 56.2488 105.518C55.4633 105.562 54.8563 105.665 54.4278 105.826C53.9994 105.986 53.7093 106.223 53.5575 106.535C53.4147 106.848 53.3433 107.272 53.3433 107.807C53.3433 108.343 53.4192 108.78 53.5709 109.119C53.7316 109.45 54.0529 109.709 54.5349 109.896C55.017 110.083 55.7088 110.213 56.6103 110.284C57.5208 110.347 58.7259 110.378 60.2255 110.378ZM86.9038 105.236C86.9038 106.549 86.7967 107.647 86.5825 108.53C86.3683 109.405 86.0067 110.106 85.4979 110.632C84.9981 111.159 84.3375 111.534 83.5163 111.757C82.6951 111.98 81.6819 112.092 80.4769 112.092C79.3075 112.092 78.3256 112.003 77.5312 111.824C76.7367 111.646 76.094 111.342 75.6031 110.914C75.1121 110.485 74.7595 109.914 74.5453 109.2C74.331 108.486 74.2239 107.593 74.2239 106.522V98.7827H71.0506V96.6671H74.2239V92.4494H76.7947V96.6671H86.4754V98.7827H76.7947V106.522C76.7947 107.379 76.8572 108.039 76.9822 108.504C77.1161 108.968 77.3258 109.307 77.6115 109.521C77.8971 109.735 78.272 109.86 78.7362 109.896C79.2093 109.932 79.7851 109.95 80.4635 109.95C80.9991 109.95 81.4766 109.941 81.8962 109.923C82.3246 109.905 82.6951 109.851 83.0075 109.762C83.3288 109.664 83.6011 109.521 83.8242 109.334C84.0474 109.137 84.2259 108.865 84.3598 108.517C84.5027 108.169 84.6053 107.731 84.6678 107.205C84.7303 106.669 84.7615 106.013 84.7615 105.236H86.9038ZM111.025 107.379H94.7431L92.1723 112.092H89.173L101.17 91.5255H104.598L116.595 112.092H113.596L111.025 107.379ZM109.739 105.236L102.884 93.2394L96.0285 105.236H109.739ZM119.721 91.5255H135.172C136.449 91.5255 137.525 91.5836 138.399 91.6996C139.283 91.8067 140.011 91.9719 140.582 92.195C141.153 92.4182 141.591 92.6949 141.894 93.0252C142.206 93.3555 142.434 93.7438 142.577 94.1901C142.72 94.6364 142.8 95.1363 142.818 95.6897C142.845 96.2431 142.858 96.8546 142.858 97.5241C142.858 98.2203 142.84 98.863 142.805 99.4522C142.778 100.041 142.675 100.577 142.497 101.059C142.327 101.532 142.05 101.952 141.666 102.318C141.292 102.675 140.751 102.974 140.046 103.215C139.35 103.456 138.462 103.639 137.382 103.764C136.311 103.889 134.989 103.951 133.418 103.951H122.292V112.092H119.721V91.5255ZM122.292 101.809H133.418C134.561 101.809 135.521 101.791 136.297 101.755C137.083 101.711 137.73 101.635 138.239 101.528C138.747 101.42 139.14 101.269 139.417 101.072C139.694 100.876 139.895 100.617 140.02 100.296C140.153 99.9744 140.229 99.5905 140.247 99.1442C140.274 98.689 140.287 98.1489 140.287 97.5241C140.287 96.9439 140.274 96.444 140.247 96.0244C140.229 95.6049 140.153 95.2523 140.02 94.9667C139.895 94.681 139.694 94.4534 139.417 94.2838C139.14 94.1142 138.747 93.9848 138.239 93.8955C137.73 93.7973 137.083 93.7348 136.297 93.708C135.521 93.6813 134.561 93.6679 133.418 93.6679H122.292V101.809ZM145.984 91.5255H161.436C162.712 91.5255 163.788 91.5836 164.663 91.6996C165.546 91.8067 166.274 91.9719 166.845 92.195C167.416 92.4182 167.854 92.6949 168.157 93.0252C168.47 93.3555 168.697 93.7438 168.84 94.1901C168.983 94.6364 169.063 95.1363 169.081 95.6897C169.108 96.2431 169.121 96.8546 169.121 97.5241C169.121 98.2203 169.103 98.863 169.068 99.4522C169.041 100.041 168.938 100.577 168.76 101.059C168.59 101.532 168.314 101.952 167.93 102.318C167.555 102.675 167.015 102.974 166.31 103.215C165.613 103.456 164.725 103.639 163.645 103.764C162.574 103.889 161.253 103.951 159.682 103.951H148.555V112.092H145.984V91.5255ZM148.555 101.809H159.682C160.824 101.809 161.784 101.791 162.56 101.755C163.346 101.711 163.993 101.635 164.502 101.528C165.011 101.42 165.404 101.269 165.68 101.072C165.957 100.876 166.158 100.617 166.283 100.296C166.417 99.9744 166.493 99.5905 166.51 99.1442C166.537 98.689 166.551 98.1489 166.551 97.5241C166.551 96.9439 166.537 96.444 166.51 96.0244C166.493 95.6049 166.417 95.2523 166.283 94.9667C166.158 94.681 165.957 94.4534 165.68 94.2838C165.404 94.1142 165.011 93.9848 164.502 93.8955C163.993 93.7973 163.346 93.7348 162.56 93.708C161.784 93.6813 160.824 93.6679 159.682 93.6679H148.555V101.809Z"/>
</mask>
<path d="M23.9807 97.9525C23.9807 96.8814 23.8647 96.0334 23.6326 95.4085C23.4005 94.7837 23.0167 94.3106 22.4811 93.9892C21.9455 93.6679 21.2403 93.4626 20.3655 93.3733C19.4997 93.284 18.424 93.2394 17.1386 93.2394H11.1267C9.98415 93.2394 9.0201 93.2751 8.23458 93.3465C7.45799 93.409 6.81529 93.5429 6.30649 93.7482C5.79768 93.9535 5.40492 94.2481 5.1282 94.6319C4.85149 95.0158 4.65064 95.5246 4.52567 96.1583C4.4007 96.7921 4.32929 97.5732 4.31144 98.5015C4.29359 99.4209 4.28466 100.523 4.28466 101.809C4.28466 103.094 4.29359 104.201 4.31144 105.129C4.33822 106.049 4.41409 106.825 4.53906 107.459C4.66403 108.093 4.86041 108.602 5.1282 108.986C5.40492 109.369 5.79768 109.664 6.30649 109.869C6.81529 110.075 7.45799 110.213 8.23458 110.284C9.0201 110.347 9.98415 110.378 11.1267 110.378H17.1386C18.1384 110.378 18.9998 110.351 19.7228 110.298C20.4459 110.244 21.0618 110.146 21.5706 110.003C22.0794 109.86 22.49 109.664 22.8024 109.414C23.1149 109.164 23.3559 108.852 23.5255 108.477C23.704 108.093 23.8245 107.638 23.887 107.111C23.9495 106.575 23.9807 105.951 23.9807 105.236H26.5515C26.5515 106.093 26.4979 106.87 26.3908 107.566C26.2837 108.254 26.0918 108.869 25.8151 109.414C25.5473 109.95 25.1858 110.414 24.7305 110.807C24.2753 111.199 23.6995 111.525 23.0033 111.784C22.307 112.034 21.4769 112.217 20.5128 112.333C19.5488 112.458 18.424 112.52 17.1386 112.52H11.1267C9.55569 112.52 8.23012 112.422 7.15003 112.226C6.07886 112.038 5.19515 111.753 4.49889 111.369C3.80264 110.976 3.26259 110.485 2.87876 109.896C2.50385 109.307 2.22713 108.615 2.0486 107.821C1.879 107.026 1.78081 106.129 1.75403 105.129C1.72725 104.13 1.71386 103.023 1.71386 101.809C1.71386 100.595 1.72725 99.4879 1.75403 98.4881C1.78081 97.4884 1.879 96.5913 2.0486 95.7968C2.22713 95.0024 2.50385 94.3106 2.87876 93.7214C3.26259 93.1323 3.80264 92.6458 4.49889 92.262C5.19515 91.8692 6.07886 91.5791 7.15003 91.3917C8.23012 91.1953 9.55569 91.0971 11.1267 91.0971H17.1386C18.424 91.0971 19.5488 91.1596 20.5128 91.2845C21.4769 91.4006 22.307 91.5836 23.0033 91.8335C23.6995 92.0745 24.2753 92.3825 24.7305 92.7574C25.1858 93.1323 25.5473 93.5742 25.8151 94.083C26.0918 94.5918 26.2837 95.1675 26.3908 95.8102C26.4979 96.4529 26.5515 97.167 26.5515 97.9525H23.9807ZM45.1158 112.092V103.389C45.1158 102.46 45.0444 101.679 44.9015 101.046C44.7587 100.403 44.4731 99.8851 44.0446 99.4923C43.6161 99.0996 43.0091 98.8184 42.2236 98.6488C41.4381 98.4703 40.4026 98.381 39.1172 98.381C37.7247 98.381 36.5821 98.4837 35.6895 98.689C34.8058 98.8853 34.1095 99.1665 33.6007 99.5325C33.0919 99.8896 32.7393 100.322 32.543 100.831C32.3555 101.34 32.2618 101.907 32.2618 102.532V112.092H29.691V91.5255H32.2618V99.104C32.4403 98.6845 32.6947 98.323 33.025 98.0195C33.3553 97.716 33.7346 97.4571 34.1631 97.2429C34.6005 97.0287 35.0691 96.8591 35.569 96.7341C36.0689 96.6002 36.5732 96.4975 37.082 96.4261C37.5998 96.3547 38.1041 96.3056 38.595 96.2788C39.0949 96.2521 39.5546 96.2387 39.9742 96.2387C41.1167 96.2387 42.0986 96.3101 42.9199 96.4529C43.75 96.5868 44.4507 96.7921 45.022 97.0688C45.6023 97.3366 46.0664 97.6714 46.4146 98.073C46.7627 98.4747 47.0305 98.9434 47.2179 99.4789C47.4143 100.006 47.5437 100.599 47.6062 101.26C47.6687 101.911 47.7 102.621 47.7 103.389L47.6866 112.092H45.1158ZM66.1973 109.976C66.1705 110.083 65.9696 110.351 65.5947 110.78C65.3269 111.101 64.9699 111.387 64.5236 111.637C64.0772 111.878 63.4792 112.065 62.7294 112.199C61.9885 112.342 61.011 112.413 59.797 112.413C58.1814 112.413 56.8022 112.328 55.6597 112.159C54.5171 111.998 53.5843 111.748 52.8613 111.409C52.1382 111.061 51.6071 110.619 51.2679 110.083C50.9376 109.548 50.7725 108.91 50.7725 108.169C50.7725 107.392 50.8617 106.736 51.0403 106.201C51.2277 105.656 51.4955 105.201 51.8436 104.835C52.2007 104.469 52.6292 104.183 53.129 103.978C53.6289 103.773 54.1957 103.616 54.8295 103.509C55.4722 103.402 56.1729 103.335 56.9317 103.308C57.6904 103.282 58.4983 103.268 59.3552 103.268C60.5781 103.268 61.6002 103.322 62.4214 103.429C63.2426 103.527 63.9121 103.656 64.4298 103.817C64.9565 103.969 65.3537 104.134 65.6215 104.313C65.8893 104.491 66.0812 104.656 66.1973 104.808C66.1973 103.808 66.1526 102.956 66.0634 102.251C65.983 101.545 65.8447 100.956 65.6483 100.483C65.4608 100.01 65.2154 99.6352 64.9119 99.3584C64.6084 99.0728 64.2335 98.8586 63.7871 98.7157C63.3497 98.5729 62.8365 98.4837 62.2473 98.448C61.6582 98.4033 60.9843 98.381 60.2255 98.381C59.0472 98.381 58.0698 98.4122 57.2932 98.4747C56.5166 98.5283 55.9007 98.6399 55.4454 98.8095C54.9902 98.9791 54.6688 99.2156 54.4814 99.5191C54.2939 99.8137 54.2002 100.202 54.2002 100.684H51.6294C51.6294 99.8717 51.7722 99.1844 52.0579 98.622C52.3524 98.0597 52.8345 97.6044 53.504 97.2563C54.1824 96.8992 55.0705 96.6404 56.1685 96.4797C57.2664 96.319 58.6188 96.2387 60.2255 96.2387C61.7966 96.2387 63.1266 96.3681 64.2156 96.627C65.3046 96.8858 66.1839 97.3411 66.8533 97.9927C67.5318 98.6443 68.0182 99.5236 68.3128 100.63C68.6163 101.728 68.7681 103.121 68.7681 104.808V112.092H66.1973V109.976ZM60.2255 110.378C61.3592 110.378 62.3054 110.324 63.0641 110.217C63.8318 110.11 64.4477 109.95 64.9119 109.735C65.376 109.521 65.7063 109.253 65.9027 108.932C66.0991 108.611 66.1973 108.236 66.1973 107.807C66.1973 107.379 66.0812 107.017 65.8491 106.723C65.626 106.419 65.2466 106.174 64.711 105.986C64.1844 105.799 63.4836 105.665 62.6089 105.585C61.7341 105.495 60.654 105.451 59.3686 105.451C58.0832 105.451 57.0433 105.473 56.2488 105.518C55.4633 105.562 54.8563 105.665 54.4278 105.826C53.9994 105.986 53.7093 106.223 53.5575 106.535C53.4147 106.848 53.3433 107.272 53.3433 107.807C53.3433 108.343 53.4192 108.78 53.5709 109.119C53.7316 109.45 54.0529 109.709 54.5349 109.896C55.017 110.083 55.7088 110.213 56.6103 110.284C57.5208 110.347 58.7259 110.378 60.2255 110.378ZM86.9038 105.236C86.9038 106.549 86.7967 107.647 86.5825 108.53C86.3683 109.405 86.0067 110.106 85.4979 110.632C84.9981 111.159 84.3375 111.534 83.5163 111.757C82.6951 111.98 81.6819 112.092 80.4769 112.092C79.3075 112.092 78.3256 112.003 77.5312 111.824C76.7367 111.646 76.094 111.342 75.6031 110.914C75.1121 110.485 74.7595 109.914 74.5453 109.2C74.331 108.486 74.2239 107.593 74.2239 106.522V98.7827H71.0506V96.6671H74.2239V92.4494H76.7947V96.6671H86.4754V98.7827H76.7947V106.522C76.7947 107.379 76.8572 108.039 76.9822 108.504C77.1161 108.968 77.3258 109.307 77.6115 109.521C77.8971 109.735 78.272 109.86 78.7362 109.896C79.2093 109.932 79.7851 109.95 80.4635 109.95C80.9991 109.95 81.4766 109.941 81.8962 109.923C82.3246 109.905 82.6951 109.851 83.0075 109.762C83.3288 109.664 83.6011 109.521 83.8242 109.334C84.0474 109.137 84.2259 108.865 84.3598 108.517C84.5027 108.169 84.6053 107.731 84.6678 107.205C84.7303 106.669 84.7615 106.013 84.7615 105.236H86.9038ZM111.025 107.379H94.7431L92.1723 112.092H89.173L101.17 91.5255H104.598L116.595 112.092H113.596L111.025 107.379ZM109.739 105.236L102.884 93.2394L96.0285 105.236H109.739ZM119.721 91.5255H135.172C136.449 91.5255 137.525 91.5836 138.399 91.6996C139.283 91.8067 140.011 91.9719 140.582 92.195C141.153 92.4182 141.591 92.6949 141.894 93.0252C142.206 93.3555 142.434 93.7438 142.577 94.1901C142.72 94.6364 142.8 95.1363 142.818 95.6897C142.845 96.2431 142.858 96.8546 142.858 97.5241C142.858 98.2203 142.84 98.863 142.805 99.4522C142.778 100.041 142.675 100.577 142.497 101.059C142.327 101.532 142.05 101.952 141.666 102.318C141.292 102.675 140.751 102.974 140.046 103.215C139.35 103.456 138.462 103.639 137.382 103.764C136.311 103.889 134.989 103.951 133.418 103.951H122.292V112.092H119.721V91.5255ZM122.292 101.809H133.418C134.561 101.809 135.521 101.791 136.297 101.755C137.083 101.711 137.73 101.635 138.239 101.528C138.747 101.42 139.14 101.269 139.417 101.072C139.694 100.876 139.895 100.617 140.02 100.296C140.153 99.9744 140.229 99.5905 140.247 99.1442C140.274 98.689 140.287 98.1489 140.287 97.5241C140.287 96.9439 140.274 96.444 140.247 96.0244C140.229 95.6049 140.153 95.2523 140.02 94.9667C139.895 94.681 139.694 94.4534 139.417 94.2838C139.14 94.1142 138.747 93.9848 138.239 93.8955C137.73 93.7973 137.083 93.7348 136.297 93.708C135.521 93.6813 134.561 93.6679 133.418 93.6679H122.292V101.809ZM145.984 91.5255H161.436C162.712 91.5255 163.788 91.5836 164.663 91.6996C165.546 91.8067 166.274 91.9719 166.845 92.195C167.416 92.4182 167.854 92.6949 168.157 93.0252C168.47 93.3555 168.697 93.7438 168.84 94.1901C168.983 94.6364 169.063 95.1363 169.081 95.6897C169.108 96.2431 169.121 96.8546 169.121 97.5241C169.121 98.2203 169.103 98.863 169.068 99.4522C169.041 100.041 168.938 100.577 168.76 101.059C168.59 101.532 168.314 101.952 167.93 102.318C167.555 102.675 167.015 102.974 166.31 103.215C165.613 103.456 164.725 103.639 163.645 103.764C162.574 103.889 161.253 103.951 159.682 103.951H148.555V112.092H145.984V91.5255ZM148.555 101.809H159.682C160.824 101.809 161.784 101.791 162.56 101.755C163.346 101.711 163.993 101.635 164.502 101.528C165.011 101.42 165.404 101.269 165.68 101.072C165.957 100.876 166.158 100.617 166.283 100.296C166.417 99.9744 166.493 99.5905 166.51 99.1442C166.537 98.689 166.551 98.1489 166.551 97.5241C166.551 96.9439 166.537 96.444 166.51 96.0244C166.493 95.6049 166.417 95.2523 166.283 94.9667C166.158 94.681 165.957 94.4534 165.68 94.2838C165.404 94.1142 165.011 93.9848 164.502 93.8955C163.993 93.7973 163.346 93.7348 162.56 93.708C161.784 93.6813 160.824 93.6679 159.682 93.6679H148.555V101.809Z" fill="#11B991"/>
<path d="M23.9807 97.9525H23.3119V98.6214H23.9807V97.9525ZM20.3655 93.3733L20.2969 94.0386L20.2976 94.0387L20.3655 93.3733ZM8.23458 93.3465L8.28823 94.0132L8.29514 94.0126L8.23458 93.3465ZM4.31144 98.5015L4.98014 98.5145L4.98014 98.5144L4.31144 98.5015ZM4.31144 105.129L3.64271 105.142L3.6429 105.149L4.31144 105.129ZM5.1282 108.986L4.57962 109.368L4.58567 109.377L5.1282 108.986ZM8.23458 110.284L8.17334 110.95L8.18155 110.951L8.23458 110.284ZM23.5255 108.477L22.919 108.195L22.9161 108.201L23.5255 108.477ZM23.887 107.111L24.5512 107.19L24.5513 107.189L23.887 107.111ZM23.9807 105.236V104.568H23.3119V105.236H23.9807ZM26.5515 105.236H27.2203V104.568H26.5515V105.236ZM26.3908 107.566L27.0517 107.669L27.0519 107.668L26.3908 107.566ZM25.8151 109.414L25.2188 109.111L25.2169 109.115L25.8151 109.414ZM23.0033 111.784L23.2293 112.413L23.2364 112.411L23.0033 111.784ZM20.5128 112.333L20.4329 111.669L20.4268 111.67L20.5128 112.333ZM7.15003 112.226L7.26967 111.568L7.26532 111.567L7.15003 112.226ZM4.49889 111.369L4.17027 111.951L4.176 111.955L4.49889 111.369ZM2.87876 109.896L2.31446 110.255L2.31837 110.261L2.87876 109.896ZM2.0486 107.821L1.39448 107.96L1.39605 107.967L2.0486 107.821ZM2.0486 95.7968L1.39601 95.6502L1.39452 95.6572L2.0486 95.7968ZM2.87876 93.7214L2.31834 93.3563L2.31449 93.3624L2.87876 93.7214ZM4.49889 92.262L4.82181 92.8477L4.8275 92.8445L4.49889 92.262ZM7.15003 91.3917L7.26532 92.0505L7.26967 92.0497L7.15003 91.3917ZM20.5128 91.2845L20.4268 91.9478L20.4329 91.9486L20.5128 91.2845ZM23.0033 91.8335L22.7773 92.463L22.7845 92.4655L23.0033 91.8335ZM25.8151 94.083L25.2232 94.3945L25.2275 94.4025L25.8151 94.083ZM26.5515 97.9525V98.6214H27.2203V97.9525H26.5515ZM24.6495 97.9525C24.6495 96.8442 24.531 95.9064 24.2596 95.1756L23.0056 95.6414C23.1984 96.1603 23.3119 96.9186 23.3119 97.9525H24.6495ZM24.2596 95.1756C23.9784 94.4187 23.5001 93.8207 22.8252 93.4157L22.137 94.5627C22.5332 94.8005 22.8226 95.1487 23.0056 95.6414L24.2596 95.1756ZM22.8252 93.4157C22.1783 93.0276 21.3687 92.8034 20.4334 92.7079L20.2976 94.0387C21.1119 94.1218 21.7127 94.3082 22.137 94.5627L22.8252 93.4157ZM20.4341 92.708C19.5375 92.6156 18.4373 92.5706 17.1386 92.5706V93.9082C18.4108 93.9082 19.4618 93.9525 20.2969 94.0386L20.4341 92.708ZM17.1386 92.5706H11.1267V93.9082H17.1386V92.5706ZM11.1267 92.5706C9.97203 92.5706 8.98639 92.6066 8.17403 92.6804L8.29514 94.0126C9.05381 93.9436 9.99627 93.9082 11.1267 93.9082V92.5706ZM8.18094 92.6799C7.36274 92.7457 6.64808 92.8892 6.05621 93.128L6.55676 94.3685C6.98249 94.1967 7.55324 94.0723 8.28822 94.0132L8.18094 92.6799ZM6.05621 93.128C5.44937 93.3728 4.94739 93.7391 4.58567 94.2408L5.67074 95.0231C5.86246 94.7571 6.146 94.5342 6.55676 94.3685L6.05621 93.128ZM4.58567 94.2408C4.23608 94.7257 4.00666 95.3333 3.86948 96.0289L5.18186 96.2877C5.29463 95.7159 5.46689 95.3058 5.67074 95.0231L4.58567 94.2408ZM3.86948 96.0289C3.73445 96.7137 3.66105 97.5366 3.64274 98.4887L4.98014 98.5144C4.99754 97.6098 5.06695 96.8705 5.18186 96.2877L3.86948 96.0289ZM3.64274 98.4885C3.62478 99.4136 3.61584 100.521 3.61584 101.809H4.95349C4.95349 100.526 4.9624 99.4283 4.98014 98.5145L3.64274 98.4885ZM3.61584 101.809C3.61584 103.097 3.62478 104.208 3.64274 105.142L4.98014 105.116C4.9624 104.194 4.95349 103.091 4.95349 101.809H3.61584ZM3.6429 105.149C3.67034 106.091 3.74847 106.907 3.88287 107.589L5.19525 107.33C5.07972 106.744 5.0061 106.006 4.97998 105.11L3.6429 105.149ZM3.88287 107.589C4.01939 108.281 4.24272 108.885 4.57968 109.368L5.67672 108.603C5.4781 108.318 5.30867 107.905 5.19525 107.33L3.88287 107.589ZM4.58567 109.377C4.94739 109.878 5.44937 110.245 6.05621 110.489L6.55676 109.249C6.146 109.083 5.86246 108.86 5.67074 108.594L4.58567 109.377ZM6.05621 110.489C6.64497 110.727 7.35679 110.875 8.17334 110.95L8.29583 109.618C7.55919 109.551 6.98561 109.422 6.55676 109.249L6.05621 110.489ZM8.18155 110.951C8.99061 111.015 9.97356 111.047 11.1267 111.047V109.709C9.99475 109.709 9.0496 109.678 8.28762 109.618L8.18155 110.951ZM11.1267 111.047H17.1386V109.709H11.1267V111.047ZM17.1386 111.047C18.1492 111.047 19.0279 111.02 19.7722 110.965L19.6734 109.631C18.9717 109.683 18.1276 109.709 17.1386 109.709V111.047ZM19.7722 110.965C20.5246 110.909 21.1871 110.805 21.7513 110.647L21.3898 109.359C20.9364 109.486 20.3672 109.579 19.6734 109.631L19.7722 110.965ZM21.7513 110.647C22.3202 110.487 22.8192 110.257 23.2202 109.936L22.3846 108.892C22.1608 109.071 21.8386 109.233 21.3898 109.359L21.7513 110.647ZM23.2202 109.936C23.6175 109.618 23.923 109.221 24.1348 108.752L22.9161 108.201C22.7887 108.483 22.6122 108.71 22.3846 108.892L23.2202 109.936ZM24.1319 108.759C24.3468 108.297 24.4823 107.77 24.5512 107.19L23.2228 107.032C23.1667 107.505 23.0612 107.889 22.919 108.195L24.1319 108.759ZM24.5513 107.189C24.6176 106.621 24.6495 105.969 24.6495 105.236H23.3119C23.3119 105.932 23.2814 106.53 23.2227 107.033L24.5513 107.189ZM23.9807 105.905H26.5515V104.568H23.9807V105.905ZM25.8827 105.236C25.8827 106.066 25.8308 106.808 25.7298 107.465L27.0519 107.668C27.1651 106.932 27.2203 106.12 27.2203 105.236H25.8827ZM25.73 107.463C25.6322 108.09 25.4595 108.637 25.2188 109.111L26.4113 109.717C26.7241 109.102 26.9352 108.417 27.0517 107.669L25.73 107.463ZM25.2169 109.115C24.9888 109.571 24.6822 109.965 24.2936 110.3L25.1674 111.313C25.6893 110.863 26.1058 110.328 26.4133 109.713L25.2169 109.115ZM24.2936 110.3C23.9109 110.63 23.4088 110.92 22.7702 111.157L23.2364 112.411C23.9902 112.131 24.6396 111.768 25.1674 111.313L24.2936 110.3ZM22.7773 111.154C22.1403 111.383 21.3616 111.557 20.4329 111.669L20.5927 112.997C21.5921 112.877 22.4737 112.685 23.2292 112.413L22.7773 111.154ZM20.4268 111.67C19.4987 111.79 18.4039 111.852 17.1386 111.852V113.189C18.4442 113.189 19.5988 113.126 20.5988 112.996L20.4268 111.67ZM17.1386 111.852H11.1267V113.189H17.1386V111.852ZM11.1267 111.852C9.58023 111.852 8.29745 111.755 7.26967 111.568L7.03038 112.884C8.16279 113.09 9.53115 113.189 11.1267 113.189V111.852ZM7.26532 111.567C6.24206 111.388 5.43444 111.121 4.82179 110.783L4.176 111.955C4.95586 112.385 5.91566 112.689 7.03474 112.885L7.26532 111.567ZM4.8275 110.786C4.21192 110.439 3.75671 110.018 3.43914 109.531L2.31837 110.261C2.76847 110.952 3.39335 111.513 4.17029 111.951L4.8275 110.786ZM3.44302 109.537C3.11584 109.023 2.8655 108.405 2.70115 107.674L1.39605 107.967C1.58876 108.825 1.89185 109.591 2.31449 110.255L3.44302 109.537ZM2.70269 107.681C2.54333 106.935 2.44854 106.079 2.42262 105.111L1.08545 105.147C1.11308 106.179 1.21468 107.118 1.39452 107.96L2.70269 107.681ZM2.42262 105.111C2.39603 104.119 2.38269 103.018 2.38269 101.809H1.04504C1.04504 103.027 1.05848 104.14 1.08545 105.147L2.42262 105.111ZM2.38269 101.809C2.38269 100.6 2.39603 99.4987 2.42262 98.506L1.08545 98.4702C1.05848 99.477 1.04504 100.59 1.04504 101.809H2.38269ZM2.42262 98.506C2.44854 97.5382 2.54333 96.6829 2.70269 95.9365L1.39452 95.6572C1.21468 96.4996 1.11308 97.4385 1.08545 98.4702L2.42262 98.506ZM2.70115 95.9435C2.8655 95.2121 3.11584 94.5946 3.44302 94.0805L2.31449 93.3624C1.89185 94.0265 1.58876 94.7926 1.39605 95.6502L2.70115 95.9435ZM3.43914 94.0865C3.75565 93.6007 4.20888 93.1856 4.82179 92.8477L4.176 91.6763C3.39639 92.106 2.76953 92.6639 2.31837 93.3563L3.43914 94.0865ZM4.8275 92.8445C5.43842 92.4999 6.24392 92.2292 7.26532 92.0505L7.03474 90.7328C5.9138 90.929 4.95188 91.2385 4.17029 91.6794L4.8275 92.8445ZM7.26967 92.0497C8.29745 91.8628 9.58023 91.7659 11.1267 91.7659V90.4283C9.53115 90.4283 8.16279 90.5277 7.03038 90.7336L7.26967 92.0497ZM11.1267 91.7659H17.1386V90.4283H11.1267V91.7659ZM17.1386 91.7659C18.4039 91.7659 19.4987 91.8275 20.4268 91.9478L20.5988 90.6213C19.5988 90.4916 18.4442 90.4283 17.1386 90.4283V91.7659ZM20.4329 91.9486C21.3616 92.0604 22.1403 92.2343 22.7773 92.463L23.2292 91.204C22.4737 90.9328 21.5921 90.7408 20.5927 90.6205L20.4329 91.9486ZM22.7845 92.4655C23.4236 92.6868 23.9246 92.9601 24.3053 93.2737L25.1557 92.2411C24.6259 91.8048 23.9754 91.4623 23.2221 91.2015L22.7845 92.4655ZM24.3053 93.2737C24.6938 93.5936 24.9979 93.9664 25.2232 94.3945L26.4069 93.7715C26.0967 93.1819 25.6778 92.671 25.1557 92.2411L24.3053 93.2737ZM25.2275 94.4025C25.4646 94.8383 25.6347 95.3418 25.7311 95.9202L27.0506 95.7003C26.9327 94.9932 26.719 94.3452 26.4026 93.7634L25.2275 94.4025ZM25.7311 95.9202C25.8311 96.52 25.8827 97.1966 25.8827 97.9525H27.2203C27.2203 97.1374 27.1648 96.3858 27.0506 95.7003L25.7311 95.9202ZM26.5515 97.2837H23.9807V98.6214H26.5515V97.2837ZM45.1158 112.092H44.4469V112.761H45.1158V112.092ZM44.9015 101.046L44.2486 101.191L44.2491 101.193L44.9015 101.046ZM42.2236 98.6488L42.0754 99.301L42.0825 99.3026L42.2236 98.6488ZM35.6895 98.689L35.8346 99.3419L35.8394 99.3408L35.6895 98.689ZM33.6007 99.5325L33.985 100.08L33.9913 100.075L33.6007 99.5325ZM32.543 100.831L31.9189 100.59L31.9154 100.6L32.543 100.831ZM32.2618 112.092V112.761H32.9306V112.092H32.2618ZM29.691 112.092H29.0222V112.761H29.691V112.092ZM29.691 91.5255V90.8567H29.0222V91.5255H29.691ZM32.2618 91.5255H32.9306V90.8567H32.2618V91.5255ZM32.2618 99.104H31.593L32.8772 99.3659L32.2618 99.104ZM34.1631 97.2429L33.8689 96.6422L33.864 96.6447L34.1631 97.2429ZM35.569 96.7341L35.7312 97.383L35.7421 97.3801L35.569 96.7341ZM37.082 96.4261L36.9906 95.7636L36.9891 95.7638L37.082 96.4261ZM38.595 96.2788L38.5593 95.611L38.5586 95.611L38.595 96.2788ZM42.9199 96.4529L42.8053 97.1119L42.8134 97.1132L42.9199 96.4529ZM45.022 97.0688L44.7304 97.6709L44.7418 97.6761L45.022 97.0688ZM47.2179 99.4789L46.5865 99.6999L46.5913 99.7126L47.2179 99.4789ZM47.6062 101.26L46.9404 101.323L46.9405 101.324L47.6062 101.26ZM47.7 103.389L48.3688 103.39V103.389H47.7ZM47.6866 112.092V112.761H48.3544L48.3554 112.093L47.6866 112.092ZM45.7846 112.092V103.389H44.4469V112.092H45.7846ZM45.7846 103.389C45.7846 102.43 45.7112 101.596 45.554 100.898L44.2491 101.193C44.3775 101.762 44.4469 102.491 44.4469 103.389H45.7846ZM45.5544 100.9C45.386 100.142 45.0392 99.4967 44.4965 98.9993L43.5927 99.9854C43.907 100.273 44.1315 100.663 44.2486 101.191L45.5544 100.9ZM44.4965 98.9993C43.9533 98.5014 43.2239 98.1805 42.3648 97.995L42.0825 99.3026C42.7944 99.4563 43.2789 99.6978 43.5927 99.9854L44.4965 98.9993ZM42.3718 97.9966C41.5177 97.8025 40.4268 97.7122 39.1172 97.7122V99.0498C40.3785 99.0498 41.3584 99.138 42.0754 99.301L42.3718 97.9966ZM39.1172 97.7122C37.6975 97.7122 36.4998 97.8163 35.5396 98.0372L35.8394 99.3408C36.6645 99.151 37.752 99.0498 39.1172 99.0498V97.7122ZM35.5444 98.0361C34.6084 98.2441 33.8176 98.5527 33.2102 98.9896L33.9913 100.075C34.4015 99.7804 35.0032 99.5266 35.8346 99.3419L35.5444 98.0361ZM33.2165 98.985C32.6148 99.4073 32.1696 99.9412 31.919 100.59L33.1669 101.072C33.3091 100.704 33.569 100.372 33.9849 100.08L33.2165 98.985ZM31.9154 100.6C31.6968 101.193 31.593 101.84 31.593 102.532H32.9306C32.9306 101.974 33.0142 101.487 33.1706 101.063L31.9154 100.6ZM31.593 102.532V112.092H32.9306V102.532H31.593ZM32.2618 111.423H29.691V112.761H32.2618V111.423ZM30.3598 112.092V91.5255H29.0222V112.092H30.3598ZM29.691 92.1944H32.2618V90.8567H29.691V92.1944ZM31.593 91.5255V99.104H32.9306V91.5255H31.593ZM32.8772 99.3659C33.0191 99.0325 33.2185 98.75 33.4775 98.512L32.5724 97.527C32.1709 97.896 31.8615 98.3365 31.6464 98.8422L32.8772 99.3659ZM33.4775 98.512C33.7588 98.2535 34.0858 98.0293 34.4622 97.8411L33.864 96.6447C33.3835 96.8849 32.9517 97.1785 32.5724 97.527L33.4775 98.512ZM34.4573 97.8435C34.8501 97.6511 35.2743 97.4972 35.7312 97.3829L35.4068 96.0852C34.864 96.2209 34.3508 96.4062 33.8689 96.6422L34.4573 97.8435ZM35.7421 97.3801C36.2158 97.2532 36.6934 97.1561 37.175 97.0885L36.9891 95.7638C36.4531 95.839 35.922 95.9471 35.396 96.088L35.7421 97.3801ZM37.1734 97.0887C37.674 97.0196 38.16 96.9724 38.6315 96.9467L38.5586 95.611C38.0482 95.6389 37.5255 95.6898 36.9906 95.7636L37.1734 97.0887ZM38.6308 96.9467C39.121 96.9205 39.5686 96.9075 39.9742 96.9075V95.5698C39.5407 95.5698 39.0689 95.5837 38.5593 95.611L38.6308 96.9467ZM39.9742 96.9075C41.0914 96.9075 42.0329 96.9775 42.8053 97.1118L43.0345 95.794C42.1644 95.6427 41.1421 95.5698 39.9742 95.5698V96.9075ZM42.8134 97.1132C43.5988 97.2399 44.2332 97.4299 44.7305 97.6708L45.3136 96.4669C44.6683 96.1544 43.9012 95.9337 43.0264 95.7926L42.8134 97.1132ZM44.7418 97.6761C45.2529 97.912 45.6345 98.1941 45.9091 98.5111L46.92 97.635C46.4984 97.1486 45.9516 96.7612 45.3023 96.4616L44.7418 97.6761ZM45.9091 98.5111C46.1983 98.8448 46.4252 99.2385 46.5867 99.6999L47.8492 99.258C47.6358 98.6482 47.327 98.1047 46.92 97.635L45.9091 98.5111ZM46.5913 99.7126C46.7639 100.176 46.8824 100.71 46.9404 101.323L48.2721 101.197C48.205 100.488 48.0648 99.8357 47.8446 99.2453L46.5913 99.7126ZM46.9405 101.324C47.0006 101.951 47.0311 102.639 47.0311 103.389H48.3688C48.3688 102.603 48.3368 101.872 48.272 101.196L46.9405 101.324ZM47.0311 103.388L47.0177 112.091L48.3554 112.093L48.3688 103.39L47.0311 103.388ZM47.6866 111.423H45.1158V112.761H47.6866V111.423ZM66.1973 109.976H66.8661L65.5484 109.814L66.1973 109.976ZM65.5947 110.78L65.0914 110.339L65.0861 110.345L65.0809 110.352L65.5947 110.78ZM64.5236 111.637L64.8414 112.225L64.8504 112.22L64.5236 111.637ZM62.7294 112.199L62.6118 111.541L62.6028 111.542L62.7294 112.199ZM55.6597 112.159L55.7579 111.497L55.7528 111.497L55.6597 112.159ZM52.8613 111.409L52.5711 112.012L52.5772 112.015L52.8613 111.409ZM51.2679 110.083L50.6986 110.435L50.7029 110.441L51.2679 110.083ZM51.0403 106.201L50.4078 105.983L50.4058 105.989L51.0403 106.201ZM51.8436 104.835L51.3649 104.368L51.359 104.374L51.8436 104.835ZM53.129 103.978L52.8749 103.359L53.129 103.978ZM54.8295 103.509L54.7196 102.849L54.7181 102.85L54.8295 103.509ZM56.9317 103.308L56.9081 102.64L56.9317 103.308ZM62.4214 103.429L62.3349 104.092L62.342 104.093L62.4214 103.429ZM64.4298 103.817L64.2316 104.456L64.2447 104.46L64.4298 103.817ZM66.1973 104.808L65.666 105.214L66.8661 106.784V104.808H66.1973ZM66.0634 102.251L65.3988 102.326L65.3998 102.335L66.0634 102.251ZM65.6483 100.483L65.0264 100.73L65.0306 100.74L65.6483 100.483ZM64.9119 99.3584L64.4534 99.8455L64.4612 99.8527L64.9119 99.3584ZM63.7871 98.7157L63.5795 99.3515L63.5833 99.3527L63.7871 98.7157ZM62.2473 98.448L62.1968 99.1149L62.2069 99.1156L62.2473 98.448ZM57.2932 98.4747L57.3392 99.142L57.3468 99.1414L57.2932 98.4747ZM54.4814 99.5191L55.0457 99.8782L55.0504 99.8706L54.4814 99.5191ZM54.2002 100.684V101.353H54.869V100.684H54.2002ZM51.6294 100.684H50.9606V101.353H51.6294V100.684ZM52.0579 98.622L51.4654 98.3117L51.4616 98.3191L52.0579 98.622ZM53.504 97.2563L53.8125 97.8497L53.8155 97.8481L53.504 97.2563ZM64.2156 96.627L64.0609 97.2777L64.2156 96.627ZM66.8533 97.9927L66.3868 98.472L66.39 98.4751L66.8533 97.9927ZM68.3128 100.63L67.6665 100.802L67.6682 100.809L68.3128 100.63ZM68.7681 112.092V112.761H69.4369V112.092H68.7681ZM66.1973 112.092H65.5284V112.761H66.1973V112.092ZM63.0641 110.217L62.9717 109.555L62.9706 109.555L63.0641 110.217ZM64.9119 109.735L65.1921 110.343L64.9119 109.735ZM65.8491 106.723L65.3103 107.119L65.3169 107.128L65.3238 107.137L65.8491 106.723ZM64.711 105.986L64.4867 106.616L64.4901 106.618L64.711 105.986ZM62.6089 105.585L62.541 106.25L62.5477 106.251L62.6089 105.585ZM56.2488 105.518L56.2113 104.85L56.2109 104.85L56.2488 105.518ZM53.5575 106.535L52.9559 106.243L52.9525 106.25L52.9492 106.257L53.5575 106.535ZM53.5709 109.119L52.9604 109.393L52.9648 109.402L52.9695 109.412L53.5709 109.119ZM56.6103 110.284L56.5575 110.951L56.5645 110.952L56.6103 110.284ZM65.5484 109.814C65.5671 109.739 65.5937 109.705 65.5728 109.74C65.5599 109.761 65.5346 109.799 65.4915 109.856C65.4057 109.971 65.2743 110.13 65.0914 110.339L66.0981 111.22C66.2901 111.001 66.4465 110.812 66.5616 110.659C66.6189 110.582 66.6722 110.506 66.7162 110.434C66.7523 110.375 66.814 110.267 66.8461 110.139L65.5484 109.814ZM65.0809 110.352C64.8757 110.598 64.5872 110.834 64.1968 111.053L64.8504 112.22C65.3526 111.939 65.7782 111.604 66.1085 111.208L65.0809 110.352ZM64.2058 111.048C63.8451 111.243 63.3231 111.414 62.6118 111.541L62.8469 112.857C63.6353 112.717 64.3094 112.512 64.8414 112.225L64.2058 111.048ZM62.6028 111.542C61.9209 111.674 60.9908 111.744 59.797 111.744V113.082C61.0312 113.082 62.056 113.01 62.856 112.856L62.6028 111.542ZM59.797 111.744C58.2024 111.744 56.858 111.661 55.7579 111.497L55.5615 112.82C56.7465 112.996 58.1604 113.082 59.797 113.082V111.744ZM55.7528 111.497C54.6497 111.341 53.7876 111.105 53.1453 110.804L52.5772 112.015C53.381 112.392 54.3845 112.655 55.5665 112.821L55.7528 111.497ZM53.1514 110.806C52.5114 110.498 52.0895 110.131 51.8329 109.726L50.7029 110.441C51.1247 111.107 51.765 111.624 52.5711 112.012L53.1514 110.806ZM51.8372 109.732C51.5828 109.32 51.4413 108.808 51.4413 108.169H50.1037C50.1037 109.011 50.2925 109.776 50.6986 110.435L51.8372 109.732ZM51.4413 108.169C51.4413 107.439 51.5257 106.859 51.6748 106.412L50.4058 105.989C50.1978 106.613 50.1037 107.345 50.1037 108.169H51.4413ZM51.6727 106.418C51.8333 105.952 52.0549 105.583 52.3282 105.296L51.359 104.374C50.9361 104.818 50.6222 105.36 50.4079 105.983L51.6727 106.418ZM52.3224 105.302C52.6121 105.005 52.9628 104.769 53.3831 104.597L52.8749 103.359C52.2955 103.597 51.7893 103.933 51.3649 104.368L52.3224 105.302ZM53.3831 104.597C53.8295 104.413 54.3472 104.269 54.941 104.169L54.7181 102.85C54.0443 102.964 53.4284 103.132 52.8749 103.359L53.3831 104.597ZM54.9395 104.169C55.5494 104.067 56.2209 104.003 56.9553 103.977L56.9081 102.64C56.125 102.668 55.395 102.737 54.7196 102.849L54.9395 104.169ZM56.9553 103.977C57.7052 103.95 58.5051 103.937 59.3552 103.937V102.599C58.4914 102.599 57.6756 102.613 56.9081 102.64L56.9553 103.977ZM59.3552 103.937C60.5614 103.937 61.5524 103.99 62.3349 104.092L62.5079 102.766C61.648 102.653 60.5948 102.599 59.3552 102.599V103.937ZM62.342 104.093C63.1416 104.189 63.7672 104.312 64.2316 104.456L64.6281 103.178C64.057 103.001 63.3437 102.866 62.5008 102.765L62.342 104.093ZM64.2447 104.46C64.7448 104.604 65.0662 104.746 65.2505 104.869L65.9925 103.756C65.6413 103.522 65.1682 103.334 64.615 103.174L64.2447 104.46ZM65.2505 104.869C65.4929 105.031 65.615 105.148 65.666 105.214L66.7285 104.402C66.5474 104.165 66.2857 103.952 65.9925 103.756L65.2505 104.869ZM66.8661 104.808C66.8661 103.79 66.8208 102.908 66.7269 102.167L65.3998 102.335C65.4845 103.003 65.5284 103.826 65.5284 104.808H66.8661ZM66.7279 102.175C66.643 101.43 66.4936 100.775 66.266 100.227L65.0306 100.74C65.1957 101.138 65.3231 101.661 65.3988 102.326L66.7279 102.175ZM66.2701 100.237C66.0539 99.6912 65.7569 99.2239 65.3625 98.8642L64.4612 99.8527C64.6738 100.046 64.8677 100.329 65.0265 100.73L66.2701 100.237ZM65.3703 98.8714C64.9856 98.5094 64.5204 98.2481 63.991 98.0787L63.5833 99.3527C63.9465 99.469 64.2312 99.6362 64.4535 99.8455L65.3703 98.8714ZM63.9947 98.08C63.4905 97.9153 62.9186 97.8186 62.2878 97.7804L62.2069 99.1156C62.7543 99.1487 63.209 99.2305 63.5795 99.3515L63.9947 98.08ZM62.2979 97.781C61.688 97.7348 60.9967 97.7122 60.2255 97.7122V99.0498C60.9719 99.0498 61.6284 99.0718 62.1968 99.1149L62.2979 97.781ZM60.2255 97.7122C59.0374 97.7122 58.0405 97.7436 57.2396 97.8081L57.3468 99.1414C58.099 99.0809 59.0571 99.0498 60.2255 99.0498V97.7122ZM57.2472 97.8075C56.4401 97.8632 55.7524 97.9814 55.2119 98.1827L55.6789 99.4362C56.0489 99.2984 56.5931 99.1934 57.3392 99.142L57.2472 97.8075ZM55.2119 98.1827C54.6673 98.3856 54.202 98.6988 53.9124 99.1677L55.0504 99.8706C55.1357 99.7325 55.3131 99.5725 55.6789 99.4362L55.2119 98.1827ZM53.9171 99.16C53.64 99.5955 53.5314 100.121 53.5314 100.684H54.869C54.869 100.283 54.9478 100.032 55.0457 99.8782L53.9171 99.16ZM54.2002 100.015H51.6294V101.353H54.2002V100.015ZM52.2982 100.684C52.2982 99.9476 52.4279 99.3703 52.6542 98.9249L51.4616 98.3191C51.1165 98.9984 50.9606 99.7958 50.9606 100.684H52.2982ZM52.6503 98.9324C52.8702 98.5126 53.241 98.1469 53.8125 97.8497L53.1954 96.6629C52.428 97.0619 51.8347 97.6067 51.4654 98.3117L52.6503 98.9324ZM53.8155 97.8481C54.404 97.5384 55.2118 97.2956 56.2653 97.1415L56.0716 95.8179C54.9293 95.9851 53.9607 96.2601 53.1924 96.6644L53.8155 97.8481ZM56.2653 97.1415C57.3205 96.987 58.6382 96.9075 60.2255 96.9075V95.5698C58.5994 95.5698 57.2123 95.651 56.0716 95.8179L56.2653 97.1415ZM60.2255 96.9075C61.7636 96.9075 63.0383 97.0346 64.0609 97.2777L64.3703 95.9763C63.2148 95.7016 61.8295 95.5698 60.2255 95.5698V96.9075ZM64.0609 97.2777C65.0558 97.5142 65.8197 97.9199 66.3868 98.472L67.3198 97.5134C66.5481 96.7622 65.5534 96.2575 64.3703 95.9763L64.0609 97.2777ZM66.39 98.4751C66.9628 99.0252 67.3965 99.7881 67.6665 100.802L68.9591 100.458C68.64 99.2591 68.1007 98.2635 67.3167 97.5104L66.39 98.4751ZM67.6682 100.809C67.9499 101.828 68.0992 103.155 68.0992 104.808H69.4369C69.4369 103.087 69.2827 101.629 68.9575 100.452L67.6682 100.809ZM68.0992 104.808V112.092H69.4369V104.808H68.0992ZM68.7681 111.423H66.1973V112.761H68.7681V111.423ZM66.8661 112.092V109.976H65.5284V112.092H66.8661ZM60.2255 111.047C61.3771 111.047 62.357 110.993 63.1576 110.88L62.9706 109.555C62.2537 109.656 61.3412 109.709 60.2255 109.709V111.047ZM63.1565 110.88C63.9593 110.768 64.6461 110.595 65.1921 110.343L64.6316 109.128C64.2493 109.305 63.7042 109.453 62.9717 109.555L63.1565 110.88ZM65.1921 110.343C65.7347 110.092 66.1873 109.749 66.4734 109.281L65.332 108.583C65.2253 108.758 65.0174 108.95 64.6316 109.128L65.1921 110.343ZM66.4734 109.281C66.7424 108.841 66.8661 108.341 66.8661 107.807H65.5284C65.5284 108.13 65.4557 108.381 65.332 108.583L66.4734 109.281ZM66.8661 107.807C66.8661 107.251 66.7125 106.738 66.3745 106.309L65.3238 107.137C65.4499 107.297 65.5284 107.506 65.5284 107.807H66.8661ZM66.388 106.326C66.0539 105.872 65.5343 105.566 64.932 105.355L64.4901 106.618C64.9589 106.782 65.198 106.966 65.3103 107.119L66.388 106.326ZM64.9353 105.356C64.3349 105.142 63.5727 105.001 62.67 104.919L62.5477 106.251C63.3946 106.328 64.0338 106.455 64.4867 106.616L64.9353 105.356ZM62.6768 104.919C61.7717 104.827 60.6673 104.782 59.3686 104.782V106.12C60.6406 106.12 61.6964 106.164 62.541 106.25L62.6768 104.919ZM59.3686 104.782C58.0773 104.782 57.0234 104.804 56.2113 104.85L56.2863 106.185C57.0631 106.142 58.0891 106.12 59.3686 106.12V104.782ZM56.2109 104.85C55.399 104.896 54.7141 105.004 54.193 105.199L54.6627 106.452C54.9985 106.326 55.5276 106.229 56.2868 106.185L56.2109 104.85ZM54.193 105.199C53.6564 105.401 53.2039 105.732 52.9559 106.243L54.1591 106.827C54.2146 106.713 54.3423 106.572 54.6627 106.452L54.193 105.199ZM52.9492 106.257C52.7505 106.692 52.6745 107.224 52.6745 107.807H54.0121C54.0121 107.32 54.0789 107.003 54.1658 106.813L52.9492 106.257ZM52.6745 107.807C52.6745 108.399 52.7571 108.938 52.9604 109.393L54.1814 108.846C54.0812 108.622 54.0121 108.287 54.0121 107.807H52.6745ZM52.9695 109.412C53.2293 109.946 53.7176 110.296 54.2925 110.519L54.7774 109.273C54.3882 109.121 54.2339 108.953 54.1723 108.827L52.9695 109.412ZM54.2925 110.519C54.8643 110.742 55.6318 110.878 56.5575 110.951L56.6631 109.618C55.7857 109.548 55.1696 109.425 54.7774 109.273L54.2925 110.519ZM56.5645 110.952C57.4968 111.016 58.719 111.047 60.2255 111.047V109.709C58.7328 109.709 57.5449 109.678 56.6561 109.617L56.5645 110.952ZM86.9038 105.236H87.5727V104.568H86.9038V105.236ZM86.5825 108.53L87.2321 108.689L87.2325 108.688L86.5825 108.53ZM85.4979 110.632L85.0169 110.168L85.0128 110.172L85.4979 110.632ZM74.2239 98.7827H74.8928V98.1139H74.2239V98.7827ZM71.0506 98.7827H70.3818V99.4515H71.0506V98.7827ZM71.0506 96.6671V95.9983H70.3818V96.6671H71.0506ZM74.2239 96.6671V97.336H74.8928V96.6671H74.2239ZM74.2239 92.4494V91.7806H73.5551V92.4494H74.2239ZM76.7947 92.4494H77.4636V91.7806H76.7947V92.4494ZM76.7947 96.6671H76.1259V97.336H76.7947V96.6671ZM86.4754 96.6671H87.1442V95.9983H86.4754V96.6671ZM86.4754 98.7827V99.4515H87.1442V98.7827H86.4754ZM76.7947 98.7827V98.1139H76.1259V98.7827H76.7947ZM76.9822 108.504L76.3363 108.677L76.3396 108.689L76.9822 108.504ZM78.7362 109.896L78.6849 110.563L78.6859 110.563L78.7362 109.896ZM81.8961 109.923L81.8683 109.255L81.8677 109.255L81.8961 109.923ZM83.0075 109.762L83.1913 110.405L83.2029 110.402L83.0075 109.762ZM83.8242 109.334L84.2544 109.846L84.2603 109.841L84.2661 109.836L83.8242 109.334ZM84.3598 108.517L83.7411 108.263L83.7382 108.27L83.7356 108.277L84.3598 108.517ZM84.6678 107.205L85.332 107.284L85.3321 107.282L84.6678 107.205ZM84.7615 105.236V104.568H84.0927V105.236H84.7615ZM86.235 105.236C86.235 106.517 86.1301 107.558 85.9325 108.373L87.2325 108.688C87.4634 107.735 87.5727 106.581 87.5727 105.236H86.235ZM85.9329 108.371C85.7404 109.157 85.4265 109.744 85.0169 110.168L85.979 111.097C86.587 110.468 86.9962 109.653 87.2321 108.689L85.9329 108.371ZM85.0128 110.172C84.6109 110.596 84.0645 110.915 83.3409 111.112L83.6917 112.403C84.6105 112.153 85.3852 111.723 85.983 111.093L85.0128 110.172ZM83.3409 111.112C82.5951 111.314 81.6451 111.423 80.4769 111.423V112.761C81.7187 112.761 82.7951 112.646 83.6917 112.403L83.3409 111.112ZM80.4769 111.423C79.3374 111.423 78.4083 111.336 77.6778 111.172L77.3845 112.477C78.2429 112.67 79.2776 112.761 80.4769 112.761V111.423ZM77.6778 111.172C76.9653 111.011 76.4315 110.749 76.0428 110.41L75.1633 111.418C75.7565 111.935 76.5081 112.28 77.3845 112.477L77.6778 111.172ZM76.0428 110.41C75.66 110.076 75.3692 109.619 75.1859 109.008L73.9047 109.392C74.1498 110.209 74.5642 110.895 75.1633 111.418L76.0428 110.41ZM75.1859 109.008C74.9966 108.376 74.8928 107.554 74.8928 106.522H73.5551C73.5551 107.632 73.6655 108.595 73.9047 109.392L75.1859 109.008ZM74.8928 106.522V98.7827H73.5551V106.522H74.8928ZM74.2239 98.1139H71.0506V99.4515H74.2239V98.1139ZM71.7194 98.7827V96.6671H70.3818V98.7827H71.7194ZM71.0506 97.336H74.2239V95.9983H71.0506V97.336ZM74.8928 96.6671V92.4494H73.5551V96.6671H74.8928ZM74.2239 93.1183H76.7947V91.7806H74.2239V93.1183ZM76.1259 92.4494V96.6671H77.4636V92.4494H76.1259ZM76.7947 97.336H86.4754V95.9983H76.7947V97.336ZM85.8066 96.6671V98.7827H87.1442V96.6671H85.8066ZM86.4754 98.1139H76.7947V99.4515H86.4754V98.1139ZM76.1259 98.7827V106.522H77.4636V98.7827H76.1259ZM76.1259 106.522C76.1259 107.399 76.1886 108.129 76.3364 108.677L77.628 108.33C77.5258 107.95 77.4636 107.358 77.4636 106.522H76.1259ZM76.3396 108.689C76.4997 109.244 76.7733 109.729 77.2102 110.056L78.0128 108.986C77.8784 108.885 77.7325 108.691 77.6248 108.318L76.3396 108.689ZM77.2102 110.056C77.6242 110.367 78.1318 110.52 78.6849 110.563L78.7875 109.229C78.4123 109.2 78.17 109.104 78.0128 108.986L77.2102 110.056ZM78.6859 110.563C79.1811 110.6 79.7747 110.618 80.4635 110.618V109.281C79.7954 109.281 79.2375 109.263 78.7866 109.229L78.6859 110.563ZM80.4635 110.618C81.0061 110.618 81.4934 110.609 81.9246 110.591L81.8677 109.255C81.4598 109.272 80.992 109.281 80.4635 109.281V110.618ZM81.924 110.591C82.3895 110.572 82.8148 110.513 83.1912 110.405L82.8237 109.119C82.5753 109.19 82.2597 109.238 81.8683 109.255L81.924 110.591ZM83.2029 110.402C83.5973 110.281 83.9527 110.099 84.2544 109.846L83.3941 108.822C83.2495 108.943 83.0604 109.047 82.812 109.123L83.2029 110.402ZM84.2661 109.836C84.5884 109.552 84.8211 109.181 84.9841 108.757L83.7356 108.277C83.6308 108.549 83.5065 108.722 83.3824 108.832L84.2661 109.836ZM84.9786 108.771C85.1517 108.349 85.265 107.848 85.332 107.284L84.0036 107.126C83.9456 107.615 83.8536 107.989 83.7411 108.263L84.9786 108.771ZM85.3321 107.282C85.3986 106.712 85.4303 106.029 85.4303 105.236H84.0927C84.0927 105.997 84.062 106.626 84.0035 107.127L85.3321 107.282ZM84.7615 105.905H86.9038V104.568H84.7615V105.905ZM111.025 107.379L111.612 107.059L111.422 106.71H111.025V107.379ZM94.7431 107.379V106.71H94.346L94.1559 107.059L94.7431 107.379ZM92.1723 112.092V112.761H92.5693L92.7594 112.412L92.1723 112.092ZM89.173 112.092L88.5953 111.755L88.0086 112.761H89.173V112.092ZM101.17 91.5255V90.8567H100.786L100.592 91.1885L101.17 91.5255ZM104.598 91.5255L105.175 91.1885L104.982 90.8567H104.598V91.5255ZM116.595 112.092V112.761H117.759L117.173 111.755L116.595 112.092ZM113.596 112.092L113.008 112.412L113.199 112.761H113.596V112.092ZM109.739 105.236V105.905H110.892L110.32 104.905L109.739 105.236ZM102.884 93.2394L103.465 92.9076L102.884 91.8914L102.303 92.9076L102.884 93.2394ZM96.0285 105.236L95.4478 104.905L94.876 105.905H96.0285V105.236ZM111.025 106.71H94.7431V108.048H111.025V106.71ZM94.1559 107.059L91.5851 111.772L92.7594 112.412L95.3302 107.699L94.1559 107.059ZM92.1723 111.423H89.173V112.761H92.1723V111.423ZM89.7507 112.429L101.748 91.8625L100.592 91.1885L88.5953 111.755L89.7507 112.429ZM101.17 92.1944H104.598V90.8567H101.17V92.1944ZM104.02 91.8625L116.017 112.429L117.173 111.755L105.175 91.1885L104.02 91.8625ZM116.595 111.423H113.596V112.761H116.595V111.423ZM114.183 111.772L111.612 107.059L110.438 107.699L113.008 112.412L114.183 111.772ZM110.32 104.905L103.465 92.9076L102.303 93.5712L109.159 105.568L110.32 104.905ZM102.303 92.9076L95.4478 104.905L96.6092 105.568L103.465 93.5712L102.303 92.9076ZM96.0285 105.905H109.739V104.568H96.0285V105.905ZM119.721 91.5255V90.8567H119.052V91.5255H119.721ZM138.399 91.6996L138.311 92.3627L138.319 92.3636L138.399 91.6996ZM141.894 93.0252L141.402 93.4778L141.408 93.4848L141.894 93.0252ZM142.818 95.6897L142.149 95.7113L142.15 95.722L142.818 95.6897ZM142.805 99.4522L142.137 99.4117L142.136 99.4218L142.805 99.4522ZM142.497 101.059L141.869 100.827L141.867 100.833L142.497 101.059ZM141.666 102.318L142.128 102.802L142.128 102.802L141.666 102.318ZM140.046 103.215L139.83 102.582L139.827 102.583L140.046 103.215ZM137.382 103.764L137.305 103.099L137.304 103.099L137.382 103.764ZM122.292 103.951V103.282H121.623V103.951H122.292ZM122.292 112.092V112.761H122.961V112.092H122.292ZM119.721 112.092H119.052V112.761H119.721V112.092ZM122.292 101.809H121.623V102.478H122.292V101.809ZM136.297 101.755L136.328 102.423L136.335 102.423L136.297 101.755ZM140.02 100.296L139.402 100.038L139.399 100.046L139.396 100.053L140.02 100.296ZM140.247 99.1442L139.579 99.1049L139.579 99.1175L140.247 99.1442ZM140.247 96.0244L139.579 96.0529L139.579 96.06L139.58 96.067L140.247 96.0244ZM140.02 94.9667L139.407 95.2347L139.41 95.2427L139.414 95.2505L140.02 94.9667ZM138.239 93.8955L138.112 94.5523L138.123 94.5543L138.239 93.8955ZM136.297 93.708L136.274 94.3765L136.274 94.3765L136.297 93.708ZM122.292 93.6679V92.9991H121.623V93.6679H122.292ZM119.721 92.1944H135.172V90.8567H119.721V92.1944ZM135.172 92.1944C136.431 92.1944 137.475 92.2517 138.311 92.3626L138.487 91.0366C137.574 90.9154 136.467 90.8567 135.172 90.8567V92.1944ZM138.319 92.3636C139.169 92.4667 139.837 92.6222 140.339 92.818L140.825 91.572C140.184 91.3215 139.397 91.1468 138.48 91.0356L138.319 92.3636ZM140.339 92.818C140.848 93.017 141.188 93.2448 141.402 93.4777L142.387 92.5726C141.994 92.145 141.458 91.8194 140.825 91.572L140.339 92.818ZM141.408 93.4848C141.65 93.7399 141.827 94.0401 141.94 94.3939L143.214 93.9862C143.042 93.4474 142.763 92.971 142.38 92.5656L141.408 93.4848ZM141.94 94.3939C142.061 94.7717 142.133 95.2089 142.149 95.7113L143.486 95.6681C143.467 95.0637 143.379 94.5011 143.214 93.9862L141.94 94.3939ZM142.15 95.722C142.176 96.2628 142.189 96.8632 142.189 97.5241H143.527C143.527 96.8459 143.513 96.2235 143.486 95.6574L142.15 95.722ZM142.189 97.5241C142.189 98.2092 142.172 98.8382 142.137 99.4117L143.472 99.4926C143.509 98.8879 143.527 98.2315 143.527 97.5241H142.189ZM142.136 99.4218C142.112 99.9519 142.021 100.418 141.869 100.827L143.124 101.291C143.33 100.736 143.443 100.131 143.473 99.4825L142.136 99.4218ZM141.867 100.833C141.734 101.203 141.518 101.535 141.205 101.833L142.128 102.802C142.583 102.368 142.919 101.861 143.126 101.285L141.867 100.833ZM141.205 101.833C140.924 102.101 140.481 102.359 139.83 102.582L140.263 103.848C141.022 103.588 141.659 103.248 142.128 102.802L141.205 101.833ZM139.827 102.583C139.193 102.802 138.357 102.977 137.305 103.099L137.459 104.428C138.567 104.3 139.507 104.109 140.265 103.847L139.827 102.583ZM137.304 103.099C136.268 103.22 134.974 103.282 133.418 103.282V104.62C135.005 104.62 136.354 104.557 137.459 104.428L137.304 103.099ZM133.418 103.282H122.292V104.62H133.418V103.282ZM121.623 103.951V112.092H122.961V103.951H121.623ZM122.292 111.423H119.721V112.761H122.292V111.423ZM120.39 112.092V91.5255H119.052V112.092H120.39ZM122.292 102.478H133.418V101.14H122.292V102.478ZM133.418 102.478C134.567 102.478 135.538 102.46 136.328 102.423L136.266 101.087C135.504 101.122 134.555 101.14 133.418 101.14V102.478ZM136.335 102.423C137.139 102.377 137.823 102.299 138.376 102.182L138.101 100.873C137.637 100.971 137.026 101.044 136.259 101.087L136.335 102.423ZM138.376 102.182C138.932 102.065 139.424 101.888 139.804 101.618L139.03 100.527C138.857 100.65 138.563 100.776 138.101 100.873L138.376 102.182ZM139.804 101.618C140.189 101.344 140.471 100.979 140.643 100.538L139.396 100.053C139.318 100.255 139.198 100.408 139.03 100.527L139.804 101.618ZM140.637 100.553C140.809 100.141 140.895 99.6751 140.915 99.1709L139.579 99.1175C139.563 99.5059 139.498 99.8078 139.402 100.038L140.637 100.553ZM140.915 99.1835C140.943 98.7114 140.956 98.1576 140.956 97.5241H139.618C139.618 98.1402 139.605 98.6665 139.579 99.1049L140.915 99.1835ZM140.956 97.5241C140.956 96.9346 140.943 96.4197 140.915 95.9818L139.58 96.067C139.605 96.4682 139.618 96.9532 139.618 97.5241H140.956ZM140.915 95.996C140.895 95.5157 140.807 95.0704 140.625 94.6828L139.414 95.2505C139.5 95.4342 139.564 95.6941 139.579 96.0529L140.915 95.996ZM140.632 94.6986C140.45 94.2823 140.155 93.9515 139.766 93.7136L139.067 94.854C139.233 94.9553 139.339 95.0797 139.407 95.2347L140.632 94.6986ZM139.766 93.7136C139.388 93.4818 138.903 93.3329 138.354 93.2367L138.123 94.5543C138.592 94.6366 138.892 94.7466 139.067 94.854L139.766 93.7136ZM138.365 93.2388C137.81 93.1315 137.125 93.067 136.32 93.0396L136.274 94.3765C137.041 94.4026 137.65 94.4631 138.112 94.5522L138.365 93.2388ZM136.32 93.0396C135.533 93.0125 134.566 92.9991 133.418 92.9991V94.3367C134.557 94.3367 135.508 94.3501 136.274 94.3765L136.32 93.0396ZM133.418 92.9991H122.292V94.3367H133.418V92.9991ZM121.623 93.6679V101.809H122.961V93.6679H121.623ZM145.984 91.5255V90.8567H145.315V91.5255H145.984ZM164.663 91.6996L164.575 92.3627L164.582 92.3636L164.663 91.6996ZM168.157 93.0252L167.665 93.4778L167.671 93.4848L168.157 93.0252ZM169.081 95.6897L168.413 95.7113L168.413 95.722L169.081 95.6897ZM169.068 99.4522L168.4 99.4117L168.4 99.4218L169.068 99.4522ZM168.76 101.059L168.133 100.827L168.13 100.833L168.76 101.059ZM167.93 102.318L168.391 102.802L168.391 102.802L167.93 102.318ZM166.31 103.215L166.093 102.582L166.091 102.583L166.31 103.215ZM163.645 103.764L163.568 103.099L163.568 103.099L163.645 103.764ZM148.555 103.951V103.282H147.886V103.951H148.555ZM148.555 112.092V112.761H149.224V112.092H148.555ZM145.984 112.092H145.315V112.761H145.984V112.092ZM148.555 101.809H147.886V102.478H148.555V101.809ZM162.56 101.755L162.591 102.423L162.598 102.423L162.56 101.755ZM166.283 100.296L165.665 100.038L165.662 100.046L165.659 100.053L166.283 100.296ZM166.51 99.1442L165.843 99.1049L165.842 99.1175L166.51 99.1442ZM166.51 96.0244L165.842 96.0529L165.842 96.06L165.843 96.067L166.51 96.0244ZM166.283 94.9667L165.67 95.2347L165.673 95.2427L165.677 95.2505L166.283 94.9667ZM164.502 93.8955L164.375 94.5523L164.386 94.5543L164.502 93.8955ZM162.56 93.708L162.537 94.3765L162.538 94.3765L162.56 93.708ZM148.555 93.6679V92.9991H147.886V93.6679H148.555ZM145.984 92.1944H161.436V90.8567H145.984V92.1944ZM161.436 92.1944C162.695 92.1944 163.739 92.2517 164.575 92.3626L164.751 91.0366C163.837 90.9154 162.73 90.8567 161.436 90.8567V92.1944ZM164.582 92.3636C165.433 92.4667 166.101 92.6222 166.602 92.818L167.088 91.572C166.447 91.3215 165.66 91.1468 164.743 91.0356L164.582 92.3636ZM166.602 92.818C167.111 93.017 167.451 93.2448 167.665 93.4777L168.65 92.5726C168.257 92.145 167.722 91.8194 167.088 91.572L166.602 92.818ZM167.671 93.4848C167.913 93.7399 168.09 94.0401 168.203 94.3939L169.477 93.9862C169.305 93.4474 169.027 92.971 168.643 92.5656L167.671 93.4848ZM168.203 94.3939C168.324 94.7717 168.396 95.2089 168.413 95.7113L169.75 95.6681C169.73 95.0637 169.642 94.5011 169.477 93.9862L168.203 94.3939ZM168.413 95.722C168.439 96.2628 168.453 96.8632 168.453 97.5241H169.79C169.79 96.8459 169.777 96.2235 169.749 95.6574L168.413 95.722ZM168.453 97.5241C168.453 98.2092 168.435 98.8382 168.4 99.4117L169.735 99.4926C169.772 98.8879 169.79 98.2315 169.79 97.5241H168.453ZM168.4 99.4218C168.376 99.9519 168.284 100.418 168.133 100.827L169.387 101.291C169.593 100.736 169.706 100.131 169.736 99.4825L168.4 99.4218ZM168.13 100.833C167.998 101.203 167.781 101.535 167.468 101.833L168.391 102.802C168.846 102.368 169.183 101.861 169.389 101.285L168.13 100.833ZM167.468 101.833C167.187 102.101 166.744 102.359 166.093 102.582L166.526 103.848C167.285 103.588 167.922 103.248 168.391 102.802L167.468 101.833ZM166.091 102.583C165.457 102.802 164.62 102.977 163.568 103.099L163.722 104.428C164.83 104.3 165.77 104.109 166.528 103.847L166.091 102.583ZM163.568 103.099C162.531 103.22 161.237 103.282 159.682 103.282V104.62C161.268 104.62 162.617 104.557 163.723 104.428L163.568 103.099ZM159.682 103.282H148.555V104.62H159.682V103.282ZM147.886 103.951V112.092H149.224V103.951H147.886ZM148.555 111.423H145.984V112.761H148.555V111.423ZM146.653 112.092V91.5255H145.315V112.092H146.653ZM148.555 102.478H159.682V101.14H148.555V102.478ZM159.682 102.478C160.83 102.478 161.801 102.46 162.591 102.423L162.53 101.087C161.767 101.122 160.818 101.14 159.682 101.14V102.478ZM162.598 102.423C163.402 102.377 164.086 102.299 164.64 102.182L164.364 100.873C163.9 100.971 163.29 101.044 162.523 101.087L162.598 102.423ZM164.64 102.182C165.195 102.065 165.687 101.888 166.067 101.618L165.293 100.527C165.12 100.65 164.826 100.776 164.364 100.873L164.64 102.182ZM166.067 101.618C166.453 101.344 166.735 100.979 166.906 100.538L165.659 100.053C165.581 100.255 165.461 100.408 165.293 100.527L166.067 101.618ZM166.9 100.553C167.072 100.141 167.158 99.6751 167.179 99.1709L165.842 99.1175C165.827 99.5059 165.762 99.8078 165.665 100.038L166.9 100.553ZM167.178 99.1835C167.206 98.7114 167.219 98.1576 167.219 97.5241H165.882C165.882 98.1402 165.868 98.6665 165.843 99.1049L167.178 99.1835ZM167.219 97.5241C167.219 96.9346 167.206 96.4197 167.178 95.9818L165.843 96.067C165.869 96.4682 165.882 96.9532 165.882 97.5241H167.219ZM167.179 95.996C167.158 95.5157 167.07 95.0704 166.888 94.6828L165.677 95.2505C165.763 95.4342 165.827 95.6941 165.842 96.0529L167.179 95.996ZM166.896 94.6986C166.713 94.2823 166.418 93.9515 166.03 93.7136L165.331 94.854C165.496 94.9553 165.602 95.0797 165.67 95.2347L166.896 94.6986ZM166.03 93.7136C165.652 93.4818 165.166 93.3329 164.618 93.2367L164.386 94.5543C164.856 94.6366 165.155 94.7466 165.331 94.854L166.03 93.7136ZM164.629 93.2388C164.073 93.1315 163.388 93.067 162.583 93.0396L162.538 94.3765C163.304 94.4026 163.913 94.4631 164.375 94.5522L164.629 93.2388ZM162.583 93.0396C161.797 93.0125 160.829 92.9991 159.682 92.9991V94.3367C160.82 94.3367 161.771 94.3501 162.537 94.3765L162.583 93.0396ZM159.682 92.9991H148.555V94.3367H159.682V92.9991ZM147.886 93.6679V101.809H149.224V93.6679H147.886Z" fill="#11B991" mask="url(#path-5-outside-1_23_3462)"/>
<defs>
<filter id="filter0_d_23_3462" x="58.7654" y="20.7336" width="24.0777" height="24.0777" filterUnits="userSpaceOnUse" color-interpolation-filters="sRGB">
<feFlood flood-opacity="0" result="BackgroundImageFix"/>
<feColorMatrix in="SourceAlpha" type="matrix" values="0 0 0 0 0 0 0 0 0 0 0 0 0 0 0 0 0 0 127 0" result="hardAlpha"/>
<feOffset/>
<feGaussianBlur stdDeviation="2.00648"/>
<feComposite in2="hardAlpha" operator="out"/>
<feColorMatrix type="matrix" values="0 0 0 0 0 0 0 0 0 0.643056 0 0 0 0 0.487048 0 0 0 0.24 0"/>
<feBlend mode="normal" in2="BackgroundImageFix" result="effect1_dropShadow_23_3462"/>
<feBlend mode="normal" in="SourceGraphic" in2="effect1_dropShadow_23_3462" result="shape"/>
</filter>
<filter id="filter1_d_23_3462" x="87.1904" y="20.7336" width="24.0777" height="24.0777" filterUnits="userSpaceOnUse" color-interpolation-filters="sRGB">
<feFlood flood-opacity="0" result="BackgroundImageFix"/>
<feColorMatrix in="SourceAlpha" type="matrix" values="0 0 0 0 0 0 0 0 0 0 0 0 0 0 0 0 0 0 127 0" result="hardAlpha"/>
<feOffset/>
<feGaussianBlur stdDeviation="2.00648"/>
<feComposite in2="hardAlpha" operator="out"/>
<feColorMatrix type="matrix" values="0 0 0 0 0 0 0 0 0 0.643056 0 0 0 0 0.487048 0 0 0 0.24 0"/>
<feBlend mode="normal" in2="BackgroundImageFix" result="effect1_dropShadow_23_3462"/>
<feBlend mode="normal" in="SourceGraphic" in2="effect1_dropShadow_23_3462" result="shape"/>
</filter>
<linearGradient id="paint0_linear_23_3462" x1="39.8709" y1="18.0583" x2="132.336" y2="42.6376" gradientUnits="userSpaceOnUse">
<stop stop-color="#0CBE8C"/>
<stop offset="1" stop-color="#5B72DE"/>
</linearGradient>
<linearGradient id="paint1_linear_23_3462" x1="62.7783" y1="32.7725" x2="107.255" y2="32.7725" gradientUnits="userSpaceOnUse">
<stop offset="0.206666" stop-color="#009687"/>
<stop offset="0.853172" stop-color="white"/>
</linearGradient>
</defs>
</svg>
