<svg width="48" height="48" viewBox="0 0 48 48" fill="none" xmlns="http://www.w3.org/2000/svg">
<g id="Group 1000011432">
<g id="Ellipse 442">
<circle cx="24" cy="24" r="24" fill="#11B991"/>
<circle cx="24" cy="24" r="24" fill="url(#paint0_linear_1460_45801)"/>
</g>
<g id="Group 1000011403">
<path id="Vector" d="M40.8919 23.6152C40.561 17.7224 35.6774 13.0459 29.7028 13.0459H19.0341C12.8443 13.0459 7.82629 18.0639 7.82629 24.2525C7.82629 30.4423 12.8443 35.4604 19.0341 35.4604H24.7386V39.7685L29.0468 35.4604H29.7028C35.8914 35.4604 40.9095 30.4423 40.9095 24.2537C40.9095 24.0385 40.9036 23.8257 40.8919 23.6152ZM35.1056 29.4027L34.8518 29.6565L34.8331 29.674C33.4953 30.9417 31.6897 31.7182 29.7028 31.7182H28.4796L24.7386 35.4592V31.7182H19.0341C14.9107 31.7182 11.5685 28.376 11.5685 24.2537C11.5685 20.1303 14.9107 16.7881 19.0341 16.7881H29.7028C33.4392 16.7881 36.5346 19.5339 37.0808 23.117C37.1381 23.4877 37.1673 23.8666 37.1673 24.2525C37.1673 26.2429 36.3896 28.0485 35.1208 29.3863L35.1056 29.4027Z" fill="white"/>
<rect id="Rectangle 2" x="16.5972" y="21.6992" width="15.5534" height="5.61326" rx="2.80663" fill="url(#paint1_linear_1460_45801)"/>
<g id="Vector_2" filter="url(#filter0_d_1460_45801)">
<path d="M19.4038 27.3125C20.9539 27.3125 22.2104 26.0559 22.2104 24.5059C22.2104 22.9558 20.9539 21.6992 19.4038 21.6992C17.8537 21.6992 16.5972 22.9558 16.5972 24.5059C16.5972 26.0559 17.8537 27.3125 19.4038 27.3125Z" fill="white"/>
</g>
<g id="Vector_3" filter="url(#filter1_d_1460_45801)">
<path d="M29.3439 27.3125C30.8939 27.3125 32.1505 26.0559 32.1505 24.5059C32.1505 22.9558 30.8939 21.6992 29.3439 21.6992C27.7938 21.6992 26.5372 22.9558 26.5372 24.5059C26.5372 26.0559 27.7938 27.3125 29.3439 27.3125Z" fill="white"/>
</g>
</g>
</g>
<defs>
<filter id="filter0_d_1460_45801" x="12.5842" y="17.6863" width="13.6392" height="13.6392" filterUnits="userSpaceOnUse" color-interpolation-filters="sRGB">
<feFlood flood-opacity="0" result="BackgroundImageFix"/>
<feColorMatrix in="SourceAlpha" type="matrix" values="0 0 0 0 0 0 0 0 0 0 0 0 0 0 0 0 0 0 127 0" result="hardAlpha"/>
<feOffset/>
<feGaussianBlur stdDeviation="2.00648"/>
<feComposite in2="hardAlpha" operator="out"/>
<feColorMatrix type="matrix" values="0 0 0 0 0 0 0 0 0 0.643056 0 0 0 0 0.487048 0 0 0 0.24 0"/>
<feBlend mode="normal" in2="BackgroundImageFix" result="effect1_dropShadow_1460_45801"/>
<feBlend mode="normal" in="SourceGraphic" in2="effect1_dropShadow_1460_45801" result="shape"/>
</filter>
<filter id="filter1_d_1460_45801" x="22.5243" y="17.6863" width="13.6392" height="13.6392" filterUnits="userSpaceOnUse" color-interpolation-filters="sRGB">
<feFlood flood-opacity="0" result="BackgroundImageFix"/>
<feColorMatrix in="SourceAlpha" type="matrix" values="0 0 0 0 0 0 0 0 0 0 0 0 0 0 0 0 0 0 127 0" result="hardAlpha"/>
<feOffset/>
<feGaussianBlur stdDeviation="2.00648"/>
<feComposite in2="hardAlpha" operator="out"/>
<feColorMatrix type="matrix" values="0 0 0 0 0 0 0 0 0 0.643056 0 0 0 0 0.487048 0 0 0 0.24 0"/>
<feBlend mode="normal" in2="BackgroundImageFix" result="effect1_dropShadow_1460_45801"/>
<feBlend mode="normal" in="SourceGraphic" in2="effect1_dropShadow_1460_45801" result="shape"/>
</filter>
<linearGradient id="paint0_linear_1460_45801" x1="1.10286" y1="11.343" x2="49.1183" y2="21.6527" gradientUnits="userSpaceOnUse">
<stop stop-color="#0CBE8C"/>
<stop offset="1" stop-color="#5B72DE"/>
</linearGradient>
<linearGradient id="paint1_linear_1460_45801" x1="16.5972" y1="24.5059" x2="32.1506" y2="24.5059" gradientUnits="userSpaceOnUse">
<stop offset="0.206666" stop-color="#009687"/>
<stop offset="0.853172" stop-color="white"/>
</linearGradient>
</defs>
</svg>
