<svg width="108" height="102" viewBox="0 0 108 102" fill="none" xmlns="http://www.w3.org/2000/svg">
<path d="M0 12C0 5.37258 5.37258 0 12 0H96C102.627 0 108 5.37258 108 12V102H0V12Z" fill="#DDE5ED"/>
<path d="M3 13C3 7.47715 7.47715 3 13 3H95C100.523 3 105 7.47715 105 13V102H3V13Z" fill="#F9FAFB"/>
<path d="M11 18C11 15.7909 12.7909 14 15 14H44C46.2091 14 48 15.7909 48 18V26C48 28.2091 46.2091 30 44 30H15C12.7909 30 11 28.2091 11 26V18Z" fill="#DDE5ED"/>
<path d="M11 36C11 33.7909 12.7909 32 15 32H54C56.2091 32 58 33.7909 58 36V46C58 48.2091 56.2091 50 54 50H11V36Z" fill="#DDE5ED"/>
<path d="M97 58C97 55.7909 95.2091 54 93 54H64C61.7909 54 60 55.7909 60 58V66C60 68.2091 61.7909 70 64 70H93C95.2091 70 97 68.2091 97 66V58Z" fill="#C1DFD8"/>
<path d="M97 76C97 73.7909 95.2091 72 93 72H36C33.7909 72 32 73.7909 32 76V86C32 88.2091 33.7909 90 36 90H97V76Z" fill="#C1DFD8"/>
</svg>
