<svg width="20" height="20" viewBox="0 0 20 20" fill="none" xmlns="http://www.w3.org/2000/svg">
<g id="Trash">
<g id="Group 1000011445">
<g id="Group 1000011444">
<path id="Ellipse 667" d="M17.5 10C17.5 5.85786 14.1421 2.5 10 2.5C5.85786 2.5 2.5 5.85786 2.5 10" stroke="#32363E" stroke-width="1.5" stroke-linecap="round" stroke-dasharray="2 2"/>
<path id="Ellipse 668" d="M2.84277 12.25C3.79847 15.2928 6.64119 17.5 9.99942 17.5C13.2181 17.5 15.9632 15.4725 17.0272 12.625" stroke="#32363E" stroke-width="1.5" stroke-linecap="round"/>
</g>
<g id="Group 1000011443">
<g id="Group 21">
<path id="Subtract" fill-rule="evenodd" clip-rule="evenodd" d="M6.56819 7.81836C6.25439 7.81836 6 8.07275 6 8.38655C6 8.70035 6.25439 8.95474 6.56819 8.95474H6.63333C6.72761 8.95474 6.77475 8.95474 6.80404 8.98403C6.83333 9.01332 6.83333 9.06046 6.83333 9.15474V11.5003C6.83333 12.4431 6.83333 12.9145 7.12623 13.2074C7.41912 13.5003 7.89052 13.5003 8.83334 13.5003H10.6667C11.6095 13.5003 12.0809 13.5003 12.3738 13.2074C12.6667 12.9145 12.6667 12.4431 12.6667 11.5003V9.15474C12.6667 9.06046 12.6667 9.01332 12.696 8.98403C12.7252 8.95474 12.7724 8.95474 12.8667 8.95474H12.9318C13.2456 8.95474 13.5 8.70035 13.5 8.38655C13.5 8.07275 13.2456 7.81836 12.9318 7.81836H6.56819ZM9.45919 9.71225C9.45919 9.29803 9.1234 8.96225 8.70919 8.96225C8.29498 8.96225 7.95919 9.29803 7.95919 9.71225V11.6062C7.95919 12.0204 8.29498 12.3562 8.70919 12.3562C9.1234 12.3562 9.45919 12.0204 9.45919 11.6062V9.71225ZM11.5425 9.71225C11.5425 9.29803 11.2067 8.96225 10.7925 8.96225C10.3783 8.96225 10.0425 9.29803 10.0425 9.71225V11.6062C10.0425 12.0204 10.3783 12.3562 10.7925 12.3562C11.2067 12.3562 11.5425 12.0204 11.5425 11.6062V9.71225Z" fill="#32363E"/>
</g>
<path id="Vector" d="M10.9621 6.54495H11.4051C11.6313 6.54495 11.8147 6.72849 11.8144 6.95474C11.8142 7.18065 11.631 7.36366 11.4051 7.36366H8.09719C7.87146 7.36366 7.68848 7.18067 7.68848 6.95494C7.68848 6.72922 7.87146 6.54623 8.09719 6.54623H8.54058C8.69142 6.54623 8.81369 6.42395 8.81369 6.27312C8.81369 6.12228 8.93597 6 9.08681 6H10.4172C10.5677 6 10.6896 6.12199 10.6896 6.27248C10.6896 6.42296 10.8116 6.54495 10.9621 6.54495Z" fill="#32363E"/>
</g>
</g>
</g>
</svg>
