<svg width="20" height="20" viewBox="0 0 20 20" fill="none" xmlns="http://www.w3.org/2000/svg">
<g id="ant-design:clear-outlined">
<path id="Vector 610" d="M5.1722 9.91211H4.33301C3.78072 9.91211 3.33301 9.46439 3.33301 8.91211V7.76758C3.33301 7.21529 3.78072 6.76758 4.33301 6.76758H7.48926C8.04154 6.76758 8.48926 6.31986 8.48926 5.76758V3.5C8.48926 2.94772 8.93697 2.5 9.48926 2.5H10.3799C10.9322 2.5 11.3799 2.94772 11.3799 3.5V5.76758C11.3799 6.31986 11.8276 6.76758 12.3799 6.76758H15.7217C16.274 6.76758 16.7217 7.21529 16.7217 7.76758V8.91211C16.7217 9.46439 16.274 9.91211 15.7217 9.91211H14.902M5.1722 9.91211L3.94656 14.8667C3.6346 16.1278 4.58894 17.347 5.88804 17.347H7.44434M5.1722 9.91211H14.902M14.902 9.91211L16.2564 14.8144C16.6083 16.0882 15.6501 17.347 14.3286 17.347H12.4541M12.4541 17.347V13.5189M12.4541 17.347H7.44434M7.44434 17.347V13.5189" stroke="#32363E" stroke-width="1.5" stroke-linecap="round"/>
</g>
</svg>
