<svg width="21" height="20" viewBox="0 0 21 20" fill="none" xmlns="http://www.w3.org/2000/svg">
<g id="Trash">
<path id="Vector 8" d="M9.0835 12.5L9.0835 10" stroke="#101114" stroke-width="1.5" stroke-linecap="round"/>
<path id="Vector 9" d="M12.417 12.5L12.417 10" stroke="#101114" stroke-width="1.5" stroke-linecap="round"/>
<path id="Rectangle 41" d="M3.25 5.83301H18.25V5.83301C17.7853 5.83301 17.553 5.83301 17.3598 5.87144C16.5664 6.02925 15.9462 6.64945 15.7884 7.44283C15.75 7.63603 15.75 7.86835 15.75 8.33301V12.6663C15.75 14.552 15.75 15.4948 15.1642 16.0806C14.5784 16.6663 13.6356 16.6663 11.75 16.6663H9.75C7.86438 16.6663 6.92157 16.6663 6.33579 16.0806C5.75 15.4948 5.75 14.552 5.75 12.6663V8.33301C5.75 7.86835 5.75 7.63603 5.71157 7.44283C5.55376 6.64945 4.93356 6.02925 4.14018 5.87144C3.94698 5.83301 3.71466 5.83301 3.25 5.83301V5.83301Z" stroke="#101114" stroke-width="1.5" stroke-linecap="round"/>
<path id="Ellipse 45" d="M9.14045 2.80883C9.23541 2.72023 9.44465 2.64194 9.73572 2.5861C10.0268 2.53027 10.3834 2.5 10.7503 2.5C11.1172 2.5 11.4739 2.53027 11.7649 2.5861C12.056 2.64194 12.2652 2.72023 12.3602 2.80883" stroke="#101114" stroke-width="1.5" stroke-linecap="round"/>
</g>
</svg>
