<svg width="48" height="48" viewBox="0 0 48 48" fill="none" xmlns="http://www.w3.org/2000/svg">
<g clip-path="url(#clip0_525_23774)">
<rect width="48" height="48" rx="8" fill="#E6F5FF"/>
<g clip-path="url(#clip1_525_23774)">
<path d="M21.0004 31.5999C21.9004 31.5999 22.6004 30.8999 22.6004 29.9999V27.3999H19.4004V29.9999C19.4004 30.8999 20.1004 31.5999 21.0004 31.5999Z" fill="#FF9900"/>
<g clip-path="url(#clip2_525_23774)">
<path d="M10 23.5856L12.4701 21.0825V23.5856H10Z" fill="#00528C"/>
<path d="M37.6323 23.5856L35.1621 21.0825V23.5856H37.6323Z" fill="#00528C"/>
<path d="M29.5725 10H13.7626C12.9561 10 12.3027 10.6527 12.3027 11.4583V36.5417C12.3027 37.3472 12.9561 38 13.7626 38H33.8692C34.6757 38 35.3291 37.3472 35.3291 36.5417V15.8333L29.5725 10Z" fill="#41A5EE"/>
<path d="M29.5723 10L35.3288 15.8333H29.5723V10Z" fill="white"/>
<path d="M10 23.5859H37.6316V34.0859H10V23.5859Z" fill="#0077CC"/>
<path d="M35.3288 15.8335V21.6668L29.5723 15.8335H35.3288Z" fill="#258AD4"/>
<path d="M22.0591 15.6401H15.1811C14.8632 15.6401 14.6055 15.9013 14.6055 16.2235C14.6055 16.5456 14.8632 16.8068 15.1811 16.8068H22.0591C22.377 16.8068 22.6347 16.5456 22.6347 16.2235C22.6347 15.9013 22.377 15.6401 22.0591 15.6401Z" fill="#D8EFFF"/>
<path d="M27.2699 17.8633H15.1811C14.8632 17.8633 14.6055 18.1244 14.6055 18.4466C14.6055 18.7688 14.8632 19.0299 15.1811 19.0299H27.2699C27.5879 19.0299 27.8456 18.7688 27.8456 18.4466C27.8456 18.1244 27.5879 17.8633 27.2699 17.8633Z" fill="#D8EFFF"/>
<path d="M27.2699 20.0859H15.1811C14.8632 20.0859 14.6055 20.3471 14.6055 20.6693C14.6055 20.9914 14.8632 21.2526 15.1811 21.2526H27.2699C27.5879 21.2526 27.8456 20.9914 27.8456 20.6693C27.8456 20.3471 27.5879 20.0859 27.2699 20.0859Z" fill="#D8EFFF"/>
<path d="M12.8789 31.8974V25.7788H14.8241C15.3577 25.7788 15.8372 25.9013 16.2632 26.1463C16.6886 26.3913 17.0213 26.7372 17.2608 27.1841C17.4997 27.6309 17.6206 28.1314 17.6235 28.6861V28.9679C17.6235 29.5285 17.5066 30.0301 17.2729 30.4746C17.0392 30.9186 16.7105 31.2662 16.2857 31.5165C15.8614 31.7673 15.3876 31.8939 14.8655 31.8968H12.8789V31.8974ZM14.3347 26.9181V30.7628H14.8407C15.2581 30.7628 15.5787 30.6123 15.8027 30.3113C16.0266 30.0103 16.1389 29.5629 16.1389 28.9685V28.7036C16.1389 28.1127 16.0266 27.6671 15.8027 27.3672C15.5787 27.0674 15.2523 26.9175 14.8241 26.9175H14.3347V26.9181Z" fill="white"/>
<path d="M23.482 28.9642C23.482 29.561 23.3727 30.0889 23.1545 30.5486C22.9363 31.0082 22.626 31.3617 22.2236 31.6096C21.8213 31.8576 21.363 31.9818 20.849 31.9818C20.3349 31.9818 19.8784 31.8622 19.4806 31.6225C19.0823 31.3827 18.772 31.0403 18.5498 30.5952C18.327 30.1496 18.2102 29.6386 18.1992 29.0616V28.7169C18.1992 28.1172 18.3074 27.5887 18.5245 27.1308C18.7415 26.6729 19.0523 26.3194 19.4576 26.0697C19.8623 25.8206 20.3234 25.6958 20.8403 25.6958C21.3573 25.6958 21.808 25.8189 22.2087 26.0656C22.6093 26.3124 22.9213 26.663 23.1435 27.1185C23.3663 27.5741 23.4786 28.0956 23.4815 28.6836V28.9654L23.482 28.9642ZM22.0014 28.7081C22.0014 28.1003 21.9013 27.6389 21.7009 27.3233C21.5006 27.0083 21.2139 26.8508 20.8403 26.8508C20.1104 26.8508 19.7247 27.4056 19.6833 28.5151L19.6792 28.9648C19.6792 29.5645 19.7771 30.0253 19.9734 30.3473C20.1697 30.6693 20.4616 30.8303 20.8484 30.8303C21.2352 30.8303 21.4995 30.6722 21.6986 30.3555C21.8978 30.0387 21.9986 29.5837 22.0014 28.9899V28.7081Z" fill="white"/>
<path d="M29.1179 29.8258C29.0984 30.2516 28.985 30.6279 28.7777 30.9539C28.5705 31.2806 28.2792 31.5332 27.905 31.7123C27.5303 31.8914 27.1026 31.9812 26.6213 31.9812C25.828 31.9812 25.2029 31.7193 24.747 31.1954C24.291 30.6716 24.0625 29.9319 24.0625 28.9764V28.6737C24.0625 28.074 24.1655 27.5496 24.3716 27.0999C24.5777 26.6501 24.8742 26.303 25.261 26.0574C25.6479 25.8124 26.0957 25.6899 26.6046 25.6899C27.3374 25.6899 27.9263 25.8854 28.3713 26.2762C28.8163 26.667 29.0696 27.2054 29.13 27.892H27.6788C27.6678 27.5193 27.5752 27.2521 27.4007 27.0894C27.2263 26.9272 26.9609 26.8455 26.6046 26.8455C26.2483 26.8455 25.9771 26.9826 25.8085 27.2574C25.6398 27.5321 25.5512 27.9702 25.5431 28.5728V29.0056C25.5431 29.6584 25.6237 30.125 25.7854 30.405C25.9472 30.685 26.2258 30.825 26.6213 30.825C26.9558 30.825 27.2113 30.7451 27.3887 30.5853C27.5654 30.4254 27.6598 30.1723 27.6707 29.8246H29.1179V29.8258Z" fill="white"/>
<path d="M32.0584 27.8129L33.0456 25.7788H34.7087L33.0209 28.8127L34.7542 31.8974H33.0744L32.0584 29.826L31.0424 31.8974H29.3672L31.0965 28.8127L29.4127 25.7788H31.0717L32.059 27.8129H32.0584Z" fill="white"/>
</g>
</g>
</g>
<defs>
<clipPath id="clip0_525_23774">
<rect width="48" height="48" rx="8" fill="white"/>
</clipPath>
<clipPath id="clip1_525_23774">
<rect width="36" height="36" fill="white" transform="translate(6 6)"/>
</clipPath>
<clipPath id="clip2_525_23774">
<rect width="27.6316" height="28" fill="white" transform="translate(10 10)"/>
</clipPath>
</defs>
</svg>
