<svg width="24" height="24" viewBox="0 0 24 24" fill="none" xmlns="http://www.w3.org/2000/svg">
<path d="M3 12C3 16.9707 7.0293 21 12 21C16.9707 21 21 16.9707 21 12C21 7.0293 16.9707 3 12 3C7.0293 3 3 7.0293 3 12Z" stroke="#5670A6" stroke-width="1.5" stroke-linecap="round" stroke-linejoin="round"/>
<path d="M12.8538 3C12.8538 3 15.4152 6.57286 15.4152 12C15.4152 17.4271 12.8538 21 12.8538 21M11.1462 21C11.1462 21 8.58484 17.4271 8.58484 12C8.58484 6.57286 11.1462 3 11.1462 3M4 15.1658H20M4 8.83417H20" stroke="#5670A6" stroke-width="1.5" stroke-linecap="round" stroke-linejoin="round"/>
</svg>
