<svg width="48" height="48" viewBox="0 0 48 48" fill="none" xmlns="http://www.w3.org/2000/svg">
<g clip-path="url(#clip0_549_34913)">
<rect width="48" height="48" rx="8" fill="#FFECBB"/>
<g clip-path="url(#clip1_549_34913)">
<path d="M21.0004 31.5999C21.9004 31.5999 22.6004 30.8999 22.6004 29.9999V27.3999H19.4004V29.9999C19.4004 30.8999 20.1004 31.5999 21.0004 31.5999Z" fill="#FF9900"/>
<path d="M27.9 10H13.8C12.8 10 12 10.9 12 11.9V36.1C12 37.1 12.8 38 13.8 38H34.1C35.1 38 35.9 37.1 35.9 36.1V17.9L27.9 10ZM24 30C24 31.7 22.7 33 21 33C19.3 33 18 31.7 18 30V26H24V30ZM23.2 18C23.8 18 24.2 18.4 24.2 19C24.2 19.6 23.8 20 23.2 20H21V22H23.2C23.8 22 24.2 22.4 24.2 23C24.2 23.6 23.8 24 23.2 24H21V22H18.8C18.2 22 17.8 21.6 17.8 21C17.8 20.4 18.2 20 18.8 20H21V18H18.8C18.2 18 17.8 17.6 17.8 17C17.8 16.4 18.2 16 18.8 16H21V14H23.2C23.8 14 24.2 14.4 24.2 15C24.2 15.6 23.8 16 23.2 16H21V18H23.2ZM27.9 18V12.5L33.6 18H27.9Z" fill="#FF9900"/>
</g>
</g>
<defs>
<clipPath id="clip0_549_34913">
<rect width="48" height="48" rx="8" fill="white"/>
</clipPath>
<clipPath id="clip1_549_34913">
<rect width="36" height="36" fill="white" transform="translate(6 6)"/>
</clipPath>
</defs>
</svg>
