<svg width="20" height="20" viewBox="0 0 20 20" fill="none" xmlns="http://www.w3.org/2000/svg">
<g id="Fire">
<g id="Group">
<g id="Group_2">
<path id="Vector" d="M13.0441 8.77177C13.0959 6.16941 9.14294 6.52706 10.1594 2C10.1594 2 7.50529 3.04471 7.97118 6.24941C8.13118 7.35059 7.74529 8.17412 7.74529 8.17412C7.35471 8.25412 6.74765 7.47765 6.95941 6.27765C6.95941 6.27765 5.56647 7.31765 5.56647 8.65412C5.56647 9.99059 6.21118 11.4071 6.21118 11.4071C4.60647 11.0588 4.76647 8.89412 4.76647 8.89412C4.76647 8.89412 3.75 10.2541 3.75 12.8188C3.75 14.8141 5.99941 18 9.62765 18C13.2559 18 16.1688 15.1859 16.1688 12.6824C16.1688 11.5859 15.7971 10.1694 14.9924 9.39765C14.9924 9.39765 15.1006 11.5859 14.0182 11.4824C14.0182 11.4824 14.9124 8.62588 13.9759 7.31765C13.9759 7.31765 13.5241 8.72941 13.0441 8.77177Z" fill="url(#paint0_linear_2135_80980)"/>
<path id="Vector_2" d="M13.0488 6.8094C14.103 4.86587 11.4912 4.59764 11.4865 3.40234C11.4865 3.40234 11.0253 4.63529 12.1265 5.47764C13.0253 6.15999 13.0488 6.8094 13.0488 6.8094Z" fill="url(#paint1_linear_2135_80980)"/>
<path id="Vector_3" d="M7.50546 3.0918C7.10546 3.48709 7.65604 5.12003 6.40428 5.76474C6.40428 5.76474 5.98075 3.9718 7.50546 3.0918Z" fill="url(#paint2_linear_2135_80980)"/>
<path id="Vector_4" opacity="0.5" d="M4.57353 9.5482C4.22529 10.1459 3.75 11.2517 3.75 12.8188C3.75 14.5694 5.98059 17.7882 9.62765 17.7882C13.19 17.7882 15.9571 15.0447 15.9571 12.687C15.9571 11.8353 15.7218 10.7482 15.1994 9.97644C15.1618 10.4611 15.0441 11.12 14.6818 11.4635C14.4935 11.6423 14.2582 11.7223 13.9994 11.6941L13.7359 11.6706L13.8159 11.4211C13.8253 11.3976 14.5076 9.16703 14.0135 7.84467C13.8159 8.32938 13.4771 8.95526 13.0629 8.9882L12.8276 9.00703L12.8324 8.77173C12.8512 7.79762 12.2535 7.27997 11.5618 6.68232C10.5735 5.82585 9.45824 4.85644 9.86765 2.39526C9.18059 2.79997 7.84412 3.91526 8.17824 6.21644C8.34765 7.36938 7.94765 8.22585 7.93353 8.2635L7.88647 8.36232L7.78294 8.38115C7.58529 8.41879 7.37824 8.33879 7.19 8.15997C6.93588 7.91056 6.70529 7.43997 6.69588 6.79997C6.31 7.19526 5.77824 7.87762 5.77824 8.65409C5.77824 9.92938 6.39941 11.3035 6.40412 11.3176L6.57824 11.7035L6.16412 11.6141C5.08176 11.3788 4.67706 10.3717 4.57353 9.5482Z" fill="url(#paint3_linear_2135_80980)"/>
<path id="Vector_5" d="M11.4868 3.40234C11.3927 4.11293 11.6751 5.13411 12.1268 5.47764C12.5409 5.79293 13.0068 6.33411 13.0445 6.8094C13.7503 5.42587 12.7574 4.91293 12.188 4.71058C11.948 4.62587 11.5056 4.13176 11.4868 3.40234Z" fill="url(#paint4_radial_2135_80980)"/>
<path id="Vector_6" d="M9.31743 3.19995C7.75507 5.64701 9.78331 8.23054 8.7386 9.77877C7.6939 11.327 6.63507 9.89642 6.56449 8.92701C6.56449 8.92701 6.5739 12.0611 8.12213 13.2988C9.67037 14.5364 5.14331 14.2682 4.52213 12.7576C4.52213 12.7576 4.52213 17.7882 9.62801 17.7882C14.7339 17.7882 15.5857 13.1058 15.5857 13.1058C15.5857 13.1058 13.7268 14.6917 12.4892 13.4541C12.4892 13.4541 13.4162 11.8305 13.6515 10.1647C13.6515 10.1647 13.0115 10.5694 12.028 10.4141C12.028 10.4141 12.5739 8.07524 11.4586 7.30819C10.028 6.32466 8.8186 3.98113 9.31743 3.19995Z" fill="url(#paint5_linear_2135_80980)"/>
<path id="Vector_7" d="M9.70761 6.08008C8.88879 7.15772 10.4841 9.92478 8.80879 11.0213C7.88173 11.6283 7.34997 10.8989 7.34997 10.8989C7.34997 10.8989 7.59938 12.0189 8.59703 13.0165C9.59467 14.0142 7.09585 15.3648 5.06761 13.6189C5.06761 13.6189 5.76408 17.8118 10.4841 17.106C15.6935 16.3295 15.3076 12.4565 15.3076 12.4565C15.3076 12.4565 13.8959 14.6777 11.8864 13.6142C11.8864 13.6142 13.1523 11.8495 13.1523 10.8377C13.1523 10.8377 12.2959 11.346 11.317 10.8565C11.317 10.8565 11.7829 8.50361 11.2276 8.15067C9.89585 7.2989 9.70761 6.08008 9.70761 6.08008Z" fill="url(#paint6_linear_2135_80980)"/>
<path id="Vector_8" opacity="0.5" d="M13.0441 8.77177C13.0959 6.16941 9.14294 6.52706 10.1594 2C10.1594 2 7.50529 3.04471 7.97118 6.24941C8.13118 7.35059 7.74529 8.17412 7.74529 8.17412C7.35471 8.25412 6.74765 7.47765 6.95941 6.27765C6.95941 6.27765 5.56647 7.31765 5.56647 8.65412C5.56647 9.99059 6.21118 11.4071 6.21118 11.4071C4.60647 11.0588 4.76647 8.89412 4.76647 8.89412C4.76647 8.89412 3.75 10.2541 3.75 12.8188C3.75 14.8141 5.99941 18 9.62765 18C13.2559 18 16.1688 15.1859 16.1688 12.6824C16.1688 11.5859 15.7971 10.1694 14.9924 9.39765C14.9924 9.39765 15.1006 11.5859 14.0182 11.4824C14.0182 11.4824 14.9124 8.62588 13.9759 7.31765C13.9759 7.31765 13.5241 8.72941 13.0441 8.77177Z" fill="url(#paint7_radial_2135_80980)"/>
<path id="Vector_9" opacity="0.5" d="M13.0441 8.77177C13.0959 6.16941 9.14294 6.52706 10.1594 2C10.1594 2 7.50529 3.04471 7.97118 6.24941C8.13118 7.35059 7.74529 8.17412 7.74529 8.17412C7.35471 8.25412 6.74765 7.47765 6.95941 6.27765C6.95941 6.27765 5.56647 7.31765 5.56647 8.65412C5.56647 9.99059 6.21118 11.4071 6.21118 11.4071C4.60647 11.0588 4.76647 8.89412 4.76647 8.89412C4.76647 8.89412 3.75 10.2541 3.75 12.8188C3.75 14.8141 5.99941 18 9.62765 18C13.2559 18 16.1688 15.1859 16.1688 12.6824C16.1688 11.5859 15.7971 10.1694 14.9924 9.39765C14.9924 9.39765 15.1006 11.5859 14.0182 11.4824C14.0182 11.4824 14.9124 8.62588 13.9759 7.31765C13.9759 7.31765 13.5241 8.72941 13.0441 8.77177Z" fill="url(#paint8_radial_2135_80980)"/>
<path id="Vector_10" d="M4.07031 11.727C4.17855 14.3858 6.36678 17.5717 9.78796 17.5717C13.2091 17.5717 14.9174 13.9623 15.0256 11.8493C15.0256 11.8493 14.3856 13.0917 12.9409 13.3411C11.4962 13.5905 13.0397 10.8564 12.028 9.23755C12.028 9.23755 11.1338 12.0564 9.86325 12.1599C8.59266 12.2634 7.51502 10.2964 7.51502 9.23755C7.51502 9.23755 6.73384 11.1434 6.92678 12.6587C7.22325 14.9599 4.07031 11.727 4.07031 11.727Z" fill="url(#paint9_radial_2135_80980)"/>
<path id="Vector_11" opacity="0.5" d="M13.0441 8.77177C13.0959 6.16941 9.14294 6.52706 10.1594 2C10.1594 2 7.50529 3.04471 7.97118 6.24941C8.13118 7.35059 7.74529 8.17412 7.74529 8.17412C7.35471 8.25412 6.74765 7.47765 6.95941 6.27765C6.95941 6.27765 5.56647 7.31765 5.56647 8.65412C5.56647 9.99059 6.21118 11.4071 6.21118 11.4071C4.60647 11.0588 4.76647 8.89412 4.76647 8.89412C4.76647 8.89412 3.75 10.2541 3.75 12.8188C3.75 14.8141 5.99941 18 9.62765 18C13.2559 18 16.1688 15.1859 16.1688 12.6824C16.1688 11.5859 15.7971 10.1694 14.9924 9.39765C14.9924 9.39765 15.1006 11.5859 14.0182 11.4824C14.0182 11.4824 14.9124 8.62588 13.9759 7.31765C13.9759 7.31765 13.5241 8.72941 13.0441 8.77177Z" fill="url(#paint10_radial_2135_80980)"/>
<path id="Vector_12" opacity="0.5" d="M13.0488 6.8094C14.103 4.86587 11.4912 4.59764 11.4865 3.40234C11.4865 3.40234 11.0253 4.63529 12.1265 5.47764C13.0253 6.15999 13.0488 6.8094 13.0488 6.8094Z" fill="url(#paint11_radial_2135_80980)"/>
<path id="Vector_13" d="M7.50546 3.0918C7.11016 3.48709 7.36428 4.73415 6.40428 5.76474C6.40428 5.76474 5.98075 3.9718 7.50546 3.0918Z" fill="url(#paint12_radial_2135_80980)"/>
<path id="Vector_14" opacity="0.5" d="M7.50546 3.0918C7.10546 3.48709 7.65604 5.12003 6.40428 5.76474C6.40428 5.76474 5.98075 3.9718 7.50546 3.0918Z" fill="url(#paint13_radial_2135_80980)"/>
<path id="Vector_15" opacity="0.5" d="M13.0441 8.77177C13.0959 6.16941 9.14294 6.52706 10.1594 2C10.1594 2 7.50529 3.04471 7.97118 6.24941C8.13118 7.35059 7.74529 8.17412 7.74529 8.17412C7.35471 8.25412 6.74765 7.47765 6.95941 6.27765C6.95941 6.27765 5.56647 7.31765 5.56647 8.65412C5.56647 9.99059 6.21118 11.4071 6.21118 11.4071C4.60647 11.0588 4.76647 8.89412 4.76647 8.89412C4.76647 8.89412 3.75 10.2541 3.75 12.8188C3.75 14.8141 5.99941 18 9.62765 18C13.2559 18 16.1688 15.1859 16.1688 12.6824C16.1688 11.5859 15.7971 10.1694 14.9924 9.39765C14.9924 9.39765 15.1006 11.5859 14.0182 11.4824C14.0182 11.4824 14.9124 8.62588 13.9759 7.31765C13.9759 7.31765 13.5241 8.72941 13.0441 8.77177Z" fill="url(#paint14_radial_2135_80980)"/>
<path id="Vector_16" opacity="0.25" d="M13.0441 8.77177C13.0959 6.16941 9.14294 6.52706 10.1594 2C10.1594 2 7.50529 3.04471 7.97118 6.24941C8.13118 7.35059 7.74529 8.17412 7.74529 8.17412C7.35471 8.25412 6.74765 7.47765 6.95941 6.27765C6.95941 6.27765 5.56647 7.31765 5.56647 8.65412C5.56647 9.99059 6.21118 11.4071 6.21118 11.4071C4.60647 11.0588 4.76647 8.89412 4.76647 8.89412C4.76647 8.89412 3.75 10.2541 3.75 12.8188C3.75 14.8141 5.99941 18 9.62765 18C13.2559 18 16.1688 15.1859 16.1688 12.6824C16.1688 11.5859 15.7971 10.1694 14.9924 9.39765C14.9924 9.39765 15.1006 11.5859 14.0182 11.4824C14.0182 11.4824 14.9124 8.62588 13.9759 7.31765C13.9759 7.31765 13.5241 8.72941 13.0441 8.77177Z" fill="url(#paint15_radial_2135_80980)"/>
<path id="Vector_17" opacity="0.25" d="M13.0441 8.77177C13.0959 6.16941 9.14294 6.52706 10.1594 2C10.1594 2 7.50529 3.04471 7.97118 6.24941C8.13118 7.35059 7.74529 8.17412 7.74529 8.17412C7.35471 8.25412 6.74765 7.47765 6.95941 6.27765C6.95941 6.27765 5.56647 7.31765 5.56647 8.65412C5.56647 9.99059 6.21118 11.4071 6.21118 11.4071C4.60647 11.0588 4.76647 8.89412 4.76647 8.89412C4.76647 8.89412 3.75 10.2541 3.75 12.8188C3.75 14.8141 5.99941 18 9.62765 18C13.2559 18 16.1688 15.1859 16.1688 12.6824C16.1688 11.5859 15.7971 10.1694 14.9924 9.39765C14.9924 9.39765 15.1006 11.5859 14.0182 11.4824C14.0182 11.4824 14.9124 8.62588 13.9759 7.31765C13.9759 7.31765 13.5241 8.72941 13.0441 8.77177Z" fill="url(#paint16_radial_2135_80980)"/>
</g>
<path id="Vector_18" opacity="0.25" d="M13.0441 8.77177C13.0959 6.16941 9.14294 6.52706 10.1594 2C10.1594 2 7.50529 3.04471 7.97118 6.24941C8.13118 7.35059 7.74529 8.17412 7.74529 8.17412C7.35471 8.25412 6.74765 7.47765 6.95941 6.27765C6.95941 6.27765 5.56647 7.31765 5.56647 8.65412C5.56647 9.99059 6.21118 11.4071 6.21118 11.4071C4.60647 11.0588 4.76647 8.89412 4.76647 8.89412C4.76647 8.89412 3.75 10.2541 3.75 12.8188C3.75 14.8141 5.99941 18 9.62765 18C13.2559 18 16.1688 15.1859 16.1688 12.6824C16.1688 11.5859 15.7971 10.1694 14.9924 9.39765C14.9924 9.39765 15.1006 11.5859 14.0182 11.4824C14.0182 11.4824 14.9124 8.62588 13.9759 7.31765C13.9759 7.31765 13.5241 8.72941 13.0441 8.77177Z" fill="url(#paint17_radial_2135_80980)"/>
</g>
</g>
<defs>
<linearGradient id="paint0_linear_2135_80980" x1="10.7552" y1="18.4422" x2="7.87042" y2="-2.46372" gradientUnits="userSpaceOnUse">
<stop stop-color="#FF0000"/>
<stop offset="0.2317" stop-color="#FF1500"/>
<stop offset="0.7367" stop-color="#FF3D00"/>
<stop offset="0.9987" stop-color="#FF4C00"/>
</linearGradient>
<linearGradient id="paint1_linear_2135_80980" x1="14.1356" y1="17.9758" x2="11.2508" y2="-2.93019" gradientUnits="userSpaceOnUse">
<stop stop-color="#FF0000"/>
<stop offset="0.2317" stop-color="#FF1500"/>
<stop offset="0.7367" stop-color="#FF3D00"/>
<stop offset="0.9987" stop-color="#FF4C00"/>
</linearGradient>
<linearGradient id="paint2_linear_2135_80980" x1="8.92002" y1="18.6955" x2="6.03521" y2="-2.21043" gradientUnits="userSpaceOnUse">
<stop stop-color="#FF0000"/>
<stop offset="0.2317" stop-color="#FF1500"/>
<stop offset="0.7367" stop-color="#FF3D00"/>
<stop offset="0.9987" stop-color="#FF4C00"/>
</linearGradient>
<linearGradient id="paint3_linear_2135_80980" x1="10.6775" y1="14.8811" x2="4.37365" y2="-3.12224" gradientUnits="userSpaceOnUse">
<stop stop-color="#FF8000"/>
<stop offset="0.6388" stop-color="#FF5B00"/>
<stop offset="0.9987" stop-color="#FF4C00"/>
</linearGradient>
<radialGradient id="paint4_radial_2135_80980" cx="0" cy="0" r="1" gradientUnits="userSpaceOnUse" gradientTransform="translate(13.3777 0.229365) scale(8.40048 8.40051)">
<stop offset="0.00134333" stop-color="#FFED1C" stop-opacity="0.6"/>
<stop offset="0.9477" stop-color="#FFED1C" stop-opacity="0.0264782"/>
<stop offset="0.9914" stop-color="#FFED1C" stop-opacity="0"/>
</radialGradient>
<linearGradient id="paint5_linear_2135_80980" x1="8.23" y1="2.86729" x2="10.5094" y2="15.653" gradientUnits="userSpaceOnUse">
<stop stop-color="#FF8000"/>
<stop offset="0.022669" stop-color="#FE7F02" stop-opacity="0.9773"/>
<stop offset="0.6663" stop-color="#ED582A" stop-opacity="0.3337"/>
<stop offset="1" stop-color="#E74939" stop-opacity="0"/>
</linearGradient>
<linearGradient id="paint6_linear_2135_80980" x1="9.99961" y1="16.6838" x2="10.4923" y2="7.70621" gradientUnits="userSpaceOnUse">
<stop stop-color="#FFBC47"/>
<stop offset="0.1869" stop-color="#FFB137" stop-opacity="0.8131"/>
<stop offset="0.7223" stop-color="#FF940F" stop-opacity="0.2777"/>
<stop offset="1" stop-color="#FF8900" stop-opacity="0"/>
</linearGradient>
<radialGradient id="paint7_radial_2135_80980" cx="0" cy="0" r="1" gradientUnits="userSpaceOnUse" gradientTransform="translate(9.87717 14.2609) scale(6.49824 5.27528)">
<stop offset="0.00134333" stop-color="#FFBC47"/>
<stop offset="0.2941" stop-color="#FFBF4B" stop-opacity="0.7068"/>
<stop offset="0.5624" stop-color="#FEC656" stop-opacity="0.4382"/>
<stop offset="0.8201" stop-color="#FCD368" stop-opacity="0.1801"/>
<stop offset="1" stop-color="#FBE07A" stop-opacity="0"/>
</radialGradient>
<radialGradient id="paint8_radial_2135_80980" cx="0" cy="0" r="1" gradientUnits="userSpaceOnUse" gradientTransform="translate(9.87717 13.9938) scale(6.298 5.11272)">
<stop offset="0.00134333" stop-color="white"/>
<stop offset="1" stop-color="white" stop-opacity="0"/>
</radialGradient>
<radialGradient id="paint9_radial_2135_80980" cx="0" cy="0" r="1" gradientUnits="userSpaceOnUse" gradientTransform="translate(7.11592 15.1554) scale(7.73665 9.00779)">
<stop offset="0.00134333" stop-color="#FFED1C" stop-opacity="0.6"/>
<stop offset="0.9477" stop-color="#FFED1C" stop-opacity="0.0264782"/>
<stop offset="0.9914" stop-color="#FFED1C" stop-opacity="0"/>
</radialGradient>
<radialGradient id="paint10_radial_2135_80980" cx="0" cy="0" r="1" gradientUnits="userSpaceOnUse" gradientTransform="translate(9.87752 13.9931) rotate(92.8876) scale(2.44515 1.98487)">
<stop offset="0.00134333" stop-color="white"/>
<stop offset="1" stop-color="white" stop-opacity="0"/>
</radialGradient>
<radialGradient id="paint11_radial_2135_80980" cx="0" cy="0" r="1" gradientUnits="userSpaceOnUse" gradientTransform="translate(11.2292 3.39788) scale(2.77545 2.77545)">
<stop offset="0.00134333" stop-color="#FFED1C"/>
<stop offset="0.1997" stop-color="#FFEE2B" stop-opacity="0.8013"/>
<stop offset="0.5839" stop-color="#FFF254" stop-opacity="0.4167"/>
<stop offset="1" stop-color="#FFF686" stop-opacity="0"/>
</radialGradient>
<radialGradient id="paint12_radial_2135_80980" cx="0" cy="0" r="1" gradientUnits="userSpaceOnUse" gradientTransform="translate(6.65274 4.73345) rotate(-56.4116) scale(2.24817 0.510568)">
<stop offset="0.00134333" stop-color="#FFED1C" stop-opacity="0.6"/>
<stop offset="0.9477" stop-color="#FFED1C" stop-opacity="0.0264782"/>
<stop offset="0.9914" stop-color="#FFED1C" stop-opacity="0"/>
</radialGradient>
<radialGradient id="paint13_radial_2135_80980" cx="0" cy="0" r="1" gradientUnits="userSpaceOnUse" gradientTransform="translate(7.09796 2.97052) rotate(95.0573) scale(2.02009 0.812824)">
<stop offset="0.00134333" stop-color="#FFED1C"/>
<stop offset="0.1997" stop-color="#FFEE2B" stop-opacity="0.8013"/>
<stop offset="0.5839" stop-color="#FFF254" stop-opacity="0.4167"/>
<stop offset="1" stop-color="#FFF686" stop-opacity="0"/>
</radialGradient>
<radialGradient id="paint14_radial_2135_80980" cx="0" cy="0" r="1" gradientUnits="userSpaceOnUse" gradientTransform="translate(10.6124 3.04174) scale(8.66023 8.66023)">
<stop offset="0.00134333" stop-color="#FF4C00"/>
<stop offset="0.135" stop-color="#FF5B0C" stop-opacity="0.8661"/>
<stop offset="0.3941" stop-color="#FF842C" stop-opacity="0.6067"/>
<stop offset="0.7491" stop-color="#FFC45F" stop-opacity="0.2512"/>
<stop offset="1" stop-color="#FFF686" stop-opacity="0"/>
</radialGradient>
<radialGradient id="paint15_radial_2135_80980" cx="0" cy="0" r="1" gradientUnits="userSpaceOnUse" gradientTransform="translate(14.5513 10.0579) scale(4.59671 4.59671)">
<stop offset="0.00134333" stop-color="#FFED1C"/>
<stop offset="0.1997" stop-color="#FFEE2B" stop-opacity="0.8013"/>
<stop offset="0.5839" stop-color="#FFF254" stop-opacity="0.4167"/>
<stop offset="1" stop-color="#FFF686" stop-opacity="0"/>
</radialGradient>
<radialGradient id="paint16_radial_2135_80980" cx="0" cy="0" r="1" gradientUnits="userSpaceOnUse" gradientTransform="translate(5.14174 11.6962) scale(4.8995 4.8995)">
<stop offset="0.00134333" stop-color="#FFED1C"/>
<stop offset="0.1997" stop-color="#FFEE2B" stop-opacity="0.8013"/>
<stop offset="0.5839" stop-color="#FFF254" stop-opacity="0.4167"/>
<stop offset="1" stop-color="#FFF686" stop-opacity="0"/>
</radialGradient>
<radialGradient id="paint17_radial_2135_80980" cx="0" cy="0" r="1" gradientUnits="userSpaceOnUse" gradientTransform="translate(9.80403 10.7059) rotate(86.1102) scale(8.39248 5.10177)">
<stop stop-color="#FF4C00" stop-opacity="0"/>
<stop offset="0.9874" stop-color="#FF4C00" stop-opacity="0.9888"/>
<stop offset="0.9987" stop-color="#FF4C00"/>
</radialGradient>
</defs>
</svg>
