<svg width="24" height="24" viewBox="0 0 24 24" fill="none" xmlns="http://www.w3.org/2000/svg">
<g clip-path="url(#clip0_90_51445)">
<rect x="1" y="4" width="22" height="16" rx="2" fill="#F93939"/>
<path d="M20.9048 4H3.09524C1.93807 4 1 4.95513 1 6.13333V17.8667C1 19.0449 1.93807 20 3.09524 20H20.9048C22.0619 20 23 19.0449 23 17.8667V6.13333C23 4.95513 22.0619 4 20.9048 4Z" fill="#F93939"/>
<path fill-rule="evenodd" clip-rule="evenodd" d="M6.75979 11.7112L5.21979 12.5358L5.51313 10.7896L4.26855 9.55229L5.98979 9.29949L6.75979 7.71015L7.52875 9.29949L9.24998 9.55229L8.00332 10.7896L8.29875 12.5347L6.75979 11.7112ZM10.4286 7.19922H11.4762V8.26589H10.4286V7.19922ZM11.4762 9.33255H12.5238V10.3992H11.4762V9.33255ZM11.4762 11.4659H12.5238V12.5326H11.4762V11.4659ZM10.4286 13.5992H11.4762V14.6659H10.4286V13.5992Z" fill="#FFDA2C"/>
</g>
<defs>
<clipPath id="clip0_90_51445">
<rect x="1" y="4" width="22" height="16" rx="2" fill="white"/>
</clipPath>
</defs>
</svg>
