<svg width="24" height="24" viewBox="0 0 24 24" fill="none" xmlns="http://www.w3.org/2000/svg">
<path d="M22.2903 4.90234H12.3548L1.38672 12.4932V18.8025H22.2903L23 18.3862V17.0682L22.5381 16.629V15.3829L23 15.0406V13.0129L22.5846 12.615V11.3402L23 10.9852V8.95761L22.5846 8.59027V7.47308L23 6.93V5.61202C23 5.22005 22.6822 4.90234 22.2903 4.90234Z" fill="#F93939"/>
<path d="M12.0146 6.92969H23.0003V8.95734H12.0146V6.92969Z" fill="#F2F2F6"/>
<path d="M12 10.9844L12.3548 13.012H23V10.9844H12Z" fill="#F2F2F6"/>
<path d="M1.70967 16.2581V12.6445L1 13.0138V15.0415L1.30078 15.2979V16.6299L1 17.0691V18.3871C1 18.7791 1.31775 19.0968 1.70967 19.0968H22.2903C22.6822 19.0968 23 18.779 23 18.3871H3.83873C2.66289 18.3871 1.70967 17.4339 1.70967 16.2581Z" fill="#F93939"/>
<path d="M12.3548 4.90234H1.70967L1.25781 5.61202L1.70967 13.0129H12.3548V4.90234Z" fill="#1A47B8"/>
<path d="M1.70967 4.90234C1.31775 4.90234 1 5.22006 1 5.61202V13.0129H1.70967V4.90234Z" fill="#3F3F8F"/>
<path d="M2.42296 6.48506C2.22681 6.48506 2.06641 6.32616 2.06641 6.13023C2.06641 5.93429 2.22337 5.77539 2.41952 5.77539H2.423C2.61916 5.77539 2.77784 5.93429 2.77784 6.13023C2.77784 6.32616 2.61907 6.48506 2.42296 6.48506Z" fill="white"/>
<path d="M2.42296 9.32295C2.22681 9.32295 2.06641 9.16406 2.06641 8.96812C2.06641 8.77218 2.22337 8.61328 2.41952 8.61328H2.423C2.61916 8.61328 2.77784 8.77218 2.77784 8.96812C2.77784 9.16406 2.61907 9.32295 2.42296 9.32295Z" fill="white"/>
<path d="M2.42296 12.1608C2.22681 12.1608 2.06641 12.0019 2.06641 11.806C2.06641 11.6101 2.22337 11.4512 2.41952 11.4512H2.423C2.61916 11.4512 2.77784 11.6101 2.77784 11.806C2.77784 12.0019 2.61907 12.1608 2.42296 12.1608Z" fill="white"/>
<path d="M2.42296 7.90303C2.22681 7.90303 2.06641 7.74413 2.06641 7.5482C2.06641 7.35226 2.22337 7.19336 2.41952 7.19336H2.423C2.61916 7.19336 2.77784 7.35226 2.77784 7.5482C2.7778 7.74413 2.61907 7.90303 2.42296 7.90303Z" fill="#F2F2F6"/>
<path d="M2.42296 10.7429C2.22681 10.7429 2.06641 10.584 2.06641 10.388C2.06641 10.1921 2.22337 10.0332 2.41952 10.0332H2.423C2.61916 10.0332 2.77784 10.1921 2.77784 10.388C2.77784 10.584 2.61907 10.7429 2.42296 10.7429Z" fill="#F2F2F6"/>
<path d="M10.9386 6.48506C10.7424 6.48506 10.582 6.32616 10.582 6.13023C10.582 5.93429 10.739 5.77539 10.9351 5.77539H10.9386C11.1348 5.77539 11.2935 5.93429 11.2935 6.13023C11.2935 6.32616 11.1347 6.48506 10.9386 6.48506Z" fill="white"/>
<path d="M10.9386 9.32295C10.7424 9.32295 10.582 9.16406 10.582 8.96812C10.582 8.77218 10.739 8.61328 10.9351 8.61328H10.9386C11.1348 8.61328 11.2935 8.77218 11.2935 8.96812C11.2935 9.16406 11.1347 9.32295 10.9386 9.32295Z" fill="white"/>
<path d="M10.9386 12.1608C10.7424 12.1608 10.582 12.0019 10.582 11.806C10.582 11.6101 10.739 11.4512 10.9351 11.4512H10.9386C11.1348 11.4512 11.2935 11.6101 11.2935 11.806C11.2935 12.0019 11.1347 12.1608 10.9386 12.1608Z" fill="white"/>
<path d="M10.9386 7.90498C10.7424 7.90498 10.582 7.74609 10.582 7.55015C10.582 7.35421 10.739 7.19531 10.9351 7.19531H10.9386C11.1348 7.19531 11.2935 7.35421 11.2935 7.55015C11.2935 7.74609 11.1347 7.90498 10.9386 7.90498Z" fill="#F2F2F6"/>
<path d="M10.9386 10.7429C10.7424 10.7429 10.582 10.584 10.582 10.388C10.582 10.1921 10.739 10.0332 10.9351 10.0332H10.9386C11.1348 10.0332 11.2935 10.1921 11.2935 10.388C11.2935 10.584 11.1347 10.7429 10.9386 10.7429Z" fill="#F2F2F6"/>
<path d="M4.55187 6.48506C4.35572 6.48506 4.19531 6.32616 4.19531 6.13023C4.19531 5.93429 4.35228 5.77539 4.54843 5.77539H4.55191C4.74806 5.77539 4.90675 5.93429 4.90675 6.13023C4.90675 6.32616 4.74802 6.48506 4.55187 6.48506Z" fill="#F2F2F6"/>
<path d="M4.55187 9.32295C4.35572 9.32295 4.19531 9.16406 4.19531 8.96812C4.19531 8.77218 4.35228 8.61328 4.54843 8.61328H4.55191C4.74806 8.61328 4.90675 8.77218 4.90675 8.96812C4.90675 9.16406 4.74802 9.32295 4.55187 9.32295Z" fill="#F2F2F6"/>
<path d="M4.55187 12.1628C4.35572 12.1628 4.19531 12.0039 4.19531 11.808C4.19531 11.612 4.35228 11.4531 4.54843 11.4531H4.55191C4.74806 11.4531 4.90675 11.612 4.90675 11.808C4.90675 12.0039 4.74802 12.1628 4.55187 12.1628Z" fill="#F2F2F6"/>
<path d="M4.55187 7.90303C4.35572 7.90303 4.19531 7.74413 4.19531 7.5482C4.19531 7.35226 4.35228 7.19336 4.54843 7.19336H4.55191C4.74806 7.19336 4.90675 7.35226 4.90675 7.5482C4.9067 7.74413 4.74802 7.90303 4.55187 7.90303Z" fill="white"/>
<path d="M4.55187 10.7429C4.35572 10.7429 4.19531 10.584 4.19531 10.388C4.19531 10.1921 4.35228 10.0332 4.54843 10.0332H4.55191C4.74806 10.0332 4.90675 10.1921 4.90675 10.388C4.90675 10.584 4.74802 10.7429 4.55187 10.7429Z" fill="white"/>
<path d="M3.48741 7.19405C3.29126 7.19405 3.13086 7.03515 3.13086 6.83921C3.13086 6.64327 3.28782 6.48438 3.48398 6.48438H3.48746C3.68361 6.48438 3.84229 6.64327 3.84229 6.83921C3.84225 7.03519 3.68357 7.19405 3.48741 7.19405Z" fill="white"/>
<path d="M3.48741 10.0319C3.29126 10.0319 3.13086 9.87304 3.13086 9.6771C3.13086 9.48116 3.28782 9.32227 3.48398 9.32227H3.48746C3.68361 9.32227 3.84229 9.48116 3.84229 9.6771C3.84229 9.87304 3.68357 10.0319 3.48741 10.0319Z" fill="white"/>
<path d="M3.48741 8.61397C3.29126 8.61397 3.13086 8.45507 3.13086 8.25913C3.13086 8.0632 3.28782 7.9043 3.48398 7.9043H3.48746C3.68361 7.9043 3.84229 8.0632 3.84229 8.25913C3.84229 8.45507 3.68357 8.61397 3.48741 8.61397Z" fill="#F2F2F6"/>
<path d="M3.48741 11.4519C3.29126 11.4519 3.13086 11.293 3.13086 11.097C3.13086 10.9011 3.28782 10.7422 3.48398 10.7422H3.48746C3.68361 10.7422 3.84229 10.9011 3.84229 11.097C3.84229 11.293 3.68357 11.4519 3.48741 11.4519Z" fill="#F2F2F6"/>
<path d="M6.68077 6.48506C6.48462 6.48506 6.32422 6.32616 6.32422 6.13023C6.32422 5.93429 6.48118 5.77539 6.67734 5.77539H6.68082C6.87697 5.77539 7.03565 5.93429 7.03565 6.13023C7.03565 6.32616 6.87688 6.48506 6.68077 6.48506Z" fill="white"/>
<path d="M6.68077 9.32295C6.48462 9.32295 6.32422 9.16406 6.32422 8.96812C6.32422 8.77218 6.48118 8.61328 6.67734 8.61328H6.68082C6.87697 8.61328 7.03565 8.77218 7.03565 8.96812C7.03565 9.16406 6.87688 9.32295 6.68077 9.32295Z" fill="white"/>
<path d="M6.68077 12.1608C6.48462 12.1608 6.32422 12.0019 6.32422 11.806C6.32422 11.6101 6.48118 11.4512 6.67734 11.4512H6.68082C6.87697 11.4512 7.03565 11.6101 7.03565 11.806C7.03565 12.0019 6.87688 12.1608 6.68077 12.1608Z" fill="white"/>
<path d="M6.68077 7.90303C6.48462 7.90303 6.32422 7.74413 6.32422 7.5482C6.32422 7.35226 6.48118 7.19336 6.67734 7.19336H6.68082C6.87697 7.19336 7.03565 7.35226 7.03565 7.5482C7.03561 7.74413 6.87688 7.90303 6.68077 7.90303Z" fill="#F2F2F6"/>
<path d="M6.68077 10.7429C6.48462 10.7429 6.32422 10.584 6.32422 10.388C6.32422 10.1921 6.48118 10.0332 6.67734 10.0332H6.68082C6.87697 10.0332 7.03565 10.1921 7.03565 10.388C7.03565 10.584 6.87688 10.7429 6.68077 10.7429Z" fill="#F2F2F6"/>
<path d="M5.61632 7.19405C5.42017 7.19405 5.25977 7.03515 5.25977 6.83921C5.25977 6.64327 5.41673 6.48438 5.61288 6.48438H5.61636C5.81252 6.48438 5.9712 6.64327 5.9712 6.83921C5.9712 7.03519 5.81247 7.19405 5.61632 7.19405Z" fill="#F2F2F6"/>
<path d="M5.61632 10.0319C5.42017 10.0319 5.25977 9.87304 5.25977 9.6771C5.25977 9.48116 5.41673 9.32227 5.61288 9.32227H5.61636C5.81252 9.32227 5.9712 9.48116 5.9712 9.6771C5.9712 9.87304 5.81247 10.0319 5.61632 10.0319Z" fill="#F2F2F6"/>
<path d="M5.61632 8.61397C5.42017 8.61397 5.25977 8.45507 5.25977 8.25913C5.25977 8.0632 5.41673 7.9043 5.61288 7.9043H5.61636C5.81252 7.9043 5.9712 8.0632 5.9712 8.25913C5.9712 8.45507 5.81247 8.61397 5.61632 8.61397Z" fill="white"/>
<path d="M5.61632 11.4519C5.42017 11.4519 5.25977 11.293 5.25977 11.097C5.25977 10.9011 5.41673 10.7422 5.61288 10.7422H5.61636C5.81252 10.7422 5.9712 10.9011 5.9712 11.097C5.9712 11.293 5.81247 11.4519 5.61632 11.4519Z" fill="white"/>
<path d="M8.80675 6.48506C8.6106 6.48506 8.4502 6.32616 8.4502 6.13023C8.4502 5.93429 8.60716 5.77539 8.80331 5.77539H8.80679C9.00295 5.77539 9.16163 5.93429 9.16163 6.13023C9.16163 6.32616 9.0029 6.48506 8.80675 6.48506Z" fill="#F2F2F6"/>
<path d="M8.80675 9.32295C8.6106 9.32295 8.4502 9.16406 8.4502 8.96812C8.4502 8.77218 8.60716 8.61328 8.80331 8.61328H8.80679C9.00295 8.61328 9.16163 8.77218 9.16163 8.96812C9.16163 9.16406 9.0029 9.32295 8.80675 9.32295Z" fill="#F2F2F6"/>
<path d="M8.80675 12.1608C8.6106 12.1608 8.4502 12.0019 8.4502 11.806C8.4502 11.6101 8.60716 11.4512 8.80331 11.4512H8.80679C9.00295 11.4512 9.16163 11.6101 9.16163 11.806C9.16163 12.0019 9.0029 12.1608 8.80675 12.1608Z" fill="#F2F2F6"/>
<path d="M8.80675 7.90303C8.6106 7.90303 8.4502 7.74413 8.4502 7.5482C8.4502 7.35226 8.60716 7.19336 8.80331 7.19336H8.80679C9.00295 7.19336 9.16163 7.35226 9.16163 7.5482C9.16159 7.74413 9.0029 7.90303 8.80675 7.90303Z" fill="white"/>
<path d="M8.80675 10.7429C8.6106 10.7429 8.4502 10.584 8.4502 10.388C8.4502 10.1921 8.60716 10.0332 8.80331 10.0332H8.80679C9.00295 10.0332 9.16163 10.1921 9.16163 10.388C9.16163 10.584 9.0029 10.7429 8.80675 10.7429Z" fill="white"/>
<path d="M7.7423 7.19405C7.54614 7.19405 7.38574 7.03515 7.38574 6.83921C7.38574 6.64327 7.54271 6.48438 7.73886 6.48438H7.74234C7.93849 6.48438 8.09718 6.64327 8.09718 6.83921C8.09713 7.03519 7.93845 7.19405 7.7423 7.19405Z" fill="white"/>
<path d="M7.7423 10.0319C7.54614 10.0319 7.38574 9.87304 7.38574 9.6771C7.38574 9.48116 7.54271 9.32227 7.73886 9.32227H7.74234C7.93849 9.32227 8.09718 9.48116 8.09718 9.6771C8.09718 9.87304 7.93845 10.0319 7.7423 10.0319Z" fill="white"/>
<path d="M7.7423 8.61397C7.54614 8.61397 7.38574 8.45507 7.38574 8.25913C7.38574 8.0632 7.54271 7.9043 7.73886 7.9043H7.74234C7.93849 7.9043 8.09718 8.0632 8.09718 8.25913C8.09718 8.45507 7.93845 8.61397 7.7423 8.61397Z" fill="#F2F2F6"/>
<path d="M7.7423 11.4519C7.54614 11.4519 7.38574 11.293 7.38574 11.097C7.38574 10.9011 7.54271 10.7422 7.73886 10.7422H7.74234C7.93849 10.7422 8.09718 10.9011 8.09718 11.097C8.09718 11.293 7.93845 11.4519 7.7423 11.4519Z" fill="#F2F2F6"/>
<path d="M9.87413 7.19405C9.67798 7.19405 9.51758 7.03515 9.51758 6.83921C9.51758 6.64327 9.67454 6.48438 9.8707 6.48438H9.87418C10.0703 6.48438 10.229 6.64327 10.229 6.83921C10.229 7.03519 10.0703 7.19405 9.87413 7.19405Z" fill="#F2F2F6"/>
<path d="M9.87413 10.0319C9.67798 10.0319 9.51758 9.87304 9.51758 9.6771C9.51758 9.48116 9.67454 9.32227 9.8707 9.32227H9.87418C10.0703 9.32227 10.229 9.48116 10.229 9.6771C10.229 9.87304 10.0703 10.0319 9.87413 10.0319Z" fill="#F2F2F6"/>
<path d="M9.87413 8.61397C9.67798 8.61397 9.51758 8.45507 9.51758 8.25913C9.51758 8.0632 9.67454 7.9043 9.8707 7.9043H9.87418C10.0703 7.9043 10.229 8.0632 10.229 8.25913C10.229 8.45507 10.0703 8.61397 9.87413 8.61397Z" fill="white"/>
<path d="M9.87413 11.4519C9.67798 11.4519 9.51758 11.293 9.51758 11.097C9.51758 10.9011 9.67454 10.7422 9.8707 10.7422H9.87418C10.0703 10.7422 10.229 10.9011 10.229 11.097C10.229 11.293 10.0703 11.4519 9.87413 11.4519Z" fill="white"/>
<path d="M1.12891 16.4826L1.87055 17.0687H23V15.041H1.70967L1.12891 16.4826Z" fill="#F2F2F6"/>
<path d="M1 15.0411V17.0687H1.87055C1.76738 16.8186 1.70971 16.545 1.70971 16.2576V15.041L1 15.0411Z" fill="#E1E1E6"/>
</svg>
