<svg width="14" height="14" viewBox="0 0 14 14" fill="none" xmlns="http://www.w3.org/2000/svg">
<g id="Heart">
<g id="Group">
<g id="Group_2">
<path id="Vector" d="M9.52787 1.9248C8.47819 1.9248 7.55098 2.45314 6.99815 3.25789C6.44533 2.45314 5.51812 1.9248 4.46844 1.9248C2.77497 1.9248 1.3999 3.29988 1.3999 4.99335C1.3999 8.73368 6.99815 12.0961 6.99815 12.0961C6.99815 12.0961 12.5964 8.73368 12.5964 4.99335C12.5964 3.29988 11.2213 1.9248 9.52787 1.9248Z" fill="url(#paint0_radial_71_29365)"/>
<path id="Vector_2" opacity="0.5" d="M10.7981 2.19727C12.4775 4.87393 10.931 8.38683 9.07309 9.38402C7.02273 10.4862 5.61967 9.96834 2.71558 8.32035C4.37056 10.5142 6.99824 12.0922 6.99824 12.0922C6.99824 12.0922 12.5965 8.72972 12.5965 4.98939C12.5965 3.75078 11.8582 2.68011 10.7981 2.19727Z" fill="url(#paint1_radial_71_29365)"/>
<path id="Vector_3" opacity="0.5" d="M9.52787 1.9248C8.47819 1.9248 7.55098 2.45314 6.99815 3.25789C6.44533 2.45314 5.51812 1.9248 4.46844 1.9248C2.77497 1.9248 1.3999 3.29988 1.3999 4.99335C1.3999 8.73368 6.99815 12.0961 6.99815 12.0961C6.99815 12.0961 12.5964 8.73368 12.5964 4.99335C12.5964 3.29988 11.2213 1.9248 9.52787 1.9248Z" fill="url(#paint2_radial_71_29365)"/>
<path id="Vector_4" opacity="0.5" d="M9.52787 1.9248C8.47819 1.9248 7.55098 2.45314 6.99815 3.25789C6.44533 2.45314 5.51812 1.9248 4.46844 1.9248C2.77497 1.9248 1.3999 3.29988 1.3999 4.99335C1.3999 8.73368 6.99815 12.0961 6.99815 12.0961C6.99815 12.0961 12.5964 8.73368 12.5964 4.99335C12.5964 3.29988 11.2213 1.9248 9.52787 1.9248Z" fill="url(#paint3_radial_71_29365)"/>
</g>
<path id="Vector_5" opacity="0.24" d="M6.23198 3.17067C6.53989 3.89495 5.8576 4.87814 4.70646 5.36449C3.55532 5.85084 2.37619 5.6619 2.06828 4.94112C1.76038 4.22035 2.44267 3.23365 3.59381 2.74731C4.74495 2.26096 5.92408 2.4464 6.23198 3.17067Z" fill="url(#paint4_radial_71_29365)"/>
<path id="Vector_6" opacity="0.24" d="M9.98268 2.58293C10.42 3.06577 10.1506 4.02098 9.38437 4.71376C8.61811 5.40654 7.64191 5.57799 7.20455 5.09514C6.76719 4.61229 7.0366 3.65709 7.80286 2.96431C8.56912 2.27152 9.54532 2.10008 9.98268 2.58293Z" fill="url(#paint5_radial_71_29365)"/>
<path id="Vector_7" opacity="0.32" d="M9.58389 2.74005C11.1234 3.26489 12.5929 5.53918 10.1087 8.37329C8.62169 10.0703 6.99819 10.9275 4.93384 10.5916C6.04999 11.5223 7.00169 12.0961 7.00169 12.0961C7.00169 12.0961 12.5999 8.73368 12.5999 4.99335C12.5964 3.29988 11.2214 1.9248 9.5279 1.9248C8.47823 1.9248 7.55102 2.45314 6.99819 3.25789C6.99819 3.25789 8.45724 2.35517 9.58389 2.74005Z" fill="url(#paint6_linear_71_29365)"/>
</g>
</g>
<defs>
<radialGradient id="paint0_radial_71_29365" cx="0" cy="0" r="1" gradientUnits="userSpaceOnUse" gradientTransform="translate(5.39682 4.76183) rotate(-29.408) scale(8.75992 6.94887)">
<stop offset="0.2479" stop-color="#FF0000"/>
<stop offset="0.8639" stop-color="#C20000"/>
</radialGradient>
<radialGradient id="paint1_radial_71_29365" cx="0" cy="0" r="1" gradientUnits="userSpaceOnUse" gradientTransform="translate(5.61356 4.22402) rotate(-29.408) scale(7.54199 5.98273)">
<stop offset="0.2479" stop-color="#FF0000"/>
<stop offset="1" stop-color="#C20000"/>
</radialGradient>
<radialGradient id="paint2_radial_71_29365" cx="0" cy="0" r="1" gradientUnits="userSpaceOnUse" gradientTransform="translate(5.39682 4.76183) rotate(-29.408) scale(8.75992 6.94887)">
<stop stop-color="white" stop-opacity="0.25"/>
<stop offset="1" stop-color="white" stop-opacity="0"/>
</radialGradient>
<radialGradient id="paint3_radial_71_29365" cx="0" cy="0" r="1" gradientUnits="userSpaceOnUse" gradientTransform="translate(8.54585 7.73563) rotate(-26.296) scale(6.39441 3.15974)">
<stop stop-color="#BD2719" stop-opacity="0.25"/>
<stop offset="1" stop-color="#BD2719" stop-opacity="0"/>
</radialGradient>
<radialGradient id="paint4_radial_71_29365" cx="0" cy="0" r="1" gradientUnits="userSpaceOnUse" gradientTransform="translate(4.14946 4.05589) rotate(-21.6908) scale(2.27321 1.41208)">
<stop stop-color="white"/>
<stop offset="1" stop-color="white" stop-opacity="0"/>
</radialGradient>
<radialGradient id="paint5_radial_71_29365" cx="0" cy="0" r="1" gradientUnits="userSpaceOnUse" gradientTransform="translate(8.5904 3.84265) rotate(-40.7634) scale(1.88209 1.1692)">
<stop stop-color="white"/>
<stop offset="1" stop-color="white" stop-opacity="0"/>
</radialGradient>
<linearGradient id="paint6_linear_71_29365" x1="8.15346" y1="16.0908" x2="9.23812" y2="1.46541" gradientUnits="userSpaceOnUse">
<stop stop-color="#860805"/>
<stop offset="1" stop-color="#BD2719" stop-opacity="0"/>
</linearGradient>
</defs>
</svg>
