<svg width="20" height="20" viewBox="0 0 20 20" fill="none" xmlns="http://www.w3.org/2000/svg">
<g id="OutlineIcon_Mode(Light-Dark)">
<path id="Subtract" fill-rule="evenodd" clip-rule="evenodd" d="M8.92305 7.74316C8.0814 8.14552 7.5 9.00484 7.5 9.99995C7.5 11.3807 8.61929 12.4999 10 12.4999C10.9951 12.4999 11.8544 11.9185 12.2568 11.0769L8.92305 7.74316ZM10.8333 9.99995C10.8333 10.4602 10.4602 10.8333 10 10.8333C9.53976 10.8333 9.16667 10.4602 9.16667 9.99995C9.16667 9.53971 9.53976 9.16662 10 9.16662C10.4602 9.16662 10.8333 9.53971 10.8333 9.99995Z" fill="#737987"/>
<g id="Subtract_2">
<path d="M6.25086 5.07081C4.15458 6.15285 2.82761 7.95585 2.16821 9.05537C1.81632 9.64214 1.81632 10.3575 2.16821 10.9443C3.15845 12.5955 5.6542 15.8332 10.0001 15.8332C12.1773 15.8332 13.8901 15.0206 15.182 14.0019L13.9932 12.8132C12.9566 13.5859 11.6333 14.1665 10.0001 14.1665C6.57335 14.1665 4.51124 11.6107 3.59755 10.0871C3.57668 10.0523 3.57096 10.023 3.57096 9.99984C3.57096 9.97669 3.57668 9.94737 3.59755 9.91256C4.26319 8.80263 5.53833 7.14483 7.50655 6.3265L6.25086 5.07081Z" fill="#737987"/>
<path d="M15.2231 11.6861C15.7297 11.1251 16.1208 10.557 16.4026 10.0871C16.4234 10.0523 16.4291 10.023 16.4291 9.99984C16.4291 9.97669 16.4234 9.94737 16.4026 9.91256C15.4889 8.389 13.4268 5.83317 10.0001 5.83317C9.79417 5.83317 9.59322 5.8424 9.39714 5.86007L7.95686 4.41979C8.58637 4.25865 9.26689 4.1665 10.0001 4.1665C14.3459 4.1665 16.8417 7.40418 17.8319 9.05537C18.1838 9.64214 18.1838 10.3575 17.8319 10.9443C17.5141 11.4742 17.0412 12.1676 16.4019 12.8648L15.2231 11.6861Z" fill="#737987"/>
</g>
<path id="Vector 606 (Stroke)" fill-rule="evenodd" clip-rule="evenodd" d="M1.91058 1.91058C2.23602 1.58514 2.76366 1.58514 3.08909 1.91058L18.0891 16.9106C18.4145 17.236 18.4145 17.7637 18.0891 18.0891C17.7637 18.4145 17.236 18.4145 16.9106 18.0891L1.91058 3.08909C1.58514 2.76366 1.58514 2.23602 1.91058 1.91058Z" fill="#737987"/>
</g>
</svg>
