<svg width="20" height="20" viewBox="0 0 20 20" fill="none" xmlns="http://www.w3.org/2000/svg">
<g id="recall">
<g id="Group 8737">
<g id="Group 8735">
<path id="Vector 55" d="M5 6.66602H8.33333" stroke="#595E69" stroke-width="1.5" stroke-linecap="round"/>
<path id="Vector 611" d="M5.00008 17.5H4.66675C3.00989 17.5 1.66675 16.1569 1.66675 14.5V5.5C1.66675 3.84315 3.00989 2.5 4.66675 2.5H13.2501C14.9069 2.5 16.2501 3.84315 16.2501 5.5V5.83333" stroke="#595E69" stroke-width="1.5" stroke-linecap="round"/>
</g>
<path id="Vector" d="M8.40278 16.3025H8.10185C7.94223 16.3025 7.78915 16.2395 7.67628 16.1273C7.56341 16.015 7.5 15.8628 7.5 15.7041C7.5 15.228 7.69023 14.7714 8.02884 14.4347C8.36744 14.098 8.82669 13.9089 9.30556 13.9089H9.90741M9.90741 12.1137C9.69427 12.0609 9.49534 11.9623 9.32459 11.825C9.15384 11.6876 9.01542 11.5147 8.91904 11.3184C8.82267 11.1222 8.77068 10.9073 8.76673 10.689C8.76277 10.4706 8.80695 10.254 8.89616 10.0544C8.98537 9.85487 9.11745 9.67714 9.28311 9.53373C9.44878 9.39032 9.64401 9.28472 9.85511 9.22433C10.0662 9.16395 10.288 9.15025 10.505 9.1842C10.722 9.21815 10.9289 9.29893 11.1111 9.42086M17.4306 16.3025H17.7315C18.0926 16.3025 18.3333 16.0632 18.3333 15.7041C18.3333 15.228 18.1431 14.7714 17.8045 14.4347C17.4659 14.098 17.0066 13.9089 16.5278 13.9089H15.9259M15.9259 12.1137C16.1391 12.0609 16.338 11.9623 16.5087 11.825C16.6795 11.6876 16.8179 11.5147 16.9143 11.3184C17.0107 11.1222 17.0627 10.9073 17.0666 10.689C17.0706 10.4706 17.0264 10.254 16.9372 10.0544C16.848 9.85487 16.7159 9.67714 16.5502 9.53373C16.3846 9.39032 16.1893 9.28472 15.9782 9.22433C15.7671 9.16395 15.5453 9.15025 15.3283 9.1842C15.1113 9.21815 14.9045 9.29893 14.7222 9.42086M15.0231 17.4993H10.8102C10.6506 17.4993 10.4975 17.4363 10.3846 17.3241C10.2717 17.2119 10.2083 17.0596 10.2083 16.9009C10.2083 16.4248 10.3986 15.9682 10.7372 15.6315C11.0758 15.2949 11.535 15.1057 12.0139 15.1057H13.8194C14.2983 15.1057 14.7576 15.2949 15.0962 15.6315C15.4348 15.9682 15.625 16.4248 15.625 16.9009C15.625 17.26 15.3843 17.4993 15.0231 17.4993ZM14.4213 11.8145C14.4213 12.2113 14.2628 12.5918 13.9806 12.8723C13.6984 13.1529 13.3157 13.3105 12.9167 13.3105C12.5176 13.3105 12.1349 13.1529 11.8527 12.8723C11.5706 12.5918 11.412 12.2113 11.412 11.8145C11.412 11.4177 11.5706 11.0372 11.8527 10.7566C12.1349 10.4761 12.5176 10.3185 12.9167 10.3185C13.3157 10.3185 13.6984 10.4761 13.9806 10.7566C14.2628 11.0372 14.4213 11.4177 14.4213 11.8145Z" stroke="#595E69" stroke-width="1.5" stroke-linecap="round"/>
</g>
</g>
</svg>
