<svg width="20" height="20" viewBox="0 0 20 20" fill="none" xmlns="http://www.w3.org/2000/svg">
<g id="lock">
<g id="Group 8">
<path id="Rectangle 5" d="M4 11.2507C4 9.68693 4 8.90508 4.41329 8.36646C4.51969 8.2278 4.64381 8.10368 4.78248 7.99728C5.32109 7.58398 6.10295 7.58398 7.66667 7.58398H12.5556C14.1193 7.58398 14.9011 7.58398 15.4397 7.99728C15.5784 8.10368 15.7025 8.2278 15.8089 8.36646C16.2222 8.90508 16.2222 9.68693 16.2222 11.2507V11.2507C16.2222 13.5962 16.2222 14.769 15.6023 15.5769C15.4427 15.7849 15.2565 15.9711 15.0485 16.1307C14.2406 16.7507 13.0678 16.7507 10.7222 16.7507H9.5C7.15442 16.7507 5.98164 16.7507 5.17372 16.1307C4.96572 15.9711 4.77954 15.7849 4.61994 15.5769C4 14.769 4 13.5962 4 11.2507V11.2507Z" stroke="#32363E" stroke-width="1.5"/>
<path id="Vector 5" d="M13.1658 6.81944V6.05556C13.1658 4.36802 11.7978 3 10.1102 3H9.96441C8.35741 3 7.05469 4.30273 7.05469 5.90972V5.90972" stroke="#32363E" stroke-width="1.5" stroke-linecap="round"/>
<circle id="Ellipse 6" cx="10.1098" cy="12.1664" r="1.52778" fill="#32363E"/>
</g>
</g>
</svg>
