<svg width="32" height="32" viewBox="0 0 32 32" fill="none" xmlns="http://www.w3.org/2000/svg">
<path fill-rule="evenodd" clip-rule="evenodd" d="M11.7617 7.3335C7.84315 7.3335 4.6665 10.5101 4.6665 14.4287C4.6665 18.3473 7.84315 21.524 11.7617 21.524H17.5236V23.524H11.7617C6.73858 23.524 2.6665 19.4519 2.6665 14.4287C2.6665 9.40557 6.73858 5.3335 11.7617 5.3335H20.8094C25.8325 5.3335 29.9046 9.40557 29.9046 14.4287C29.9046 19.4519 25.8325 23.524 20.8094 23.524H20.7474L17.5236 26.771V23.9193L19.6261 21.8169C19.8136 21.6293 20.068 21.524 20.3332 21.524H20.8094C24.728 21.524 27.9046 18.3473 27.9046 14.4287C27.9046 10.5101 24.728 7.3335 20.8094 7.3335H11.7617ZM16.5236 10.0954C17.0759 10.0954 17.5236 10.5431 17.5236 11.0954V13.4287H20.3332C20.8855 13.4287 21.3332 13.8764 21.3332 14.4287C21.3332 14.981 20.8855 15.4287 20.3332 15.4287H17.5236V17.7621C17.5236 18.3144 17.0759 18.7621 16.5236 18.7621C15.9714 18.7621 15.5236 18.3144 15.5236 17.7621V15.4287H12.7141C12.1618 15.4287 11.7141 14.981 11.7141 14.4287C11.7141 13.8764 12.1618 13.4287 12.7141 13.4287H15.5236V11.0954C15.5236 10.5431 15.9714 10.0954 16.5236 10.0954Z" fill="white"/>
</svg>
