<svg width="21" height="20" viewBox="0 0 21 20" fill="none" xmlns="http://www.w3.org/2000/svg">
<g id="Copy_alt">
<path id="Rectangle 38" d="M13.2501 2.5H8.25008C6.40913 2.5 4.91675 3.99238 4.91675 5.83333V12.5" stroke="#101114" stroke-width="1.5"/>
<path id="Rectangle 39" d="M8.16675 9.58333C8.16675 8.58857 8.16786 7.90527 8.2266 7.38422C8.28364 6.87828 8.38695 6.61898 8.52838 6.43467C8.62148 6.31334 8.73008 6.20473 8.85142 6.11163C9.03573 5.9702 9.29503 5.86689 9.80097 5.80986C10.322 5.75112 11.0053 5.75 12.0001 5.75C12.9948 5.75 13.6781 5.75112 14.1992 5.80986C14.7051 5.86689 14.9644 5.9702 15.1487 6.11163C15.2701 6.20473 15.3787 6.31334 15.4718 6.43467C15.6132 6.61898 15.7165 6.87828 15.7736 7.38422C15.8323 7.90527 15.8334 8.58857 15.8334 9.58333V12.9167C15.8334 13.9114 15.8323 14.5947 15.7736 15.1158C15.7165 15.6217 15.6132 15.881 15.4718 16.0653C15.3787 16.1867 15.2701 16.2953 15.1487 16.3884C14.9644 16.5298 14.7051 16.6331 14.1992 16.6901C13.6781 16.7489 12.9948 16.75 12.0001 16.75C11.0053 16.75 10.322 16.7489 9.80097 16.6901C9.29503 16.6331 9.03573 16.5298 8.85142 16.3884C8.73008 16.2953 8.62148 16.1867 8.52838 16.0653C8.38695 15.881 8.28364 15.6217 8.2266 15.1158C8.16786 14.5947 8.16675 13.9114 8.16675 12.9167V9.58333Z" stroke="#101114" stroke-width="1.5"/>
</g>
</svg>
