<svg width="24" height="24" viewBox="0 0 24 24" fill="none" xmlns="http://www.w3.org/2000/svg">
<circle cx="9" cy="9" r="3.25" stroke="#3EAC0A" stroke-width="1.5" stroke-linecap="round"/>
<path d="M12.5514 8.875C12.8498 8.35821 13.3413 7.98111 13.9177 7.82667C14.4941 7.67222 15.1082 7.75307 15.625 8.05144C16.1418 8.34981 16.5189 8.84125 16.6733 9.41766C16.8278 9.99406 16.7469 10.6082 16.4486 11.125C16.1502 11.6418 15.6587 12.0189 15.0823 12.1733C14.5059 12.3278 13.8918 12.2469 13.375 11.9486C12.8582 11.6502 12.4811 11.1587 12.3267 10.5823C12.1722 10.0059 12.2531 9.39179 12.5514 8.875L12.5514 8.875Z" stroke="#3EAC0A" stroke-width="1.5"/>
<path d="M14.1008 19L13.3656 19.1481L13.4868 19.75H14.1008V19ZM17.9394 17.9042L18.6462 17.6534L17.9394 17.9042ZM12 15.7105L11.5464 15.1133L10.6789 15.7721L11.6039 16.3474L12 15.7105ZM17.0864 18.25H14.1008V19.75H17.0864V18.25ZM17.2325 18.1549C17.2366 18.1663 17.2375 18.1732 17.2377 18.1759C17.2379 18.1787 17.2377 18.1799 17.2377 18.1802C17.2376 18.1805 17.2373 18.1817 17.2363 18.1839C17.2353 18.1861 17.2332 18.19 17.2292 18.1949C17.2126 18.2156 17.1667 18.25 17.0864 18.25V19.75C18.0963 19.75 19.0555 18.8073 18.6462 17.6534L17.2325 18.1549ZM14.2192 15.75C16.0241 15.75 16.8462 17.0658 17.2325 18.1549L18.6462 17.6534C18.1924 16.374 17.0043 14.25 14.2192 14.25V15.75ZM12.4536 16.3078C12.8809 15.9833 13.4457 15.75 14.2192 15.75V14.25C13.1128 14.25 12.2304 14.5937 11.5464 15.1133L12.4536 16.3078ZM11.6039 16.3474C12.7292 17.0473 13.1859 18.2559 13.3656 19.1481L14.836 18.8519C14.6235 17.7969 14.0384 16.0951 12.3961 15.0737L11.6039 16.3474Z" fill="#3EAC0A"/>
<path d="M9 15C12.5715 15 13.5919 17.5512 13.8834 19.0089C13.9917 19.5504 13.5523 20 13 20H5C4.44772 20 4.00829 19.5504 4.11659 19.0089C4.4081 17.5512 5.42846 15 9 15Z" stroke="#3EAC0A" stroke-width="1.5" stroke-linecap="round"/>
<path d="M19 3V7" stroke="#3EAC0A" stroke-width="1.5" stroke-linecap="round"/>
<path d="M21 5L17 5" stroke="#3EAC0A" stroke-width="1.5" stroke-linecap="round"/>
</svg>
