<svg width="21" height="20" viewBox="0 0 21 20" fill="none" xmlns="http://www.w3.org/2000/svg">
<g id="mynaui:edit">
<path id="Vector" d="M3.58398 17.5003H16.9173M4.97232 10.9894C4.61684 11.3455 4.41722 11.828 4.41732 12.3311V15.0003H7.10315C7.60648 15.0003 8.08898 14.8003 8.44482 14.4436L16.3615 6.52278C16.7171 6.16683 16.9168 5.68426 16.9168 5.18111C16.9168 4.67797 16.7171 4.1954 16.3615 3.83945L15.5798 3.05611C15.4035 2.87974 15.1942 2.73984 14.9638 2.64442C14.7334 2.549 14.4865 2.49992 14.2371 2.5C13.9878 2.50008 13.7409 2.54931 13.5105 2.64487C13.2802 2.74044 13.071 2.88046 12.8948 3.05695L4.97232 10.9894Z" stroke="#101114" stroke-width="1.5" stroke-linecap="round" stroke-linejoin="round"/>
</g>
</svg>
