<svg width="20" height="20" viewBox="0 0 20 20" fill="none" xmlns="http://www.w3.org/2000/svg">
<g id="Face with tears of joy">
<g id="Group">
<g id="Group_2">
<g id="Group_3">
<g id="Group_4">
<path id="Vector" d="M10.035 18C14.4533 18 18.035 14.4183 18.035 10C18.035 5.58172 14.4533 2 10.035 2C5.61673 2 2.03501 5.58172 2.03501 10C2.03501 14.4183 5.61673 18 10.035 18Z" fill="url(#paint0_radial_2135_81119)"/>
<path id="Vector_2" opacity="0.5" d="M10.035 18C14.4533 18 18.035 14.4183 18.035 10C18.035 5.58172 14.4533 2 10.035 2C5.61673 2 2.03501 5.58172 2.03501 10C2.03501 14.4183 5.61673 18 10.035 18Z" fill="url(#paint1_radial_2135_81119)"/>
<g id="Group_5">
<path id="Vector_3" d="M12.5902 6.39004C12.6452 6.07504 13.0202 5.93504 13.6052 6.03504C14.1052 6.12004 15.1552 6.58504 15.7452 7.68504C15.8552 7.89004 15.6202 7.95004 15.5052 7.81004C15.1102 7.33504 13.9502 6.61504 12.9602 6.55504C12.5602 6.53004 12.5902 6.39004 12.5902 6.39004Z" fill="url(#paint2_linear_2135_81119)"/>
</g>
</g>
<path id="Vector_4" d="M13.4505 8.11495C13.4505 8.11495 14.8455 8.25495 15.2355 9.30995C15.2605 9.37495 15.2755 9.44495 15.2705 9.51495C15.2705 9.65495 15.1405 9.80495 14.8905 9.66995C13.3605 8.82495 12.4755 9.22495 11.8155 9.49995C11.5605 9.60995 11.3305 9.34995 11.4105 9.11995C11.4305 9.05495 11.4505 8.98495 11.4855 8.92495C12.0605 7.96495 13.4505 8.11495 13.4505 8.11495Z" fill="url(#paint3_radial_2135_81119)"/>
<path id="Vector_5" d="M13.4197 8.44495C13.4197 8.44495 14.5547 8.55995 15.2647 9.42995C15.2597 9.38995 15.2497 9.34995 15.2347 9.30995C14.8447 8.25495 13.4497 8.11495 13.4497 8.11495C13.4497 8.11495 12.0547 7.96495 11.4847 8.92495C11.4647 8.95995 11.4447 8.99995 11.4347 9.03995C12.2847 8.32495 13.4197 8.44495 13.4197 8.44495Z" fill="url(#paint4_linear_2135_81119)"/>
</g>
<path id="Vector_6" d="M15.4356 11.3551C15.3756 11.3301 15.3106 11.3301 15.2506 11.3451C13.5606 11.8251 11.8106 12.0701 10.0356 12.0701C8.26561 12.0701 6.51061 11.8251 4.82061 11.3451C4.76061 11.3251 4.69562 11.3301 4.63562 11.3551C4.45062 11.4301 4.16561 11.7051 4.54561 12.7601C5.12061 14.1051 6.61561 16.4701 10.0406 16.4701C13.4506 16.4701 14.9556 14.1001 15.5306 12.7551C15.9056 11.7051 15.6206 11.4301 15.4356 11.3551Z" fill="url(#paint5_radial_2135_81119)"/>
<g id="Group_6">
<path id="Vector_7" d="M7.48045 6.39004C7.42545 6.07504 7.05045 5.93504 6.46545 6.03504C5.96545 6.12004 4.91546 6.58504 4.32546 7.68504C4.21546 7.89004 4.45045 7.95004 4.56545 7.81004C4.96045 7.33504 6.12045 6.61504 7.11045 6.55504C7.50545 6.53004 7.48045 6.39004 7.48045 6.39004Z" fill="url(#paint6_linear_2135_81119)"/>
</g>
<path id="Vector_8" d="M6.61523 8.11495C6.61523 8.11495 5.22023 8.25495 4.83023 9.30995C4.80523 9.37495 4.79023 9.44495 4.79523 9.51495C4.79523 9.65495 4.92523 9.80495 5.17523 9.66995C6.70523 8.82495 7.59023 9.22495 8.25023 9.49995C8.50523 9.60995 8.73523 9.34995 8.65523 9.11995C8.63523 9.05495 8.61523 8.98495 8.58023 8.92495C8.01023 7.96495 6.61523 8.11495 6.61523 8.11495Z" fill="url(#paint7_radial_2135_81119)"/>
<path id="Vector_9" d="M6.64448 8.44495C6.64448 8.44495 5.50948 8.55995 4.79948 9.42995C4.80448 9.38995 4.81448 9.34995 4.82948 9.30995C5.21948 8.25495 6.61448 8.11495 6.61448 8.11495C6.61448 8.11495 8.00948 7.96495 8.57948 8.92495C8.59948 8.95995 8.61948 8.99995 8.62948 9.03995C7.77948 8.32495 6.64448 8.44495 6.64448 8.44495Z" fill="url(#paint8_linear_2135_81119)"/>
<path id="Vector_10" d="M3.94034 12.9C3.97034 13.95 3.02534 14.55 2.22034 14.41C1.42034 14.27 0.785349 13.47 1.07535 12.51C1.74035 10.32 4.70035 9.92505 4.70035 9.92505C4.70035 9.92505 3.90034 11.485 3.94034 12.9Z" fill="url(#paint9_linear_2135_81119)"/>
<path id="Vector_11" d="M2.88035 12.6999C2.24535 13.5149 0.840348 13.0599 1.28035 12.0149C1.20035 12.1699 1.13035 12.3349 1.07535 12.5149C0.785349 13.4749 1.42034 14.2799 2.22034 14.4149C3.02034 14.5549 3.96534 13.9549 3.94034 12.9049C3.90534 11.4899 4.70035 9.92993 4.70035 9.92993C3.09535 11.5299 3.19035 12.2999 2.88035 12.6999Z" fill="url(#paint10_linear_2135_81119)"/>
<path id="Vector_12" d="M3.66552 12.21C3.36552 13.905 1.33552 13.88 1.02052 12.74C0.885515 13.595 1.48052 14.285 2.22052 14.41C3.02051 14.55 3.96552 13.95 3.94052 12.9C3.90552 11.485 4.70052 9.92505 4.70052 9.92505C4.70052 9.92505 3.91052 10.82 3.66552 12.21Z" fill="url(#paint11_linear_2135_81119)"/>
<path id="Vector_13" d="M3.38 13.1949C2.65 14.2849 1.345 13.7849 1 12.9799C1 13.3499 1.14 13.6799 1.36 13.9349C2.65 14.9249 3.9 13.6849 3.935 12.9649C3.935 12.9449 3.935 12.9249 3.935 12.9049C3.935 12.8799 3.935 12.8549 3.935 12.8249C3.93 11.4299 4.695 9.92993 4.695 9.92993C3.575 11.5399 4.275 11.8599 3.38 13.1949Z" fill="url(#paint12_linear_2135_81119)"/>
<path id="Vector_14" opacity="0.75" d="M4.69974 9.92505C4.69974 9.92505 2.58474 11 2.39974 12.02C2.21474 13.04 1.22474 12.58 1.44974 12.035C1.84974 11.08 3.44974 10.175 4.69974 9.92505Z" fill="url(#paint13_linear_2135_81119)"/>
<path id="Vector_15" d="M10.0352 16.1C11.4502 16.1 12.5152 15.665 13.3102 15.07C12.4352 14.675 11.3602 14.415 10.0352 14.415C8.7102 14.415 7.63021 14.675 6.75521 15.07C7.55021 15.665 8.6152 16.1 10.0352 16.1Z" fill="url(#paint14_radial_2135_81119)"/>
<path id="Vector_16" d="M16.1298 12.9C16.0998 13.95 17.0448 14.55 17.8498 14.41C18.6498 14.27 19.2848 13.47 18.9948 12.51C18.3298 10.32 15.3698 9.92505 15.3698 9.92505C15.3698 9.92505 16.1648 11.485 16.1298 12.9Z" fill="url(#paint15_linear_2135_81119)"/>
<path id="Vector_17" d="M17.1898 12.6999C17.8248 13.5149 19.2298 13.0599 18.7898 12.0149C18.8698 12.1699 18.9398 12.3349 18.9948 12.5149C19.2848 13.4749 18.6498 14.2799 17.8498 14.4149C17.0498 14.5549 16.1048 13.9549 16.1298 12.9049C16.1648 11.4899 15.3698 9.92993 15.3698 9.92993C16.9698 11.5299 16.8748 12.2999 17.1898 12.6999Z" fill="url(#paint16_linear_2135_81119)"/>
<path id="Vector_18" d="M16.3996 12.21C16.6996 13.905 18.7296 13.88 19.0446 12.74C19.1796 13.595 18.5846 14.285 17.8446 14.41C17.0446 14.55 16.0996 13.95 16.1246 12.9C16.1596 11.485 15.3646 9.92505 15.3646 9.92505C15.3646 9.92505 16.1546 10.82 16.3996 12.21Z" fill="url(#paint17_linear_2135_81119)"/>
<path id="Vector_19" d="M16.6848 13.1949C17.4148 14.2849 18.7198 13.7849 19.0648 12.9799C19.0648 13.3499 18.9248 13.6799 18.7048 13.9349C17.4148 14.9249 16.1648 13.6849 16.1298 12.9649C16.1298 12.9449 16.1298 12.9249 16.1298 12.9049C16.1298 12.8799 16.1298 12.8549 16.1298 12.8249C16.1348 11.4299 15.3698 9.92993 15.3698 9.92993C16.4948 11.5399 15.7948 11.8599 16.6848 13.1949Z" fill="url(#paint18_linear_2135_81119)"/>
<path id="Vector_20" opacity="0.75" d="M15.3698 9.92505C15.3698 9.92505 17.4848 11 17.6698 12.02C17.8548 13.0351 18.8448 12.5801 18.6198 12.0351C18.2198 11.08 16.6198 10.175 15.3698 9.92505Z" fill="url(#paint19_linear_2135_81119)"/>
</g>
<path id="Vector_21" d="M4.77 11.3351C4.76 11.3301 4.745 11.3301 4.735 11.3301C4.62 11.3401 4.07 11.4551 4.54 12.7601C4.77 13.3051 5.155 14.0101 5.755 14.6651C5.195 14.0001 5.885 13.6301 7.12 13.7801C8.355 13.9301 10.035 13.9301 10.035 13.9301V12.0701C8.245 12.0751 6.475 11.8251 4.77 11.3351Z" fill="url(#paint20_linear_2135_81119)"/>
<path id="Vector_22" d="M15.295 11.3351C15.305 11.3301 15.32 11.3301 15.33 11.3301C15.445 11.3401 15.995 11.4551 15.525 12.7601C15.295 13.3051 14.91 14.0101 14.31 14.6651C14.87 14.0001 14.18 13.6301 12.945 13.7801C11.71 13.9301 10.03 13.9301 10.03 13.9301V12.0701C11.82 12.0751 13.59 11.8251 15.295 11.3351Z" fill="url(#paint21_linear_2135_81119)"/>
<path id="Vector_23" d="M14.7847 13.0698C15.0147 13.0148 15.1897 12.8199 15.2097 12.5799L15.2947 11.7249C13.5897 12.2049 11.8247 12.4499 10.0347 12.4499C8.24973 12.4499 6.47974 12.2049 4.77474 11.7249L4.85974 12.5799C4.88474 12.8149 5.05474 13.0148 5.28474 13.0698C6.83473 13.4398 8.42973 13.6249 10.0347 13.6249C11.6397 13.6249 13.2347 13.4398 14.7847 13.0698Z" fill="url(#paint22_radial_2135_81119)"/>
</g>
</g>
<defs>
<radialGradient id="paint0_radial_2135_81119" cx="0" cy="0" r="1" gradientUnits="userSpaceOnUse" gradientTransform="translate(8.45981 6.75902) scale(9.65096 9.65096)">
<stop stop-color="#FFE030"/>
<stop offset="1" stop-color="#FFB92E"/>
</radialGradient>
<radialGradient id="paint1_radial_2135_81119" cx="0" cy="0" r="1" gradientUnits="userSpaceOnUse" gradientTransform="translate(8.45981 6.75902) scale(7.59284 7.59284)">
<stop stop-color="#FFEA5F"/>
<stop offset="1" stop-color="#FFBC47" stop-opacity="0"/>
</radialGradient>
<linearGradient id="paint2_linear_2135_81119" x1="14.1583" y1="7.20457" x2="14.3007" y2="6.37373" gradientUnits="userSpaceOnUse">
<stop offset="0.00132565" stop-color="#3C2200"/>
<stop offset="1" stop-color="#7A4400"/>
</linearGradient>
<radialGradient id="paint3_radial_2135_81119" cx="0" cy="0" r="1" gradientUnits="userSpaceOnUse" gradientTransform="translate(13.3726 8.90419) rotate(5.868) scale(1.50784 0.727484)">
<stop offset="0.00132565" stop-color="#7A4400"/>
<stop offset="1" stop-color="#643800"/>
</radialGradient>
<linearGradient id="paint4_linear_2135_81119" x1="13.4997" y1="7.67499" x2="13.4057" y2="8.64464" gradientUnits="userSpaceOnUse">
<stop offset="0.00132565" stop-color="#3C2200"/>
<stop offset="1" stop-color="#512D00"/>
</linearGradient>
<radialGradient id="paint5_radial_2135_81119" cx="0" cy="0" r="1" gradientUnits="userSpaceOnUse" gradientTransform="translate(10.0344 13.9059) scale(4.40705 4.40705)">
<stop offset="0.00132565" stop-color="#7A4400"/>
<stop offset="1" stop-color="#643800"/>
</radialGradient>
<linearGradient id="paint6_linear_2135_81119" x1="5.90121" y1="7.19814" x2="5.75883" y2="6.3673" gradientUnits="userSpaceOnUse">
<stop offset="0.00132565" stop-color="#3C2200"/>
<stop offset="1" stop-color="#7A4400"/>
</linearGradient>
<radialGradient id="paint7_radial_2135_81119" cx="0" cy="0" r="1" gradientUnits="userSpaceOnUse" gradientTransform="translate(6.67912 8.90446) rotate(174.132) scale(1.50784 0.727484)">
<stop offset="0.00132565" stop-color="#7A4400"/>
<stop offset="1" stop-color="#643800"/>
</radialGradient>
<linearGradient id="paint8_linear_2135_81119" x1="6.55823" y1="7.67412" x2="6.65228" y2="8.64376" gradientUnits="userSpaceOnUse">
<stop offset="0.00132565" stop-color="#3C2200"/>
<stop offset="1" stop-color="#512D00"/>
</linearGradient>
<linearGradient id="paint9_linear_2135_81119" x1="1.13748" y1="9.99614" x2="4.56247" y2="13.4961" gradientUnits="userSpaceOnUse">
<stop offset="0.0723628" stop-color="#17BBFE"/>
<stop offset="0.2085" stop-color="#D1F2FF"/>
<stop offset="0.668" stop-color="#80DAFE"/>
<stop offset="1" stop-color="#0099D6"/>
</linearGradient>
<linearGradient id="paint10_linear_2135_81119" x1="5.39282" y1="15.2133" x2="1.09282" y2="9.24668" gradientUnits="userSpaceOnUse">
<stop stop-color="#D1F2FF"/>
<stop offset="0.668" stop-color="#80DAFE"/>
<stop offset="1" stop-color="#0099D6"/>
</linearGradient>
<linearGradient id="paint11_linear_2135_81119" x1="2.02191" y1="9.29691" x2="4.1719" y2="15.2219" gradientUnits="userSpaceOnUse">
<stop offset="0.566" stop-color="#80DAFE"/>
<stop offset="1" stop-color="#0099D6"/>
</linearGradient>
<linearGradient id="paint12_linear_2135_81119" x1="2.27201" y1="9.58407" x2="3.80535" y2="14.8174" gradientUnits="userSpaceOnUse">
<stop offset="0.566" stop-color="#80DAFE"/>
<stop offset="1" stop-color="#0099D6"/>
</linearGradient>
<linearGradient id="paint13_linear_2135_81119" x1="2.72985" y1="13.4991" x2="3.42985" y2="8.24916" gradientUnits="userSpaceOnUse">
<stop stop-color="white"/>
<stop offset="1" stop-color="#80DAFE"/>
</linearGradient>
<radialGradient id="paint14_radial_2135_81119" cx="0" cy="0" r="1" gradientUnits="userSpaceOnUse" gradientTransform="translate(10.1 15.4553) scale(3.65248 1.10415)">
<stop offset="0.2479" stop-color="#FF0000"/>
<stop offset="1" stop-color="#C20000"/>
</radialGradient>
<linearGradient id="paint15_linear_2135_81119" x1="18.9303" y1="9.99614" x2="15.5053" y2="13.4961" gradientUnits="userSpaceOnUse">
<stop offset="0.0723628" stop-color="#17BBFE"/>
<stop offset="0.2085" stop-color="#D1F2FF"/>
<stop offset="0.668" stop-color="#80DAFE"/>
<stop offset="1" stop-color="#0099D6"/>
</linearGradient>
<linearGradient id="paint16_linear_2135_81119" x1="14.6749" y1="15.2133" x2="18.9749" y2="9.24668" gradientUnits="userSpaceOnUse">
<stop stop-color="#D1F2FF"/>
<stop offset="0.668" stop-color="#80DAFE"/>
<stop offset="1" stop-color="#0099D6"/>
</linearGradient>
<linearGradient id="paint17_linear_2135_81119" x1="18.0458" y1="9.29691" x2="15.8958" y2="15.2219" gradientUnits="userSpaceOnUse">
<stop offset="0.566" stop-color="#80DAFE"/>
<stop offset="1" stop-color="#0099D6"/>
</linearGradient>
<linearGradient id="paint18_linear_2135_81119" x1="17.7954" y1="9.58407" x2="16.2621" y2="14.8174" gradientUnits="userSpaceOnUse">
<stop offset="0.566" stop-color="#80DAFE"/>
<stop offset="1" stop-color="#0099D6"/>
</linearGradient>
<linearGradient id="paint19_linear_2135_81119" x1="17.3373" y1="13.4992" x2="16.6373" y2="8.24916" gradientUnits="userSpaceOnUse">
<stop stop-color="white"/>
<stop offset="1" stop-color="#80DAFE"/>
</linearGradient>
<linearGradient id="paint20_linear_2135_81119" x1="4.35493" y1="12.9999" x2="10.0338" y2="12.9999" gradientUnits="userSpaceOnUse">
<stop offset="0.00132565" stop-color="#3C2200"/>
<stop offset="1" stop-color="#512D00"/>
</linearGradient>
<linearGradient id="paint21_linear_2135_81119" x1="15.7113" y1="12.9999" x2="10.0324" y2="12.9999" gradientUnits="userSpaceOnUse">
<stop offset="0.00132565" stop-color="#3C2200"/>
<stop offset="1" stop-color="#512D00"/>
</linearGradient>
<radialGradient id="paint22_radial_2135_81119" cx="0" cy="0" r="1" gradientUnits="userSpaceOnUse" gradientTransform="translate(10.0335 12.6762) scale(9.66476 9.66476)">
<stop offset="0.00132565" stop-color="white"/>
<stop offset="1" stop-color="#A9BCBE"/>
</radialGradient>
</defs>
</svg>
