<svg width="24" height="24" viewBox="0 0 24 24" fill="none" xmlns="http://www.w3.org/2000/svg">
    <g id="attach 1">
        <g id="Group">
            <g id="Group_2">
                <g id="ngicon">
                    <path id="Vector" fill-rule="evenodd" clip-rule="evenodd" d="M18.1489 10.9473L10.1961 18.9C9.72725 19.3689 9.09152 19.6316 8.42828 19.6313C7.76503 19.6309 7.12888 19.367 6.65996 18.8981C6.65964 18.8978 6.65933 18.8974 6.65901 18.8971C5.68249 17.9206 5.68176 16.3381 6.65722 15.3627L14.2186 7.80066C14.4478 7.57152 14.7587 7.44302 15.0829 7.44336C15.4075 7.44331 15.7183 7.57216 15.9476 7.80143C16.1331 7.98699 16.345 8.29472 16.3453 8.70576C16.3458 9.03924 16.2171 9.34089 15.988 9.57004L11.1878 14.3696C10.8952 14.6622 10.8958 15.1377 11.1886 15.4305C11.4814 15.7233 11.9566 15.7236 12.2492 15.4311L17.0494 10.6315C17.5598 10.1211 17.756 9.43926 17.8457 8.70675C17.9245 8.06375 17.5696 7.29211 17.0076 6.74142C16.4919 6.23558 15.8041 5.94339 15.0819 5.94292C14.3603 5.94239 13.6676 6.22884 13.1572 6.73922L5.59578 14.3012C4.03444 15.8626 4.03587 18.3948 5.59862 19.9575L5.59956 19.9585C6.34996 20.7089 7.36801 21.1312 8.42896 21.1314C9.48985 21.1323 10.5075 20.7116 11.2575 19.9615L19.2103 12.0087C20.1945 11.0246 20.7467 9.68925 20.7458 8.2969C20.7449 6.90455 20.1916 5.56901 19.2062 4.58368C19.2059 4.58337 19.2059 4.58337 19.2056 4.58305C17.1538 2.53126 13.829 2.52994 11.7795 4.57939C9.4107 6.9482 6.58436 9.77454 6.58436 9.77454C6.29179 10.0671 6.29211 10.5423 6.58491 10.8351C6.87771 11.1279 7.35323 11.1285 7.64579 10.836L12.8409 5.64083C14.3049 4.17688 16.6796 4.17789 18.1452 5.64346L18.1458 5.64409C18.8494 6.34762 19.2449 7.30188 19.2457 8.29621C19.2461 9.29092 18.8518 10.2444 18.1489 10.9473Z" fill="#32363E"/>
                </g>
            </g>
        </g>
    </g>
</svg>
