<svg width="21" height="20" viewBox="0 0 21 20" fill="none" xmlns="http://www.w3.org/2000/svg">
<g id="Return">
<path id="Vector 10" d="M16.9165 8.33333L17.4468 8.86366L17.9772 8.33333L17.4468 7.803L16.9165 8.33333ZM2.83317 15C2.83317 15.4142 3.16896 15.75 3.58317 15.75C3.99738 15.75 4.33317 15.4142 4.33317 15L2.83317 15ZM13.2802 13.0303L17.4468 8.86366L16.3862 7.803L12.2195 11.9697L13.2802 13.0303ZM17.4468 7.803L13.2802 3.63634L12.2195 4.697L16.3862 8.86366L17.4468 7.803ZM16.9165 7.58333L9.58317 7.58333L9.58317 9.08333L16.9165 9.08333L16.9165 7.58333ZM2.83317 14.3333L2.83317 15L4.33317 15L4.33317 14.3333L2.83317 14.3333ZM9.58317 7.58333C5.85525 7.58333 2.83317 10.6054 2.83317 14.3333L4.33317 14.3333C4.33317 11.4338 6.68367 9.08333 9.58317 9.08333L9.58317 7.58333Z" fill="#101114"/>
</g>
</svg>
