<svg width="24" height="24" viewBox="0 0 24 24" fill="none" xmlns="http://www.w3.org/2000/svg">
<path d="M6 8H10" stroke="#11B991" stroke-width="1.5" stroke-linecap="round"/>
<path d="M6 21H5C3.34315 21 2 19.6569 2 18V6C2 4.34315 3.34315 3 5 3H16.5C18.1569 3 19.5 4.34315 19.5 6V7" stroke="#11B991" stroke-width="1.5" stroke-linecap="round"/>
<path d="M10.0833 19.5638H9.72222C9.53068 19.5638 9.34698 19.4882 9.21153 19.3535C9.07609 19.2188 9 19.0362 9 18.8457C9 18.2744 9.22827 17.7264 9.6346 17.3224C10.0409 16.9184 10.592 16.6915 11.1667 16.6915H11.8889M11.8889 14.5372C11.6331 14.4739 11.3944 14.3556 11.1895 14.1907C10.9846 14.0259 10.8185 13.8184 10.7029 13.5829C10.5872 13.3474 10.5248 13.0896 10.5201 12.8275C10.5153 12.5655 10.5683 12.3056 10.6754 12.0661C10.7824 11.8266 10.9409 11.6133 11.1397 11.4413C11.3385 11.2692 11.5728 11.1424 11.8261 11.07C12.0794 10.9975 12.3456 10.9811 12.606 11.0218C12.8664 11.0626 13.1146 11.1595 13.3333 11.3058M20.9167 19.5638H21.2778C21.7111 19.5638 22 19.2766 22 18.8457C22 18.2744 21.7717 17.7264 21.3654 17.3224C20.9591 16.9184 20.408 16.6915 19.8333 16.6915H19.1111M19.1111 14.5372C19.3669 14.4739 19.6056 14.3556 19.8105 14.1907C20.0154 14.0259 20.1815 13.8184 20.2971 13.5829C20.4128 13.3474 20.4752 13.0896 20.4799 12.8275C20.4847 12.5655 20.4317 12.3056 20.3246 12.0661C20.2176 11.8266 20.0591 11.6133 19.8603 11.4413C19.6615 11.2692 19.4272 11.1424 19.1739 11.07C18.9206 10.9975 18.6544 10.9811 18.394 11.0218C18.1336 11.0626 17.8854 11.1595 17.6667 11.3058M18.0278 21H12.9722C12.7807 21 12.597 20.9243 12.4615 20.7897C12.3261 20.655 12.25 20.4724 12.25 20.2819C12.25 19.7106 12.4783 19.1626 12.8846 18.7586C13.2909 18.3546 13.842 18.1276 14.4167 18.1276H16.5833C17.158 18.1276 17.7091 18.3546 18.1154 18.7586C18.5217 19.1626 18.75 19.7106 18.75 20.2819C18.75 20.7128 18.4611 21 18.0278 21ZM17.3056 14.1782C17.3056 14.6543 17.1153 15.1109 16.7767 15.4476C16.4381 15.7842 15.9789 15.9734 15.5 15.9734C15.0211 15.9734 14.5619 15.7842 14.2233 15.4476C13.8847 15.1109 13.6944 14.6543 13.6944 14.1782C13.6944 13.702 13.8847 13.2454 14.2233 12.9087C14.5619 12.5721 15.0211 12.3829 15.5 12.3829C15.9789 12.3829 16.4381 12.5721 16.7767 12.9087C17.1153 13.2454 17.3056 13.702 17.3056 14.1782Z" stroke="#11B991" stroke-width="1.5" stroke-linecap="round"/>
</svg>
