<svg width="20" height="20" viewBox="0 0 20 20" fill="none" xmlns="http://www.w3.org/2000/svg">
<g id="recall">
<g id="Group 8737">
<g id="Group 8735">
<path id="Vector 55" d="M5 6.66602H13" stroke="#595E69" stroke-width="1.5" stroke-linecap="round"/>
<path id="Vector 612" d="M5 11H8.33333" stroke="#595E69" stroke-width="1.5" stroke-linecap="round"/>
<path id="Vector 611" d="M7.5 17.5H4.66675C3.00989 17.5 1.66675 16.1569 1.66675 14.5V5.5C1.66675 3.84315 3.00989 2.5 4.66675 2.5H13.2501C14.9069 2.5 16.2501 3.84315 16.2501 5.5V7.5" stroke="#595E69" stroke-width="1.5" stroke-linecap="round"/>
</g>
<path id="Vector" d="M15.8148 17.4992H11.6019C11.4422 17.4992 11.2891 17.4362 11.1763 17.324C11.0634 17.2118 11 17.0595 11 16.9008C11 16.4247 11.1902 15.9681 11.5288 15.6314C11.8674 15.2948 12.3267 15.1056 12.8056 15.1056H14.6111C15.09 15.1056 15.5492 15.2948 15.8878 15.6314C16.2264 15.9681 16.4167 16.4247 16.4167 16.9008C16.4167 17.2599 16.1759 17.4992 15.8148 17.4992ZM15.213 11.8144C15.213 12.2111 15.0544 12.5917 14.7723 12.8722C14.4901 13.1528 14.1074 13.3104 13.7083 13.3104C13.3093 13.3104 12.9266 13.1528 12.6444 12.8722C12.3622 12.5917 12.2037 12.2111 12.2037 11.8144C12.2037 11.4176 12.3622 11.0371 12.6444 10.7565C12.9266 10.476 13.3093 10.3184 13.7083 10.3184C14.1074 10.3184 14.4901 10.476 14.7723 10.7565C15.0544 11.0371 15.213 11.4176 15.213 11.8144Z" stroke="#595E69" stroke-width="1.5" stroke-linecap="round"/>
</g>
</g>
</svg>
