<svg width="24" height="24" viewBox="0 0 24 24" fill="none" xmlns="http://www.w3.org/2000/svg">
<g id="icon">
<path id="Rectangle 1" d="M3 11C3 7.22876 3 5.34315 4.17157 4.17157C5.34315 3 7.22876 3 11 3H13C16.7712 3 18.6569 3 19.8284 4.17157C21 5.34315 21 7.22876 21 11V13C21 16.7712 21 18.6569 19.8284 19.8284C18.6569 21 16.7712 21 13 21H11C7.22876 21 5.34315 21 4.17157 19.8284C3 18.6569 3 16.7712 3 13V11Z" stroke="#32363E" stroke-width="1.5"/>
<path id="Subtract" fill-rule="evenodd" clip-rule="evenodd" d="M18.999 13.9383L18.8311 13.7704L18.8086 13.7478L18.8086 13.7478C18.4138 13.353 18.0843 13.0235 17.7925 12.7776C17.488 12.521 17.1734 12.3099 16.7943 12.1955C16.2763 12.0392 15.7237 12.0392 15.2057 12.1955C14.8266 12.3099 14.512 12.521 14.2075 12.7776C13.9157 13.0235 13.5862 13.353 13.1914 13.7478L13.1914 13.7478L13.1689 13.7704C12.8656 14.0737 12.6752 14.2629 12.5238 14.3881C12.4312 14.4646 12.3848 14.4896 12.3713 14.496C12.3169 14.5035 12.2615 14.4928 12.2138 14.4657C12.2036 14.4547 12.1698 14.4143 12.1122 14.3088C12.0182 14.1363 11.9117 13.89 11.7428 13.4957L11.6894 13.3711L11.672 13.3307L11.672 13.3307C11.312 12.4905 11.0176 11.8037 10.7285 11.2899C10.4327 10.7642 10.0835 10.3081 9.55779 10.0445C9.10515 9.81764 8.59866 9.72009 8.09413 9.76267C7.50811 9.81212 7.01456 10.1059 6.54459 10.4842C6.10671 10.8366 5.60599 11.3334 5 11.9392V12.9999C5 13.3782 5.00016 13.7304 5.00134 14.0592L5.94022 13.1203C6.62529 12.4352 7.09663 11.9654 7.4851 11.6527C7.87016 11.3428 8.07744 11.2694 8.22026 11.2574C8.44959 11.238 8.67982 11.2823 8.88556 11.3855C9.01369 11.4497 9.1789 11.5948 9.42131 12.0256C9.66588 12.4602 9.929 13.0715 10.3106 13.962L10.364 14.0866L10.3773 14.1175C10.529 14.4714 10.6631 14.7845 10.7954 15.027C10.9327 15.2788 11.1173 15.5513 11.4163 15.7364C11.7814 15.9624 12.2169 16.0462 12.6398 15.972C12.9862 15.9112 13.2588 15.7267 13.4798 15.544C13.6926 15.368 13.9335 15.1271 14.2058 14.8548L14.2295 14.831C14.6527 14.4079 14.9371 14.1243 15.1741 13.9246C15.404 13.7309 15.5368 13.6624 15.6389 13.6316C15.8744 13.5605 16.1256 13.5605 16.3611 13.6316C16.4632 13.6624 16.596 13.7309 16.8259 13.9246C17.0629 14.1243 17.3473 14.4079 17.7705 14.831L18.9624 16.0229C18.9888 15.4465 18.9967 14.7648 18.999 13.9383Z" fill="#32363E"/>
<circle id="Ellipse 46" cx="16.5" cy="7.5" r="1.5" fill="#32363E"/>
</g>
</svg>
