<svg width="250" height="250" viewBox="0 0 250 250" fill="none" xmlns="http://www.w3.org/2000/svg">
<mask id="mask0_1076_35273" style="mask-type:alpha" maskUnits="userSpaceOnUse" x="13" y="22" width="225" height="180">
<rect x="13" y="22" width="225" height="180" fill="url(#paint0_linear_1076_35273)"/>
</mask>
<g mask="url(#mask0_1076_35273)">
<g filter="url(#filter0_i_1076_35273)">
<path d="M33 56C33 38.3269 47.3269 24 65 24H187C204.673 24 219 38.3269 219 56V288H33V56Z" fill="#F9FAFB"/>
</g>
<path d="M45 60C45 46.7452 55.7452 36 69 36H183C196.255 36 207 46.7452 207 60V288H45V60Z" fill="white"/>
</g>
<g filter="url(#filter1_i_1076_35273)">
<path fill-rule="evenodd" clip-rule="evenodd" d="M148.073 132.667C136.788 143.951 118.493 143.951 107.209 132.667C95.9245 121.383 95.9245 103.088 107.209 91.8034C118.493 80.5192 136.788 80.5192 148.073 91.8034C159.357 103.088 159.357 121.383 148.073 132.667ZM103.708 148.114C120.464 159.317 143.336 157.521 158.131 142.726C174.971 125.886 174.971 98.5842 158.131 81.7446C141.292 64.9051 113.989 64.9051 97.1499 81.7446C82.1332 96.7613 80.5077 120.098 92.2733 136.916L71.06 158.13C67.9351 161.254 67.9351 166.321 71.06 169.446C74.1848 172.571 79.2512 172.571 82.3761 169.446L103.708 148.114Z" fill="#F8F9FB"/>
</g>
<g filter="url(#filter2_i_1076_35273)">
<path d="M121.384 109H120.634V103H121.95L127.45 108.25V103H128.2V109H127.2L121.384 103.625V109ZM129.241 106.719C129.241 106.258 129.291 105.876 129.39 105.574C129.489 105.272 129.647 105.033 129.866 104.855C130.085 104.678 130.369 104.555 130.718 104.484C131.067 104.411 131.491 104.375 131.991 104.375C132.491 104.375 132.916 104.411 133.265 104.484C133.614 104.555 133.897 104.678 134.116 104.855C134.335 105.033 134.494 105.272 134.593 105.574C134.692 105.876 134.741 106.258 134.741 106.719C134.741 107.18 134.692 107.562 134.593 107.867C134.494 108.172 134.335 108.414 134.116 108.594C133.897 108.773 133.614 108.901 133.265 108.977C132.916 109.049 132.491 109.086 131.991 109.086C131.491 109.086 131.067 109.049 130.718 108.977C130.369 108.901 130.085 108.773 129.866 108.594C129.647 108.414 129.489 108.172 129.39 107.867C129.291 107.562 129.241 107.18 129.241 106.719ZM129.991 106.719C129.991 106.969 130 107.186 130.019 107.371C130.037 107.556 130.071 107.715 130.12 107.848C130.172 107.98 130.244 108.089 130.335 108.172C130.426 108.255 130.546 108.322 130.694 108.371C130.843 108.421 131.022 108.454 131.233 108.473C131.447 108.491 131.699 108.5 131.991 108.5C132.241 108.5 132.464 108.495 132.659 108.484C132.857 108.471 133.029 108.444 133.175 108.402C133.323 108.361 133.449 108.302 133.554 108.227C133.658 108.148 133.741 108.043 133.804 107.91C133.869 107.777 133.916 107.615 133.944 107.422C133.976 107.227 133.991 106.992 133.991 106.719C133.991 106.451 133.976 106.223 133.944 106.035C133.916 105.845 133.869 105.686 133.804 105.559C133.741 105.431 133.658 105.331 133.554 105.258C133.449 105.182 133.323 105.126 133.175 105.09C133.029 105.051 132.857 105.026 132.659 105.016C132.464 105.005 132.241 105 131.991 105C131.741 105 131.517 105.005 131.319 105.016C131.124 105.026 130.952 105.051 130.804 105.09C130.658 105.126 130.533 105.182 130.429 105.258C130.324 105.331 130.24 105.431 130.175 105.559C130.112 105.686 130.065 105.845 130.034 106.035C130.005 106.223 129.991 106.451 129.991 106.719ZM111.936 117.625H107.186L106.436 119H105.561L109.061 113H110.061L113.561 119H112.686L111.936 117.625ZM111.561 117L109.561 113.5L107.561 117H111.561ZM114.098 116.758C114.098 116.445 114.113 116.169 114.145 115.93C114.176 115.69 114.231 115.482 114.309 115.305C114.39 115.128 114.496 114.98 114.629 114.863C114.765 114.743 114.934 114.647 115.137 114.574C115.343 114.501 115.586 114.449 115.867 114.418C116.149 114.387 116.477 114.371 116.852 114.371C117.352 114.371 117.763 114.402 118.086 114.465C118.409 114.525 118.664 114.618 118.852 114.746C119.039 114.871 119.169 115.031 119.242 115.227C119.315 115.419 119.352 115.65 119.352 115.918H118.602C118.602 115.822 118.599 115.732 118.594 115.648C118.589 115.565 118.569 115.49 118.535 115.422C118.504 115.354 118.453 115.294 118.383 115.242C118.313 115.188 118.212 115.142 118.082 115.105C117.952 115.069 117.787 115.042 117.586 115.023C117.388 115.005 117.143 114.996 116.852 114.996C116.518 114.996 116.237 115.008 116.008 115.031C115.781 115.055 115.594 115.094 115.446 115.148C115.297 115.201 115.183 115.272 115.102 115.363C115.021 115.452 114.962 115.561 114.926 115.691C114.89 115.822 114.867 115.975 114.86 116.152C114.854 116.327 114.852 116.529 114.852 116.758C114.852 116.982 114.854 117.181 114.86 117.355C114.867 117.527 114.89 117.678 114.926 117.809C114.962 117.936 115.021 118.044 115.102 118.133C115.183 118.221 115.297 118.293 115.446 118.348C115.594 118.402 115.781 118.441 116.008 118.465C116.237 118.488 116.518 118.5 116.852 118.5C117.143 118.5 117.388 118.49 117.586 118.469C117.787 118.448 117.952 118.418 118.082 118.379C118.212 118.34 118.313 118.292 118.383 118.234C118.453 118.177 118.504 118.112 118.535 118.039C118.569 117.964 118.589 117.882 118.594 117.793C118.599 117.702 118.602 117.604 118.602 117.5H119.352C119.352 117.773 119.315 118.01 119.242 118.211C119.169 118.411 119.039 118.577 118.852 118.707C118.664 118.835 118.409 118.93 118.086 118.992C117.763 119.055 117.352 119.086 116.852 119.086C116.477 119.086 116.149 119.07 115.867 119.039C115.586 119.008 115.343 118.957 115.137 118.887C114.934 118.814 114.765 118.719 114.629 118.602C114.496 118.484 114.39 118.34 114.309 118.168C114.231 117.996 114.176 117.794 114.145 117.562C114.113 117.328 114.098 117.06 114.098 116.758ZM120.143 116.758C120.143 116.445 120.158 116.169 120.19 115.93C120.221 115.69 120.276 115.482 120.354 115.305C120.434 115.128 120.541 114.98 120.674 114.863C120.809 114.743 120.979 114.647 121.182 114.574C121.387 114.501 121.631 114.449 121.912 114.418C122.193 114.387 122.522 114.371 122.897 114.371C123.397 114.371 123.808 114.402 124.131 114.465C124.454 114.525 124.709 114.618 124.897 114.746C125.084 114.871 125.214 115.031 125.287 115.227C125.36 115.419 125.397 115.65 125.397 115.918H124.647C124.647 115.822 124.644 115.732 124.639 115.648C124.634 115.565 124.614 115.49 124.58 115.422C124.549 115.354 124.498 115.294 124.428 115.242C124.358 115.188 124.257 115.142 124.127 115.105C123.997 115.069 123.831 115.042 123.631 115.023C123.433 115.005 123.188 114.996 122.897 114.996C122.563 114.996 122.282 115.008 122.053 115.031C121.826 115.055 121.639 115.094 121.49 115.148C121.342 115.201 121.227 115.272 121.147 115.363C121.066 115.452 121.007 115.561 120.971 115.691C120.934 115.822 120.912 115.975 120.904 116.152C120.899 116.327 120.897 116.529 120.897 116.758C120.897 116.982 120.899 117.181 120.904 117.355C120.912 117.527 120.934 117.678 120.971 117.809C121.007 117.936 121.066 118.044 121.147 118.133C121.227 118.221 121.342 118.293 121.49 118.348C121.639 118.402 121.826 118.441 122.053 118.465C122.282 118.488 122.563 118.5 122.897 118.5C123.188 118.5 123.433 118.49 123.631 118.469C123.831 118.448 123.997 118.418 124.127 118.379C124.257 118.34 124.358 118.292 124.428 118.234C124.498 118.177 124.549 118.112 124.58 118.039C124.614 117.964 124.634 117.882 124.639 117.793C124.644 117.702 124.647 117.604 124.647 117.5H125.397C125.397 117.773 125.36 118.01 125.287 118.211C125.214 118.411 125.084 118.577 124.897 118.707C124.709 118.835 124.454 118.93 124.131 118.992C123.808 119.055 123.397 119.086 122.897 119.086C122.522 119.086 122.193 119.07 121.912 119.039C121.631 119.008 121.387 118.957 121.182 118.887C120.979 118.814 120.809 118.719 120.674 118.602C120.541 118.484 120.434 118.34 120.354 118.168C120.276 117.996 120.221 117.794 120.19 117.562C120.158 117.328 120.143 117.06 120.143 116.758ZM126.188 116.719C126.188 116.258 126.237 115.876 126.336 115.574C126.435 115.272 126.594 115.033 126.812 114.855C127.031 114.678 127.315 114.555 127.664 114.484C128.013 114.411 128.438 114.375 128.938 114.375C129.438 114.375 129.862 114.411 130.211 114.484C130.56 114.555 130.844 114.678 131.062 114.855C131.281 115.033 131.44 115.272 131.539 115.574C131.638 115.876 131.688 116.258 131.688 116.719C131.688 117.18 131.638 117.562 131.539 117.867C131.44 118.172 131.281 118.414 131.062 118.594C130.844 118.773 130.56 118.901 130.211 118.977C129.862 119.049 129.438 119.086 128.938 119.086C128.438 119.086 128.013 119.049 127.664 118.977C127.315 118.901 127.031 118.773 126.812 118.594C126.594 118.414 126.435 118.172 126.336 117.867C126.237 117.562 126.188 117.18 126.188 116.719ZM126.938 116.719C126.938 116.969 126.947 117.186 126.965 117.371C126.983 117.556 127.017 117.715 127.066 117.848C127.118 117.98 127.19 118.089 127.281 118.172C127.372 118.255 127.492 118.322 127.641 118.371C127.789 118.421 127.969 118.454 128.18 118.473C128.393 118.491 128.646 118.5 128.938 118.5C129.188 118.5 129.41 118.495 129.605 118.484C129.803 118.471 129.975 118.444 130.121 118.402C130.27 118.361 130.396 118.302 130.5 118.227C130.604 118.148 130.688 118.043 130.75 117.91C130.815 117.777 130.862 117.615 130.891 117.422C130.922 117.227 130.938 116.992 130.938 116.719C130.938 116.451 130.922 116.223 130.891 116.035C130.862 115.845 130.815 115.686 130.75 115.559C130.688 115.431 130.604 115.331 130.5 115.258C130.396 115.182 130.27 115.126 130.121 115.09C129.975 115.051 129.803 115.026 129.605 115.016C129.41 115.005 129.188 115 128.938 115C128.688 115 128.464 115.005 128.266 115.016C128.07 115.026 127.898 115.051 127.75 115.09C127.604 115.126 127.479 115.182 127.375 115.258C127.271 115.331 127.186 115.431 127.121 115.559C127.059 115.686 127.012 115.845 126.98 116.035C126.952 116.223 126.938 116.451 126.938 116.719ZM133.228 114.5V117C133.228 117.279 133.249 117.514 133.291 117.707C133.333 117.897 133.416 118.051 133.541 118.168C133.666 118.285 133.843 118.37 134.072 118.422C134.301 118.474 134.603 118.5 134.978 118.5C135.385 118.5 135.717 118.47 135.975 118.41C136.235 118.35 136.439 118.266 136.588 118.156C136.736 118.047 136.838 117.915 136.892 117.762C136.95 117.608 136.978 117.438 136.978 117.25V114.5H137.728V119H136.978V118.25C136.942 118.331 136.881 118.421 136.795 118.52C136.709 118.616 136.58 118.706 136.408 118.789C136.236 118.872 136.014 118.943 135.74 119C135.469 119.057 135.132 119.086 134.728 119.086C134.392 119.086 134.103 119.065 133.861 119.023C133.622 118.984 133.417 118.926 133.248 118.848C133.081 118.767 132.947 118.668 132.846 118.551C132.744 118.434 132.666 118.298 132.611 118.145C132.557 117.988 132.52 117.815 132.502 117.625C132.484 117.435 132.475 117.227 132.475 117L132.478 114.5H133.228ZM143.144 119V116.5C143.144 116.221 143.123 115.987 143.082 115.797C143.04 115.604 142.957 115.449 142.832 115.332C142.707 115.215 142.53 115.13 142.301 115.078C142.071 115.026 141.769 115 141.394 115C140.988 115 140.655 115.03 140.394 115.09C140.137 115.15 139.933 115.234 139.785 115.344C139.637 115.453 139.534 115.585 139.476 115.738C139.422 115.892 139.394 116.062 139.394 116.25V119H138.644V114.5H139.394V115.25C139.449 115.122 139.527 115.013 139.629 114.922C139.73 114.828 139.845 114.749 139.972 114.684C140.1 114.618 140.238 114.566 140.387 114.527C140.535 114.486 140.683 114.454 140.832 114.434C140.98 114.41 141.123 114.395 141.262 114.387C141.402 114.379 141.53 114.375 141.644 114.375C141.978 114.375 142.264 114.396 142.504 114.438C142.746 114.479 142.95 114.54 143.117 114.621C143.286 114.702 143.422 114.802 143.523 114.922C143.625 115.042 143.703 115.181 143.758 115.34C143.815 115.496 143.853 115.672 143.871 115.867C143.889 116.06 143.898 116.271 143.898 116.5L143.894 119H143.144ZM149.189 117C149.189 117.383 149.158 117.703 149.095 117.961C149.033 118.216 148.927 118.421 148.779 118.574C148.633 118.728 148.44 118.837 148.201 118.902C147.961 118.967 147.666 119 147.314 119C146.973 119 146.687 118.974 146.455 118.922C146.223 118.87 146.035 118.781 145.892 118.656C145.749 118.531 145.646 118.365 145.584 118.156C145.521 117.948 145.49 117.688 145.49 117.375V115.117H144.564V114.5H145.49V113.27H146.24V114.5H149.064V115.117H146.24V117.375C146.24 117.625 146.258 117.818 146.295 117.953C146.334 118.089 146.395 118.188 146.478 118.25C146.562 118.312 146.671 118.349 146.806 118.359C146.944 118.37 147.112 118.375 147.31 118.375C147.466 118.375 147.606 118.372 147.728 118.367C147.853 118.362 147.961 118.346 148.052 118.32C148.146 118.292 148.226 118.25 148.291 118.195C148.356 118.138 148.408 118.059 148.447 117.957C148.489 117.855 148.519 117.728 148.537 117.574C148.555 117.418 148.564 117.227 148.564 117H149.189Z" fill="#32363E"/>
</g>
<circle cx="89" cy="82" r="16" fill="#11B991"/>
<circle cx="89" cy="82" r="16" fill="url(#paint1_linear_1076_35273)"/>
<path d="M83 89V88C83 85.7909 84.7909 84 87 84H91C93.2091 84 95 85.7909 95 88V89" stroke="white" stroke-width="2" stroke-linecap="round"/>
<path d="M89 81C87.3431 81 86 79.6568 86 78C86 76.3432 87.3431 75 89 75C90.6569 75 92 76.3432 92 78C92 79.6568 90.6569 81 89 81Z" stroke="white" stroke-width="2" stroke-linecap="round"/>
<defs>
<filter id="filter0_i_1076_35273" x="33" y="24" width="186" height="267" filterUnits="userSpaceOnUse" color-interpolation-filters="sRGB">
<feFlood flood-opacity="0" result="BackgroundImageFix"/>
<feBlend mode="normal" in="SourceGraphic" in2="BackgroundImageFix" result="shape"/>
<feColorMatrix in="SourceAlpha" type="matrix" values="0 0 0 0 0 0 0 0 0 0 0 0 0 0 0 0 0 0 127 0" result="hardAlpha"/>
<feOffset dy="3"/>
<feGaussianBlur stdDeviation="1.5"/>
<feComposite in2="hardAlpha" operator="arithmetic" k2="-1" k3="1"/>
<feColorMatrix type="matrix" values="0 0 0 0 0.654244 0 0 0 0 0.715593 0 0 0 0 0.772222 0 0 0 0.25 0"/>
<feBlend mode="normal" in2="shape" result="effect1_innerShadow_1076_35273"/>
</filter>
<filter id="filter1_i_1076_35273" x="68.7163" y="69.1152" width="102.045" height="105.674" filterUnits="userSpaceOnUse" color-interpolation-filters="sRGB">
<feFlood flood-opacity="0" result="BackgroundImageFix"/>
<feBlend mode="normal" in="SourceGraphic" in2="BackgroundImageFix" result="shape"/>
<feColorMatrix in="SourceAlpha" type="matrix" values="0 0 0 0 0 0 0 0 0 0 0 0 0 0 0 0 0 0 127 0" result="hardAlpha"/>
<feOffset dy="3"/>
<feGaussianBlur stdDeviation="1.5"/>
<feComposite in2="hardAlpha" operator="arithmetic" k2="-1" k3="1"/>
<feColorMatrix type="matrix" values="0 0 0 0 0.654244 0 0 0 0 0.715593 0 0 0 0 0.772222 0 0 0 0.25 0"/>
<feBlend mode="normal" in2="shape" result="effect1_innerShadow_1076_35273"/>
</filter>
<filter id="filter2_i_1076_35273" x="105.561" y="103" width="43.6284" height="17.0859" filterUnits="userSpaceOnUse" color-interpolation-filters="sRGB">
<feFlood flood-opacity="0" result="BackgroundImageFix"/>
<feBlend mode="normal" in="SourceGraphic" in2="BackgroundImageFix" result="shape"/>
<feColorMatrix in="SourceAlpha" type="matrix" values="0 0 0 0 0 0 0 0 0 0 0 0 0 0 0 0 0 0 127 0" result="hardAlpha"/>
<feOffset dy="1"/>
<feGaussianBlur stdDeviation="1"/>
<feComposite in2="hardAlpha" operator="arithmetic" k2="-1" k3="1"/>
<feColorMatrix type="matrix" values="0 0 0 0 0 0 0 0 0 0 0 0 0 0 0 0 0 0 0.25 0"/>
<feBlend mode="normal" in2="shape" result="effect1_innerShadow_1076_35273"/>
</filter>
<linearGradient id="paint0_linear_1076_35273" x1="125.5" y1="79" x2="125.5" y2="202" gradientUnits="userSpaceOnUse">
<stop stop-color="#D9D9D9"/>
<stop offset="1" stop-color="#D9D9D9" stop-opacity="0"/>
</linearGradient>
<linearGradient id="paint1_linear_1076_35273" x1="73.7352" y1="73.562" x2="105.746" y2="80.4352" gradientUnits="userSpaceOnUse">
<stop stop-color="#0CBE8C"/>
<stop offset="1" stop-color="#5B72DE"/>
</linearGradient>
</defs>
</svg>
