<svg width="250" height="250" viewBox="0 0 250 250" fill="none" xmlns="http://www.w3.org/2000/svg">
<mask id="mask0_78_31695" style="mask-type:alpha" maskUnits="userSpaceOnUse" x="13" y="22" width="225" height="180">
<rect x="13" y="22" width="225" height="180" fill="url(#paint0_linear_78_31695)"/>
</mask>
<g mask="url(#mask0_78_31695)">
<g filter="url(#filter0_i_78_31695)">
<path d="M33 56C33 38.3269 47.3269 24 65 24H187C204.673 24 219 38.3269 219 56V288H33V56Z" fill="#F9FAFB"/>
</g>
<path d="M45 60C45 46.7452 55.7452 36 69 36H183C196.255 36 207 46.7452 207 60V288H45V60Z" fill="white"/>
</g>
<g filter="url(#filter1_i_78_31695)">
<path fill-rule="evenodd" clip-rule="evenodd" d="M148.073 132.668C136.788 143.952 118.493 143.952 107.209 132.668C95.9245 121.384 95.9245 103.089 107.209 91.8044C118.493 80.5201 136.788 80.5201 148.073 91.8044C159.357 103.089 159.357 121.384 148.073 132.668ZM103.707 148.115C120.464 159.318 143.336 157.522 158.131 142.727C174.971 125.887 174.971 98.5851 158.131 81.7456C141.292 64.906 113.989 64.906 97.1499 81.7456C82.1333 96.7622 80.5077 120.099 92.2731 136.917L71.06 158.13C67.9351 161.255 67.9351 166.321 71.06 169.446C74.1848 172.571 79.2512 172.571 82.3761 169.446L103.707 148.115Z" fill="#F8F9FB"/>
</g>
<g filter="url(#filter2_i_78_31695)">
<path d="M119.855 110H118.917V102.5H120.563L127.438 109.062V102.5H128.375V110H127.125L119.855 103.281V110ZM129.676 107.148C129.676 106.572 129.738 106.095 129.862 105.718C129.986 105.34 130.184 105.041 130.458 104.819C130.731 104.598 131.086 104.443 131.522 104.355C131.958 104.264 132.489 104.219 133.114 104.219C133.739 104.219 134.27 104.264 134.706 104.355C135.142 104.443 135.497 104.598 135.77 104.819C136.044 105.041 136.242 105.34 136.366 105.718C136.49 106.095 136.551 106.572 136.551 107.148C136.551 107.725 136.49 108.203 136.366 108.584C136.242 108.965 136.044 109.268 135.77 109.492C135.497 109.717 135.142 109.876 134.706 109.971C134.27 110.062 133.739 110.107 133.114 110.107C132.489 110.107 131.958 110.062 131.522 109.971C131.086 109.876 130.731 109.717 130.458 109.492C130.184 109.268 129.986 108.965 129.862 108.584C129.738 108.203 129.676 107.725 129.676 107.148ZM130.614 107.148C130.614 107.461 130.625 107.733 130.648 107.964C130.671 108.195 130.713 108.394 130.775 108.56C130.84 108.726 130.93 108.861 131.044 108.965C131.158 109.069 131.307 109.152 131.493 109.214C131.678 109.276 131.903 109.318 132.167 109.341C132.434 109.364 132.749 109.375 133.114 109.375C133.426 109.375 133.705 109.368 133.949 109.355C134.196 109.339 134.411 109.305 134.593 109.253C134.779 109.201 134.937 109.128 135.067 109.033C135.197 108.936 135.301 108.804 135.38 108.638C135.461 108.472 135.52 108.268 135.555 108.027C135.594 107.783 135.614 107.49 135.614 107.148C135.614 106.813 135.594 106.528 135.555 106.294C135.52 106.056 135.461 105.858 135.38 105.698C135.301 105.539 135.197 105.413 135.067 105.322C134.937 105.228 134.779 105.158 134.593 105.112C134.411 105.063 134.196 105.033 133.949 105.02C133.705 105.007 133.426 105 133.114 105C132.801 105 132.521 105.007 132.274 105.02C132.03 105.033 131.815 105.063 131.63 105.112C131.447 105.158 131.291 105.228 131.161 105.322C131.031 105.413 130.925 105.539 130.843 105.698C130.765 105.858 130.707 106.056 130.668 106.294C130.632 106.528 130.614 106.813 130.614 107.148ZM107.591 117.088V122H106.653V117.088H105.716V116.375H106.653V116.326C106.653 115.945 106.696 115.628 106.78 115.374C106.865 115.12 107.005 114.917 107.2 114.764C107.395 114.611 107.653 114.503 107.972 114.441C108.294 114.376 108.689 114.344 109.158 114.344H110.247V115.125H109.153C108.857 115.125 108.61 115.132 108.411 115.145C108.212 115.158 108.051 115.201 107.928 115.276C107.807 115.351 107.721 115.47 107.669 115.633C107.617 115.796 107.591 116.027 107.591 116.326V116.375H110.247V117.088H107.591ZM115.606 118.206C115.606 117.972 115.588 117.778 115.552 117.625C115.519 117.469 115.44 117.345 115.313 117.254C115.186 117.16 114.997 117.094 114.746 117.059C114.499 117.02 114.16 117 113.731 117C113.311 117 112.969 117.037 112.705 117.112C112.442 117.184 112.235 117.286 112.085 117.42C111.935 117.553 111.833 117.713 111.778 117.898C111.726 118.084 111.699 118.291 111.699 118.519V122H110.762V116.375H111.699V117.269C111.732 117.168 111.792 117.057 111.88 116.937C111.968 116.813 112.102 116.699 112.281 116.595C112.46 116.487 112.691 116.398 112.974 116.326C113.26 116.255 113.617 116.219 114.043 116.219C114.532 116.219 114.929 116.263 115.235 116.351C115.541 116.435 115.778 116.562 115.948 116.731C116.12 116.897 116.236 117.104 116.294 117.352C116.356 117.599 116.387 117.884 116.387 118.206H115.606ZM117.214 116.375H118.152V122H117.214V116.375ZM118.152 115.438H117.214V114.5H118.152V115.438ZM122.886 122.107C122.261 122.107 121.73 122.065 121.294 121.98C120.858 121.893 120.503 121.743 120.229 121.531C119.956 121.32 119.757 121.036 119.634 120.682C119.51 120.327 119.448 119.881 119.448 119.344C119.448 118.729 119.51 118.221 119.634 117.82C119.757 117.417 119.956 117.096 120.229 116.858C120.503 116.621 120.858 116.455 121.294 116.36C121.73 116.266 122.261 116.219 122.886 116.219C123.332 116.219 123.717 116.251 124.043 116.316C124.372 116.382 124.652 116.476 124.883 116.6C125.117 116.723 125.306 116.873 125.449 117.049C125.596 117.225 125.71 117.41 125.791 117.605C125.876 117.798 125.933 118.024 125.962 118.284C125.994 118.545 126.011 118.82 126.011 119.109L125.933 119.422H120.386C120.386 119.852 120.428 120.205 120.513 120.481C120.597 120.755 120.737 120.955 120.933 121.082C121.128 121.209 121.385 121.29 121.704 121.326C122.023 121.359 122.417 121.375 122.886 121.375C123.315 121.375 123.67 121.364 123.95 121.341C124.233 121.315 124.458 121.268 124.624 121.199C124.79 121.131 124.906 121.036 124.971 120.916C125.039 120.792 125.073 120.633 125.073 120.438H126.011C126.011 120.74 125.957 120.999 125.85 121.214C125.745 121.425 125.571 121.598 125.327 121.731C125.083 121.862 124.761 121.956 124.36 122.015C123.963 122.076 123.472 122.107 122.886 122.107ZM122.886 117C122.573 117 122.293 117.007 122.046 117.02C121.802 117.033 121.587 117.062 121.401 117.107C121.219 117.15 121.063 117.213 120.933 117.298C120.802 117.379 120.697 117.477 120.615 117.591C120.537 117.701 120.479 117.859 120.439 118.064C120.404 118.266 120.386 118.51 120.386 118.797H125.073C125.073 118.416 125.033 118.118 124.951 117.903C124.87 117.685 124.741 117.506 124.565 117.366C124.39 117.226 124.163 117.13 123.887 117.078C123.61 117.026 123.276 117 122.886 117ZM132.776 122V118.875C132.776 118.527 132.75 118.234 132.698 117.996C132.646 117.755 132.541 117.562 132.385 117.415C132.229 117.269 132.008 117.163 131.721 117.098C131.435 117.033 131.057 117 130.588 117C130.08 117 129.664 117.037 129.338 117.112C129.016 117.187 128.762 117.293 128.577 117.43C128.391 117.566 128.262 117.731 128.191 117.923C128.122 118.115 128.088 118.328 128.088 118.562V122H127.151V116.375H128.088V117.312C128.157 117.153 128.254 117.016 128.381 116.902C128.508 116.785 128.651 116.686 128.811 116.604C128.97 116.523 129.143 116.458 129.328 116.409C129.514 116.357 129.7 116.318 129.885 116.292C130.071 116.263 130.25 116.243 130.422 116.233C130.598 116.224 130.758 116.219 130.901 116.219C131.317 116.219 131.675 116.245 131.975 116.297C132.278 116.349 132.533 116.425 132.742 116.526C132.953 116.627 133.122 116.753 133.249 116.902C133.376 117.052 133.474 117.226 133.542 117.425C133.614 117.62 133.661 117.84 133.684 118.084C133.707 118.325 133.718 118.589 133.718 118.875L133.713 122H132.776ZM138.144 122.107C137.519 122.107 136.989 122.062 136.552 121.971C136.116 121.88 135.761 121.723 135.488 121.502C135.215 121.281 135.016 120.983 134.892 120.608C134.769 120.234 134.707 119.764 134.707 119.197C134.707 118.611 134.769 118.126 134.892 117.742C135.016 117.358 135.215 117.054 135.488 116.829C135.761 116.604 136.116 116.447 136.552 116.355C136.989 116.264 137.519 116.219 138.144 116.219C138.587 116.219 138.958 116.242 139.258 116.287C139.557 116.333 139.801 116.39 139.99 116.458C140.182 116.526 140.327 116.601 140.425 116.683C140.525 116.761 140.599 116.834 140.644 116.902V114.5H141.582V122H140.644V121.165C140.644 121.165 140.566 121.258 140.41 121.443C140.273 121.577 140.122 121.684 139.956 121.766C139.79 121.847 139.557 121.925 139.258 122C138.958 122.072 138.587 122.107 138.144 122.107ZM138.144 121.375C138.457 121.375 138.735 121.368 138.979 121.355C139.223 121.339 139.438 121.307 139.624 121.258C139.809 121.209 139.966 121.137 140.093 121.043C140.223 120.945 140.329 120.817 140.41 120.657C140.491 120.498 140.55 120.301 140.586 120.066C140.625 119.829 140.644 119.544 140.644 119.212C140.644 118.867 140.625 118.574 140.586 118.333C140.55 118.089 140.491 117.885 140.41 117.723C140.329 117.557 140.223 117.426 140.093 117.332C139.966 117.238 139.809 117.166 139.624 117.117C139.438 117.065 139.223 117.033 138.979 117.02C138.735 117.007 138.457 117 138.144 117C137.78 117 137.464 117.011 137.197 117.034C136.933 117.057 136.709 117.098 136.523 117.156C136.338 117.215 136.186 117.296 136.069 117.4C135.955 117.505 135.866 117.638 135.801 117.801C135.739 117.964 135.696 118.16 135.674 118.392C135.654 118.619 135.644 118.888 135.644 119.197C135.644 119.503 135.654 119.77 135.674 119.998C135.696 120.223 135.739 120.416 135.801 120.579C135.866 120.739 135.955 120.87 136.069 120.975C136.186 121.079 136.338 121.16 136.523 121.219C136.709 121.277 136.933 121.318 137.197 121.341C137.464 121.364 137.78 121.375 138.144 121.375ZM146.003 119.437C145.56 119.437 145.171 119.43 144.836 119.417C144.501 119.404 144.211 119.378 143.967 119.339C143.726 119.297 143.524 119.238 143.361 119.163C143.202 119.088 143.075 118.989 142.981 118.865C142.886 118.738 142.819 118.584 142.78 118.401C142.741 118.216 142.722 118.016 142.722 117.801C142.722 117.508 142.784 117.262 142.907 117.063C143.031 116.862 143.23 116.699 143.503 116.575C143.776 116.448 144.131 116.357 144.567 116.302C145.004 116.246 145.534 116.219 146.159 116.219C146.778 116.219 147.287 116.251 147.688 116.316C148.091 116.382 148.41 116.482 148.645 116.619C148.882 116.753 149.048 116.922 149.143 117.127C149.237 117.332 149.284 117.576 149.284 117.859H148.347C148.347 117.684 148.313 117.54 148.244 117.43C148.179 117.319 148.064 117.233 147.898 117.171C147.732 117.106 147.507 117.062 147.224 117.039C146.944 117.013 146.589 117 146.159 117C145.691 117 145.297 117.007 144.978 117.02C144.659 117.033 144.401 117.065 144.206 117.117C144.011 117.169 143.871 117.249 143.786 117.356C143.702 117.464 143.659 117.612 143.659 117.801C143.659 117.911 143.666 118.021 143.679 118.128C143.695 118.232 143.729 118.318 143.781 118.387C143.833 118.455 143.91 118.507 144.011 118.543C144.112 118.579 144.248 118.606 144.421 118.626C144.597 118.642 144.813 118.652 145.07 118.655C145.328 118.655 145.638 118.655 146.003 118.655C146.446 118.655 146.833 118.665 147.165 118.685C147.5 118.704 147.79 118.738 148.034 118.787C148.278 118.836 148.48 118.911 148.64 119.012C148.799 119.113 148.926 119.223 149.021 119.344C149.118 119.461 149.187 119.601 149.226 119.764C149.265 119.923 149.284 120.109 149.284 120.32C149.284 120.532 149.265 120.722 149.226 120.892C149.187 121.058 149.118 121.206 149.021 121.336C148.923 121.463 148.789 121.574 148.62 121.668C148.454 121.759 148.244 121.834 147.99 121.893C147.736 121.948 147.432 121.989 147.077 122.015C146.726 122.044 146.316 122.059 145.847 122.059C145.261 122.059 144.768 122.029 144.367 121.971C143.97 121.912 143.649 121.819 143.405 121.692C143.161 121.562 142.985 121.395 142.878 121.189C142.774 120.984 142.722 120.734 142.722 120.438H143.659C143.659 120.633 143.692 120.792 143.757 120.916C143.825 121.036 143.942 121.131 144.108 121.199C144.274 121.268 144.497 121.315 144.777 121.341C145.061 121.364 145.417 121.375 145.847 121.375C146.237 121.375 146.569 121.367 146.843 121.351C147.12 121.331 147.351 121.302 147.536 121.263C147.722 121.224 147.868 121.176 147.976 121.121C148.083 121.066 148.164 120.999 148.22 120.921C148.275 120.843 148.309 120.757 148.322 120.662C148.339 120.564 148.347 120.457 148.347 120.34C148.347 120.232 148.339 120.138 148.322 120.057C148.309 119.972 148.277 119.889 148.225 119.808C148.173 119.723 148.096 119.66 147.995 119.617C147.894 119.575 147.756 119.541 147.58 119.515C147.408 119.485 147.193 119.466 146.936 119.456C146.678 119.443 146.368 119.437 146.003 119.437Z" fill="#32363E"/>
</g>
<circle cx="89" cy="82" r="16" fill="#11B991"/>
<circle cx="89" cy="82" r="16" fill="url(#paint1_linear_78_31695)"/>
<path d="M100.261 81.7435C100.041 77.815 96.785 74.6973 92.8019 74.6973H85.6894C81.5629 74.6973 78.2175 78.0426 78.2175 82.1684C78.2175 86.2949 81.5629 89.6402 85.6894 89.6402H89.4924V92.5124L92.3645 89.6402H92.8019C96.9276 89.6402 100.273 86.2949 100.273 82.1691C100.273 82.0257 100.269 81.8838 100.261 81.7435ZM96.4037 85.6018L96.2345 85.771L96.2221 85.7827C95.3302 86.6278 94.1265 87.1455 92.8019 87.1455H91.9864L89.4924 89.6395V87.1455H85.6894C82.9405 87.1455 80.7123 84.9173 80.7123 82.1691C80.7123 79.4202 82.9405 77.192 85.6894 77.192H92.8019C95.2928 77.192 97.3564 79.0226 97.7205 81.4114C97.7587 81.6585 97.7782 81.9111 97.7782 82.1684C97.7782 83.4953 97.2597 84.699 96.4139 85.5909L96.4037 85.6018Z" fill="white"/>
<rect x="84.0647" y="80.4668" width="10.3689" height="3.74218" rx="1.87109" fill="url(#paint2_linear_78_31695)"/>
<g filter="url(#filter3_d_78_31695)">
<path d="M85.9358 84.209C86.9692 84.209 87.8069 83.3713 87.8069 82.3379C87.8069 81.3045 86.9692 80.4668 85.9358 80.4668C84.9024 80.4668 84.0647 81.3045 84.0647 82.3379C84.0647 83.3713 84.9024 84.209 85.9358 84.209Z" fill="white"/>
</g>
<g filter="url(#filter4_d_78_31695)">
<path d="M92.5625 84.209C93.5959 84.209 94.4336 83.3713 94.4336 82.3379C94.4336 81.3045 93.5959 80.4668 92.5625 80.4668C91.5291 80.4668 90.6914 81.3045 90.6914 82.3379C90.6914 83.3713 91.5291 84.209 92.5625 84.209Z" fill="white"/>
</g>
<defs>
<filter id="filter0_i_78_31695" x="33" y="24" width="186" height="267" filterUnits="userSpaceOnUse" color-interpolation-filters="sRGB">
<feFlood flood-opacity="0" result="BackgroundImageFix"/>
<feBlend mode="normal" in="SourceGraphic" in2="BackgroundImageFix" result="shape"/>
<feColorMatrix in="SourceAlpha" type="matrix" values="0 0 0 0 0 0 0 0 0 0 0 0 0 0 0 0 0 0 127 0" result="hardAlpha"/>
<feOffset dy="3"/>
<feGaussianBlur stdDeviation="1.5"/>
<feComposite in2="hardAlpha" operator="arithmetic" k2="-1" k3="1"/>
<feColorMatrix type="matrix" values="0 0 0 0 0.654244 0 0 0 0 0.715593 0 0 0 0 0.772222 0 0 0 0.25 0"/>
<feBlend mode="normal" in2="shape" result="effect1_innerShadow_78_31695"/>
</filter>
<filter id="filter1_i_78_31695" x="68.7163" y="69.1162" width="102.045" height="105.674" filterUnits="userSpaceOnUse" color-interpolation-filters="sRGB">
<feFlood flood-opacity="0" result="BackgroundImageFix"/>
<feBlend mode="normal" in="SourceGraphic" in2="BackgroundImageFix" result="shape"/>
<feColorMatrix in="SourceAlpha" type="matrix" values="0 0 0 0 0 0 0 0 0 0 0 0 0 0 0 0 0 0 127 0" result="hardAlpha"/>
<feOffset dy="3"/>
<feGaussianBlur stdDeviation="1.5"/>
<feComposite in2="hardAlpha" operator="arithmetic" k2="-1" k3="1"/>
<feColorMatrix type="matrix" values="0 0 0 0 0.654244 0 0 0 0 0.715593 0 0 0 0 0.772222 0 0 0 0.25 0"/>
<feBlend mode="normal" in2="shape" result="effect1_innerShadow_78_31695"/>
</filter>
<filter id="filter2_i_78_31695" x="105.716" y="102.5" width="43.5684" height="20.6074" filterUnits="userSpaceOnUse" color-interpolation-filters="sRGB">
<feFlood flood-opacity="0" result="BackgroundImageFix"/>
<feBlend mode="normal" in="SourceGraphic" in2="BackgroundImageFix" result="shape"/>
<feColorMatrix in="SourceAlpha" type="matrix" values="0 0 0 0 0 0 0 0 0 0 0 0 0 0 0 0 0 0 127 0" result="hardAlpha"/>
<feOffset dy="1"/>
<feGaussianBlur stdDeviation="1"/>
<feComposite in2="hardAlpha" operator="arithmetic" k2="-1" k3="1"/>
<feColorMatrix type="matrix" values="0 0 0 0 0 0 0 0 0 0 0 0 0 0 0 0 0 0 0.25 0"/>
<feBlend mode="normal" in2="shape" result="effect1_innerShadow_78_31695"/>
</filter>
<filter id="filter3_d_78_31695" x="80.0517" y="76.4538" width="11.7681" height="11.7681" filterUnits="userSpaceOnUse" color-interpolation-filters="sRGB">
<feFlood flood-opacity="0" result="BackgroundImageFix"/>
<feColorMatrix in="SourceAlpha" type="matrix" values="0 0 0 0 0 0 0 0 0 0 0 0 0 0 0 0 0 0 127 0" result="hardAlpha"/>
<feOffset/>
<feGaussianBlur stdDeviation="2.00648"/>
<feComposite in2="hardAlpha" operator="out"/>
<feColorMatrix type="matrix" values="0 0 0 0 0 0 0 0 0 0.643056 0 0 0 0 0.487048 0 0 0 0.24 0"/>
<feBlend mode="normal" in2="BackgroundImageFix" result="effect1_dropShadow_78_31695"/>
<feBlend mode="normal" in="SourceGraphic" in2="effect1_dropShadow_78_31695" result="shape"/>
</filter>
<filter id="filter4_d_78_31695" x="86.6785" y="76.4538" width="11.7681" height="11.7681" filterUnits="userSpaceOnUse" color-interpolation-filters="sRGB">
<feFlood flood-opacity="0" result="BackgroundImageFix"/>
<feColorMatrix in="SourceAlpha" type="matrix" values="0 0 0 0 0 0 0 0 0 0 0 0 0 0 0 0 0 0 127 0" result="hardAlpha"/>
<feOffset/>
<feGaussianBlur stdDeviation="2.00648"/>
<feComposite in2="hardAlpha" operator="out"/>
<feColorMatrix type="matrix" values="0 0 0 0 0 0 0 0 0 0.643056 0 0 0 0 0.487048 0 0 0 0.24 0"/>
<feBlend mode="normal" in2="BackgroundImageFix" result="effect1_dropShadow_78_31695"/>
<feBlend mode="normal" in="SourceGraphic" in2="effect1_dropShadow_78_31695" result="shape"/>
</filter>
<linearGradient id="paint0_linear_78_31695" x1="125.5" y1="79" x2="125.5" y2="202" gradientUnits="userSpaceOnUse">
<stop stop-color="#D9D9D9"/>
<stop offset="1" stop-color="#D9D9D9" stop-opacity="0"/>
</linearGradient>
<linearGradient id="paint1_linear_78_31695" x1="73.7352" y1="73.562" x2="105.746" y2="80.4352" gradientUnits="userSpaceOnUse">
<stop stop-color="#0CBE8C"/>
<stop offset="1" stop-color="#5B72DE"/>
</linearGradient>
<linearGradient id="paint2_linear_78_31695" x1="84.0647" y1="82.3379" x2="94.4336" y2="82.3379" gradientUnits="userSpaceOnUse">
<stop offset="0.206666" stop-color="#009687"/>
<stop offset="0.853172" stop-color="white"/>
</linearGradient>
</defs>
</svg>
