<svg width="250" height="250" viewBox="0 0 250 250" fill="none" xmlns="http://www.w3.org/2000/svg">
<mask id="mask0_90_47059" style="mask-type:alpha" maskUnits="userSpaceOnUse" x="13" y="22" width="225" height="180">
<rect x="13" y="22" width="225" height="180" fill="url(#paint0_linear_90_47059)"/>
</mask>
<g mask="url(#mask0_90_47059)">
<g filter="url(#filter0_i_90_47059)">
<path d="M33 56C33 38.3269 47.3269 24 65 24H187C204.673 24 219 38.3269 219 56V288H33V56Z" fill="#F9FAFB"/>
</g>
<path d="M45 60C45 46.7452 55.7452 36 69 36H183C196.255 36 207 46.7452 207 60V288H45V60Z" fill="white"/>
</g>
<g filter="url(#filter1_i_90_47059)">
<path fill-rule="evenodd" clip-rule="evenodd" d="M148.073 132.667C136.788 143.951 118.493 143.951 107.209 132.667C95.9245 121.383 95.9245 103.088 107.209 91.8034C118.493 80.5192 136.788 80.5192 148.073 91.8034C159.357 103.088 159.357 121.383 148.073 132.667ZM103.707 148.114C120.464 159.317 143.336 157.521 158.131 142.726C174.971 125.886 174.971 98.5842 158.131 81.7446C141.292 64.9051 113.989 64.9051 97.1499 81.7446C82.1333 96.7612 80.5077 120.098 92.2731 136.916L71.06 158.129C67.9351 161.254 67.9351 166.32 71.06 169.445C74.1848 172.57 79.2512 172.57 82.3761 169.445L103.707 148.114Z" fill="#F8F9FB"/>
</g>
<g filter="url(#filter2_i_90_47059)">
<path d="M119.355 110H118.417V102.5H120.063L126.938 109.062V102.5H127.875V110H126.625L119.355 103.281V110ZM129.176 107.148C129.176 106.572 129.238 106.095 129.362 105.718C129.486 105.34 129.684 105.041 129.958 104.819C130.231 104.598 130.586 104.443 131.022 104.355C131.458 104.264 131.989 104.219 132.614 104.219C133.239 104.219 133.77 104.264 134.206 104.355C134.642 104.443 134.997 104.598 135.27 104.819C135.544 105.041 135.742 105.34 135.866 105.718C135.99 106.095 136.051 106.572 136.051 107.148C136.051 107.725 135.99 108.203 135.866 108.584C135.742 108.965 135.544 109.268 135.27 109.492C134.997 109.717 134.642 109.876 134.206 109.971C133.77 110.062 133.239 110.107 132.614 110.107C131.989 110.107 131.458 110.062 131.022 109.971C130.586 109.876 130.231 109.717 129.958 109.492C129.684 109.268 129.486 108.965 129.362 108.584C129.238 108.203 129.176 107.725 129.176 107.148ZM130.114 107.148C130.114 107.461 130.125 107.733 130.148 107.964C130.171 108.195 130.213 108.394 130.275 108.56C130.34 108.726 130.43 108.861 130.544 108.965C130.658 109.069 130.807 109.152 130.993 109.214C131.178 109.276 131.403 109.318 131.667 109.341C131.934 109.364 132.249 109.375 132.614 109.375C132.926 109.375 133.205 109.368 133.449 109.355C133.696 109.339 133.911 109.305 134.093 109.253C134.279 109.201 134.437 109.128 134.567 109.033C134.697 108.936 134.801 108.804 134.88 108.638C134.961 108.472 135.02 108.268 135.055 108.027C135.094 107.783 135.114 107.49 135.114 107.148C135.114 106.813 135.094 106.528 135.055 106.294C135.02 106.056 134.961 105.858 134.88 105.698C134.801 105.539 134.697 105.413 134.567 105.322C134.437 105.228 134.279 105.158 134.093 105.112C133.911 105.063 133.696 105.033 133.449 105.02C133.205 105.007 132.926 105 132.614 105C132.301 105 132.021 105.007 131.774 105.02C131.53 105.033 131.315 105.063 131.13 105.112C130.947 105.158 130.791 105.228 130.661 105.322C130.531 105.413 130.425 105.539 130.343 105.698C130.265 105.858 130.207 106.056 130.168 106.294C130.132 106.528 130.114 106.813 130.114 107.148ZM106.411 114.5H112.046C112.511 114.5 112.903 114.521 113.222 114.563C113.545 114.603 113.81 114.663 114.018 114.744C114.226 114.826 114.386 114.926 114.497 115.047C114.611 115.167 114.694 115.309 114.746 115.472C114.798 115.634 114.827 115.817 114.834 116.019C114.843 116.22 114.848 116.443 114.848 116.688C114.848 116.941 114.842 117.176 114.829 117.391C114.819 117.605 114.782 117.801 114.716 117.977C114.655 118.149 114.554 118.302 114.414 118.436C114.277 118.566 114.08 118.675 113.823 118.763C113.569 118.851 113.245 118.917 112.851 118.963C112.461 119.008 111.979 119.031 111.406 119.031H107.348V122H106.411V114.5ZM107.348 118.25H111.406C111.823 118.25 112.172 118.243 112.456 118.23C112.742 118.214 112.978 118.187 113.164 118.147C113.349 118.108 113.492 118.053 113.593 117.981C113.694 117.91 113.768 117.815 113.813 117.698C113.862 117.581 113.89 117.441 113.896 117.278C113.906 117.112 113.911 116.915 113.911 116.688C113.911 116.476 113.906 116.294 113.896 116.141C113.89 115.988 113.862 115.859 113.813 115.755C113.768 115.651 113.694 115.568 113.593 115.506C113.492 115.444 113.349 115.397 113.164 115.364C112.978 115.328 112.742 115.306 112.456 115.296C112.172 115.286 111.823 115.281 111.406 115.281H107.348V118.25ZM118.644 122.107C118.019 122.107 117.489 122.065 117.053 121.98C116.616 121.893 116.262 121.743 115.988 121.531C115.715 121.32 115.516 121.036 115.393 120.682C115.269 120.327 115.207 119.881 115.207 119.344C115.207 118.729 115.269 118.221 115.393 117.82C115.516 117.417 115.715 117.096 115.988 116.858C116.262 116.621 116.616 116.455 117.053 116.36C117.489 116.266 118.019 116.219 118.644 116.219C119.09 116.219 119.476 116.251 119.802 116.316C120.13 116.382 120.41 116.476 120.642 116.6C120.876 116.723 121.065 116.873 121.208 117.049C121.354 117.225 121.468 117.41 121.55 117.605C121.634 117.798 121.691 118.024 121.721 118.284C121.753 118.545 121.769 118.82 121.769 119.109L121.691 119.422H116.144C116.144 119.852 116.187 120.205 116.271 120.481C116.356 120.755 116.496 120.955 116.691 121.082C116.887 121.209 117.144 121.29 117.463 121.326C117.782 121.359 118.176 121.375 118.644 121.375C119.074 121.375 119.429 121.364 119.709 121.341C119.992 121.315 120.217 121.268 120.383 121.199C120.549 121.131 120.664 121.036 120.729 120.916C120.798 120.792 120.832 120.633 120.832 120.438H121.769C121.769 120.74 121.716 120.999 121.608 121.214C121.504 121.425 121.33 121.598 121.086 121.731C120.842 121.862 120.519 121.956 120.119 122.015C119.722 122.076 119.23 122.107 118.644 122.107ZM118.644 117C118.332 117 118.052 117.007 117.805 117.02C117.561 117.033 117.346 117.062 117.16 117.107C116.978 117.15 116.822 117.213 116.691 117.298C116.561 117.379 116.455 117.477 116.374 117.591C116.296 117.701 116.237 117.859 116.198 118.064C116.162 118.266 116.144 118.51 116.144 118.797H120.832C120.832 118.416 120.791 118.118 120.71 117.903C120.629 117.685 120.5 117.506 120.324 117.366C120.148 117.226 119.922 117.13 119.645 117.078C119.369 117.026 119.035 117 118.644 117ZM126.191 122.107C125.566 122.107 125.035 122.062 124.599 121.971C124.163 121.88 123.808 121.723 123.534 121.502C123.261 121.281 123.062 120.983 122.939 120.608C122.815 120.234 122.753 119.764 122.753 119.197C122.753 118.611 122.815 118.126 122.939 117.742C123.062 117.358 123.261 117.054 123.534 116.829C123.808 116.604 124.163 116.447 124.599 116.355C125.035 116.264 125.566 116.219 126.191 116.219C126.633 116.219 127.005 116.242 127.304 116.287C127.604 116.333 127.848 116.39 128.036 116.458C128.229 116.526 128.373 116.601 128.471 116.683C128.572 116.761 128.645 116.834 128.691 116.902V114.5H129.628V122H128.691V121.165C128.691 121.165 128.613 121.258 128.456 121.443C128.32 121.577 128.168 121.684 128.002 121.766C127.836 121.847 127.604 121.925 127.304 122C127.005 122.072 126.633 122.107 126.191 122.107ZM126.191 121.375C126.503 121.375 126.782 121.368 127.026 121.355C127.27 121.339 127.485 121.307 127.67 121.258C127.856 121.209 128.012 121.137 128.139 121.043C128.269 120.945 128.375 120.817 128.456 120.657C128.538 120.498 128.596 120.301 128.632 120.066C128.671 119.829 128.691 119.544 128.691 119.212C128.691 118.867 128.671 118.574 128.632 118.333C128.596 118.089 128.538 117.885 128.456 117.723C128.375 117.557 128.269 117.426 128.139 117.332C128.012 117.238 127.856 117.166 127.67 117.117C127.485 117.065 127.27 117.033 127.026 117.02C126.782 117.007 126.503 117 126.191 117C125.826 117 125.51 117.011 125.243 117.034C124.98 117.057 124.755 117.098 124.57 117.156C124.384 117.215 124.233 117.296 124.116 117.4C124.002 117.505 123.912 117.638 123.847 117.801C123.785 117.964 123.743 118.16 123.72 118.392C123.701 118.619 123.691 118.888 123.691 119.197C123.691 119.503 123.701 119.77 123.72 119.998C123.743 120.223 123.785 120.416 123.847 120.579C123.912 120.739 124.002 120.87 124.116 120.975C124.233 121.079 124.384 121.16 124.57 121.219C124.755 121.277 124.98 121.318 125.243 121.341C125.51 121.364 125.826 121.375 126.191 121.375ZM131.081 116.375H132.018V122H131.081V116.375ZM132.018 115.438H131.081V114.5H132.018V115.438ZM139.096 122V118.875C139.096 118.527 139.07 118.234 139.018 117.996C138.966 117.755 138.861 117.562 138.705 117.415C138.549 117.269 138.328 117.163 138.041 117.098C137.755 117.033 137.377 117 136.908 117C136.4 117 135.984 117.037 135.658 117.112C135.336 117.187 135.082 117.293 134.897 117.43C134.711 117.566 134.582 117.731 134.511 117.923C134.442 118.115 134.408 118.328 134.408 118.562V122H133.471V116.375H134.408V117.312C134.477 117.153 134.574 117.016 134.701 116.902C134.828 116.785 134.971 116.686 135.131 116.604C135.29 116.523 135.463 116.458 135.648 116.409C135.834 116.357 136.02 116.318 136.205 116.292C136.391 116.263 136.57 116.243 136.742 116.233C136.918 116.224 137.078 116.219 137.221 116.219C137.637 116.219 137.995 116.245 138.295 116.297C138.598 116.349 138.853 116.425 139.062 116.526C139.273 116.627 139.442 116.753 139.569 116.902C139.696 117.052 139.794 117.226 139.862 117.425C139.934 117.62 139.981 117.84 140.004 118.084C140.027 118.325 140.038 118.589 140.038 118.875L140.033 122H139.096ZM144.464 117C144.1 117 143.784 117.011 143.517 117.034C143.253 117.057 143.029 117.098 142.843 117.156C142.658 117.215 142.506 117.296 142.389 117.4C142.275 117.505 142.186 117.638 142.121 117.801C142.059 117.964 142.016 118.16 141.994 118.392C141.974 118.619 141.964 118.888 141.964 119.197C141.964 119.503 141.974 119.77 141.994 119.998C142.016 120.223 142.059 120.416 142.121 120.579C142.186 120.739 142.275 120.87 142.389 120.975C142.506 121.079 142.658 121.16 142.843 121.219C143.029 121.277 143.253 121.318 143.517 121.341C143.784 121.364 144.1 121.375 144.464 121.375C144.777 121.375 145.055 121.368 145.299 121.355C145.543 121.339 145.758 121.307 145.944 121.258C146.129 121.206 146.286 121.132 146.412 121.038C146.543 120.94 146.649 120.812 146.73 120.652C146.811 120.49 146.87 120.289 146.906 120.052C146.945 119.811 146.964 119.521 146.964 119.183C146.964 118.844 146.945 118.554 146.906 118.313C146.87 118.073 146.811 117.872 146.73 117.713C146.649 117.55 146.543 117.422 146.412 117.327C146.286 117.233 146.129 117.161 145.944 117.112C145.758 117.063 145.543 117.033 145.299 117.02C145.055 117.007 144.777 117 144.464 117ZM147.902 121.219C147.902 121.766 147.84 122.22 147.716 122.581C147.593 122.942 147.394 123.234 147.121 123.455C146.847 123.68 146.492 123.836 146.056 123.924C145.62 124.012 145.089 124.056 144.464 124.056C143.878 124.056 143.385 124.03 142.985 123.978C142.588 123.925 142.267 123.842 142.023 123.729C141.779 123.618 141.603 123.473 141.496 123.294C141.391 123.118 141.339 122.903 141.339 122.649H142.277C142.277 122.776 142.309 122.881 142.374 122.962C142.443 123.043 142.56 123.107 142.726 123.152C142.892 123.198 143.115 123.229 143.395 123.245C143.678 123.265 144.035 123.274 144.464 123.274C144.933 123.274 145.327 123.257 145.646 123.221C145.965 123.188 146.222 123.108 146.417 122.981C146.613 122.854 146.753 122.662 146.837 122.405C146.922 122.148 146.964 121.805 146.964 121.375C146.919 121.453 146.845 121.538 146.745 121.629C146.647 121.72 146.502 121.805 146.31 121.883C146.121 121.961 145.877 122.026 145.578 122.078C145.278 122.13 144.907 122.156 144.464 122.156C143.839 122.156 143.309 122.109 142.872 122.015C142.436 121.924 142.081 121.766 141.808 121.541C141.535 121.316 141.336 121.014 141.212 120.633C141.089 120.252 141.027 119.773 141.027 119.197C141.027 118.611 141.089 118.126 141.212 117.742C141.336 117.358 141.535 117.054 141.808 116.829C142.081 116.604 142.436 116.447 142.872 116.355C143.309 116.264 143.839 116.219 144.464 116.219C144.907 116.219 145.278 116.242 145.578 116.287C145.877 116.333 146.121 116.39 146.31 116.458C146.502 116.526 146.647 116.601 146.745 116.683C146.845 116.761 146.919 116.832 146.964 116.897V116.375H147.902V121.219Z" fill="#32363E"/>
</g>
<circle cx="89" cy="82" r="16" fill="#11B991"/>
<circle cx="89" cy="82" r="16" fill="url(#paint1_linear_90_47059)"/>
<path d="M100.262 81.7435C100.041 77.815 96.7852 74.6973 92.8021 74.6973H85.6897C81.5631 74.6973 78.2178 78.0426 78.2178 82.1684C78.2178 86.2949 81.5631 89.6402 85.6897 89.6402H89.4926V92.5124L92.3648 89.6402H92.8021C96.9279 89.6402 100.273 86.2949 100.273 82.1691C100.273 82.0257 100.269 81.8838 100.262 81.7435ZM96.404 85.6018L96.2348 85.771L96.2223 85.7827C95.3304 86.6278 94.1267 87.1455 92.8021 87.1455H91.9866L89.4926 89.6395V87.1455H85.6897C82.9407 87.1455 80.7126 84.9173 80.7126 82.1691C80.7126 79.4202 82.9407 77.192 85.6897 77.192H92.8021C95.293 77.192 97.3567 79.0226 97.7207 81.4114C97.7589 81.6585 97.7784 81.9111 97.7784 82.1684C97.7784 83.4953 97.26 84.699 96.4141 85.5909L96.404 85.6018Z" fill="white"/>
<rect x="84.0649" y="80.4668" width="10.3689" height="3.74218" rx="1.87109" fill="url(#paint2_linear_90_47059)"/>
<g filter="url(#filter3_d_90_47059)">
<path d="M85.936 84.209C86.9694 84.209 87.8071 83.3713 87.8071 82.3379C87.8071 81.3045 86.9694 80.4668 85.936 80.4668C84.9027 80.4668 84.0649 81.3045 84.0649 82.3379C84.0649 83.3713 84.9027 84.209 85.936 84.209Z" fill="white"/>
</g>
<g filter="url(#filter4_d_90_47059)">
<path d="M92.563 84.209C93.5964 84.209 94.4341 83.3713 94.4341 82.3379C94.4341 81.3045 93.5964 80.4668 92.563 80.4668C91.5296 80.4668 90.6919 81.3045 90.6919 82.3379C90.6919 83.3713 91.5296 84.209 92.563 84.209Z" fill="white"/>
</g>
<defs>
<filter id="filter0_i_90_47059" x="33" y="24" width="186" height="267" filterUnits="userSpaceOnUse" color-interpolation-filters="sRGB">
<feFlood flood-opacity="0" result="BackgroundImageFix"/>
<feBlend mode="normal" in="SourceGraphic" in2="BackgroundImageFix" result="shape"/>
<feColorMatrix in="SourceAlpha" type="matrix" values="0 0 0 0 0 0 0 0 0 0 0 0 0 0 0 0 0 0 127 0" result="hardAlpha"/>
<feOffset dy="3"/>
<feGaussianBlur stdDeviation="1.5"/>
<feComposite in2="hardAlpha" operator="arithmetic" k2="-1" k3="1"/>
<feColorMatrix type="matrix" values="0 0 0 0 0.654244 0 0 0 0 0.715593 0 0 0 0 0.772222 0 0 0 0.25 0"/>
<feBlend mode="normal" in2="shape" result="effect1_innerShadow_90_47059"/>
</filter>
<filter id="filter1_i_90_47059" x="68.7163" y="69.1152" width="102.045" height="105.674" filterUnits="userSpaceOnUse" color-interpolation-filters="sRGB">
<feFlood flood-opacity="0" result="BackgroundImageFix"/>
<feBlend mode="normal" in="SourceGraphic" in2="BackgroundImageFix" result="shape"/>
<feColorMatrix in="SourceAlpha" type="matrix" values="0 0 0 0 0 0 0 0 0 0 0 0 0 0 0 0 0 0 127 0" result="hardAlpha"/>
<feOffset dy="3"/>
<feGaussianBlur stdDeviation="1.5"/>
<feComposite in2="hardAlpha" operator="arithmetic" k2="-1" k3="1"/>
<feColorMatrix type="matrix" values="0 0 0 0 0.654244 0 0 0 0 0.715593 0 0 0 0 0.772222 0 0 0 0.25 0"/>
<feBlend mode="normal" in2="shape" result="effect1_innerShadow_90_47059"/>
</filter>
<filter id="filter2_i_90_47059" x="106.411" y="102.5" width="41.4912" height="22.5547" filterUnits="userSpaceOnUse" color-interpolation-filters="sRGB">
<feFlood flood-opacity="0" result="BackgroundImageFix"/>
<feBlend mode="normal" in="SourceGraphic" in2="BackgroundImageFix" result="shape"/>
<feColorMatrix in="SourceAlpha" type="matrix" values="0 0 0 0 0 0 0 0 0 0 0 0 0 0 0 0 0 0 127 0" result="hardAlpha"/>
<feOffset dy="1"/>
<feGaussianBlur stdDeviation="1"/>
<feComposite in2="hardAlpha" operator="arithmetic" k2="-1" k3="1"/>
<feColorMatrix type="matrix" values="0 0 0 0 0 0 0 0 0 0 0 0 0 0 0 0 0 0 0.25 0"/>
<feBlend mode="normal" in2="shape" result="effect1_innerShadow_90_47059"/>
</filter>
<filter id="filter3_d_90_47059" x="80.052" y="76.4538" width="11.7681" height="11.7681" filterUnits="userSpaceOnUse" color-interpolation-filters="sRGB">
<feFlood flood-opacity="0" result="BackgroundImageFix"/>
<feColorMatrix in="SourceAlpha" type="matrix" values="0 0 0 0 0 0 0 0 0 0 0 0 0 0 0 0 0 0 127 0" result="hardAlpha"/>
<feOffset/>
<feGaussianBlur stdDeviation="2.00648"/>
<feComposite in2="hardAlpha" operator="out"/>
<feColorMatrix type="matrix" values="0 0 0 0 0 0 0 0 0 0.643056 0 0 0 0 0.487048 0 0 0 0.24 0"/>
<feBlend mode="normal" in2="BackgroundImageFix" result="effect1_dropShadow_90_47059"/>
<feBlend mode="normal" in="SourceGraphic" in2="effect1_dropShadow_90_47059" result="shape"/>
</filter>
<filter id="filter4_d_90_47059" x="86.6789" y="76.4538" width="11.7681" height="11.7681" filterUnits="userSpaceOnUse" color-interpolation-filters="sRGB">
<feFlood flood-opacity="0" result="BackgroundImageFix"/>
<feColorMatrix in="SourceAlpha" type="matrix" values="0 0 0 0 0 0 0 0 0 0 0 0 0 0 0 0 0 0 127 0" result="hardAlpha"/>
<feOffset/>
<feGaussianBlur stdDeviation="2.00648"/>
<feComposite in2="hardAlpha" operator="out"/>
<feColorMatrix type="matrix" values="0 0 0 0 0 0 0 0 0 0.643056 0 0 0 0 0.487048 0 0 0 0.24 0"/>
<feBlend mode="normal" in2="BackgroundImageFix" result="effect1_dropShadow_90_47059"/>
<feBlend mode="normal" in="SourceGraphic" in2="effect1_dropShadow_90_47059" result="shape"/>
</filter>
<linearGradient id="paint0_linear_90_47059" x1="125.5" y1="79" x2="125.5" y2="202" gradientUnits="userSpaceOnUse">
<stop stop-color="#D9D9D9"/>
<stop offset="1" stop-color="#D9D9D9" stop-opacity="0"/>
</linearGradient>
<linearGradient id="paint1_linear_90_47059" x1="73.7352" y1="73.562" x2="105.746" y2="80.4352" gradientUnits="userSpaceOnUse">
<stop stop-color="#0CBE8C"/>
<stop offset="1" stop-color="#5B72DE"/>
</linearGradient>
<linearGradient id="paint2_linear_90_47059" x1="84.0649" y1="82.3379" x2="94.4339" y2="82.3379" gradientUnits="userSpaceOnUse">
<stop offset="0.206666" stop-color="#009687"/>
<stop offset="0.853172" stop-color="white"/>
</linearGradient>
</defs>
</svg>
