<svg width="48" height="48" viewBox="0 0 48 48" fill="none" xmlns="http://www.w3.org/2000/svg">
<g clip-path="url(#clip0_549_35521)">
<rect width="48" height="48" rx="8" fill="#FFF5EF"/>
<g clip-path="url(#clip1_549_35521)">
<path d="M21.0004 31.5999C21.9004 31.5999 22.6004 30.8999 22.6004 29.9999V27.3999H19.4004V29.9999C19.4004 30.8999 20.1004 31.5999 21.0004 31.5999Z" fill="#FF9900"/>
<g clip-path="url(#clip2_549_35521)">
<path d="M10 23.5856L12.4701 21.0825V23.5856H10Z" fill="#B43525"/>
<path d="M37.6323 23.5856L35.1621 21.0825V23.5856H37.6323Z" fill="#B43525"/>
<path d="M29.5725 10H13.7626C12.9561 10 12.3027 10.6527 12.3027 11.4583V36.5417C12.3027 37.3472 12.9561 38 13.7626 38H33.8692C34.6757 38 35.3291 37.3472 35.3291 36.5417V15.8333L29.5725 10Z" fill="#FF9E67"/>
<path d="M29.5723 10L35.3288 15.8333H29.5723V10Z" fill="white"/>
<path d="M10 23.5859H37.6316V34.0859H10V23.5859Z" fill="#F15642"/>
<path d="M35.3288 15.8335V21.6668L29.5723 15.8335H35.3288Z" fill="#F15642"/>
<path d="M22.0591 15.6401H15.1811C14.8632 15.6401 14.6055 15.9013 14.6055 16.2235C14.6055 16.5456 14.8632 16.8068 15.1811 16.8068H22.0591C22.377 16.8068 22.6347 16.5456 22.6347 16.2235C22.6347 15.9013 22.377 15.6401 22.0591 15.6401Z" fill="#FFEFD8"/>
<path d="M27.2699 17.8633H15.1811C14.8632 17.8633 14.6055 18.1244 14.6055 18.4466C14.6055 18.7688 14.8632 19.0299 15.1811 19.0299H27.2699C27.5879 19.0299 27.8456 18.7688 27.8456 18.4466C27.8456 18.1244 27.5879 17.8633 27.2699 17.8633Z" fill="#FFEFD8"/>
<path d="M27.2699 20.0859H15.1811C14.8632 20.0859 14.6055 20.3471 14.6055 20.6693C14.6055 20.9914 14.8632 21.2526 15.1811 21.2526H27.2699C27.5879 21.2526 27.8456 20.9914 27.8456 20.6693C27.8456 20.3471 27.5879 20.0859 27.2699 20.0859Z" fill="#FFEFD8"/>
<path d="M29.0254 31.5656L30.9055 28.4832V28.4491L29.0297 25.4136H30.8544L31.9841 27.4941H32.014L33.1523 25.4136H34.8875L32.9306 28.4661V28.496L34.8704 31.5656H33.1139L31.9202 29.5703H31.8861L30.6881 31.5656H29.0254Z" fill="white"/>
<path d="M26.9544 31.5656H25.3941V26.6755H23.6973V25.4136H28.6513V26.6755H26.9544V31.5656Z" fill="white"/>
<path d="M18.3887 25.4136H21.0533C22.3749 25.4136 23.2702 26.2705 23.2702 27.5921C23.2702 28.9052 22.328 29.7622 20.9595 29.7622H19.9533V31.5656H18.3887V25.4136ZM19.9533 26.6116V28.5855H20.6312C21.2963 28.5855 21.6885 28.2402 21.6885 27.5964C21.6885 26.9569 21.2963 26.6116 20.6397 26.6116H19.9533Z" fill="white"/>
<path d="M12.8125 25.4136H15.4771C16.7987 25.4136 17.694 26.2705 17.694 27.5921C17.694 28.9052 16.7518 29.7622 15.3833 29.7622H14.3771V31.5656H12.8125V25.4136ZM14.3771 26.6116V28.5855H15.055C15.7201 28.5855 16.1123 28.2402 16.1123 27.5964C16.1123 26.9569 15.7201 26.6116 15.0635 26.6116H14.3771Z" fill="white"/>
</g>
</g>
</g>
<defs>
<clipPath id="clip0_549_35521">
<rect width="48" height="48" rx="8" fill="white"/>
</clipPath>
<clipPath id="clip1_549_35521">
<rect width="36" height="36" fill="white" transform="translate(6 6)"/>
</clipPath>
<clipPath id="clip2_549_35521">
<rect width="27.6316" height="28" fill="white" transform="translate(10 10)"/>
</clipPath>
</defs>
</svg>
