<svg width="21" height="20" viewBox="0 0 21 20" fill="none" xmlns="http://www.w3.org/2000/svg">
<g id="Component 1">
<path id="Rectangle 1" d="M12.7189 3.40949C13.372 2.97412 13.6985 2.75643 14.0543 2.79166C14.4101 2.82689 14.6876 3.10439 15.2425 3.65938L17.0905 5.50729C17.6455 6.06228 17.9229 6.33978 17.9582 6.69555C17.9934 7.05132 17.7757 7.37785 17.3403 8.0309L16.118 9.86435C15.7957 10.3479 15.6345 10.5896 15.4924 10.8403C15.1675 11.413 14.9146 12.0235 14.7393 12.6582C14.6626 12.936 14.6057 13.2209 14.4917 13.7907L14.3325 14.5865C14.2147 15.1758 13.5319 15.4516 13.0377 15.1096V15.1096C10.1473 13.1085 7.64135 10.6026 5.64026 7.71209V7.71209C5.29819 7.21799 5.57403 6.53516 6.16332 6.4173L6.95912 6.25814C7.52895 6.14418 7.81387 6.08719 8.09164 6.0105C8.72629 5.83526 9.33688 5.58234 9.90957 5.25749C10.1602 5.11531 10.402 4.95413 10.8855 4.63179L12.7189 3.40949Z" stroke="#101114" stroke-width="1.5"/>
<path id="Vector 63" d="M4.9165 15.833L8.6665 12.083" stroke="#101114" stroke-width="1.5" stroke-linecap="round"/>
</g>
</svg>
