<svg width="24" height="24" viewBox="0 0 24 24" fill="none" xmlns="http://www.w3.org/2000/svg">
<g id="Chat_search">
<g id="Group 1000011454">
<path id="Rectangle 1" d="M11.4615 20H7C4.79086 20 3 18.2091 3 16V8C3 5.79086 4.79086 4 7 4H17C19.2091 4 21 5.79086 21 8V11.3846" stroke="#101114" stroke-width="1.5" stroke-linecap="round" stroke-linejoin="round"/>
<path id="Vector 9" d="M7 14H10" stroke="#101114" stroke-width="1.5" stroke-linecap="round" stroke-linejoin="round"/>
<path id="Vector 232" d="M7 10H13" stroke="#101114" stroke-width="1.5" stroke-linecap="round" stroke-linejoin="round"/>
<g id="Group 1000011453">
<path id="Rectangle 1_2" d="M18.9167 14.5972C19.1191 14.4623 19.2202 14.3949 19.3207 14.3555C19.6191 14.2388 19.9553 14.2721 20.225 14.4451C20.3159 14.5034 20.4018 14.5893 20.5738 14.7613L21.2387 15.4262C21.4107 15.5982 21.4966 15.6841 21.5549 15.775C21.7279 16.0447 21.7612 16.3809 21.6445 16.6793C21.6051 16.7798 21.5377 16.8809 21.4028 17.0833L20.8808 17.8663C20.4643 18.491 20.1742 19.1913 20.027 19.9276L19.9434 20.3454C19.8815 20.6548 19.5231 20.7996 19.2637 20.62V20.62C17.7462 19.5695 16.4305 18.2538 15.38 16.7363V16.7363C15.2004 16.4769 15.3452 16.1185 15.6546 16.0566L16.0724 15.973C16.8087 15.8258 17.509 15.5357 18.1337 15.1192L18.9167 14.5972Z" stroke="#101114" stroke-width="1.5"/>
<path id="Vector 63" d="M15 21L16.9688 19.0312" stroke="#101114" stroke-width="1.5" stroke-linecap="round"/>
</g>
</g>
</g>
</svg>
