<svg width="21" height="20" viewBox="0 0 21 20" fill="none" xmlns="http://www.w3.org/2000/svg">
<g id="Back">
<path id="Vector 10" d="M3.58325 8.33333L3.05292 8.86366L2.52259 8.33333L3.05292 7.803L3.58325 8.33333ZM17.6666 15C17.6666 15.4142 17.3308 15.75 16.9166 15.75C16.5024 15.75 16.1666 15.4142 16.1666 15L17.6666 15ZM7.21959 13.0303L3.05292 8.86366L4.11358 7.803L8.28025 11.9697L7.21959 13.0303ZM3.05292 7.803L7.21959 3.63634L8.28025 4.697L4.11358 8.86366L3.05292 7.803ZM3.58325 7.58333L10.9166 7.58333L10.9166 9.08333L3.58325 9.08333L3.58325 7.58333ZM17.6666 14.3333L17.6666 15L16.1666 15L16.1666 14.3333L17.6666 14.3333ZM10.9166 7.58333C14.6445 7.58333 17.6666 10.6054 17.6666 14.3333L16.1666 14.3333C16.1666 11.4338 13.8161 9.08333 10.9166 9.08333L10.9166 7.58333Z" fill="#101114"/>
</g>
</svg>
