<svg width="32" height="32" viewBox="0 0 32 32" fill="none" xmlns="http://www.w3.org/2000/svg">
<path d="M16 26.6663H6.66667C5.95942 26.6663 5.28115 26.3854 4.78105 25.8853C4.28095 25.3852 4 24.7069 4 23.9997V11.9997C4 11.2924 4.28095 10.6142 4.78105 10.1141C5.28115 9.61396 5.95942 9.33301 6.66667 9.33301H8C8.70724 9.33301 9.38552 9.05206 9.88562 8.55196C10.3857 8.05186 10.6667 7.37359 10.6667 6.66634C10.6667 6.31272 10.8071 5.97358 11.0572 5.72353C11.3072 5.47348 11.6464 5.33301 12 5.33301H20C20.3536 5.33301 20.6928 5.47348 20.9428 5.72353C21.1929 5.97358 21.3333 6.31272 21.3333 6.66634C21.3333 7.37359 21.6143 8.05186 22.1144 8.55196C22.6145 9.05206 23.2928 9.33301 24 9.33301H25.3333C26.0406 9.33301 26.7189 9.61396 27.219 10.1141C27.719 10.6142 28 11.2924 28 11.9997V16.6663M21.3333 25.333H29.3333M25.3333 21.333V29.333" stroke="white" stroke-width="2" stroke-linecap="round" stroke-linejoin="round"/>
<path d="M12 17.333C12 18.3939 12.4214 19.4113 13.1716 20.1614C13.9217 20.9116 14.9391 21.333 16 21.333C17.0609 21.333 18.0783 20.9116 18.8284 20.1614C19.5786 19.4113 20 18.3939 20 17.333C20 16.2721 19.5786 15.2547 18.8284 14.5046C18.0783 13.7544 17.0609 13.333 16 13.333C14.9391 13.333 13.9217 13.7544 13.1716 14.5046C12.4214 15.2547 12 16.2721 12 17.333Z" stroke="white" stroke-width="2" stroke-linecap="round" stroke-linejoin="round"/>
</svg>
