<svg width="20" height="20" viewBox="0 0 20 20" fill="none" xmlns="http://www.w3.org/2000/svg">
<g id="Smiling face with sunglasses">
<g id="Group">
<g id="Group_2">
<path id="Vector" d="M10 18C14.4183 18 18 14.4183 18 10C18 5.58172 14.4183 2 10 2C5.58172 2 2 5.58172 2 10C2 14.4183 5.58172 18 10 18Z" fill="url(#paint0_radial_2135_81044)"/>
<path id="Vector_2" opacity="0.5" d="M10 18C14.4183 18 18 14.4183 18 10C18 5.58172 14.4183 2 10 2C5.58172 2 2 5.58172 2 10C2 14.4183 5.58172 18 10 18Z" fill="url(#paint1_radial_2135_81044)"/>
<g id="Group_3">
<path id="Vector_3" d="M8.23998 5.85496C8.23998 5.53496 7.89498 5.33496 7.29498 5.33496C6.78998 5.33496 5.67498 5.61496 4.90998 6.59996C4.76998 6.77996 4.98498 6.87996 5.12498 6.76496C5.59498 6.36496 6.85998 5.84996 7.84498 5.95996C8.23998 5.99996 8.23998 5.85496 8.23998 5.85496Z" fill="url(#paint2_linear_2135_81044)"/>
<path id="Vector_4" d="M11.7603 5.85496C11.7603 5.53496 12.1053 5.33496 12.7053 5.33496C13.2103 5.33496 14.3253 5.61496 15.0903 6.59996C15.2303 6.77996 15.0153 6.87996 14.8753 6.76496C14.4053 6.36496 13.1403 5.84996 12.1553 5.95996C11.7603 5.99996 11.7603 5.85496 11.7603 5.85496Z" fill="url(#paint3_linear_2135_81044)"/>
</g>
<path id="Vector_5" opacity="0.5" d="M3.51552 11.5853C3.51552 11.5853 2.82052 10.8003 2.59552 8.61026C2.58052 8.44526 2.36052 8.30026 2.20052 8.22026C2.29552 7.80526 2.42052 7.40526 2.57552 7.01526C2.74552 6.98526 2.98552 6.94526 3.31052 6.91026C4.50052 6.77526 6.46052 6.77026 7.37052 7.04526C8.63552 7.42526 9.09052 7.95526 9.86052 7.95526V8.37026C8.96052 8.37026 9.71052 9.92526 8.47052 11.3053C7.48052 12.4103 4.14052 12.4303 3.51552 11.5853Z" fill="url(#paint4_radial_2135_81044)"/>
<path id="Vector_6" opacity="0.5" d="M16.4856 11.5853C16.4856 11.5853 17.1806 10.8003 17.4056 8.61026C17.4206 8.44526 17.6406 8.30026 17.8006 8.22026C17.7056 7.80526 17.5806 7.40526 17.4256 7.01526C17.2556 6.98526 17.0156 6.94526 16.6906 6.91026C15.5006 6.77526 13.5406 6.77026 12.6306 7.04526C11.3656 7.42526 10.9106 7.95526 10.1406 7.95526V8.37026C11.0406 8.37026 10.2906 9.92526 11.5306 11.3053C12.5206 12.4103 15.8606 12.4303 16.4856 11.5853Z" fill="url(#paint5_radial_2135_81044)"/>
<path id="Vector_7" d="M13.4194 8.11495C13.4194 8.11495 14.8144 8.25495 15.2044 9.30995C15.2294 9.37495 15.2444 9.44495 15.2394 9.51495C15.2394 9.65495 15.1094 9.80495 14.8594 9.66995C13.3294 8.82495 12.4444 9.22495 11.7844 9.49995C11.5294 9.60995 11.2994 9.34995 11.3794 9.11995C11.3994 9.05495 11.4194 8.98495 11.4544 8.92495C12.0244 7.96495 13.4194 8.11495 13.4194 8.11495Z" fill="url(#paint6_radial_2135_81044)"/>
<path id="Vector_8" d="M13.39 8.44495C13.39 8.44495 14.525 8.55995 15.235 9.42995C15.23 9.38995 15.22 9.34995 15.205 9.30995C14.815 8.25495 13.42 8.11495 13.42 8.11495C13.42 8.11495 12.025 7.96495 11.455 8.92495C11.435 8.95995 11.415 8.99995 11.405 9.03995C12.25 8.32495 13.39 8.44495 13.39 8.44495Z" fill="url(#paint7_linear_2135_81044)"/>
<path id="Vector_9" d="M6.58002 8.11495C6.58002 8.11495 5.18502 8.25495 4.79502 9.30995C4.77002 9.37495 4.75502 9.44495 4.76002 9.51495C4.76002 9.65495 4.89002 9.80495 5.14002 9.66995C6.67002 8.82495 7.55502 9.22495 8.21502 9.49995C8.47002 9.60995 8.70002 9.34995 8.62002 9.11995C8.60002 9.05495 8.58002 8.98495 8.54502 8.92495C7.97502 7.96495 6.58002 8.11495 6.58002 8.11495Z" fill="url(#paint8_radial_2135_81044)"/>
<path id="Vector_10" d="M6.60932 8.44495C6.60932 8.44495 5.47432 8.55995 4.76432 9.42995C4.76932 9.38995 4.77932 9.34995 4.79432 9.30995C5.18432 8.25495 6.57932 8.11495 6.57932 8.11495C6.57932 8.11495 7.97432 7.96495 8.54432 8.92495C8.56432 8.95995 8.58432 8.99995 8.59432 9.03995C7.74932 8.32495 6.60932 8.44495 6.60932 8.44495Z" fill="url(#paint9_linear_2135_81044)"/>
<path id="Vector_11" d="M13.5352 12.7401C13.4702 12.7301 13.4002 12.7501 13.3552 12.7951C12.4952 13.6001 11.1702 14.0351 10.1702 14.0351H10.0002H9.83024C8.83024 14.0351 7.50524 13.6001 6.64524 12.7951C6.59524 12.7501 6.53024 12.7301 6.46524 12.7401C6.39524 12.7551 6.36024 12.8301 6.39524 12.8901C7.13024 14.1601 8.48524 14.9451 9.96024 14.9451H10.0052H10.0502C11.5252 14.9451 12.8802 14.1601 13.6152 12.8901C13.6402 12.8301 13.6052 12.7551 13.5352 12.7401Z" fill="#643800"/>
<path id="Vector_12" d="M13.5352 12.7401C13.4702 12.7301 13.4002 12.7501 13.3552 12.7951C12.4952 13.6001 11.1702 14.0351 10.1702 14.0351H10.0002H9.83024C8.83024 14.0351 7.50524 13.6001 6.64524 12.7951C6.59524 12.7501 6.53024 12.7301 6.46524 12.7401C6.39524 12.7551 6.36024 12.8301 6.39524 12.8901C6.40024 12.9051 6.41024 12.9151 6.42024 12.9251C6.49024 12.8851 6.56524 12.8451 6.64024 12.9301C7.45524 13.8451 8.66524 14.3951 9.96024 14.3951H10.0052H10.0502C11.3552 14.3951 12.5702 13.8401 13.3852 12.9101C13.4602 12.8251 13.5302 12.8651 13.5952 12.9101C13.6002 12.9001 13.6052 12.8951 13.6102 12.8851C13.6402 12.8301 13.6052 12.7551 13.5352 12.7401Z" fill="url(#paint10_linear_2135_81044)"/>
<g id="Group_4">
<path id="Vector_13" d="M6.13433 6.90534C5.11433 6.83034 3.91933 6.73534 3.68433 7.53034C3.44933 8.32534 3.60433 9.52534 4.14933 10.4203C4.69433 11.3153 6.85433 11.2653 7.63433 10.7903C8.67433 10.1603 8.76433 9.09534 8.79433 8.45034C8.82933 7.59534 7.70433 7.01534 6.13433 6.90534Z" fill="url(#paint11_linear_2135_81044)"/>
<path id="Vector_14" d="M13.8444 6.90534C14.8644 6.83034 16.0594 6.73534 16.2944 7.53034C16.5294 8.32534 16.3744 9.52534 15.8294 10.4203C15.2844 11.3153 13.1244 11.2653 12.3444 10.7903C11.3044 10.1603 11.2144 9.09534 11.1844 8.45034C11.1494 7.59534 12.2744 7.01534 13.8444 6.90534Z" fill="url(#paint12_linear_2135_81044)"/>
<path id="Vector_15" d="M17.6697 6.62014C17.6697 6.62014 17.4147 6.52014 16.5397 6.42014C15.3497 6.28514 13.3897 6.28014 12.4797 6.55514C11.2147 6.93514 10.7597 7.46514 9.98969 7.46514C9.21969 7.46514 8.76469 6.93514 7.49469 6.55014C6.58969 6.27514 4.62969 6.28014 3.43469 6.41514C2.56469 6.51514 2.30469 6.61514 2.30469 6.61514C2.30469 6.70014 2.30469 6.80014 2.30969 6.91014C2.30969 6.91014 2.84969 7.00014 2.85469 7.05014C2.85469 7.07514 2.32469 7.12514 2.32469 7.12514C2.33469 7.21514 2.34969 7.31014 2.36969 7.41014L2.57969 7.51014C2.74469 7.58514 2.85469 7.74514 2.86969 7.92514C3.09469 10.1151 3.78969 11.0001 3.78969 11.0001C4.41469 11.8401 7.35469 12.1251 8.34469 11.0201C9.58469 9.63514 9.08469 8.38514 9.98469 8.38514C10.8847 8.38514 10.3847 9.64014 11.6247 11.0201C12.6147 12.1251 15.5547 11.8401 16.1797 11.0001C16.1797 11.0001 16.8747 10.1151 17.0997 7.92514C17.1197 7.74514 17.2297 7.58514 17.3897 7.51014L17.5997 7.41014C17.6197 7.31014 17.6347 7.21514 17.6447 7.12514C17.6447 7.12514 17.1497 7.07514 17.1547 7.05014C17.1597 7.00014 17.6647 6.91014 17.6647 6.91014C17.6747 6.80014 17.6747 6.70014 17.6697 6.62014ZM7.63469 10.7851C6.85469 11.2601 4.69969 11.3101 4.14969 10.4151C3.60469 9.52514 3.44969 8.32014 3.68469 7.52514C3.91969 6.73014 5.11469 6.83014 6.13469 6.90014C7.70469 7.01514 8.82969 7.59514 8.79469 8.44514C8.76469 9.09014 8.67469 10.1551 7.63469 10.7851ZM15.8247 10.4151C15.2797 11.3051 13.1197 11.2601 12.3397 10.7851C11.2997 10.1551 11.2097 9.09014 11.1797 8.44514C11.1447 7.59514 12.2697 7.01514 13.8397 6.90014C14.8597 6.82514 16.0547 6.73014 16.2897 7.52514C16.5247 8.32514 16.3747 9.52514 15.8247 10.4151Z" fill="url(#paint13_linear_2135_81044)"/>
<path id="Vector_16" d="M6.13433 6.90534C5.11433 6.83034 3.91933 6.73534 3.68433 7.53034C3.44933 8.32534 3.60433 9.52534 4.14933 10.4203C4.69433 11.3153 6.85433 11.2653 7.63433 10.7903C8.67433 10.1603 8.76433 9.09534 8.79433 8.45034C8.82933 7.59534 7.70433 7.01534 6.13433 6.90534Z" fill="url(#paint14_linear_2135_81044)"/>
<path id="Vector_17" d="M7.63451 10.7853C6.85451 11.2603 4.69951 11.3103 4.14951 10.4153C3.68951 9.6653 3.50951 8.6953 3.60451 7.9353C3.60451 7.9403 3.59951 7.9403 3.59951 7.9453C3.51451 8.7653 3.66451 9.7303 4.11451 10.5253C4.66951 11.5053 6.86451 11.4503 7.65951 10.9303C8.47451 10.3953 8.68451 9.6353 8.74951 8.9653C8.66951 9.5753 8.42451 10.3053 7.63451 10.7853Z" fill="url(#paint15_linear_2135_81044)"/>
<path id="Vector_18" opacity="0.75" d="M10.4847 8.38513C10.4997 8.12513 10.5597 7.86513 10.6647 7.63013L10.8297 7.25513C10.5547 7.38013 10.2947 7.46513 9.98968 7.46513C9.68468 7.46513 9.42468 7.38013 9.14968 7.25513L9.31468 7.63013C9.41968 7.87013 9.47968 8.12513 9.49468 8.38513L9.50968 8.62513C9.60968 8.47013 9.74968 8.38013 9.98968 8.38013C10.2297 8.38013 10.3697 8.47013 10.4697 8.62513L10.4847 8.38513Z" fill="url(#paint16_radial_2135_81044)"/>
<path id="Vector_19" opacity="0.75" d="M3.6849 7.63497C3.9199 6.83997 5.1149 6.93997 6.1349 7.00997C7.6499 7.11997 8.7499 7.65997 8.7949 8.46497C8.7949 8.45997 8.7949 8.44997 8.7949 8.44497C8.8299 7.59497 7.7049 7.01497 6.1349 6.89997C5.1149 6.82497 3.9199 6.72997 3.6849 7.52497C3.6099 7.78497 3.5749 8.08497 3.5799 8.40497C3.5849 8.12497 3.6199 7.86497 3.6849 7.63497Z" fill="black"/>
<path id="Vector_20" d="M2.3099 6.91016C2.3149 6.97516 2.3199 7.05016 2.3299 7.12516H3.12489C3.24489 7.12516 3.33989 7.03016 3.33989 6.91016H2.3099Z" fill="url(#paint17_linear_2135_81044)"/>
<path id="Vector_21" d="M13.8444 6.90534C14.8644 6.83034 16.0594 6.73534 16.2944 7.53034C16.5294 8.32534 16.3744 9.52534 15.8294 10.4203C15.2844 11.3153 13.1244 11.2653 12.3444 10.7903C11.3044 10.1603 11.2144 9.09534 11.1844 8.45034C11.1494 7.59534 12.2744 7.01534 13.8444 6.90534Z" fill="url(#paint18_linear_2135_81044)"/>
<path id="Vector_22" d="M12.3403 10.7853C13.1203 11.2603 15.2753 11.3103 15.8253 10.4153C16.2853 9.6653 16.4653 8.6953 16.3703 7.9353C16.3703 7.9403 16.3753 7.9403 16.3753 7.9453C16.4603 8.7653 16.3103 9.7303 15.8603 10.5253C15.3053 11.5053 13.1103 11.4503 12.3153 10.9303C11.5003 10.3953 11.2903 9.6353 11.2253 8.9653C11.3103 9.5753 11.5503 10.3053 12.3403 10.7853Z" fill="url(#paint19_linear_2135_81044)"/>
<path id="Vector_23" opacity="0.75" d="M16.2892 7.63497C16.0542 6.83997 14.8592 6.93997 13.8392 7.00997C12.3242 7.11997 11.2242 7.65997 11.1792 8.46497C11.1792 8.45997 11.1792 8.44997 11.1792 8.44497C11.1442 7.59497 12.2692 7.01497 13.8392 6.89997C14.8592 6.82497 16.0542 6.72997 16.2892 7.52497C16.3642 7.78497 16.3992 8.08497 16.3942 8.40497C16.3942 8.12497 16.3592 7.86497 16.2892 7.63497Z" fill="black"/>
<path id="Vector_24" d="M17.6693 6.91016C17.6643 6.97516 17.6593 7.05016 17.6493 7.12516H16.8543C16.7343 7.12516 16.6393 7.03016 16.6393 6.91016H17.6693Z" fill="url(#paint20_linear_2135_81044)"/>
<g id="Group_5">
<path id="Vector_25" opacity="0.5" d="M13.8457 6.90534C14.8657 6.83034 16.0607 6.73534 16.2957 7.53034C16.5307 8.32534 16.3757 9.52534 15.8307 10.4203C15.2857 11.3153 13.1257 11.2653 12.3457 10.7903C11.3057 10.1603 11.2157 9.09534 11.1857 8.45034C11.1507 7.59534 12.2757 7.01534 13.8457 6.90534Z" fill="url(#paint21_radial_2135_81044)"/>
<path id="Vector_26" opacity="0.5" d="M6.14005 7.08525C5.16005 7.01525 4.01505 6.92025 3.79005 7.68525C3.56505 8.45025 3.71505 9.60025 4.24005 10.4602C4.76505 11.3202 6.83505 11.2702 7.58505 10.8152C8.58005 10.2102 8.67005 9.18525 8.69505 8.57025C8.72505 7.75025 7.64005 7.19525 6.14005 7.08525Z" fill="url(#paint22_radial_2135_81044)"/>
</g>
<path id="Vector_27" d="M9.33422 7.63015L9.16922 7.25514C8.74922 7.06514 8.27922 6.78014 7.51422 6.55014C6.60922 6.27514 4.64922 6.28014 3.45422 6.41514C2.58422 6.51514 2.32422 6.61514 2.32422 6.61514C2.32422 6.70014 2.32422 6.80014 2.32922 6.91014C4.18922 6.75014 6.43922 6.38014 9.08922 7.60015C9.15922 7.63515 9.24922 7.64515 9.33922 7.64015C9.33922 7.63515 9.33422 7.63015 9.33422 7.63015Z" fill="url(#paint23_radial_2135_81044)"/>
<path id="Vector_28" d="M10.6849 7.63014L10.8499 7.25514C11.2699 7.06514 11.7399 6.78014 12.5049 6.55014C13.4099 6.27514 15.3699 6.28014 16.5649 6.41514C17.4349 6.51514 17.6949 6.61514 17.6949 6.61514C17.6999 6.70014 17.7049 6.79514 17.6999 6.90514C15.8399 6.74514 13.5899 6.37514 10.9399 7.59514C10.8699 7.63014 10.7799 7.64014 10.6899 7.63514C10.6849 7.63514 10.6849 7.63014 10.6849 7.63014Z" fill="url(#paint24_radial_2135_81044)"/>
</g>
</g>
</g>
</g>
<defs>
<radialGradient id="paint0_radial_2135_81044" cx="0" cy="0" r="1" gradientUnits="userSpaceOnUse" gradientTransform="translate(8.42599 6.75787) scale(9.65096)">
<stop stop-color="#FFE030"/>
<stop offset="1" stop-color="#FFB92E"/>
</radialGradient>
<radialGradient id="paint1_radial_2135_81044" cx="0" cy="0" r="1" gradientUnits="userSpaceOnUse" gradientTransform="translate(8.42599 6.75787) scale(7.59284)">
<stop stop-color="#FFEA5F"/>
<stop offset="1" stop-color="#FFBC47" stop-opacity="0"/>
</radialGradient>
<linearGradient id="paint2_linear_2135_81044" x1="6.55303" y1="6.39117" x2="6.55303" y2="5.54819" gradientUnits="userSpaceOnUse">
<stop offset="0.00132565" stop-color="#3C2200"/>
<stop offset="1" stop-color="#7A4400"/>
</linearGradient>
<linearGradient id="paint3_linear_2135_81044" x1="13.4473" y1="6.39117" x2="13.4473" y2="5.54819" gradientUnits="userSpaceOnUse">
<stop offset="0.00132565" stop-color="#3C2200"/>
<stop offset="1" stop-color="#7A4400"/>
</linearGradient>
<radialGradient id="paint4_radial_2135_81044" cx="0" cy="0" r="1" gradientUnits="userSpaceOnUse" gradientTransform="translate(3.00421 8.37228) rotate(180) scale(8.07515)">
<stop stop-color="#7A4400" stop-opacity="0.5"/>
<stop offset="0.5833" stop-color="#894D00" stop-opacity="0.2069"/>
<stop offset="0.995" stop-color="#975500" stop-opacity="0"/>
</radialGradient>
<radialGradient id="paint5_radial_2135_81044" cx="0" cy="0" r="1" gradientUnits="userSpaceOnUse" gradientTransform="translate(16.9969 8.37228) scale(8.07516 8.07515)">
<stop stop-color="#7A4400" stop-opacity="0.5"/>
<stop offset="0.5833" stop-color="#894D00" stop-opacity="0.2069"/>
<stop offset="0.995" stop-color="#975500" stop-opacity="0"/>
</radialGradient>
<radialGradient id="paint6_radial_2135_81044" cx="0" cy="0" r="1" gradientUnits="userSpaceOnUse" gradientTransform="translate(13.3438 8.90261) rotate(5.86799) scale(1.50784 0.727483)">
<stop offset="0.00132565" stop-color="#7A4400"/>
<stop offset="1" stop-color="#643800"/>
</radialGradient>
<linearGradient id="paint7_linear_2135_81044" x1="13.4687" y1="7.6745" x2="13.3746" y2="8.64415" gradientUnits="userSpaceOnUse">
<stop offset="0.00132565" stop-color="#3C2200"/>
<stop offset="1" stop-color="#512D00"/>
</linearGradient>
<radialGradient id="paint8_radial_2135_81044" cx="0" cy="0" r="1" gradientUnits="userSpaceOnUse" gradientTransform="translate(6.66678 8.90243) rotate(174.132) scale(1.50784 0.727483)">
<stop offset="0.00132565" stop-color="#7A4400"/>
<stop offset="1" stop-color="#643800"/>
</radialGradient>
<linearGradient id="paint9_linear_2135_81044" x1="6.53658" y1="7.67509" x2="6.63063" y2="8.64474" gradientUnits="userSpaceOnUse">
<stop offset="0.00132565" stop-color="#3C2200"/>
<stop offset="1" stop-color="#512D00"/>
</linearGradient>
<linearGradient id="paint10_linear_2135_81044" x1="10.0002" y1="13.3056" x2="10.0002" y2="14.4998" gradientUnits="userSpaceOnUse">
<stop offset="0.00132565" stop-color="#3C2200"/>
<stop offset="1" stop-color="#512D00"/>
</linearGradient>
<linearGradient id="paint11_linear_2135_81044" x1="6.18699" y1="15.7185" x2="6.18699" y2="8.31815" gradientUnits="userSpaceOnUse">
<stop stop-color="#8800C7"/>
<stop offset="1" stop-color="#7000A3" stop-opacity="0"/>
</linearGradient>
<linearGradient id="paint12_linear_2135_81044" x1="13.7902" y1="15.7185" x2="13.7902" y2="8.31815" gradientUnits="userSpaceOnUse">
<stop stop-color="#8800C7"/>
<stop offset="1" stop-color="#7000A3" stop-opacity="0"/>
</linearGradient>
<linearGradient id="paint13_linear_2135_81044" x1="9.98892" y1="9.21427" x2="9.98892" y2="3.66572" gradientUnits="userSpaceOnUse">
<stop stop-color="#242424"/>
<stop offset="1" stop-color="#8EA5A8"/>
</linearGradient>
<linearGradient id="paint14_linear_2135_81044" x1="3.39565" y1="4.24959" x2="9.00121" y2="13.4223" gradientUnits="userSpaceOnUse">
<stop/>
<stop offset="1" stop-opacity="0.5"/>
</linearGradient>
<linearGradient id="paint15_linear_2135_81044" x1="6.1639" y1="9.08033" x2="6.1639" y2="13.3211" gradientUnits="userSpaceOnUse">
<stop/>
<stop offset="1" stop-color="#8EA5A8"/>
</linearGradient>
<radialGradient id="paint16_radial_2135_81044" cx="0" cy="0" r="1" gradientUnits="userSpaceOnUse" gradientTransform="translate(9.97949 7.78013) scale(0.944858 0.577412)">
<stop offset="0.0158651" stop-color="#8EA5A8" stop-opacity="0.25"/>
<stop offset="1" stop-color="#8EA5A8" stop-opacity="0"/>
</radialGradient>
<linearGradient id="paint17_linear_2135_81044" x1="3.38383" y1="7.01498" x2="2.40258" y2="7.01498" gradientUnits="userSpaceOnUse">
<stop stop-color="white"/>
<stop offset="1" stop-color="#FFBF00"/>
</linearGradient>
<linearGradient id="paint18_linear_2135_81044" x1="10.8317" y1="4.00146" x2="17.1614" y2="13.6838" gradientUnits="userSpaceOnUse">
<stop/>
<stop offset="1" stop-opacity="0.5"/>
</linearGradient>
<linearGradient id="paint19_linear_2135_81044" x1="13.8143" y1="9.08033" x2="13.8143" y2="13.3211" gradientUnits="userSpaceOnUse">
<stop/>
<stop offset="1" stop-color="#8EA5A8"/>
</linearGradient>
<linearGradient id="paint20_linear_2135_81044" x1="16.5938" y1="7.01498" x2="17.5751" y2="7.01498" gradientUnits="userSpaceOnUse">
<stop stop-color="white"/>
<stop offset="1" stop-color="#FFBF00"/>
</linearGradient>
<radialGradient id="paint21_radial_2135_81044" cx="0" cy="0" r="1" gradientUnits="userSpaceOnUse" gradientTransform="translate(13.8794 8.14825) rotate(180) scale(2.76159 0.961458)">
<stop stop-color="white" stop-opacity="0.24"/>
<stop offset="1" stop-color="white" stop-opacity="0"/>
</radialGradient>
<radialGradient id="paint22_radial_2135_81044" cx="0" cy="0" r="1" gradientUnits="userSpaceOnUse" gradientTransform="translate(6.26479 8.28201) scale(2.64827 0.921929)">
<stop stop-color="white" stop-opacity="0.24"/>
<stop offset="1" stop-color="white" stop-opacity="0"/>
</radialGradient>
<radialGradient id="paint23_radial_2135_81044" cx="0" cy="0" r="1" gradientUnits="userSpaceOnUse" gradientTransform="translate(5.26274 15.5772) scale(15.7848 9.38563)">
<stop offset="0.9647" stop-color="#8EA5A8" stop-opacity="0"/>
<stop offset="1" stop-color="#8EA5A8"/>
</radialGradient>
<radialGradient id="paint24_radial_2135_81044" cx="0" cy="0" r="1" gradientUnits="userSpaceOnUse" gradientTransform="translate(14.7574 15.5772) rotate(180) scale(15.7848 9.3856)">
<stop offset="0.9647" stop-color="#8EA5A8" stop-opacity="0"/>
<stop offset="1" stop-color="#8EA5A8"/>
</radialGradient>
</defs>
</svg>
