<svg width="20" height="20" viewBox="0 0 20 20" fill="none" xmlns="http://www.w3.org/2000/svg">
<g id="Smiling face with heart-eyes">
<g id="Group">
<g id="Group_2">
<g id="Group_3">
<path id="Vector" d="M10 18C14.4183 18 18 14.4183 18 10C18 5.58172 14.4183 2 10 2C5.58172 2 2 5.58172 2 10C2 14.4183 5.58172 18 10 18Z" fill="url(#paint0_radial_2135_81013)"/>
<path id="Vector_2" opacity="0.5" d="M10 18C14.4183 18 18 14.4183 18 10C18 5.58172 14.4183 2 10 2C5.58172 2 2 5.58172 2 10C2 14.4183 5.58172 18 10 18Z" fill="url(#paint1_radial_2135_81013)"/>
<path id="Vector_3" d="M10 18C14.4183 18 18 14.4183 18 10C18 5.58172 14.4183 2 10 2C5.58172 2 2 5.58172 2 10C2 14.4183 5.58172 18 10 18Z" fill="url(#paint2_radial_2135_81013)"/>
<path id="Vector_4" d="M10 18C14.4183 18 18 14.4183 18 10C18 5.58172 14.4183 2 10 2C5.58172 2 2 5.58172 2 10C2 14.4183 5.58172 18 10 18Z" fill="url(#paint3_radial_2135_81013)"/>
</g>
<path id="Vector_5" d="M15.515 12.66C15.52 12.615 15.525 12.57 15.53 12.53C15.52 12.385 15.43 12.25 15.285 12.2C15.21 12.17 15.13 12.17 15.05 12.19C13.415 12.645 11.715 12.88 9.99997 12.88C8.28497 12.88 6.58497 12.65 4.94997 12.19C4.87497 12.17 4.78997 12.17 4.71497 12.2C4.57497 12.255 4.48497 12.38 4.46997 12.525C4.47497 12.575 4.47997 12.625 4.48997 12.68L4.57997 13.055C4.59997 13.125 4.62497 13.2 4.65497 13.28C5.21497 14.59 6.67497 16.895 10.005 16.895C13.33 16.895 14.79 14.585 15.355 13.275C15.38 13.205 15.405 13.14 15.42 13.075L15.515 12.66Z" fill="url(#paint4_radial_2135_81013)"/>
<path id="Vector_6" d="M9.99964 16.53C11.2896 16.53 12.2796 16.16 13.0346 15.635C12.2046 15.25 11.2046 15 9.99964 15C8.79464 15 7.78964 15.25 6.95964 15.64C7.71964 16.165 8.70964 16.53 9.99964 16.53Z" fill="url(#paint5_radial_2135_81013)"/>
</g>
<path id="Vector_7" d="M15.42 13.06L15.51 12.675C15.52 12.62 15.525 12.57 15.525 12.525C15.515 12.38 15.42 12.255 15.28 12.2C15.205 12.17 15.125 12.17 15.045 12.19C13.41 12.645 11.71 12.88 9.99498 12.88C8.27998 12.88 6.57998 12.65 4.94498 12.19C4.86998 12.17 4.78498 12.17 4.70998 12.2C4.56998 12.255 4.47998 12.38 4.46498 12.525C4.46998 12.57 4.47498 12.625 4.47998 12.68L4.56998 13.06C4.58998 13.13 4.61498 13.205 4.64498 13.28C4.86998 13.81 5.24498 14.5 5.82498 15.135C5.27998 14.485 5.94998 14.13 7.15498 14.275C8.35498 14.42 9.99498 14.425 9.99498 14.425C9.99498 14.425 11.635 14.42 12.835 14.275C14.035 14.13 14.71 14.49 14.165 15.135C14.75 14.5 15.12 13.81 15.345 13.28C15.375 13.2 15.4 13.13 15.42 13.06Z" fill="url(#paint6_linear_2135_81013)"/>
<path id="Vector_8" d="M10 13.2449C8.27 13.2449 6.56 13.0149 4.905 12.5549L4.925 12.7799C4.965 13.2099 5.28 13.5649 5.7 13.6599C7.105 13.9699 8.545 14.1249 9.995 14.1249C11.56 14.1249 13.11 13.9449 14.62 13.5849C14.845 13.5299 15.01 13.3399 15.035 13.1099L15.09 12.5599C13.44 13.0149 11.73 13.2449 10 13.2449Z" fill="url(#paint7_radial_2135_81013)"/>
<g id="Group_4">
<g id="Group_5">
<path id="Vector_9" d="M6.77984 5.37512C6.23984 5.62012 5.88484 6.11012 5.78484 6.65012C5.30984 6.36512 4.70984 6.30512 4.16984 6.55012C3.29484 6.94512 2.90984 7.97512 3.30484 8.84512C4.17484 10.7701 7.84484 11.2001 7.84484 11.2001C7.84484 11.2001 9.94484 8.16512 9.07484 6.23512C8.68484 5.37012 7.65484 4.98012 6.77984 5.37512Z" fill="url(#paint8_radial_2135_81013)"/>
<path id="Vector_10" opacity="0.5" d="M7.50041 5.21997C8.99041 6.20997 9.01041 8.37997 8.28541 9.32497C7.48541 10.37 6.64041 10.43 4.76041 10.255C6.12541 11 7.84541 11.2 7.84541 11.2C7.84541 11.2 9.94541 8.16497 9.07541 6.23497C8.79041 5.60497 8.16041 5.22497 7.50041 5.21997Z" fill="url(#paint9_radial_2135_81013)"/>
<path id="Vector_11" opacity="0.5" d="M6.77984 5.37512C6.23984 5.62012 5.88484 6.11012 5.78484 6.65012C5.30984 6.36512 4.70984 6.30512 4.16984 6.55012C3.29484 6.94512 2.90984 7.97512 3.30484 8.84512C4.17484 10.7701 7.84484 11.2001 7.84484 11.2001C7.84484 11.2001 9.94484 8.16512 9.07484 6.23512C8.68484 5.37012 7.65484 4.98012 6.77984 5.37512Z" fill="url(#paint10_radial_2135_81013)"/>
<path id="Vector_12" opacity="0.5" d="M6.77984 5.37512C6.23984 5.62012 5.88484 6.11012 5.78484 6.65012C5.30984 6.36512 4.70984 6.30512 4.16984 6.55012C3.29484 6.94512 2.90984 7.97512 3.30484 8.84512C4.17484 10.7701 7.84484 11.2001 7.84484 11.2001C7.84484 11.2001 9.94484 8.16512 9.07484 6.23512C8.68484 5.37012 7.65484 4.98012 6.77984 5.37512Z" fill="url(#paint11_radial_2135_81013)"/>
</g>
<path id="Vector_13" opacity="0.24" d="M5.37442 6.78516C5.69942 7.08516 5.57942 7.75016 5.09942 8.27016C4.61942 8.79016 3.96942 8.96516 3.63942 8.66516C3.31442 8.36516 3.43442 7.70016 3.91442 7.18016C4.39442 6.66016 5.04442 6.48516 5.37442 6.78516Z" fill="url(#paint12_radial_2135_81013)"/>
<path id="Vector_14" opacity="0.24" d="M7.16949 5.60999C7.50449 5.75499 7.58949 6.30999 7.35449 6.84999C7.11949 7.38499 6.65949 7.69999 6.31949 7.55499C5.97949 7.40999 5.89949 6.85499 6.13449 6.31499C6.36949 5.77999 6.82949 5.46499 7.16949 5.60999Z" fill="url(#paint13_radial_2135_81013)"/>
<path id="Vector_15" opacity="0.32" d="M7.00036 5.78495C7.91536 5.69495 9.20536 6.52495 8.58536 8.56495C8.21536 9.78495 7.58036 10.605 6.43536 10.915C7.23036 11.135 7.85036 11.21 7.85036 11.21C7.85036 11.21 9.95036 8.17495 9.08036 6.24495C8.68536 5.36995 7.65536 4.98495 6.78536 5.37995C6.24536 5.62495 5.89036 6.11495 5.79036 6.65495C5.79036 6.65495 6.33036 5.84995 7.00036 5.78495Z" fill="url(#paint14_linear_2135_81013)"/>
</g>
<g id="Group_6">
<g id="Group_7">
<path id="Vector_16" d="M15.9501 6.5451C15.4101 6.3001 14.8051 6.3601 14.3351 6.6501C14.2351 6.1051 13.8801 5.6201 13.3401 5.3751C12.4651 4.9851 11.4401 5.3751 11.0451 6.2501C10.1801 8.1751 12.2951 11.2051 12.2951 11.2051C12.2951 11.2051 15.9601 10.7651 16.8251 8.8351C17.2151 7.9651 16.8251 6.9351 15.9501 6.5451Z" fill="url(#paint15_radial_2135_81013)"/>
<path id="Vector_17" opacity="0.5" d="M16.5445 6.97998C16.7945 8.74998 15.1795 10.205 13.9895 10.29C12.6745 10.385 12.0745 9.78998 10.9545 8.26998C11.2995 9.78498 12.2895 11.21 12.2895 11.21C12.2895 11.21 15.9545 10.77 16.8195 8.83998C17.1095 8.19498 16.9795 7.47498 16.5445 6.97998Z" fill="url(#paint16_radial_2135_81013)"/>
<path id="Vector_18" opacity="0.5" d="M15.9501 6.5451C15.4101 6.3001 14.8051 6.3601 14.3351 6.6501C14.2351 6.1051 13.8801 5.6201 13.3401 5.3751C12.4651 4.9851 11.4401 5.3751 11.0451 6.2501C10.1801 8.1751 12.2951 11.2051 12.2951 11.2051C12.2951 11.2051 15.9601 10.7651 16.8251 8.8351C17.2151 7.9651 16.8251 6.9351 15.9501 6.5451Z" fill="url(#paint17_radial_2135_81013)"/>
<path id="Vector_19" opacity="0.5" d="M15.9501 6.5451C15.4101 6.3001 14.8051 6.3601 14.3351 6.6501C14.2351 6.1051 13.8801 5.6201 13.3401 5.3751C12.4651 4.9851 11.4401 5.3751 11.0451 6.2501C10.1801 8.1751 12.2951 11.2051 12.2951 11.2051C12.2951 11.2051 15.9601 10.7651 16.8251 8.8351C17.2151 7.9651 16.8251 6.9351 15.9501 6.5451Z" fill="url(#paint18_radial_2135_81013)"/>
</g>
<path id="Vector_20" opacity="0.24" d="M13.9598 6.42519C13.9498 6.87019 13.3698 7.22019 12.6648 7.20519C11.9598 7.19019 11.3948 6.82019 11.3998 6.37519C11.4098 5.93019 11.9898 5.58019 12.6948 5.59519C13.4048 5.61019 13.9698 5.98019 13.9598 6.42519Z" fill="url(#paint19_radial_2135_81013)"/>
<path id="Vector_21" opacity="0.24" d="M16.0351 6.99013C16.1501 7.34013 15.7901 7.77013 15.2351 7.95013C14.6801 8.13013 14.1351 7.99513 14.0201 7.64513C13.9051 7.29513 14.2651 6.86513 14.8201 6.68513C15.3751 6.50013 15.9201 6.64013 16.0351 6.99013Z" fill="url(#paint20_radial_2135_81013)"/>
<path id="Vector_22" opacity="0.32" d="M15.7905 6.97495C16.4655 7.59995 16.6955 9.11495 14.7605 10.005C13.6005 10.535 12.5655 10.605 11.5755 9.95495C11.9355 10.695 12.2955 11.21 12.2955 11.21C12.2955 11.21 15.9605 10.77 16.8255 8.83995C17.2155 7.96495 16.8255 6.93995 15.9505 6.54495C15.4105 6.29995 14.8055 6.35995 14.3355 6.64995C14.3355 6.64495 15.3005 6.51995 15.7905 6.97495Z" fill="url(#paint21_linear_2135_81013)"/>
</g>
</g>
</g>
<defs>
<radialGradient id="paint0_radial_2135_81013" cx="0" cy="0" r="1" gradientUnits="userSpaceOnUse" gradientTransform="translate(8.42599 6.75787) scale(9.65096)">
<stop stop-color="#FFE030"/>
<stop offset="1" stop-color="#FFB92E"/>
</radialGradient>
<radialGradient id="paint1_radial_2135_81013" cx="0" cy="0" r="1" gradientUnits="userSpaceOnUse" gradientTransform="translate(8.42599 6.75787) scale(7.59284)">
<stop stop-color="#FFEA5F"/>
<stop offset="1" stop-color="#FFBC47" stop-opacity="0"/>
</radialGradient>
<radialGradient id="paint2_radial_2135_81013" cx="0" cy="0" r="1" gradientUnits="userSpaceOnUse" gradientTransform="translate(5.55891 10.0702) rotate(32.7366) scale(4.23567 3.09158)">
<stop stop-color="#EB672A" stop-opacity="0.5"/>
<stop offset="0.4286" stop-color="#DC641B" stop-opacity="0.2846"/>
<stop offset="0.995" stop-color="#C25E00" stop-opacity="0"/>
</radialGradient>
<radialGradient id="paint3_radial_2135_81013" cx="0" cy="0" r="1" gradientUnits="userSpaceOnUse" gradientTransform="translate(14.4458 10.0637) rotate(147.263) scale(4.23567 3.09158)">
<stop stop-color="#EB672A" stop-opacity="0.5"/>
<stop offset="0.4286" stop-color="#DC641B" stop-opacity="0.2846"/>
<stop offset="0.995" stop-color="#C25E00" stop-opacity="0"/>
</radialGradient>
<radialGradient id="paint4_radial_2135_81013" cx="0" cy="0" r="1" gradientUnits="userSpaceOnUse" gradientTransform="translate(9.99918 14.5365) scale(4.25075 4.25074)">
<stop offset="0.00132565" stop-color="#7A4400"/>
<stop offset="1" stop-color="#643800"/>
</radialGradient>
<radialGradient id="paint5_radial_2135_81013" cx="0" cy="0" r="1" gradientUnits="userSpaceOnUse" gradientTransform="translate(10.0605 15.9498) scale(3.38203 1.02259)">
<stop offset="0.2479" stop-color="#FF0000"/>
<stop offset="1" stop-color="#C20000"/>
</radialGradient>
<linearGradient id="paint6_linear_2135_81013" x1="15.4673" y1="13.6572" x2="4.59912" y2="13.6572" gradientUnits="userSpaceOnUse">
<stop offset="0.00132565" stop-color="#3C2200"/>
<stop offset="0.5" stop-color="#512D00"/>
<stop offset="1" stop-color="#3C2200"/>
</linearGradient>
<radialGradient id="paint7_radial_2135_81013" cx="0" cy="0" r="1" gradientUnits="userSpaceOnUse" gradientTransform="translate(9.99954 13.3395) scale(9.32314 9.32313)">
<stop offset="0.00132565" stop-color="white"/>
<stop offset="1" stop-color="#A9BCBE"/>
</radialGradient>
<radialGradient id="paint8_radial_2135_81013" cx="0" cy="0" r="1" gradientUnits="userSpaceOnUse" gradientTransform="translate(5.316 7.79108) rotate(-53.7394) scale(4.95475 3.92984)">
<stop offset="0.2479" stop-color="#FF0000"/>
<stop offset="0.8639" stop-color="#C20000"/>
</radialGradient>
<radialGradient id="paint9_radial_2135_81013" cx="0" cy="0" r="1" gradientUnits="userSpaceOnUse" gradientTransform="translate(5.30301 7.46354) rotate(-53.7394) scale(4.26587 3.38346)">
<stop offset="0.2479" stop-color="#FF0000"/>
<stop offset="1" stop-color="#C20000"/>
</radialGradient>
<radialGradient id="paint10_radial_2135_81013" cx="0" cy="0" r="1" gradientUnits="userSpaceOnUse" gradientTransform="translate(5.316 7.79108) rotate(-53.7394) scale(4.95475 3.92984)">
<stop stop-color="white" stop-opacity="0.25"/>
<stop offset="1" stop-color="white" stop-opacity="0"/>
</radialGradient>
<radialGradient id="paint11_radial_2135_81013" cx="0" cy="0" r="1" gradientUnits="userSpaceOnUse" gradientTransform="translate(7.62949 8.60023) rotate(-50.6229) scale(3.61656 1.78684)">
<stop stop-color="#BD2719" stop-opacity="0.25"/>
<stop offset="1" stop-color="#BD2719" stop-opacity="0"/>
</radialGradient>
<radialGradient id="paint12_radial_2135_81013" cx="0" cy="0" r="1" gradientUnits="userSpaceOnUse" gradientTransform="translate(4.50635 7.733) rotate(-46.0208) scale(1.28562 0.798621)">
<stop stop-color="white"/>
<stop offset="1" stop-color="white" stop-opacity="0"/>
</radialGradient>
<radialGradient id="paint13_radial_2135_81013" cx="0" cy="0" r="1" gradientUnits="userSpaceOnUse" gradientTransform="translate(6.7441 6.58818) rotate(-65.0908) scale(1.06441 0.661241)">
<stop stop-color="white"/>
<stop offset="1" stop-color="white" stop-opacity="0"/>
</radialGradient>
<linearGradient id="paint14_linear_2135_81013" x1="9.37589" y1="12.9952" x2="6.52694" y2="5.20532" gradientUnits="userSpaceOnUse">
<stop stop-color="#860805"/>
<stop offset="1" stop-color="#BD2719" stop-opacity="0"/>
</linearGradient>
<radialGradient id="paint15_radial_2135_81013" cx="0" cy="0" r="1" gradientUnits="userSpaceOnUse" gradientTransform="translate(13.1588 7.04734) rotate(-5.26571) scale(4.95472 3.92992)">
<stop offset="0.2479" stop-color="#FF0000"/>
<stop offset="0.8639" stop-color="#C20000"/>
</radialGradient>
<radialGradient id="paint16_radial_2135_81013" cx="0" cy="0" r="1" gradientUnits="userSpaceOnUse" gradientTransform="translate(13.3943 6.82003) rotate(-5.26571) scale(4.26584 3.38353)">
<stop offset="0.2479" stop-color="#FF0000"/>
<stop offset="1" stop-color="#C20000"/>
</radialGradient>
<radialGradient id="paint17_radial_2135_81013" cx="0" cy="0" r="1" gradientUnits="userSpaceOnUse" gradientTransform="translate(13.1588 7.04734) rotate(-5.26571) scale(4.95472 3.92992)">
<stop stop-color="white" stop-opacity="0.25"/>
<stop offset="1" stop-color="white" stop-opacity="0"/>
</radialGradient>
<radialGradient id="paint18_radial_2135_81013" cx="0" cy="0" r="1" gradientUnits="userSpaceOnUse" gradientTransform="translate(14.0961 9.30987) rotate(-2.1516) scale(3.61665 1.78686)">
<stop stop-color="#BD2719" stop-opacity="0.25"/>
<stop offset="1" stop-color="#BD2719" stop-opacity="0"/>
</radialGradient>
<radialGradient id="paint19_radial_2135_81013" cx="0" cy="0" r="1" gradientUnits="userSpaceOnUse" gradientTransform="translate(12.6824 6.40614) rotate(2.44968) scale(1.28564 0.798706)">
<stop stop-color="white"/>
<stop offset="1" stop-color="white" stop-opacity="0"/>
</radialGradient>
<radialGradient id="paint20_radial_2135_81013" cx="0" cy="0" r="1" gradientUnits="userSpaceOnUse" gradientTransform="translate(15.0343 7.31374) rotate(-16.6196) scale(1.06444 0.66125)">
<stop stop-color="white"/>
<stop offset="1" stop-color="white" stop-opacity="0"/>
</radialGradient>
<linearGradient id="paint21_linear_2135_81013" x1="11.97" y1="13.5358" x2="15.9129" y2="6.23881" gradientUnits="userSpaceOnUse">
<stop stop-color="#860805"/>
<stop offset="1" stop-color="#BD2719" stop-opacity="0"/>
</linearGradient>
</defs>
</svg>
