<svg width="20" height="20" viewBox="0 0 20 20" fill="none" xmlns="http://www.w3.org/2000/svg">
<path d="M10.9757 2.5H7.49935C5.928 2.5 5.14233 2.5 4.65417 2.98816C4.16602 3.47631 4.16602 4.26198 4.16602 5.83333V14.1667C4.16602 15.738 4.16602 16.5237 4.65417 17.0118C5.14233 17.5 5.928 17.5 7.49935 17.5H12.4993C14.0707 17.5 14.8564 17.5 15.3445 17.0118C15.8327 16.5237 15.8327 15.738 15.8327 14.1667V7.35702C15.8327 7.0164 15.8327 6.84608 15.7692 6.69294C15.7058 6.5398 15.5854 6.41937 15.3445 6.17851L12.1542 2.98816C11.9133 2.7473 11.7929 2.62687 11.6397 2.56343C11.4866 2.5 11.3163 2.5 10.9757 2.5Z" stroke="#32363E" stroke-width="1.5"/>
<path d="M11.5461 11.7342L8.89392 10.5976C8.23405 10.3148 7.5 10.7988 7.5 11.5167V13.4836C7.5 14.2015 8.23405 14.6856 8.89392 14.4028L11.5461 13.2661C12.2195 12.9775 12.2195 12.0228 11.5461 11.7342Z" stroke="#32363E" stroke-width="1.5" stroke-linecap="round" stroke-linejoin="round"/>
<path d="M10.834 2.5V5.83333C10.834 6.61901 10.834 7.01184 11.0781 7.25592C11.3221 7.5 11.715 7.5 12.5007 7.5H15.834" stroke="#32363E" stroke-width="1.5"/>
</svg>
