<svg width="48" height="48" viewBox="0 0 48 48" fill="none" xmlns="http://www.w3.org/2000/svg">
<g clip-path="url(#clip0_549_34555)">
<rect width="48" height="48" rx="8" fill="#E1FFEE"/>
<g clip-path="url(#clip1_549_34555)">
<path d="M21.0004 31.5999C21.9004 31.5999 22.6004 30.8999 22.6004 29.9999V27.3999H19.4004V29.9999C19.4004 30.8999 20.1004 31.5999 21.0004 31.5999Z" fill="#FF9900"/>
<g clip-path="url(#clip2_549_34555)">
<path d="M10 23.5856L12.5031 21.0825V23.5856H10Z" fill="#135431"/>
<path d="M37.9992 23.5856L35.4961 21.0825V23.5856H37.9992Z" fill="#135431"/>
<path d="M29.834 10H13.8133C12.9961 10 12.334 10.6527 12.334 11.4583V36.5417C12.334 37.3472 12.9961 38 13.8133 38H34.188C35.0052 38 35.6673 37.3472 35.6673 36.5417V15.8333L29.834 10Z" fill="#35BD73"/>
<path d="M29.834 10L35.6673 15.8333H29.834V10Z" fill="white"/>
<path d="M10 23.5859H38V34.0859H10V23.5859Z" fill="#229456"/>
<path d="M35.6673 15.8335V21.6668L29.834 15.8335H35.6673Z" fill="#1B9754"/>
<path d="M22.219 15.6401H15.2493C14.9272 15.6401 14.666 15.9013 14.666 16.2235C14.666 16.5456 14.9272 16.8068 15.2493 16.8068H22.219C22.5412 16.8068 22.8023 16.5456 22.8023 16.2235C22.8023 15.9013 22.5412 15.6401 22.219 15.6401Z" fill="#D9FFEB"/>
<path d="M27.4993 17.8633H15.2493C14.9272 17.8633 14.666 18.1244 14.666 18.4466C14.666 18.7688 14.9272 19.0299 15.2493 19.0299H27.4993C27.8215 19.0299 28.0827 18.7688 28.0827 18.4466C28.0827 18.1244 27.8215 17.8633 27.4993 17.8633Z" fill="#D9FFEB"/>
<path d="M27.4993 20.0859H15.2493C14.9272 20.0859 14.666 20.3471 14.666 20.6693C14.666 20.9914 14.9272 21.2526 15.2493 21.2526H27.4993C27.8215 21.2526 28.0827 20.9914 28.0827 20.6693C28.0827 20.3471 27.8215 20.0859 27.4993 20.0859Z" fill="#D9FFEB"/>
<path d="M15.5926 27.8305L16.5737 25.8354H18.2269L16.5492 28.8116L18.2724 31.8374H16.6029L15.5931 29.805L14.5834 31.8374H12.918L14.6371 28.8116L12.9635 25.8354H14.6126L15.5937 27.8305H15.5926Z" fill="white"/>
<path d="M20.1894 30.7245H22.7083V31.8375H18.7422V25.835H20.1894V30.7245Z" fill="white"/>
<path d="M26.4142 30.2419C26.4142 30.0301 26.3396 29.8656 26.1897 29.7472C26.0397 29.6294 25.7767 29.5069 25.4004 29.3803C25.0236 29.2537 24.7162 29.1318 24.477 29.0134C23.6994 28.6313 23.3103 28.1063 23.3103 27.4384C23.3103 27.1059 23.4072 26.8125 23.6008 26.5581C23.7945 26.3038 24.0687 26.106 24.4233 25.9643C24.778 25.8225 25.1764 25.752 25.6186 25.752C26.0607 25.752 26.437 25.829 26.7788 25.983C27.1212 26.137 27.3867 26.3563 27.5762 26.6404C27.7658 26.9245 27.8609 27.25 27.8609 27.6151H26.4183C26.4183 27.3707 26.3437 27.1811 26.1937 27.0464C26.0438 26.9116 25.8414 26.8445 25.5859 26.8445C25.3304 26.8445 25.1233 26.9017 24.974 27.0155C24.8241 27.1298 24.7494 27.2745 24.7494 27.4506C24.7494 27.6046 24.8317 27.744 24.9967 27.8689C25.1618 27.9937 25.4517 28.1232 25.8665 28.2562C26.2812 28.3898 26.6225 28.5333 26.8891 28.6873C27.5377 29.0612 27.8621 29.5763 27.8621 30.2331C27.8621 30.7581 27.6643 31.1705 27.2682 31.4698C26.8727 31.7696 26.3297 31.919 25.6396 31.919C25.1531 31.919 24.7127 31.832 24.3183 31.657C23.924 31.4826 23.6271 31.2435 23.4276 30.9395C23.2281 30.6356 23.1289 30.2862 23.1289 29.8901H24.5802C24.5802 30.2115 24.6631 30.449 24.8299 30.6012C24.9962 30.7535 25.2662 30.8299 25.6402 30.8299C25.8793 30.8299 26.0683 30.7785 26.2072 30.6753C26.346 30.572 26.4154 30.4274 26.4154 30.2401L26.4142 30.2419Z" fill="white"/>
<path d="M30.5032 25.8354L31.8431 30.0115L33.179 25.8354H35.0836V31.8379H33.6322V30.4362L33.7722 27.5668L32.3209 31.8379H31.3642L29.9088 27.5627L30.0488 30.4362V31.8379H28.6016V25.8354H30.5021H30.5032Z" fill="white"/>
</g>
</g>
</g>
<defs>
<clipPath id="clip0_549_34555">
<rect width="48" height="48" rx="8" fill="white"/>
</clipPath>
<clipPath id="clip1_549_34555">
<rect width="36" height="36" fill="white" transform="translate(6 6)"/>
</clipPath>
<clipPath id="clip2_549_34555">
<rect width="28" height="28" fill="white" transform="translate(10 10)"/>
</clipPath>
</defs>
</svg>
